<svg id="Layer_3" data-name="Layer 3" xmlns="http://www.w3.org/2000/svg" viewBox="0 0 1920 376.95"><defs><style>.cls-1{fill:#221e1f;opacity:0.1;}.cls-2{fill:#66635a;}.cls-3{fill:#ce6545;}.cls-4{fill:#e27d6c;}.cls-5{fill:#f3c262;
    pointer-events:none;}.cls-6{fill:#fff;
  pointer-events:none;
  }.cls-7{fill:#eff0ea;}.cls-8,.cls-9{fill:none;}.cls-8{stroke:#eff0ea;stroke-miterlimit:10;stroke-width:1.5px;}
#menu1,#menu2,#menu3:hover{
  cursor:pointer;
  pointer-events:all;
}

</style></defs><title>coming_down2</title><text x="-3691.51" y="-1426.35"/><g id="mouse_over_pop_up" data-name="mouse over pop up"><path class="cls-1" d="M4674.75,1740.31v-18.6h-7.41v18.57A31.62,31.62,0,1,0,4674.75,1740.31Zm-3.81,48.16a16.78,16.78,0,1,1,16.79-16.78A16.8,16.8,0,0,1,4670.94,1788.47Z" transform="translate(-3691.51 -1426.35)"/><rect class="cls-2" x="955.79" y="295.36" width="7.41" height="25.77"/><path class="cls-3" d="M4650.9,1803.3a31.61,31.61,0,1,1,31.61-31.61A31.65,31.65,0,0,1,4650.9,1803.3Zm0-48.4a16.78,16.78,0,1,0,16.78,16.79A16.8,16.8,0,0,0,4650.9,1754.9Z" transform="translate(-3691.51 -1426.35)"/><path class="cls-4" d="M4628.76,1759.66a1.85,1.85,0,0,1-1.63-2.73c0.18-.34,4.61-8.46,12.34-11a1.85,1.85,0,1,1,1.14,3.53c-6.32,2-10.17,9.11-10.21,9.18A1.85,1.85,0,0,1,4628.76,1759.66Z" transform="translate(-3691.51 -1426.35)"/><path class="cls-2" d="M4438.79,1728.62h422.66a12,12,0,0,0,11.81-9.9H4427A12,12,0,0,0,4438.79,1728.62Z" transform="translate(-3691.51 -1426.35)"/></g><g id="background"><rect  class="cls-5" width="1920" height="291.82"/></g><rect id="menu1" class="cls-5" x="1407.67" y="53.67" width="106.67" height="26.67"/><path class="cls-6" d="M5110.62,1488.58c0,3.53,1.8,7,4.7,8.31l-1.28,1.74a9.35,9.35,0,0,1-4.49-5.69,9.8,9.8,0,0,1-4.55,6l-1.37-1.72c3-1.45,4.81-5.1,4.81-8.65v-3.13h2.18v3.13Zm8.88-4.7v19h-2.18v-11h-4.05v-1.76h4.05v-6.24h2.18Z" transform="translate(-3691.51 -1426.35)"/><path class="cls-6" d="M5126.23,1485.47v4.83H5131v-4.83h2.16v12.93h-9.11v-12.93h2.14Zm0,11.19H5131V1492h-4.81v4.64Zm12.45-12.77v19h-2.18v-19h2.18Z" transform="translate(-3691.51 -1426.35)"/><path class="cls-6" d="M5159.57,1498.66v1.78H5142.4v-1.78h17.17Zm-1.68-3.7a7.3,7.3,0,0,0-14,0l-0.92-1.78c3.74-.69,6.78-3.61,6.78-6.61v-1.43h2.29v1.43c0,3,3,5.94,6.78,6.61Z" transform="translate(-3691.51 -1426.35)"/><path class="cls-6" d="M5167,1494.67a4.75,4.75,0,1,1,5.06-4.75A4.76,4.76,0,0,1,5167,1494.67Zm0-1.87a2.87,2.87,0,1,0-2.92-2.88A2.8,2.8,0,0,0,5167,1492.8Zm-0.29,8h10.58v1.76h-12.77v-6.13h2.18v4.37Zm12.51-11.21v1.78h-2.69v6.49h-2.16v-13.9h2.16v5.63h2.69Z" transform="translate(-3691.51 -1426.35)"/><path class="cls-6" d="M5184,1496.24a35.21,35.21,0,0,0,5.56-.57l0.23,1.85a36.43,36.43,0,0,1-6.7.57h-1.26v-12H5184v10.14Zm13.12-12.32v19h-2.06v-9.64h-2.25v8.69h-2v-17.64h2v7.16h2.25v-7.54h2.06Z" transform="translate(-3691.51 -1426.35)"/><rect class="cls-7" x="1559.25" y="57.01" width="1.5" height="18.99"/><line class="cls-8" x1="1735" y1="57.01" x2="1735" y2="76"/><path class="cls-6" d="M5312.26,1492c0,4.12-2.06,6.7-4.89,6.7s-4.87-2.58-4.87-6.7,2.06-6.68,4.87-6.68S5312.26,1487.91,5312.26,1492Zm-7.69,0c0,3,1.16,4.77,2.79,4.77s2.81-1.78,2.81-4.77-1.16-4.72-2.81-4.72S5304.57,1489,5304.57,1492Zm12.89-8.08v19h-2.18v-19h2.18Z" transform="translate(-3691.51 -1426.35)"/><path class="cls-6" d="M5338.32,1493.13v1.72h-17.15v-1.72h4.07v-2.52a3.13,3.13,0,0,1-2.25-2.81c0-2.23,2.6-3.57,6.76-3.57s6.76,1.34,6.76,3.57c0,1.24-.84,2.2-2.29,2.83v2.5h4.1Zm-2.08,6.34c0,2.18-2.44,3.4-6.53,3.4s-6.53-1.22-6.53-3.4,2.46-3.4,6.53-3.4S5336.24,1497.31,5336.24,1499.47Zm-11-11.67c0,1.22,1.7,1.91,4.54,1.91s4.51-.69,4.51-1.91-1.7-1.89-4.51-1.89S5325.22,1486.58,5325.22,1487.8Zm8.84,11.67c0-1.13-1.57-1.74-4.35-1.74s-4.32.61-4.32,1.74,1.55,1.74,4.32,1.74S5334.06,1500.63,5334.06,1499.47Zm-6.65-6.34h4.66v-1.93a15.47,15.47,0,0,1-2.31.17,16.06,16.06,0,0,1-2.35-.17v1.93Z" transform="translate(-3691.51 -1426.35)"/><path class="cls-6" d="M5350.1,1493.93h-8.95v-8.82h2.16v2.62H5348v-2.62h2.14v8.82Zm5.42,5.35c0,2.27-2.41,3.61-6.32,3.61s-6.32-1.34-6.32-3.61,2.41-3.61,6.32-3.61S5355.52,1497,5355.52,1499.29Zm-7.56-9.85h-4.64v2.77H5348v-2.77Zm5.42,9.85c0-1.22-1.53-1.89-4.18-1.89s-4.18.67-4.18,1.89,1.53,1.91,4.18,1.91S5353.38,1500.52,5353.38,1499.29Zm4.62-10.75v1.78h-2.69v4.91h-2.16v-11.32h2.16v4.62H5358Z" transform="translate(-3691.51 -1426.35)"/><path class="cls-6" d="M5375.53,1483.92v10.39h-2.16v-4.12h-3.95v3.46h-8.73v-8.8h2.14v2.69h4.47v-2.67h2.12v3.55h3.95v-4.54Zm-8.23,5.31h-4.47v2.67h4.47v-2.67Zm6.07,5.94h2.16v7.45h-12.32v-7.45h2.14v2h8v-2Zm0,3.72h-8v2h8v-2Z" transform="translate(-3691.51 -1426.35)"/><rect id="menu2" class="cls-9" x="1605.67" y="53.67" width="83.8" height="26.67"/><path class="cls-6" d="M5490,1498.61v1.78h-17.13v-1.78h6.38v-6.68h2.18v6.68H5490Zm-4-11.17h-11.32v-1.76h13.5v1.87a43.45,43.45,0,0,1-.73,8.9l-2.18-.23a40.84,40.84,0,0,0,.73-8.67v-0.11Z" transform="translate(-3691.51 -1426.35)"/><path class="cls-6" d="M5500.43,1485.28c0,4.66-2.37,8-7.24,9.93l-1-1.55c3.74-1.47,5.69-3.72,6-6.63H5493v-1.74h7.43Zm-5.08,10.62h12.89v7h-2.16v-5.25h-10.73v-1.74Zm12.89-12V1495h-2.06v-4.77h-2.1V1495h-2v-10.69h2v4.24h2.1v-4.6h2.06Z" transform="translate(-3691.51 -1426.35)"/><path class="cls-6" d="M5519.62,1495a6.55,6.55,0,0,1-3.36-3.63,7.34,7.34,0,0,1-3.65,4.12l-1.2-1.64a6.76,6.76,0,0,0,3.78-6v-2.65h2.1v2.65a6,6,0,0,0,3.51,5.54Zm8.46,5.71v1.76H5515v-6.07h2.18v4.3h10.88Zm-6.3-10.48h-2.67v-1.78h2.67v-4.22h2v13.31h-2v-7.31Zm5.78,7.85h-2.06v-14.21h2.06v14.21Z" transform="translate(-3691.51 -1426.35)"/><path class="cls-6" d="M5533.84,1496.7a45,45,0,0,0,7.66-.55l0.19,1.74a45.76,45.76,0,0,1-8.52.57h-1.49v-12.91h8.8v1.78h-6.63v3.55h5.86v1.72h-5.86v4.09Zm12.74-12.83v19h-2.18v-10.27h-3.63v-1.78h3.63v-7h2.18Z" transform="translate(-3691.51 -1426.35)"/><rect id="menu3" class="cls-9" x="1775.33" y="53.67" width="86.59" height="26.67"/><rect id="logo" class="cls-9" x="875" y="53.67" width="171" height="187.33"/><path class="cls-2" d="M4601.12,1494a37.82,37.82,0,0,1-4.09,7.09,60.6,60.6,0,0,1-5.47,6.54,73.69,73.69,0,0,1-6,5.55,65.21,65.21,0,0,1-5.63,4.22,1.71,1.71,0,0,1-1,.29,0.84,0.84,0,0,1-.65-0.29,0.74,0.74,0,0,1-.11-0.68,1.6,1.6,0,0,1,.68-0.83q2.35-1.72,5-4.09a73.14,73.14,0,0,0,5.24-5.18,66.31,66.31,0,0,0,4.87-6,45.79,45.79,0,0,0,4-6.57c-0.52.07-1.17,0.17-2,.31l-2.5.41-2.63.44c-0.87.16-1.63,0.31-2.29,0.44a6.12,6.12,0,0,0-1.67.55,5.85,5.85,0,0,1-1.77.55,6,6,0,0,1-2.63-.18,15.43,15.43,0,0,1-2.48-.91,0.67,0.67,0,0,1-.52-0.89,1,1,0,0,1,1-.57q1.51-.05,2.76-0.13t2.87-.23l2.45-.29q1.46-.18,2.87-0.39l2.48-.39a11.56,11.56,0,0,0,1.38-.29,20,20,0,0,0,2.32-.75,6.27,6.27,0,0,1,2.53-.34,1,1,0,0,1,.63.24,1.41,1.41,0,0,1,.47.62,1.91,1.91,0,0,1,.13.83A1.87,1.87,0,0,1,4601.12,1494Zm10.37,36.33-17.57,2.5a2.17,2.17,0,0,1-.42,1.3,0.79,0.79,0,0,1-.76.34,1.2,1.2,0,0,1-.73-0.65,3.57,3.57,0,0,1-.39-1.61l-0.42-9.91a2.46,2.46,0,0,0-2.19-2.61,0.48,0.48,0,0,1-.37-0.29,1.23,1.23,0,0,1-.11-0.52,0.81,0.81,0,0,1,.16-0.49,0.56,0.56,0,0,1,.47-0.21q1,0,2.32-.05a21.61,21.61,0,0,1,2.58.05c0.45,0,1.08-.11,1.88-0.21l2.61-.37,2.89-.44,2.74-.44,2.11-.36,1.07-.21a7.12,7.12,0,0,0,1.22-.39,9.17,9.17,0,0,1,1.1-.39,11.13,11.13,0,0,1,1.15-.26,5.76,5.76,0,0,1,1.38-.05,0.81,0.81,0,0,1,.73.39,1.37,1.37,0,0,1,.1.76,2.32,2.32,0,0,1-.26.81,1.67,1.67,0,0,1-.42.55q-0.1.73-.26,2.06t-0.31,2.81l-0.31,2.95c-0.1,1-.19,1.82-0.26,2.55a2,2,0,0,1,1.36.29,1,1,0,0,1,.42.78,1.18,1.18,0,0,1-.39.83A1.93,1.93,0,0,1,4611.49,1530.33Zm-17.46.47,11.26-1.56a12.51,12.51,0,0,0,2-.42c0.55-.17,1.16-0.35,1.82-0.52l0.26-10.27-4.3.57-4.38.63q-2.11.31-3.86,0.6l-2.74.44v7.22Q4594.08,1529.29,4594,1530.8Zm18.56-22.83a7,7,0,0,1-.44,2.71,2.84,2.84,0,0,1-1,1.36,0.71,0.71,0,0,1-1-.16,2.82,2.82,0,0,1-.44-1.87v-22.05a2,2,0,0,0-1-.86c-0.56-.26-1.13-0.51-1.72-0.75s-1.13-.48-1.62-0.71a1,1,0,0,1-.73-0.65,0.7,0.7,0,0,1,.57-0.62,4.34,4.34,0,0,1,1.62-.16,14.3,14.3,0,0,1,1.67.1q0.89,0.1,1.7.26t1.43,0.34a4.14,4.14,0,0,1,.88.34,0.89,0.89,0,0,1,.23,1,5,5,0,0,0-.18,1.28V1508Z" transform="translate(-3691.51 -1426.35)"/><path class="cls-2" d="M4592.87,1535.35l-0.3,0a2,2,0,0,1-1.3-1.06,4.33,4.33,0,0,1-.51-2l-0.42-9.91a1.63,1.63,0,0,0-1.47-1.79,1.34,1.34,0,0,1-1-.79,2.12,2.12,0,0,1-.18-0.87,1.68,1.68,0,0,1,.33-1,1.41,1.41,0,0,1,1.16-.56q1,0,2.29-.05a21.75,21.75,0,0,1,2.68.06l1.7-.21,2.59-.36,2.88-.44,2.73-.44,2.1-.36,1-.19a6.33,6.33,0,0,0,1.1-.35,10,10,0,0,1,1.2-.43,11.46,11.46,0,0,1,1.24-.28,6.72,6.72,0,0,1,1.59-.07,1.63,1.63,0,0,1,1.46.89,2.24,2.24,0,0,1,.18,1.22,3.31,3.31,0,0,1-.72,1.66c-0.06.45-.13,1-0.22,1.75-0.1.88-.21,1.81-0.31,2.8l-0.31,2.95q-0.1.89-.17,1.65a2.15,2.15,0,0,1,1,.43,1.82,1.82,0,0,1,.74,1.45,2,2,0,0,1-.64,1.45,2.79,2.79,0,0,1-1.61.74l-16.93,2.41a2.5,2.5,0,0,1-.53,1.11A1.69,1.69,0,0,1,4592.87,1535.35Zm-2.95-16.31a3.33,3.33,0,0,1,2.15,3.22l0.42,9.91a2.67,2.67,0,0,0,.27,1.21l0.1,0.15a1.44,1.44,0,0,0,.19-0.75l0-.71,18.27-2.6a1.12,1.12,0,0,0,.63-0.25,0.42,0.42,0,0,0,.14-0.22,0.75,0.75,0,0,0-.67-0.21l-1.2.06,0.1-1q0.11-1.1.26-2.56l0.31-2.95q0.16-1.49.31-2.82t0.26-2.08l0.05-.35,0.28-.21h0a1.11,1.11,0,0,0,.17-0.26,1.49,1.49,0,0,0,.17-0.51,0.62,0.62,0,0,0,0-.16,3.1,3.1,0,0,0-1.21,0,9.72,9.72,0,0,0-1.06.24,8.25,8.25,0,0,0-1,.35,7.9,7.9,0,0,1-1.37.44l-1.11.22-2.12.37-2.74.44-2.9.45-2.62.37c-0.82.1-1.46,0.18-1.92,0.21a23.78,23.78,0,0,0-2.61,0Zm3.2,12.76,0-1q0-1.5,0-3.28v-8l0.73-.12,2.73-.44q1.75-.29,3.87-0.6l4.39-.63,4.31-.58,1-.13-0.3,11.93-0.63.17c-0.65.17-1.24,0.34-1.79,0.51a13.31,13.31,0,0,1-2.12.45Zm1.82-10.79v6.48q0,1.22,0,2.31l10.25-1.42a12,12,0,0,0,1.84-.39l1.23-.36,0.22-8.61-3.29.44-4.37.62q-2.11.31-3.84,0.6Zm-15.89-2.45h-0.12a1.67,1.67,0,0,1-1.28-.61,1.57,1.57,0,0,1-.27-1.43,2.43,2.43,0,0,1,1-1.32c1.54-1.13,3.2-2.49,4.93-4a72.49,72.49,0,0,0,5.18-5.12,65.53,65.53,0,0,0,4.81-5.92,45.48,45.48,0,0,0,3.11-4.94l-0.25,0-2.52.42-2.61.44q-1.29.23-2.27,0.44a5.39,5.39,0,0,0-1.48.48,6.77,6.77,0,0,1-2,.62,7,7,0,0,1-3-.21,16.58,16.58,0,0,1-2.61-1,1.49,1.49,0,0,1-1-2,1.78,1.78,0,0,1,1.86-1.14c1,0,1.88-.08,2.71-0.13s1.77-.13,2.84-0.23l2.43-.28c1-.12,1.91-0.25,2.85-0.39s1.75-.27,2.46-0.39a11,11,0,0,0,1.25-.25,19.73,19.73,0,0,0,2.27-.74,6.65,6.65,0,0,1,2.5-.41h0.38a1.87,1.87,0,0,1,1.11.41,2.27,2.27,0,0,1,.76,1,2.8,2.8,0,0,1,.19,1.2,2.71,2.71,0,0,1-.48,1.34,37.7,37.7,0,0,1-4.11,7.12,61.56,61.56,0,0,1-5.55,6.64,75.13,75.13,0,0,1-6,5.62,66.77,66.77,0,0,1-5.71,4.28A2.65,2.65,0,0,1,4579.06,1518.56Zm20.43-25.58-0.72,1.46a46.94,46.94,0,0,1-4,6.69,67.73,67.73,0,0,1-4.94,6.07,74.3,74.3,0,0,1-5.3,5.25c-1.77,1.58-3.48,3-5.07,4.15a1.63,1.63,0,0,0-.26.22,1.36,1.36,0,0,0,.34-0.15,66.33,66.33,0,0,0,5.52-4.15,73,73,0,0,0,5.9-5.49,59.79,59.79,0,0,0,5.4-6.45,37.11,37.11,0,0,0,4-6.93,1.41,1.41,0,0,0,.27-0.62,1,1,0,0,0-.07-0.46,0.57,0.57,0,0,0-.18-0.25l-0.46-.07a5,5,0,0,0-1.85.28,21.28,21.28,0,0,1-2.42.79,11.31,11.31,0,0,1-1.46.3q-1.08.18-2.5,0.39t-2.89.39l-2.47.29c-1.1.11-2.06,0.19-2.91,0.24s-1.63.09-2.56,0.13a15.51,15.51,0,0,0,1.94.68,5.25,5.25,0,0,0,3.8-.32,6.89,6.89,0,0,1,1.91-.62c0.61-.13,1.39-0.28,2.26-0.44l2.65-.45,2.49-.41q1.2-.21,2-0.32Zm11.29,20a1.61,1.61,0,0,1-1.19-.56,3.48,3.48,0,0,1-.68-2.47v-21.79a2,2,0,0,0-.54-0.34q-0.82-.38-1.68-0.74t-1.65-.72a1.8,1.8,0,0,1-1.23-1.44,1.52,1.52,0,0,1,1.15-1.44,5,5,0,0,1,2-.21c0.46,0,1.1,0,1.73.11s1.2,0.16,1.75.27,1.08,0.23,1.52.36a4.89,4.89,0,0,1,1.09.43,1.71,1.71,0,0,1,.63,2,4.3,4.3,0,0,0-.15,1.06V1508a7.76,7.76,0,0,1-.51,3,3.58,3.58,0,0,1-1.31,1.76A1.64,1.64,0,0,1,4610.77,1513Zm-4.55-28,1.11,0.48c0.6,0.25,1.19.5,1.76,0.77a2.77,2.77,0,0,1,1.46,1.29l0.08,0.35V1510a2.91,2.91,0,0,0,.17,1.23,2.62,2.62,0,0,0,.54-0.89,6.22,6.22,0,0,0,.38-2.37v-20.43a6,6,0,0,1,.21-1.5,0.6,0.6,0,0,0,0-.12,5.47,5.47,0,0,0-.55-0.19c-0.39-.12-0.85-0.22-1.36-0.32s-1.06-.19-1.63-0.25a13.44,13.44,0,0,0-1.57-.1h-0.63Z" transform="translate(-3691.51 -1426.35)"/><path class="cls-2" d="M4647.61,1497.18a13.29,13.29,0,0,1-1.12,4.56,48.06,48.06,0,0,1-3,6.12l4,2.87a8.35,8.35,0,0,0,1.61.94c0.56,0.24,1.11.51,1.64,0.81a9.32,9.32,0,0,1,1.59,1.12,8.32,8.32,0,0,1,1.51,1.82,2.67,2.67,0,0,1,.44,1.54,2.57,2.57,0,0,1-.34,1.3,1.19,1.19,0,0,1-.86.58,1.3,1.3,0,0,1-1.12-.6q-0.37-.42-1.54-1.46l-2.63-2.35q-1.46-1.3-2.95-2.58t-2.47-2.16a67.36,67.36,0,0,1-5.21,7.35,45.31,45.31,0,0,1-6.1,6.26,1.64,1.64,0,0,1-.88.39,0.86,0.86,0,0,1-.65-0.18,0.68,0.68,0,0,1-.21-0.6,1.43,1.43,0,0,1,.49-0.86,61,61,0,0,0,5.13-5.74,62.08,62.08,0,0,0,4.41-6.3,43,43,0,0,0,3.13-6.15,16.39,16.39,0,0,0,1.3-5.27,2.47,2.47,0,0,0-.68-1,14,14,0,0,0-1.1-.94,13.22,13.22,0,0,1-1-.86,1,1,0,0,1-.39-0.78,1,1,0,0,1,.78-0.63,3.07,3.07,0,0,1,1.67.05,13,13,0,0,1,1.54.44,10.9,10.9,0,0,1,1.49.65,5.21,5.21,0,0,1,1.12.78A1.17,1.17,0,0,1,4647.61,1497.18Zm17.62,31.17a7,7,0,0,1-.44,2.71,2.8,2.8,0,0,1-1,1.35,0.69,0.69,0,0,1-1-.18,2.93,2.93,0,0,1-.44-1.9v-41.86a2.14,2.14,0,0,0-1-.81q-0.83-.39-1.72-0.76c-0.59-.24-1.13-0.49-1.62-0.73a1.06,1.06,0,0,1-.73-0.68,0.7,0.7,0,0,1,.57-0.63,4.32,4.32,0,0,1,1.62-.16c0.52,0,1.07.09,1.67,0.16s1.15,0.16,1.7.26,1,0.22,1.43.34a4.35,4.35,0,0,1,.89.34,0.88,0.88,0,0,1,.23,1,5.14,5.14,0,0,0-.18,1.28v17.25l1.62-.21a4.85,4.85,0,0,0,1.44-.42c0.33-.17.68-0.35,1.07-0.52a6,6,0,0,1,1.49-.42,14.57,14.57,0,0,1,2.68-.1,1.86,1.86,0,0,1,1.2.34,1,1,0,0,1,.42.78,1.09,1.09,0,0,1-.39.81,2.09,2.09,0,0,1-1.17.47l-8.34,1.2v21.06Z" transform="translate(-3691.51 -1426.35)"/><path class="cls-2" d="M4663.43,1533.4a1.61,1.61,0,0,1-1.22-.59,3.62,3.62,0,0,1-.66-2.48v-41.56a2.83,2.83,0,0,0-.54-0.32c-0.55-.26-1.11-0.5-1.69-0.74s-1.17-.5-1.67-0.75a1.83,1.83,0,0,1-1.21-1.45,1.52,1.52,0,0,1,1.15-1.44,5,5,0,0,1,2-.21c0.55,0,1.12.09,1.72,0.16s1.2,0.16,1.76.27,1.07,0.23,1.51.36a4.81,4.81,0,0,1,1.08.43,1.71,1.71,0,0,1,.64,2,4.21,4.21,0,0,0-.16,1.06v16.27l0.64-.08a4,4,0,0,0,1.14-.32c0.34-.18.71-0.36,1.12-0.54a7,7,0,0,1,1.69-.48,15.57,15.57,0,0,1,2.86-.11h0a2.66,2.66,0,0,1,1.71.53,1.84,1.84,0,0,1,.74,1.45,1.94,1.94,0,0,1-.67,1.44,2.93,2.93,0,0,1-1.65.69l-7.59,1.09v20.31a7.84,7.84,0,0,1-.51,3,3.64,3.64,0,0,1-1.32,1.76A1.62,1.62,0,0,1,4663.43,1533.4Zm-4.64-47.82c0.37,0.17.77,0.35,1.19,0.52q0.9,0.37,1.76.77a2.86,2.86,0,0,1,1.45,1.2l0.09,0.18v42.06a2.87,2.87,0,0,0,.19,1.27,2.8,2.8,0,0,0,.52-0.88,6.19,6.19,0,0,0,.37-2.37v-21.81l9.08-1.3a1.26,1.26,0,0,0,.7-0.24,0.29,0.29,0,0,0,.12-0.18,1,1,0,0,0-.75-0.25,13.71,13.71,0,0,0-2.54.09,5.34,5.34,0,0,0-1.27.35c-0.37.16-.71,0.34-1,0.5a5.67,5.67,0,0,1-1.69.5l-2.62.34v-18.24a6.13,6.13,0,0,1,.21-1.5,0.51,0.51,0,0,0,0-.12,5.58,5.58,0,0,0-.55-0.19c-0.39-.11-0.84-0.22-1.35-0.32s-1.06-.18-1.63-0.25-1.11-.12-1.62-0.15h-0.65Zm-28.73,39a1.66,1.66,0,0,1-1.14-.4,1.55,1.55,0,0,1-.5-1.31,2.23,2.23,0,0,1,.75-1.41,60.47,60.47,0,0,0,5.07-5.66,61.42,61.42,0,0,0,4.34-6.22,42.13,42.13,0,0,0,3.06-6,16,16,0,0,0,1.23-4.79,2.13,2.13,0,0,0-.4-0.49,13.35,13.35,0,0,0-1-.87c-0.41-.32-0.77-0.62-1.08-0.92a1.73,1.73,0,0,1-.65-1.53,1.8,1.8,0,0,1,1.39-1.33,3.92,3.92,0,0,1,2.14,0,13.18,13.18,0,0,1,1.6.46,11.67,11.67,0,0,1,1.61.7,6.3,6.3,0,0,1,1.31.92,2,2,0,0,1,.71,1.46,14,14,0,0,1-1.18,4.88,47.54,47.54,0,0,1-2.67,5.56L4648,1510a7.48,7.48,0,0,0,1.46.85q0.87,0.38,1.71.84a10,10,0,0,1,1.74,1.23,9,9,0,0,1,1.68,2,3.51,3.51,0,0,1,.58,2,3.42,3.42,0,0,1-.47,1.74,2,2,0,0,1-1.46,1l-0.24,0a2.21,2.21,0,0,1-1.67-.92c-0.14-.16-0.52-0.54-1.45-1.37l-2.63-2.35q-1.45-1.3-2.93-2.57l-1.72-1.49a70.36,70.36,0,0,1-4.73,6.57,46.71,46.71,0,0,1-6.22,6.37,2.53,2.53,0,0,1-1.39.59h-0.14Zm11.55-29.31q0.39,0.37.9,0.76c0.4,0.31.79,0.64,1.16,1a3.29,3.29,0,0,1,.9,1.32l0.05,0.15v0.16a17.31,17.31,0,0,1-1.37,5.55,44,44,0,0,1-3.19,6.28,63.14,63.14,0,0,1-4.47,6.39,62.34,62.34,0,0,1-5.21,5.82l-0.07.07,0.19-.13a44.64,44.64,0,0,0,6-6.12,67.1,67.1,0,0,0,5.14-7.26l0.54-.89,0.77,0.69q1,0.88,2.46,2.15t3,2.59l2.63,2.34a21,21,0,0,1,1.61,1.54,0.88,0.88,0,0,0,.37.31,0.32,0.32,0,0,0,.23-0.18,1.79,1.79,0,0,0,.21-0.87,1.75,1.75,0,0,0-.3-1,7.43,7.43,0,0,0-1.35-1.64,8.33,8.33,0,0,0-1.44-1c-0.51-.28-1-0.54-1.57-0.77a9.18,9.18,0,0,1-1.78-1l-4.59-3.32,0.38-.68a47.68,47.68,0,0,0,2.95-6,12.55,12.55,0,0,0,1.06-4.25,1,1,0,0,0-.17-0.2,4.43,4.43,0,0,0-.94-0.65,9.9,9.9,0,0,0-1.36-.6,11.23,11.23,0,0,0-1.43-.41A2.29,2.29,0,0,0,4641.62,1495.24Z" transform="translate(-3691.51 -1426.35)"/><path class="cls-2" d="M4700,1516.62a7,7,0,0,1-.44,2.71,2.83,2.83,0,0,1-1,1.36,0.7,0.7,0,0,1-1-.18,3,3,0,0,1-.44-1.9v-5.89l-3,.73c-0.91.21-1.7,0.38-2.4,0.52a10.84,10.84,0,0,0-1.56.47,9.32,9.32,0,0,1-1.88.47,6.17,6.17,0,0,1-2.87-.26,21.19,21.19,0,0,1-2.5-1q-0.73-.36-0.5-0.86a0.79,0.79,0,0,1,.76-0.5,31.35,31.35,0,0,0,3.55-.23q2-.23,3.65-0.49,2-.37,5-1t6.2-1.36q3.23-.73,6.46-1.51t5.73-1.56a0.69,0.69,0,0,1,.7.05,0.92,0.92,0,0,1,.29.55,1.16,1.16,0,0,1-.13.7,1.05,1.05,0,0,1-.65.52q-3.08,1-6.8,2.11t-7.17,2v4.59Zm9.54-20.49a9.74,9.74,0,0,1-.6,3.36,8.94,8.94,0,0,1-1.8,3,10.44,10.44,0,0,1-3,2.27,12.84,12.84,0,0,1-4.28,1.25,12.63,12.63,0,0,1-4.22-.08,8.24,8.24,0,0,1-3.18-1.33,6.4,6.4,0,0,1-2-2.35,7.19,7.19,0,0,1,.08-6.36,9.4,9.4,0,0,1,2-2.53,11.84,11.84,0,0,1,2.61-1.8,15.64,15.64,0,0,1,2.68-1.1,0.79,0.79,0,0,0,.52-0.63,0.53,0.53,0,0,0-.18-0.42,2.6,2.6,0,0,0-.41-0.29l-0.45-.26a0.38,0.38,0,0,1-.21-0.34c0-.21.23-0.37,0.71-0.47a4.41,4.41,0,0,1,1.54-.05,3.52,3.52,0,0,1,1.51.55,1.33,1.33,0,0,1,.62,1.28,10.47,10.47,0,0,1,6.1,2A5.42,5.42,0,0,1,4709.54,1496.13Zm-9.23-4.59-0.42.21a1.87,1.87,0,0,1-.47.16,12.53,12.53,0,0,0-4.9,2.66,5.67,5.67,0,0,0-1.77,4.33,4.68,4.68,0,0,0,1.83,4q1.82,1.36,5.26.89a9,9,0,0,0,3.07-.91,8.48,8.48,0,0,0,2.27-1.67,6.76,6.76,0,0,0,1.85-4.61,4.39,4.39,0,0,0-1.72-3.44A8.17,8.17,0,0,0,4700.31,1491.55Zm22.93,37.74-20.69,2.92a4.14,4.14,0,0,1-2.81-.42,2.26,2.26,0,0,1-1.14-2.09v-5.21a1.24,1.24,0,0,0-.86-0.65,11.72,11.72,0,0,0-1.33-.29c-0.45-.07-0.86-0.15-1.23-0.23a0.55,0.55,0,0,1-.55-0.44,0.78,0.78,0,0,1,.42-0.68,4.06,4.06,0,0,1,1.46-.42l1.12-.13c0.47-.05,1-0.09,1.46-0.11a12.4,12.4,0,0,1,1.38,0,2.14,2.14,0,0,1,.88.21,0.76,0.76,0,0,1,.24.91,4,4,0,0,0-.18,1.17v5.58a0.69,0.69,0,0,0,.45.73,1.56,1.56,0,0,0,.76.1l13.5-2a7,7,0,0,0,1.93-.44l1.17-.52a6.62,6.62,0,0,1,1.38-.39,13.32,13.32,0,0,1,2.6-.1,1.88,1.88,0,0,1,1.2.34,1,1,0,0,1,.42.78,1.17,1.17,0,0,1-.39.83A2,2,0,0,1,4723.25,1529.29Zm-5.05-13.92-1.62.37-1.88.42-1.69.37-1.07.21a8.44,8.44,0,0,1-2.19,0,6.52,6.52,0,0,1-1.67-.39,0.73,0.73,0,0,1-.6-0.89,0.8,0.8,0,0,1,.91-0.63,17.5,17.5,0,0,0,1.8-.13c0.79-.09,1.4-0.16,1.85-0.23a6.84,6.84,0,0,0,.92-0.13l1.64-.29,1.9-.34q1-.18,1.7-0.29V1487.9a2,2,0,0,0-1-.86c-0.56-.26-1.13-0.51-1.72-0.76s-1.13-.48-1.62-0.7a1,1,0,0,1-.73-0.65,0.7,0.7,0,0,1,.57-0.63,4.32,4.32,0,0,1,1.62-.16,14.76,14.76,0,0,1,1.67.1q0.89,0.11,1.7.26t1.43,0.34a4.37,4.37,0,0,1,.89.34,0.89,0.89,0,0,1,.23,1,5.19,5.19,0,0,0-.18,1.28v29.82a7,7,0,0,1-.44,2.71,2.82,2.82,0,0,1-1,1.35,0.7,0.7,0,0,1-1-.15,2.85,2.85,0,0,1-.44-1.88v-4Z" transform="translate(-3691.51 -1426.35)"/><path class="cls-2" d="M4701.67,1533.14a4.6,4.6,0,0,1-2.37-.61,3.12,3.12,0,0,1-1.57-2.83v-4.94a0.91,0.91,0,0,0-.23-0.1,10.56,10.56,0,0,0-1.23-.26c-0.48-.07-0.91-0.16-1.29-0.25a1.33,1.33,0,0,1-1.21-1.28,1.63,1.63,0,0,1,.83-1.41,4.65,4.65,0,0,1,1.79-.54l0.44-.05a4,4,0,0,1-.5-2.27v-4.78l-2,.47c-0.91.21-1.72,0.39-2.42,0.53a10.08,10.08,0,0,0-1.43.43,10,10,0,0,1-2.05.51,7,7,0,0,1-3.27-.29,22.77,22.77,0,0,1-2.6-1,1.46,1.46,0,0,1-.9-2,1.65,1.65,0,0,1,1.54-1,30.47,30.47,0,0,0,3.44-.23c1.34-.15,2.55-0.32,3.61-0.49,1.29-.24,2.94-0.57,4.91-1s4-.87,6.19-1.35,4.3-1,6.45-1.51,4-1,5.68-1.55a1.56,1.56,0,0,1,1.53.23,1.77,1.77,0,0,1,.57,1.06,2,2,0,0,1-.21,1.23,1.91,1.91,0,0,1-1.15,1c-2.05.69-4.35,1.41-6.84,2.12q-3.39,1-6.54,1.79v3.92a7.76,7.76,0,0,1-.51,3,5.72,5.72,0,0,1-.54,1l0.72,0a2.91,2.91,0,0,1,1.26.33,1.63,1.63,0,0,1,.62,1.91,3.26,3.26,0,0,0-.14.92v5.53l0.17,0,13.54-2a6,6,0,0,0,1.7-.37l1.19-.53a7.43,7.43,0,0,1,1.56-.45,14,14,0,0,1,2.79-.12h0a2.7,2.7,0,0,1,1.71.53,1.85,1.85,0,0,1,.74,1.46,2,2,0,0,1-.64,1.45,2.84,2.84,0,0,1-1.67.74l-20.69,2.92A6.71,6.71,0,0,1,4701.67,1533.14Zm-5.27-10.47,0.14,0a12,12,0,0,1,1.43.31,2.06,2.06,0,0,1,1.42,1.13l0.08,0.35v5.21a1.4,1.4,0,0,0,.72,1.34,3.31,3.31,0,0,0,2.24.31l20.71-2.92a1.22,1.22,0,0,0,.68-0.25,0.43,0.43,0,0,0,.14-0.22,1,1,0,0,0-.75-0.25,12.4,12.4,0,0,0-2.45.09,5.89,5.89,0,0,0-1.2.34l-1.15.51a7.65,7.65,0,0,1-2.19.52l-13.77,2a2.68,2.68,0,0,1-.88-0.17,1.53,1.53,0,0,1-1-1.54v-5.58a4.86,4.86,0,0,1,.21-1.38l-0.35,0c-0.26,0-.54,0-0.84,0h-0.44c-0.48,0-.95,0-1.39.1l-1.1.13Zm1.65-11.07v7a2.9,2.9,0,0,0,.18,1.27,2.8,2.8,0,0,0,.53-0.88,6.25,6.25,0,0,0,.37-2.37v-5.26l0.65-.17q3.43-.88,7.14-1.95c2.46-.71,4.74-1.41,6.76-2.1a0.32,0.32,0,0,0,.16-0.09l0,0c-1.71.52-3.57,1-5.63,1.53s-4.32,1-6.47,1.51-4.23.94-6.22,1.36-3.65.75-5,1c-1.11.18-2.34,0.34-3.71,0.5-1.07.12-2,.2-2.91,0.23,0.54,0.23,1.14.46,1.78,0.67a5.38,5.38,0,0,0,2.47.22,8.19,8.19,0,0,0,1.69-.42,12.52,12.52,0,0,1,1.69-.5c0.7-.14,1.49-0.31,2.38-0.52s1.9-.45,3-0.72Zm21.14,10.75a1.6,1.6,0,0,1-1.19-.55,3.49,3.49,0,0,1-.68-2.47v-2.88l-2.44.54-1.71.37-1.11.22a9.2,9.2,0,0,1-2.44,0,7.21,7.21,0,0,1-1.89-.45,1.57,1.57,0,0,1-1.12-1.86,1.65,1.65,0,0,1,1.76-1.32,16.86,16.86,0,0,0,1.7-.13c0.77-.08,1.37-0.16,1.82-0.23a6.67,6.67,0,0,0,.89-0.13l1.65-.29,1.89-.34,1-.18v-24.54a2.09,2.09,0,0,0-.54-0.33q-0.82-.39-1.69-0.74c-0.6-.25-1.15-0.49-1.65-0.72a1.8,1.8,0,0,1-1.23-1.44,1.52,1.52,0,0,1,1.14-1.44,5,5,0,0,1,2-.21h0a15.64,15.64,0,0,1,1.7.11c0.62,0.08,1.2.16,1.76,0.27s1.07,0.23,1.51.36a4.86,4.86,0,0,1,1.08.42,1.71,1.71,0,0,1,.63,2,4.39,4.39,0,0,0-.16,1.06v29.82a8,8,0,0,1-.51,3,3.58,3.58,0,0,1-1.32,1.76A1.62,1.62,0,0,1,4719.19,1522.35Zm-0.14-8.07v5a2.85,2.85,0,0,0,.17,1.23,2.62,2.62,0,0,0,.54-0.89,6.29,6.29,0,0,0,.37-2.37v-29.82a6,6,0,0,1,.21-1.5l0-.12c-0.11,0-.28-0.11-0.55-0.19s-0.85-.22-1.36-0.32-1.06-.18-1.63-0.25a13.72,13.72,0,0,0-1.56-.1h-0.63l1.11,0.48c0.61,0.25,1.19.51,1.76,0.77a2.8,2.8,0,0,1,1.47,1.29l0.07,0.35v26.29l-0.74.11c-0.47.07-1,.16-1.65,0.28l-1.92.34-1.62.29a7.58,7.58,0,0,1-1.07.14c-0.33.06-1,.14-1.75,0.23-0.57.06-1.06,0.11-1.45,0.13a7.33,7.33,0,0,0,1,.19,7.68,7.68,0,0,0,2,0l1-.2,1.69-.36Zm-21.21-7.29a11.76,11.76,0,0,1-2.4-.24,9.12,9.12,0,0,1-3.51-1.48,7.28,7.28,0,0,1-2.28-2.66,8,8,0,0,1,.09-7.15,10.25,10.25,0,0,1,2.13-2.76,12.75,12.75,0,0,1,2.8-1.93,17.24,17.24,0,0,1,2.37-1l-0.28-.17a1.24,1.24,0,0,1-.61-1.07,1.41,1.41,0,0,1,1.38-1.32,5.29,5.29,0,0,1,1.84-.06,4.39,4.39,0,0,1,1.87.68,2.18,2.18,0,0,1,.92,1.2,10.72,10.72,0,0,1,5.89,2.1,6.26,6.26,0,0,1,2.34,5,10.64,10.64,0,0,1-.65,3.66,9.92,9.92,0,0,1-2,3.26,11.44,11.44,0,0,1-3.27,2.46,13.82,13.82,0,0,1-4.56,1.34A16.2,16.2,0,0,1,4697.85,1507Zm0.89-18.16a1.39,1.39,0,0,1,.41,1,1.67,1.67,0,0,1-1,1.42,15.83,15.83,0,0,0-2.64,1.08A10.91,10.91,0,0,0,4693,1494a8.5,8.5,0,0,0-1.78,2.3,6.32,6.32,0,0,0-.07,5.56,5.58,5.58,0,0,0,1.74,2,7.42,7.42,0,0,0,2.85,1.18,11.76,11.76,0,0,0,3.93.07,12.1,12.1,0,0,0,4-1.16,9.72,9.72,0,0,0,2.78-2.08,8.24,8.24,0,0,0,1.63-2.69,9,9,0,0,0,.55-3.07,4.55,4.55,0,0,0-1.72-3.69,9.7,9.7,0,0,0-5.6-1.76l-0.86-.06,0.05-.86a0.47,0.47,0,0,0-.24-0.5,2.67,2.67,0,0,0-1.14-.41Zm-0.56,16h0a6.75,6.75,0,0,1-4.12-1.18,5.52,5.52,0,0,1-2.17-4.71,6.52,6.52,0,0,1,2-5,13.43,13.43,0,0,1,5.23-2.85,1.47,1.47,0,0,0,.34-0.1l0.54-.27,0.31,0a9,9,0,0,1,5.52,1.82,5.24,5.24,0,0,1,2,4.1,7.59,7.59,0,0,1-2.09,5.21,9.4,9.4,0,0,1-2.5,1.84,9.83,9.83,0,0,1-3.37,1A13.07,13.07,0,0,1,4698.18,1504.78Zm2.32-12.36-0.22.11a2.7,2.7,0,0,1-.67.23,11.69,11.69,0,0,0-4.48,2.44,4.79,4.79,0,0,0-1.5,3.7,3.84,3.84,0,0,0,1.47,3.32,5.09,5.09,0,0,0,3.08.84h0a11.55,11.55,0,0,0,1.55-.11,8.13,8.13,0,0,0,2.79-.82,7.64,7.64,0,0,0,2-1.49,5.85,5.85,0,0,0,1.62-4,3.55,3.55,0,0,0-1.41-2.78A7.22,7.22,0,0,0,4700.49,1492.43Z" transform="translate(-3691.51 -1426.35)"/><path class="cls-2" d="M4617.28,1582.61q-4.64.57-9.85,1.28t-10,1.41q-4.82.7-8.71,1.3t-5.86,1a11.16,11.16,0,0,0-1.56.47,9.51,9.51,0,0,1-1.88.47,6.16,6.16,0,0,1-2.87-.26,21.93,21.93,0,0,1-2.5-1c-0.49-.24-0.65-0.53-0.5-0.86a0.79,0.79,0,0,1,.76-0.49q1.51,0,3,0t3.13-.23l4.69-.5q2.6-.29,5.39-0.68l5.63-.81q2.84-.41,5.45-0.83t4.79-.81q2.19-.39,3.75-0.71a7.14,7.14,0,0,0,1.74-.5c0.4-.19.8-0.37,1.2-0.52a6.89,6.89,0,0,1,1.48-.36,16.88,16.88,0,0,1,2.66-.08,1.62,1.62,0,0,1,1.2.42,1.25,1.25,0,0,1,.41.89,1.37,1.37,0,0,1-.39.91A1.81,1.81,0,0,1,4617.28,1582.61Zm-7-11.42q-0.62.1-2,.29l-3.26.44-4,.57-4.22.63c-1.39.21-2.71,0.42-4,.63s-2.31.4-3.18,0.57a6.66,6.66,0,0,0-1.56.44,8.36,8.36,0,0,1-1.88.49,6.51,6.51,0,0,1-2.35-.13,10.23,10.23,0,0,1-2.24-.7,0.84,0.84,0,0,1-.47-0.39,0.51,0.51,0,0,1,0-.42,0.88,0.88,0,0,1,.29-0.34,0.76,0.76,0,0,1,.47-0.16c0.59,0,1.36,0,2.32-.11s2-.17,3-0.31l2.81-.39q1.72-.23,3.62-0.52l3.83-.57c1.29-.19,2.43-0.37,3.44-0.55l1.25-9.38a1.7,1.7,0,0,0-.68-0.83,11.45,11.45,0,0,0-1.09-.68,10.48,10.48,0,0,1-1-.63,0.71,0.71,0,0,1-.39-0.68,0.76,0.76,0,0,1,.62-0.6,4.19,4.19,0,0,1,1.62-.08,11.51,11.51,0,0,1,1.22.18q0.65,0.13,1.22.29a6.19,6.19,0,0,1,1,.36,2.4,2.4,0,0,1,.65.42,0.89,0.89,0,0,1,.11,1.09,5.19,5.19,0,0,0-.42,1.25l-2.14,9,0.81-.16,0.44-.05a6.51,6.51,0,0,0,1.22-.52,5.25,5.25,0,0,1,1-.44,8.79,8.79,0,0,1,1.41-.31,17.23,17.23,0,0,1,2.42-.13,1.87,1.87,0,0,1,1.2.34,1,1,0,0,1,.42.78,1.17,1.17,0,0,1-.39.83A2,2,0,0,1,4610.24,1571.2Zm-1-16.27q-0.94.11-3.21,0.42t-5,.73l-5.55.86q-2.79.44-4.77,0.81a11.44,11.44,0,0,0-1.56.47,9.25,9.25,0,0,1-1.88.47,6.79,6.79,0,0,1-2.34-.11,9.54,9.54,0,0,1-2.24-.68c-0.49-.24-0.65-0.53-0.5-0.86a0.79,0.79,0,0,1,.75-0.5q0.89,0,2.32-.1t3-.31l3.94-.55q2.37-.34,4.64-0.7l4.06-.65q1.8-.28,2.22-0.39a8.52,8.52,0,0,0,1.23-.5,6.69,6.69,0,0,1,1-.42,8.54,8.54,0,0,1,1.41-.31,17.24,17.24,0,0,1,2.42-.13,1.87,1.87,0,0,1,1.2.34,1,1,0,0,1,.42.78,1.18,1.18,0,0,1-.39.84A2,2,0,0,1,4609.2,1554.93Zm-16.84,14a2.32,2.32,0,0,1-.44,1.46,1.8,1.8,0,0,1-1,.7,1.15,1.15,0,0,1-1-.24,1.75,1.75,0,0,1-.52-1.36q-0.05-.89-0.21-2.06c-0.1-.78-0.24-1.56-0.42-2.32s-0.37-1.48-.6-2.17a7.44,7.44,0,0,0-.7-1.59,0.61,0.61,0,0,1,.18-1,1.32,1.32,0,0,1,1.38.21,4.47,4.47,0,0,1,1.09,1.28,14.05,14.05,0,0,1,1.07,2.11,18.86,18.86,0,0,1,.83,2.5A9.76,9.76,0,0,1,4592.36,1569Z" transform="translate(-3691.51 -1426.35)"/><path class="cls-2" d="M4578.49,1589.43a7,7,0,0,1-2.25-.37,22.46,22.46,0,0,1-2.6-1,1.48,1.48,0,0,1-.91-2,1.66,1.66,0,0,1,1.54-1c1.06,0,2,0,3,0s2-.13,3.09-0.23l4.68-.49q2.59-.28,5.37-0.68l5.63-.81q2.83-.41,5.43-0.83t4.78-.8c1.45-.26,2.7-0.5,3.74-0.7a6.27,6.27,0,0,0,1.54-.43c0.42-.2.84-0.39,1.26-0.55a7.64,7.64,0,0,1,1.67-.41,16.71,16.71,0,0,1,2.81-.09h0a2.44,2.44,0,0,1,1.79.67,2.09,2.09,0,0,1,.67,1.5,2.21,2.21,0,0,1-.61,1.49,2.66,2.66,0,0,1-1.71.83q-4.65.57-9.85,1.28t-10,1.41q-4.82.7-8.7,1.3t-5.84,1a10,10,0,0,0-1.42.43,10.3,10.3,0,0,1-2.05.51A7.18,7.18,0,0,1,4578.49,1589.43Zm-3.41-2.65c0.52,0.22,1.1.44,1.71,0.64a5.26,5.26,0,0,0,2.47.23,8.56,8.56,0,0,0,1.7-.42,12.17,12.17,0,0,1,1.68-.51c1.35-.25,3.31-0.57,5.91-1s5.5-.84,8.71-1.31,6.57-.94,10-1.41,6.77-.9,9.86-1.28a1,1,0,0,0,.63-0.26,0.57,0.57,0,0,0,.17-0.34,0.5,0.5,0,0,0-.16-0.28,0.84,0.84,0,0,0-.59-0.16,15.54,15.54,0,0,0-2.54.07,6.13,6.13,0,0,0-1.29.31c-0.38.15-.76,0.32-1.15,0.5a7.9,7.9,0,0,1-2,.56c-1,.21-2.29.44-3.76,0.71s-3.07.53-4.81,0.81-3.56.56-5.46,0.83l-5.63.81q-2.8.39-5.42,0.68l-4.7.5c-1.09.1-2.15,0.19-3.17,0.24C4576.58,1586.77,4575.83,1586.79,4575.08,1586.78Zm10.34-10.6a8.61,8.61,0,0,1-1.78-.21,10.74,10.74,0,0,1-2.43-.77,1.61,1.61,0,0,1-.89-0.82,1.35,1.35,0,0,1,0-1.11,1.72,1.72,0,0,1,.56-0.69,1.64,1.64,0,0,1,1-.33c0.57,0,1.32,0,2.25-.1s1.94-.17,3-0.31l2.25-.31a2.59,2.59,0,0,1-.82-2c0-.57-0.1-1.23-0.2-2s-0.23-1.5-.4-2.24-0.36-1.43-.58-2.08a6.78,6.78,0,0,0-.61-1.4,1.63,1.63,0,0,1-.26-1.32,1.44,1.44,0,0,1,.77-0.9,1.87,1.87,0,0,1,.33-0.14l-0.25,0a7.72,7.72,0,0,1-2.64-.11,10.55,10.55,0,0,1-2.45-.74,1.48,1.48,0,0,1-.91-2,1.65,1.65,0,0,1,1.54-1c0.58,0,1.33,0,2.26-.1s1.94-.17,3-0.31l3.92-.55q2.36-.34,4.62-0.7l4.07-.65q1.74-.27,2.14-0.37a7.67,7.67,0,0,0,1-.42,7.69,7.69,0,0,1,1.12-.47,9.67,9.67,0,0,1,1.55-.35,17.77,17.77,0,0,1,2.55-.14,2.7,2.7,0,0,1,1.74.53,1.84,1.84,0,0,1,.74,1.46,2,2,0,0,1-.65,1.45,2.81,2.81,0,0,1-1.67.74c-0.64.07-1.7,0.21-3.2,0.42s-3.14.44-4.95,0.72h0.14a12.21,12.21,0,0,1,1.31.19c0.46,0.09.88,0.19,1.29,0.3a7.26,7.26,0,0,1,1.16.41,3.26,3.26,0,0,1,.89.59,1.75,1.75,0,0,1,.28,2.07,4.5,4.5,0,0,0-.35,1l-1.84,7.72a5.16,5.16,0,0,0,.89-0.39,6,6,0,0,1,1.16-.52,9.43,9.43,0,0,1,1.55-.35,18,18,0,0,1,2.55-.14,2.7,2.7,0,0,1,1.74.53,1.84,1.84,0,0,1,.74,1.46,2,2,0,0,1-.64,1.44,2.81,2.81,0,0,1-1.67.74c-0.4.07-1.09,0.17-2,.29l-3.25.44-4,.57-4.22.63c-1.39.21-2.7,0.41-3.95,0.62s-2.29.39-3.15,0.57a6.13,6.13,0,0,0-1.41.4,9.08,9.08,0,0,1-2.07.55A5.67,5.67,0,0,1,4585.41,1576.18Zm-2.66-2.21c0.37,0.11.79,0.22,1.24,0.31a5.69,5.69,0,0,0,2,.12,7.54,7.54,0,0,0,1.69-.44,7.63,7.63,0,0,1,1.77-.5c0.83-.17,1.9-0.36,3.16-0.57s2.58-.42,4-0.63l4.22-.63,4-.57,3.27-.45q1.39-.18,2-0.28a1.25,1.25,0,0,0,.7-0.25,0.45,0.45,0,0,0,.14-0.22,1,1,0,0,0-.75-0.26,16.71,16.71,0,0,0-2.3.12,7.94,7.94,0,0,0-1.26.28,4.47,4.47,0,0,0-.82.37,7.31,7.31,0,0,1-1.39.6l-0.27,0-0.31,0c-0.21,0-.46.08-0.75,0.15l-1.34.29,2.46-10.3a6.07,6.07,0,0,1,.47-1.41,0.48,0.48,0,0,0,.05-0.17,2,2,0,0,1-.4-0.2,5.45,5.45,0,0,0-.87-0.31c-0.37-.1-0.76-0.19-1.17-0.27a11.27,11.27,0,0,0-1.13-.17,4.87,4.87,0,0,0-1,0c0.21,0.14.41,0.26,0.63,0.37a12.53,12.53,0,0,1,1.18.73,2.53,2.53,0,0,1,1,1.27l0.06,0.19-1.36,10.21-0.63.11q-1.52.26-3.46,0.55l-3.83.57q-1.91.29-3.64,0.52l-2.81.39c-1.11.14-2.14,0.25-3.11,0.32Zm5.37-14.55a2.52,2.52,0,0,1,1.38.47,5.19,5.19,0,0,1,1.35,1.54,15.19,15.19,0,0,1,1.14,2.24,20,20,0,0,1,.87,2.62,10.63,10.63,0,0,1,.37,2.67,3.17,3.17,0,0,1-.62,2l-0.12.15,1-.15,3.83-.57c1-.15,1.95-0.3,2.79-0.44l1.13-8.5a1.26,1.26,0,0,0-.28-0.26,10.34,10.34,0,0,0-1-.63,10.82,10.82,0,0,1-1.1-.68,1.53,1.53,0,0,1-.75-1.51,1.47,1.47,0,0,1,.72-1.07l-3.29.52q-2.78.44-4.75,0.8a10.57,10.57,0,0,0-1.42.43,9.58,9.58,0,0,1-1.42.4h0.15Zm0.25,1.81a9.72,9.72,0,0,1,.62,1.48c0.23,0.71.44,1.45,0.62,2.25s0.32,1.59.43,2.4,0.18,1.51.21,2.12a1.16,1.16,0,0,0,.19.72c0.22,0.17.23,0.09,0.29,0.08a1,1,0,0,0,.5-0.39,1.46,1.46,0,0,0,.26-0.93,8.91,8.91,0,0,0-.31-2.23,18.26,18.26,0,0,0-.79-2.39,13.48,13.48,0,0,0-1-2,3.51,3.51,0,0,0-.86-1Zm-4.68-3.83a10.87,10.87,0,0,0,1.33.33,5.89,5.89,0,0,0,2,.1,8.33,8.33,0,0,0,1.71-.42,12.33,12.33,0,0,1,1.69-.51c1.35-.25,2.95-0.52,4.81-0.82l5.56-.86q2.77-.42,5-0.73t3.23-.42a1.19,1.19,0,0,0,.66-0.25,0.41,0.41,0,0,0,.14-0.22,1,1,0,0,0-.75-0.25,16.4,16.4,0,0,0-2.29.12,7.79,7.79,0,0,0-1.26.28,5.69,5.69,0,0,0-.86.36,9.26,9.26,0,0,1-1.35.55c-0.36.09-1.12,0.23-2.36,0.42l-4.06.65q-2.27.37-4.65,0.71l-3.94.55c-1.1.14-2.13,0.25-3.1,0.32Z" transform="translate(-3691.51 -1426.35)"/><path class="cls-2" d="M4635,1570.57a2.41,2.41,0,0,0-2.19-2.61,0.47,0.47,0,0,1-.36-0.29,1.25,1.25,0,0,1-.11-0.52,0.8,0.8,0,0,1,.16-0.5,0.55,0.55,0,0,1,.47-0.21q1,0,2.32-.1a16,16,0,0,1,2.58,0l7.56-1a20.68,20.68,0,0,0,2.27-.52q1.07-.31,2.27-0.57l0.21-7.24c-0.52.1-1.16,0.22-1.93,0.34s-1.57.26-2.42,0.42l-2.55.44q-1.28.21-2.27,0.42a6,6,0,0,0-1.67.55,6,6,0,0,1-1.77.55,6.91,6.91,0,0,1-2.63-.21,13.8,13.8,0,0,1-2.47-.89,0.73,0.73,0,0,1-.52-0.94,1,1,0,0,1,1-.57q1.51,0,2.76-.08t2.87-.23c0.59,0,1.38-.12,2.37-0.26l3-.44,2.68-.44,1.46-.26c0.45-.14.86-0.28,1.22-0.42l1.09-.39a8.07,8.07,0,0,1,1.15-.29,5.91,5.91,0,0,1,1.38-.05,0.8,0.8,0,0,1,.73.39,1.39,1.39,0,0,1,.11.76,2.41,2.41,0,0,1-.26.81,1.63,1.63,0,0,1-.42.55c-0.07.42-.13,0.93-0.18,1.54s-0.12,1.24-.21,1.9-0.16,1.32-.24,2-0.14,1.25-.21,1.77a1.63,1.63,0,0,1,1.12.42,0.94,0.94,0,0,1,.29.78,1.28,1.28,0,0,1-.44.78,2,2,0,0,1-1.07.47l-14.34,2v7.24a0.69,0.69,0,0,0,.44.73,1.55,1.55,0,0,0,.75.11q2-.32,4.41-0.78t4.85-1.12q2.48-.65,5-1.46c1.67-.54,3.28-1.12,4.85-1.75a0.93,0.93,0,0,1,.83,0,0.7,0.7,0,0,1,.37.52,1.28,1.28,0,0,1-.16.76,1.32,1.32,0,0,1-.68.62q-2.35,1-5,2t-5.19,1.75q-2.58.78-5.05,1.36t-4.56.89a3.82,3.82,0,0,1-2.63-.47,2.29,2.29,0,0,1-1.07-2.08v-6Zm34,21.53-19.65,2.76a4.13,4.13,0,0,1-2.81-.42,2.25,2.25,0,0,1-1.15-2.08v-6.78a1.23,1.23,0,0,0-.86-0.65,11.74,11.74,0,0,0-1.33-.29c-0.45-.07-0.86-0.15-1.23-0.23a0.55,0.55,0,0,1-.55-0.44,0.78,0.78,0,0,1,.42-0.68,4.19,4.19,0,0,1,1.46-.42l1.12-.13q0.7-.08,1.46-0.1a11.84,11.84,0,0,1,1.38,0,2.2,2.2,0,0,1,.89.21,0.76,0.76,0,0,1,.24.91,4,4,0,0,0-.18,1.17v7.14a0.68,0.68,0,0,0,.44.73,1.56,1.56,0,0,0,.76.1l12.46-1.82a9,9,0,0,0,1.93-.47l1.18-.5a6.73,6.73,0,0,1,1.38-.39,13.4,13.4,0,0,1,2.61-.1,1.84,1.84,0,0,1,1.2.34,1,1,0,0,1,.42.78,1.16,1.16,0,0,1-.39.83A2,2,0,0,1,4669,1592.1Zm-2.24-14.08a7,7,0,0,1-.44,2.71,2.82,2.82,0,0,1-1,1.36,0.7,0.7,0,0,1-1-.16,2.84,2.84,0,0,1-.44-1.87v-29.35a2,2,0,0,0-1-.86c-0.56-.26-1.13-0.51-1.72-0.76s-1.13-.49-1.61-0.73a1.05,1.05,0,0,1-.73-0.68,0.7,0.7,0,0,1,.57-0.63,3.82,3.82,0,0,1,1.62-.1,14.74,14.74,0,0,1,1.67.1c0.59,0.07,1.16.16,1.7,0.26s1,0.22,1.43.34a4.31,4.31,0,0,1,.89.34,0.88,0.88,0,0,1,.24,1,5,5,0,0,0-.18,1.28V1578Z" transform="translate(-3691.51 -1426.35)"/><path class="cls-2" d="M4648.5,1595.8a4.58,4.58,0,0,1-2.37-.61,3.11,3.11,0,0,1-1.57-2.83v-6.5a0.9,0.9,0,0,0-.23-0.09,10.53,10.53,0,0,0-1.23-.27c-0.47-.07-0.91-0.16-1.29-0.25a1.32,1.32,0,0,1-1.21-1.29,1.64,1.64,0,0,1,.82-1.41,4.79,4.79,0,0,1,1.79-.54l1.15-.14c0.49-.05,1-0.09,1.53-0.11a12.76,12.76,0,0,1,1.48,0,2.89,2.89,0,0,1,1.26.33,1.63,1.63,0,0,1,.62,1.91,3.15,3.15,0,0,0-.14.92v7.1l0.17,0,12.5-1.83a8.06,8.06,0,0,0,1.72-.41l1.17-.49a7.77,7.77,0,0,1,1.56-.45,13.8,13.8,0,0,1,2.79-.12h0a2.65,2.65,0,0,1,1.72.54,1.81,1.81,0,0,1,.73,1.45,2,2,0,0,1-.64,1.44,2.82,2.82,0,0,1-1.67.74l-19.65,2.76A6.58,6.58,0,0,1,4648.5,1595.8Zm-5.27-12,0.14,0a12.75,12.75,0,0,1,1.43.31,2.07,2.07,0,0,1,1.42,1.13l0.07,0.35v6.78a1.4,1.4,0,0,0,.72,1.34,3.29,3.29,0,0,0,2.24.31l19.67-2.76a1.21,1.21,0,0,0,.68-0.25,0.45,0.45,0,0,0,.14-0.22,1,1,0,0,0-.75-0.25,12.58,12.58,0,0,0-2.45.09,6,6,0,0,0-1.2.34l-1.18.5a9.81,9.81,0,0,1-2.13.52l-12.76,1.85a2.64,2.64,0,0,1-.87-0.16,1.53,1.53,0,0,1-1-1.55V1585a4.87,4.87,0,0,1,.21-1.38l-0.35,0a11,11,0,0,0-1.28,0c-0.48,0-.95,0-1.4.1l-1.11.13Zm21.76-.69a1.61,1.61,0,0,1-1.19-.55,3.47,3.47,0,0,1-.68-2.47V1551a2.12,2.12,0,0,0-.55-0.34c-0.54-.25-1.11-0.5-1.68-0.74s-1.17-.5-1.67-0.75a1.85,1.85,0,0,1-1.21-1.45,1.52,1.52,0,0,1,1.14-1.44,4.49,4.49,0,0,1,2-.15,8.36,8.36,0,0,1,1.68.1c0.62,0.08,1.2.17,1.76,0.27s1.08,0.23,1.51.36a4.86,4.86,0,0,1,1.09.42,1.71,1.71,0,0,1,.63,2,4.25,4.25,0,0,0-.15,1.06V1578a7.74,7.74,0,0,1-.51,3,3.58,3.58,0,0,1-1.31,1.76A1.65,1.65,0,0,1,4665,1583.08Zm-4.59-35.29q0.54,0.25,1.15.5c0.6,0.25,1.19.51,1.76,0.77a2.78,2.78,0,0,1,1.47,1.29l0.07,0.35v29.35a2.91,2.91,0,0,0,.17,1.23,2.63,2.63,0,0,0,.54-0.89,6.28,6.28,0,0,0,.37-2.37V1550.3a6,6,0,0,1,.21-1.5,0.89,0.89,0,0,0,0-.12,5.78,5.78,0,0,0-.55-0.19c-0.39-.11-0.85-0.22-1.36-0.32s-1.06-.18-1.63-0.25a13.9,13.9,0,0,0-1.57-.1Zm-22.41,32.3a4.37,4.37,0,0,1-2.39-.65,3.16,3.16,0,0,1-1.47-2.82v-6a1.56,1.56,0,0,0-1.49-1.76,1.34,1.34,0,0,1-1-.79,2.1,2.1,0,0,1-.18-0.87,1.66,1.66,0,0,1,.33-1,1.41,1.41,0,0,1,1.16-.55c0.67,0,1.42,0,2.25-.1a17.06,17.06,0,0,1,2.62,0l7.47-1a19.52,19.52,0,0,0,2.14-.5c0.53-.15,1.09-0.3,1.67-0.44l0.16-5.5-0.9.15q-1.14.18-2.4,0.41l-2.57.44q-1.26.21-2.23,0.41a5.33,5.33,0,0,0-1.48.48,6.78,6.78,0,0,1-2,.63,7.81,7.81,0,0,1-3-.23,14.82,14.82,0,0,1-2.63-.94,1.58,1.58,0,0,1-1-2,1.78,1.78,0,0,1,1.86-1.14c1,0,1.89,0,2.71-.08s1.77-.13,2.84-0.23c0.61,0,1.37-.12,2.34-0.26l3-.44,2.67-.44,1.43-.26c0.35-.11.74-0.24,1.09-0.38l1.13-.4a9,9,0,0,1,1.27-.32,6.61,6.61,0,0,1,1.59-.06,1.63,1.63,0,0,1,1.46.89,2.23,2.23,0,0,1,.17,1.23,3.15,3.15,0,0,1-.36,1.11,2.94,2.94,0,0,1-.37.55c0,0.34-.09.74-0.13,1.2-0.05.62-.13,1.27-0.21,1.94s-0.16,1.31-.23,2c0,0.35-.08.68-0.11,1a2,2,0,0,1,.8.51,1.81,1.81,0,0,1,.52,1.48,2.17,2.17,0,0,1-.71,1.31,2.8,2.8,0,0,1-1.53.69l-13.6,1.88v6.45l0.17,0c1.37-.21,2.83-0.47,4.4-0.78s3.2-.69,4.8-1.11,3.28-.91,4.93-1.45,3.26-1.11,4.79-1.73a1.77,1.77,0,0,1,1.59,0,1.58,1.58,0,0,1,.78,1.14,2.12,2.12,0,0,1-.24,1.27,2.17,2.17,0,0,1-1.11,1c-1.56.7-3.25,1.38-5,2s-3.51,1.24-5.24,1.76-3.46,1-5.11,1.37-3.21.68-4.63,0.9A6.29,6.29,0,0,1,4638,1580.09Zm-4.3-12.78a3.2,3.2,0,0,1,2.18,3.26v6a1.43,1.43,0,0,0,.67,1.35,3,3,0,0,0,2.06.34c1.36-.21,2.87-0.5,4.48-0.87s3.29-.82,5-1.34,3.42-1.09,5.14-1.73,3.36-1.3,4.9-2a0.46,0.46,0,0,0,.26-0.22l0,0c-1.56.62-3.2,1.21-4.87,1.75s-3.37,1-5,1.47-3.28.81-4.9,1.13-3.07.58-4.44,0.79l-0.29,0a2.65,2.65,0,0,1-.88-0.17,1.53,1.53,0,0,1-1-1.55v-8l15.08-2.08a1.13,1.13,0,0,0,.6-0.24,0.54,0.54,0,0,0,.18-0.26,0.79,0.79,0,0,0-.61-0.23l-0.92-.06,0.12-.92c0.07-.51.14-1.09,0.21-1.75s0.15-1.33.24-2,0.15-1.27.2-1.86,0.12-1.17.19-1.61l0.06-.34,0.28-.21h0a1.46,1.46,0,0,0,.17-0.26,1.42,1.42,0,0,0,.17-0.51,0.5,0.5,0,0,0,0-.16,3.32,3.32,0,0,0-1.21,0,7.24,7.24,0,0,0-1,.26l-1.07.38c-0.37.14-.8,0.29-1.28,0.44l-1.56.29-2.7.45-3,.45c-1,.14-1.83.23-2.44,0.27-1.05.1-2,.18-2.86,0.23s-1.68.08-2.64,0.08a12.5,12.5,0,0,0,2,.69,6.08,6.08,0,0,0,2.31.19,5.09,5.09,0,0,0,1.51-.47,6.92,6.92,0,0,1,1.92-.62c0.62-.13,1.38-0.27,2.25-0.41l2.54-.44,2.44-.42q1.13-.18,1.9-0.33l1.07-.21-0.26,9-0.66.14q-1.17.26-2.21,0.56a20.91,20.91,0,0,1-2.36.54l-7.68,1.06h-0.09a15.45,15.45,0,0,0-2.44,0C4634.76,1567.26,4634.21,1567.29,4633.69,1567.31Z" transform="translate(-3691.51 -1426.35)"/><path class="cls-2" d="M4725.7,1583.13q-4.64.57-9.85,1.28t-10,1.41q-4.82.7-8.7,1.3t-5.87,1a10.87,10.87,0,0,0-1.56.47,9.38,9.38,0,0,1-1.88.47,6.21,6.21,0,0,1-2.87-.26,22.19,22.19,0,0,1-2.5-1q-0.73-.36-0.5-0.86a0.79,0.79,0,0,1,.76-0.49c1,0,2,0,3,0s2.05-.13,3.13-0.23l4.69-.5q2.61-.29,5.39-0.68l5.63-.81q2.84-.42,5.45-0.83t4.8-.81q2.19-.39,3.75-0.7a7.15,7.15,0,0,0,1.75-.5c0.4-.19.8-0.36,1.2-0.52a7,7,0,0,1,1.49-.37,17,17,0,0,1,2.66-.08,1.61,1.61,0,0,1,1.2.42,1.25,1.25,0,0,1,.42.89,1.37,1.37,0,0,1-.39.91A1.83,1.83,0,0,1,4725.7,1583.13Zm-17.31-19.24a9,9,0,0,0,1.93-.47l1.17-.5a6.82,6.82,0,0,1,1.38-.39,13.62,13.62,0,0,1,2.6-.1,1.86,1.86,0,0,1,1.2.34,1,1,0,0,1,.42.78,1.09,1.09,0,0,1-.39.81,2.11,2.11,0,0,1-1.18.47l-19.34,2.76v7a0.68,0.68,0,0,0,.45.73,1.18,1.18,0,0,0,.76.05l11.78-1.62a8.9,8.9,0,0,0,1.93-.47l1.18-.49a6.61,6.61,0,0,1,1.38-.39,13.42,13.42,0,0,1,2.61-.11,1.86,1.86,0,0,1,1.2.34,1,1,0,0,1,.42.78,1.08,1.08,0,0,1-.39.81,2.07,2.07,0,0,1-1.17.47l-19,2.71a4,4,0,0,1-2.81-.44,2.32,2.32,0,0,1-1.15-2.11v-14.6a1.94,1.94,0,0,0-.78-1.67,5.16,5.16,0,0,0-1.88-.83,0.59,0.59,0,0,1-.47-0.73,0.72,0.72,0,0,1,.62-0.73,22.8,22.8,0,0,1,2.56-.21,24.33,24.33,0,0,1,2.81.05l12.41-1.72a9.18,9.18,0,0,0,1.93-.47l1.17-.5a6.86,6.86,0,0,1,1.38-.39,13.45,13.45,0,0,1,2.61-.1,1.85,1.85,0,0,1,1.2.34,1,1,0,0,1,.42.78,1.18,1.18,0,0,1-.39.83,2,2,0,0,1-1.18.49l-19.6,2.76v7.45Z" transform="translate(-3691.51 -1426.35)"/><path class="cls-2" d="M4686.91,1590a7.14,7.14,0,0,1-2.25-.37,23.56,23.56,0,0,1-2.6-1,1.48,1.48,0,0,1-.9-2,1.65,1.65,0,0,1,1.54-1c1.05,0,2,0,3,0s2-.13,3.09-0.23q2.08-.2,4.68-0.49t5.37-.67l5.62-.81q2.84-.42,5.44-0.83t4.78-.8c1.45-.26,2.7-0.5,3.74-0.7a6.26,6.26,0,0,0,1.54-.43c0.42-.2.84-0.38,1.26-0.55a7.69,7.69,0,0,1,1.67-.42,17.33,17.33,0,0,1,2.81-.09h0a2.43,2.43,0,0,1,1.79.67,2.09,2.09,0,0,1,.67,1.5,2.21,2.21,0,0,1-.61,1.49,2.67,2.67,0,0,1-1.71.83q-4.65.57-9.85,1.27t-10,1.41q-4.82.7-8.7,1.3t-5.84,1a10.14,10.14,0,0,0-1.42.43,9.88,9.88,0,0,1-2.05.51A6.82,6.82,0,0,1,4686.91,1590Zm-3.41-2.65c0.52,0.22,1.1.44,1.71,0.64a5.27,5.27,0,0,0,2.47.23,8.21,8.21,0,0,0,1.7-.42,12.07,12.07,0,0,1,1.68-.5c1.35-.25,3.32-0.57,5.92-1s5.5-.83,8.71-1.3,6.56-.94,10-1.41,6.77-.9,9.86-1.28a1,1,0,0,0,.63-0.26,0.56,0.56,0,0,0,.17-0.34,0.49,0.49,0,0,0-.16-0.27,0.82,0.82,0,0,0-.58-0.16,15.45,15.45,0,0,0-2.54.07,6.08,6.08,0,0,0-1.29.31c-0.38.15-.76,0.32-1.14,0.5a7.85,7.85,0,0,1-2,.57c-1,.2-2.29.44-3.75,0.7s-3.07.53-4.81,0.81-3.56.56-5.46,0.83l-5.63.81q-2.8.39-5.42,0.68l-4.7.5c-1.09.11-2.15,0.19-3.17,0.24C4685,1587.3,4684.25,1587.31,4683.5,1587.3Zm13-9a4.52,4.52,0,0,1-2.41-.64,3.19,3.19,0,0,1-1.56-2.85v-14.6a1.07,1.07,0,0,0-.42-1,4.36,4.36,0,0,0-1.57-.69,1.43,1.43,0,0,1-1.13-1.64,1.59,1.59,0,0,1,1.33-1.51,23.5,23.5,0,0,1,2.68-.22,26.75,26.75,0,0,1,2.82,0l12.31-1.71a8.14,8.14,0,0,0,1.72-.41l1.17-.49a7.39,7.39,0,0,1,1.56-.44,14,14,0,0,1,2.79-.12h0a2.66,2.66,0,0,1,1.72.53,1.83,1.83,0,0,1,.74,1.45,2,2,0,0,1-.65,1.45,2.81,2.81,0,0,1-1.67.74l-18.85,2.66v5.71l11.21-1.58a7.67,7.67,0,0,0,1.71-.41l1.17-.49a7.63,7.63,0,0,1,1.56-.45,14.46,14.46,0,0,1,2.79-.12h0a2.66,2.66,0,0,1,1.72.53,1.84,1.84,0,0,1,.74,1.45,1.94,1.94,0,0,1-.66,1.44,2.94,2.94,0,0,1-1.65.7l-18.59,2.65v6.19h0.07l11.93-1.65a7.58,7.58,0,0,0,1.71-.41l1.17-.49a7.44,7.44,0,0,1,1.56-.45,13.91,13.91,0,0,1,2.79-.12h0a2.67,2.67,0,0,1,1.71.53,1.84,1.84,0,0,1,.74,1.46,1.93,1.93,0,0,1-.66,1.44,2.94,2.94,0,0,1-1.65.69l-19,2.71A6.43,6.43,0,0,1,4696.48,1578.34Zm-5-21.26a5.71,5.71,0,0,1,1.59.81,2.81,2.81,0,0,1,1.14,2.37v14.6a1.46,1.46,0,0,0,.74,1.38,3.25,3.25,0,0,0,2.23.32l19-2.71a1.26,1.26,0,0,0,.7-0.24,0.28,0.28,0,0,0,.11-0.17,1,1,0,0,0-.75-0.26,12.87,12.87,0,0,0-2.45.09,6.05,6.05,0,0,0-1.2.34l-1.19.5a9.68,9.68,0,0,1-2.12.53l-11.8,1.62a2.38,2.38,0,0,1-1.17-.1,1.53,1.53,0,0,1-1-1.54v-7.74l20.08-2.87a1.26,1.26,0,0,0,.71-0.25,0.32,0.32,0,0,0,.12-0.17,0.91,0.91,0,0,0-.75-0.25,12.94,12.94,0,0,0-2.45.09,5.86,5.86,0,0,0-1.2.34l-1.18.5a9.68,9.68,0,0,1-2.13.53l-13.2,1.86v-9.2l20.34-2.87a1.2,1.2,0,0,0,.68-0.25,0.42,0.42,0,0,0,.14-0.22,0.9,0.9,0,0,0-.75-0.25,12.64,12.64,0,0,0-2.45.09,6.07,6.07,0,0,0-1.2.34l-1.18.5a9.78,9.78,0,0,1-2.12.52l-12.52,1.74h-0.09a23.58,23.58,0,0,0-2.71,0C4692.71,1557,4692.07,1557,4691.52,1557.08Z" transform="translate(-3691.51 -1426.35)"/><path class="cls-2" d="M4595.28,1635.94V1630a1.45,1.45,0,0,0-.7-0.65,10.85,10.85,0,0,0-1-.41q-0.52-.18-0.91-0.37a0.56,0.56,0,0,1-.39-0.49,0.66,0.66,0,0,1,.57-0.6,6.78,6.78,0,0,1,1.62-.23,7.16,7.16,0,0,1,2,.08,4,4,0,0,1,1.62.55,0.92,0.92,0,0,1,.23,1,5.22,5.22,0,0,0-.18,1.25v5.37q3.64-.57,6.83-1.12t5.21-1a7.26,7.26,0,0,0,1.74-.49c0.4-.19.8-0.37,1.2-0.52a6.7,6.7,0,0,1,1.48-.36,16.39,16.39,0,0,1,2.66-.08,1.63,1.63,0,0,1,1.2.42,1.25,1.25,0,0,1,.41.89,1.37,1.37,0,0,1-.39.91,1.8,1.8,0,0,1-1.17.55q-4.64.58-9.85,1.28t-10,1.41q-4.82.71-8.71,1.3t-5.86,1a11,11,0,0,0-1.56.47,9.25,9.25,0,0,1-1.88.47,6.2,6.2,0,0,1-2.87-.26,22.08,22.08,0,0,1-2.5-1c-0.49-.24-0.65-0.53-0.5-0.86a0.79,0.79,0,0,1,.76-0.5q1.51,0.05,3,0c1-.05,2-0.13,3.13-0.24q3-.26,6.93-0.75T4595.28,1635.94Zm10.89-21.63a38.9,38.9,0,0,1-3,3.21q-1.72,1.64-3.7,3.31l3.81,1.2a7,7,0,0,0,1.56.31c0.49,0,1,.1,1.49.18a5.54,5.54,0,0,1,1.56.55,8.29,8.29,0,0,1,1.8,1.36,2.44,2.44,0,0,1,.78,1.28,2.06,2.06,0,0,1-.05,1.23,1.1,1.1,0,0,1-.76.68,1.72,1.72,0,0,1-1.33-.31c-0.59-.31-1.32-0.68-2.19-1.12s-1.79-.88-2.76-1.33-2-.89-3-1.33l-2.82-1.22a82.12,82.12,0,0,1-7.56,5.16,58.07,58.07,0,0,1-7.71,4,1.18,1.18,0,0,1-.91.13,0.89,0.89,0,0,1-.55-0.44,0.77,0.77,0,0,1,0-.68,1.55,1.55,0,0,1,.73-0.68q3-1.51,6-3.36t5.79-3.83q2.76-2,5.11-4a42.4,42.4,0,0,0,4.07-4l-2.29.34c-1,.16-2.05.33-3.13,0.52l-3,.52-1.9.34a6,6,0,0,0-1.59.49,5.48,5.48,0,0,1-4.06.29,15,15,0,0,1-2.37-.89,0.67,0.67,0,0,1-.52-0.89,1,1,0,0,1,1-.57q1.51,0,2.82-.08c0.87-.05,1.68-0.11,2.45-0.18q0.57-.05,1.67-0.21l2.34-.34,2.61-.39,2.5-.39,1.93-.31c0.52-.09.85-0.15,1-0.18a7.33,7.33,0,0,0,1.38-.57,3.65,3.65,0,0,1,2-.31,1.44,1.44,0,0,1,.65.34,1.74,1.74,0,0,1,.5.68,1.68,1.68,0,0,1,.1.83A1.22,1.22,0,0,1,4606.17,1614.3Zm0.63,41.86-18.35,2.61a2.3,2.3,0,0,1-.39,1.3,0.77,0.77,0,0,1-.76.34,1.21,1.21,0,0,1-.76-0.62,3.5,3.5,0,0,1-.39-1.64l-0.42-8.86a2.56,2.56,0,0,0-2.19-2.6,0.48,0.48,0,0,1-.36-0.29,1.18,1.18,0,0,1-.11-0.49,0.77,0.77,0,0,1,.16-0.47,0.55,0.55,0,0,1,.47-0.21c0.69,0,1.47,0,2.32-.08a17.82,17.82,0,0,1,2.58,0c0.45,0,1.09-.11,1.93-0.24l2.76-.39q1.51-.21,3.07-0.47l2.92-.47,2.27-.36,1.12-.21a7.28,7.28,0,0,0,1.23-.39,9.17,9.17,0,0,1,1.09-.39,11.28,11.28,0,0,1,1.15-.26,6,6,0,0,1,1.38-.05,0.81,0.81,0,0,1,.73.39,1.36,1.36,0,0,1,.1.75,2.3,2.3,0,0,1-.26.81,1.67,1.67,0,0,1-.42.55c-0.07.49-.15,1.12-0.23,1.9s-0.18,1.62-.29,2.5-0.21,1.76-.31,2.63-0.21,1.63-.31,2.29a2.27,2.27,0,0,1,1.38.34,1,1,0,0,1,.44.75,1.12,1.12,0,0,1-.42.81A2.07,2.07,0,0,1,4606.8,1656.16Zm-18.25.63,12-1.72a12.45,12.45,0,0,0,2-.42c0.55-.18,1.16-0.35,1.82-0.52l0.26-9.23-4.43.6-4.64.68-4.12.63-2.87.44v6.49Q4588.61,1655.38,4588.55,1656.79Z" transform="translate(-3691.51 -1426.35)"/><path class="cls-2" d="M4587.43,1661.29l-0.29,0a2,2,0,0,1-1.33-1,4.27,4.27,0,0,1-.52-2.06l-0.42-8.86a1.7,1.7,0,0,0-1.51-1.8,1.33,1.33,0,0,1-1-.78,2,2,0,0,1-.18-0.84,1.63,1.63,0,0,1,.33-1,1.41,1.41,0,0,1,1.16-.56q1,0,2.27-.08a18.83,18.83,0,0,1,2.7,0c0.3,0,.92-0.11,1.73-0.23l2.77-.39q1.5-.21,3-0.47l2.93-.47,2.25-.36c0.58-.1.93-0.16,1.06-0.19a6.45,6.45,0,0,0,1.09-.35,10.24,10.24,0,0,1,1.2-.43,12.37,12.37,0,0,1,1.24-.28,6.89,6.89,0,0,1,1.58-.06,1.62,1.62,0,0,1,1.46.89,2.22,2.22,0,0,1,.18,1.22,3.23,3.23,0,0,1-.36,1.11,3.09,3.09,0,0,1-.36.55c-0.06.44-.12,1-0.19,1.59l-0.6,5.14q-0.09.77-.19,1.43a2.4,2.4,0,0,1,.92.42,1.78,1.78,0,0,1,.78,1.44,2,2,0,0,1-.69,1.44,2.92,2.92,0,0,1-1.62.72l-17.7,2.51a2.54,2.54,0,0,1-.49,1.08A1.65,1.65,0,0,1,4587.43,1661.29Zm-2.94-15.22a3.38,3.38,0,0,1,2.11,3.17l0.42,8.86a2.65,2.65,0,0,0,.26,1.23,1.28,1.28,0,0,0,.12.16,1.64,1.64,0,0,0,.18-0.78l0-.7,19-2.71a1.24,1.24,0,0,0,.68-0.27,0.5,0.5,0,0,0,.14-0.18,1.54,1.54,0,0,0-1-.22h-1l0.16-1c0.1-.65.21-1.41,0.31-2.26l0.6-5.13c0.09-.79.17-1.43,0.24-1.93l0-.35,0.29-.21h0a1.16,1.16,0,0,0,.17-0.27,1.43,1.43,0,0,0,.17-0.51,0.78,0.78,0,0,0,0-.16,3.23,3.23,0,0,0-1.21,0,10.23,10.23,0,0,0-1.06.24,8.44,8.44,0,0,0-1,.35,8.09,8.09,0,0,1-1.37.44l-1.17.22-2.29.37-2.91.47q-1.57.26-3.1,0.47l-2.76.39c-0.86.13-1.52,0.21-2,.24a18.91,18.91,0,0,0-2.59,0Zm3.16,11.72,0-1c0-.93.05-1.94,0.05-3v-7.23l7.72-1.18,4.65-.68q2.41-.34,4.44-0.6l1-.13-0.31,10.89-0.63.16c-0.65.17-1.24,0.34-1.79,0.51a13.43,13.43,0,0,1-2.12.45Zm1.82-9.8v5.75c0,0.72,0,1.4,0,2l11-1.57a11.31,11.31,0,0,0,1.85-.39l1.24-.36,0.21-7.57-3.41.47-4.63.67Zm-11-6.43a7.16,7.16,0,0,1-2.25-.37,22.43,22.43,0,0,1-2.6-1,1.47,1.47,0,0,1-.91-2,1.65,1.65,0,0,1,1.54-1c1.06,0,2,0,3,0s2-.13,3.09-0.23c2-.17,4.31-0.42,6.91-0.75q3.54-.45,7.17-1v-4.93a0.82,0.82,0,0,0-.21-0.14c-0.3-.14-0.61-0.27-0.93-0.38s-0.71-.27-1-0.4a1.39,1.39,0,0,1-.89-1.28,1.43,1.43,0,0,1,.1-0.52l-1,.63a59.52,59.52,0,0,1-7.83,4,2,2,0,0,1-1.52.15,1.74,1.74,0,0,1-1-.88,1.61,1.61,0,0,1,0-1.41,2.34,2.34,0,0,1,1.11-1.1c2-1,4-2.13,6-3.34s3.92-2.49,5.74-3.8,3.51-2.64,5-4c0.83-.73,1.61-1.46,2.32-2.17q-1.43.22-2.95,0.49l-3,.52-1.88.33a5.23,5.23,0,0,0-1.4.43,6.35,6.35,0,0,1-4.66.33,16,16,0,0,1-2.5-.94,1.49,1.49,0,0,1-1-2,1.78,1.78,0,0,1,1.86-1.14q1.48,0,2.76-.08t2.42-.18q0.56,0,1.63-.2l2.34-.34,2.6-.39,2.5-.39,1.92-.31,0.92-.17a6.53,6.53,0,0,0,1.2-.5,4.42,4.42,0,0,1,2.48-.41,2.26,2.26,0,0,1,1.13.54,2.6,2.6,0,0,1,.75,1,2.57,2.57,0,0,1,.16,1.25,2,2,0,0,1-.77,1.33,40,40,0,0,1-3,3.21c-0.81.77-1.66,1.55-2.55,2.33l2.32,0.73a6.17,6.17,0,0,0,1.37.27c0.51,0,1,.1,1.57.19a6.33,6.33,0,0,1,1.81.63,9,9,0,0,1,2,1.5,3.29,3.29,0,0,1,1,1.72,2.91,2.91,0,0,1-.09,1.73,2,2,0,0,1-1.32,1.19,2.52,2.52,0,0,1-2-.4l-2.13-1.09q-1.29-.64-2.74-1.32t-2.95-1.32l-2.35-1c-1.47,1.11-3,2.19-4.57,3.23a10.07,10.07,0,0,1,1.28-.14,8.3,8.3,0,0,1,2.17.09,4.82,4.82,0,0,1,2,.69,1.73,1.73,0,0,1,.58,2,4.44,4.44,0,0,0-.16,1v4.36q3.08-.49,5.82-1,3.16-.54,5.19-1a6.34,6.34,0,0,0,1.55-.43c0.42-.2.84-0.38,1.25-0.54a7.54,7.54,0,0,1,1.68-.42,17.21,17.21,0,0,1,2.81-.09h0a2.44,2.44,0,0,1,1.78.67,2.09,2.09,0,0,1,.67,1.5,2.24,2.24,0,0,1-.61,1.49,2.64,2.64,0,0,1-1.71.83q-4.64.57-9.85,1.28t-10,1.41q-4.82.7-8.7,1.3t-5.84,1a10.49,10.49,0,0,0-1.42.43,10,10,0,0,1-2.05.52A7.15,7.15,0,0,1,4578.49,1641.56Zm-3.42-2.65c0.51,0.22,1.08.43,1.71,0.64a5.29,5.29,0,0,0,2.47.22,8.32,8.32,0,0,0,1.69-.42,11.58,11.58,0,0,1,1.69-.51c1.35-.25,3.31-0.57,5.91-1s5.5-.83,8.71-1.3,6.57-.94,10-1.41,6.76-.9,9.86-1.28a1,1,0,0,0,.63-0.26,0.6,0.6,0,0,0,.17-0.34,0.45,0.45,0,0,0-.16-0.27,0.84,0.84,0,0,0-.59-0.16,15.47,15.47,0,0,0-2.53.07,6,6,0,0,0-1.29.31c-0.38.15-.76,0.31-1.14,0.5a8,8,0,0,1-2,.57c-1.34.28-3.09,0.6-5.22,1s-4.41.74-6.84,1.12l-1,.16v-6.38a6.13,6.13,0,0,1,.21-1.46,0.62,0.62,0,0,0,0-.22,8.13,8.13,0,0,0-1.18-.3,6.29,6.29,0,0,0-1.74-.07l-0.61,0q0.52,0.19,1,.42a2.3,2.3,0,0,1,1.11,1l0.09,0.18v6.9l-0.74.11q-4,.57-7.94,1.07c-2.62.33-5,.59-7,0.76-1.08.11-2.14,0.18-3.16,0.24C4576.58,1638.9,4575.83,1638.92,4575.07,1638.91Zm29.66-25.61-1.5,1.74a43.76,43.76,0,0,1-4.15,4.13c-1.58,1.38-3.32,2.76-5.18,4.09s-3.82,2.63-5.84,3.87-4.08,2.38-6.11,3.4a1.24,1.24,0,0,0-.28.2,0.64,0.64,0,0,0,.24-0.08,58,58,0,0,0,7.66-3.93,82,82,0,0,0,7.48-5.11l0.41-.31,0.47,0.21,2.81,1.22q1.52,0.66,3,1.34t2.79,1.34l2.21,1.13a1.37,1.37,0,0,0,.64.25,0.27,0.27,0,0,0,.24-0.17,1.23,1.23,0,0,0,0-.71,1.61,1.61,0,0,0-.52-0.83,7.5,7.5,0,0,0-1.61-1.22,4.51,4.51,0,0,0-1.31-.46c-0.48-.08-0.94-0.14-1.4-0.17a7.93,7.93,0,0,1-1.76-.35l-5.31-1.67,1.21-1c1.29-1.09,2.52-2.19,3.66-3.27a38.58,38.58,0,0,0,3-3.14l0.13-.13a0.47,0.47,0,0,0,.19-0.23,0.81,0.81,0,0,0,0-.41,0.86,0.86,0,0,0-.25-0.34,0.61,0.61,0,0,0-.23-0.14H4605a2.51,2.51,0,0,0-1.15.24,8.37,8.37,0,0,1-1.55.64c-0.17,0-.52.11-1.08,0.2l-1.93.32-2.51.39-2.61.39-2.35.34c-0.75.11-1.32,0.17-1.72,0.21q-1.16.11-2.47,0.18t-2.6.08a15,15,0,0,0,1.82.65,4.63,4.63,0,0,0,3.47-.24,6.79,6.79,0,0,1,1.83-.56l1.88-.34,3-.52c1.08-.19,2.13-0.37,3.14-0.53l2.31-.34Z" transform="translate(-3691.51 -1426.35)"/><path class="cls-2" d="M4650.11,1625.67l-2.37.36-3.08.44c-1.1.16-2.2,0.33-3.31,0.52s-2.12.37-3,.55a11.29,11.29,0,0,0-1.56.47,9.36,9.36,0,0,1-1.88.47,6.82,6.82,0,0,1-2.35-.11,9.43,9.43,0,0,1-2.24-.68c-0.49-.24-0.65-0.53-0.5-0.86a0.79,0.79,0,0,1,.76-0.49c0.59,0,1.36,0,2.32-.11s2-.17,3-0.31q0.94-.11,2.16-0.29l2.4-.36c0.78-.12,1.5-0.24,2.14-0.37s1.1-.22,1.38-0.29a6.42,6.42,0,0,0,1.23-.52,5.35,5.35,0,0,1,1-.44,9,9,0,0,1,1.41-.31,17.34,17.34,0,0,1,2.42-.13,1.86,1.86,0,0,1,1.2.34,1,1,0,0,1,.42.78,1.17,1.17,0,0,1-.39.83A2,2,0,0,1,4650.11,1625.67Zm0,12a9.81,9.81,0,0,1-.6,3.44,8.93,8.93,0,0,1-1.75,2.89,9.75,9.75,0,0,1-2.74,2.11,11.49,11.49,0,0,1-3.57,1.15,9.59,9.59,0,0,1-3.54-.13,7.46,7.46,0,0,1-2.89-1.33,6.72,6.72,0,0,1-1.93-2.32,6.84,6.84,0,0,1-.71-3.15,8.31,8.31,0,0,1,.68-3.44,9.5,9.5,0,0,1,1.69-2.61,8.83,8.83,0,0,1,2.27-1.77,14.94,14.94,0,0,1,2.35-1,0.69,0.69,0,0,0,.52-0.58,0.61,0.61,0,0,0-.18-0.44,1.88,1.88,0,0,0-.42-0.31l-0.44-.26a0.39,0.39,0,0,1-.21-0.34,0.71,0.71,0,0,1,.7-0.47,4.51,4.51,0,0,1,1.54-.05,3.52,3.52,0,0,1,1.51.55,1.38,1.38,0,0,1,.63,1.33,8.09,8.09,0,0,1,5.32,2.17A6.42,6.42,0,0,1,4650.11,1637.71Zm-4.43-17.93-5.58.78a6.58,6.58,0,0,1-2.34-.13,10.43,10.43,0,0,1-2.24-.7c-0.49-.24-0.65-0.53-0.49-0.86a0.78,0.78,0,0,1,.76-0.5h1.07l1.22,0,1.17-.05a8.1,8.1,0,0,0,.86-0.08c0.77-.11,1.62-0.2,2.58-0.29l2.95-.23a1.38,1.38,0,0,1,1,.23,0.86,0.86,0,0,1,.34.68,1.11,1.11,0,0,1-.34.76A1.42,1.42,0,0,1,4645.68,1619.78Zm-3.81,12.82a4.71,4.71,0,0,1-.83.42,9,9,0,0,0-4.14,2.5,6.64,6.64,0,0,0-1.48,4.59q0,3,1.64,4.17a5.93,5.93,0,0,0,4.4.83,7.22,7.22,0,0,0,4.48-2.27,6.7,6.7,0,0,0,1.67-4.66,5.49,5.49,0,0,0-1.38-3.75A6.31,6.31,0,0,0,4641.88,1632.6Zm17.1,18.66a7.05,7.05,0,0,1-.44,2.71,2.86,2.86,0,0,1-1,1.36,0.71,0.71,0,0,1-1-.15,2.83,2.83,0,0,1-.45-1.88V1617a1.89,1.89,0,0,0-1-.83l-1.56-.73c-0.54-.24-1-0.48-1.44-0.7a1,1,0,0,1-.63-0.65,0.7,0.7,0,0,1,.58-0.62,4.29,4.29,0,0,1,1.62-.16q1.56,0.11,3.1.37a5.6,5.6,0,0,1,2.06.62,0.89,0.89,0,0,1,.24,1,5.09,5.09,0,0,0-.18,1.28v14.07l6.56-1.3v-16.79a1.88,1.88,0,0,0-1-.83L4663,1611q-0.81-.36-1.44-0.71a0.94,0.94,0,0,1-.63-0.65,0.7,0.7,0,0,1,.57-0.62,4.38,4.38,0,0,1,1.62-.16c1,0.07,2.07.19,3.1,0.37a5.66,5.66,0,0,1,2.06.63,0.89,0.89,0,0,1,.24,1,5,5,0,0,0-.18,1.28v40.4a7,7,0,0,1-.44,2.71,2.84,2.84,0,0,1-1,1.35,0.71,0.71,0,0,1-1-.16,2.84,2.84,0,0,1-.44-1.88v-23l-6.56,1.3v18.4Z" transform="translate(-3691.51 -1426.35)"/><path class="cls-2" d="M4666.55,1657.62a1.61,1.61,0,0,1-1.19-.55,3.49,3.49,0,0,1-.68-2.47v-22l-4.83,1v17.69a7.84,7.84,0,0,1-.51,3,3.6,3.6,0,0,1-1.31,1.76,1.65,1.65,0,0,1-.85.25,1.62,1.62,0,0,1-1.19-.55,3.49,3.49,0,0,1-.68-2.47v-36a1.78,1.78,0,0,0-.48-0.31l-1.54-.72c-0.56-.25-1.06-0.5-1.49-0.73a1.76,1.76,0,0,1-1.08-1.41,1.52,1.52,0,0,1,1.14-1.44,4.94,4.94,0,0,1,2-.21c1.08,0.07,2.15.2,3.2,0.37a6.19,6.19,0,0,1,2.41.77,1.71,1.71,0,0,1,.58,1.94,4.12,4.12,0,0,0-.16,1.06v13l4.83-1v-15.82a1.67,1.67,0,0,0-.47-0.31l-1.54-.72c-0.56-.25-1.06-0.5-1.49-0.73a1.76,1.76,0,0,1-1.08-1.41,1.52,1.52,0,0,1,1.14-1.44,4.93,4.93,0,0,1,2-.21c1.08,0.07,2.15.2,3.2,0.38a6.16,6.16,0,0,1,2.41.77,1.71,1.71,0,0,1,.58,1.94,4.13,4.13,0,0,0-.15,1.06v40.4a7.88,7.88,0,0,1-.51,3,3.59,3.59,0,0,1-1.31,1.76A1.64,1.64,0,0,1,4666.55,1657.62Zm-0.14-27.12v24.1a2.94,2.94,0,0,0,.17,1.23,2.62,2.62,0,0,0,.54-0.89,6.22,6.22,0,0,0,.37-2.37v-40.4a6.08,6.08,0,0,1,.21-1.5,0.5,0.5,0,0,0,0-.19,15.21,15.21,0,0,0-1.63-.38c-1-.17-2-0.29-3-0.36h-0.72c0.3,0.15.64,0.32,1,.48L4665,1611a2.67,2.67,0,0,1,1.38,1.26l0.08,0.35v17.5l-8.3,1.65V1616.6a6,6,0,0,1,.21-1.5,0.52,0.52,0,0,0,0-.19s-0.37-.16-1.63-0.38a30.23,30.23,0,0,0-3-.36H4653l1,0.48,1.59,0.74a2.67,2.67,0,0,1,1.38,1.26L4657,1617v36.28a2.35,2.35,0,0,0,.2,1.28,9.64,9.64,0,0,0,.51-0.94,6.22,6.22,0,0,0,.37-2.37v-19.11ZM4640,1648.27a10,10,0,0,1-2.28-.26,8.36,8.36,0,0,1-3.22-1.49,7.59,7.59,0,0,1-2.17-2.62,7.71,7.71,0,0,1-.8-3.54,9.22,9.22,0,0,1,.75-3.79,10.41,10.41,0,0,1,1.85-2.84,9.79,9.79,0,0,1,2.49-1.94,16.45,16.45,0,0,1,2.08-1l-0.3-.18a1.26,1.26,0,0,1-.62-1.08,1.37,1.37,0,0,1,1.28-1.29l-0.56.11a10.68,10.68,0,0,0-1.43.43,10.06,10.06,0,0,1-2,.51,7.78,7.78,0,0,1-2.64-.11,10.39,10.39,0,0,1-2.44-.74,1.47,1.47,0,0,1-.91-2,1.66,1.66,0,0,1,1.54-1q0.86,0,2.26-.1t3-.31c0.63-.07,1.34-0.16,2.15-0.28l2.39-.36c0.77-.12,1.47-0.24,2.11-0.36s1.07-.21,1.33-0.28a5.79,5.79,0,0,0,1-.43,6.07,6.07,0,0,1,1.15-.52,9.79,9.79,0,0,1,1.56-.35,17.76,17.76,0,0,1,2.55-.14,2.7,2.7,0,0,1,1.74.53,1.84,1.84,0,0,1,.74,1.46,2,2,0,0,1-.64,1.44,2.83,2.83,0,0,1-1.67.74l-2.37.36-3.08.44q-1.63.23-3.28,0.52l-1.91.34a5.34,5.34,0,0,1,1.4,0,4.36,4.36,0,0,1,1.88.68,2.19,2.19,0,0,1,.94,1.27,8.52,8.52,0,0,1,5.16,2.35,7.29,7.29,0,0,1,2,5.21,10.66,10.66,0,0,1-.65,3.74,9.78,9.78,0,0,1-1.91,3.17,10.58,10.58,0,0,1-3,2.3,12.38,12.38,0,0,1-3.84,1.24A11.51,11.51,0,0,1,4640,1648.27Zm0.34-18.39a1.47,1.47,0,0,1,.43,1l0,0.19a1.57,1.57,0,0,1-1.16,1.23,14.36,14.36,0,0,0-2.14,1,8,8,0,0,0-2,1.6,8.73,8.73,0,0,0-1.54,2.37,7.51,7.51,0,0,0-.6,3.09,6.06,6.06,0,0,0,.61,2.76,6,6,0,0,0,1.69,2,6.61,6.61,0,0,0,2.56,1.17,8.72,8.72,0,0,0,3.23.12,10.63,10.63,0,0,0,3.29-1.06,8.87,8.87,0,0,0,2.5-1.92,8.1,8.1,0,0,0,1.58-2.62,9,9,0,0,0,.54-3.14,5.53,5.53,0,0,0-1.53-4,7.29,7.29,0,0,0-4.77-1.9l-0.83-.07,0-.84a0.53,0.53,0,0,0-.24-0.56,2.66,2.66,0,0,0-1.14-.41Zm-9-2.69a10.72,10.72,0,0,0,1.33.33,5.84,5.84,0,0,0,2,.1,8.37,8.37,0,0,0,1.71-.42,12.71,12.71,0,0,1,1.69-.51c0.93-.18,1.94-0.36,3.06-0.55s2.23-.37,3.33-0.53l3.07-.44c1-.13,1.74-0.26,2.36-0.36a1.26,1.26,0,0,0,.7-0.25,0.42,0.42,0,0,0,.14-0.22,0.91,0.91,0,0,0-.75-0.25,16.93,16.93,0,0,0-2.29.12,8.4,8.4,0,0,0-1.27.28,4.43,4.43,0,0,0-.82.37,7.4,7.4,0,0,1-1.39.6c-0.35.09-.83,0.19-1.5,0.31s-1.37.25-2.16,0.37l-2.4.37q-1.24.18-2.19,0.29c-1.08.14-2.11,0.24-3.08,0.31C4632.36,1627.15,4631.84,1627.18,4631.38,1627.19Zm8.85,18.87h0a6.12,6.12,0,0,1-3.68-1.08c-1.32-1-2-2.61-2-4.87a7.52,7.52,0,0,1,1.71-5.16,9.91,9.91,0,0,1,4.53-2.75,3.9,3.9,0,0,0,.63-0.33l0.25-.15,0.29,0a7.14,7.14,0,0,1,4.92,2.11,6.34,6.34,0,0,1,1.6,4.33,7.59,7.59,0,0,1-1.89,5.25,8.12,8.12,0,0,1-5,2.54A10.65,10.65,0,0,1,4640.23,1646.06Zm1.84-12.57a5.41,5.41,0,0,1-.72.34,8.28,8.28,0,0,0-3.8,2.27,5.86,5.86,0,0,0-1.27,4c0,1.68.43,2.85,1.29,3.47a4.38,4.38,0,0,0,2.66.75h0a8.38,8.38,0,0,0,1.12-.08,6.33,6.33,0,0,0,4-2,5.82,5.82,0,0,0,1.45-4.09,4.59,4.59,0,0,0-1.17-3.18A5.32,5.32,0,0,0,4642.07,1633.49Zm-2.71-12a8.64,8.64,0,0,1-1.78-.2,11.25,11.25,0,0,1-2.43-.77,1.48,1.48,0,0,1-.91-2,1.65,1.65,0,0,1,1.54-1h1.07l1.19,0,1.17-.05a7.19,7.19,0,0,0,.76-0.07c0.8-.11,1.67-0.21,2.64-0.3s2-.17,3-0.23a2.26,2.26,0,0,1,1.63.43,1.72,1.72,0,0,1,.65,1.34,2,2,0,0,1-.57,1.34,2.25,2.25,0,0,1-1.53.69l-5.53.78A5.79,5.79,0,0,1,4639.36,1621.48Zm-2.73-2.25a12.29,12.29,0,0,0,1.31.35,5.69,5.69,0,0,0,2,.12l5.59-.78a0.63,0.63,0,0,0,.45-0.15,0.37,0.37,0,0,0,.1-0.17,0.5,0.5,0,0,0-.29-0.05c-1.14.08-2.12,0.15-3.07,0.24s-1.79.18-2.54,0.28a8.65,8.65,0,0,1-.94.09l-1.18.05c-0.43,0-.85,0-1.26,0h-0.22Z" transform="translate(-3691.51 -1426.35)"/><path class="cls-2" d="M4696.92,1645.48v-4.64a1.7,1.7,0,0,0-.62-0.68,4.85,4.85,0,0,0-.83-0.42l-0.73-.29a0.42,0.42,0,0,1-.31-0.39,0.74,0.74,0,0,1,.58-0.65,5.09,5.09,0,0,1,1.61-.29,6.84,6.84,0,0,1,1.8.21,4.18,4.18,0,0,1,1.28.57,0.92,0.92,0,0,1,.24,1,5.18,5.18,0,0,0-.18,1.25v3.65c1.46-.35,3-0.71,4.48-1.09l4.48-1.15,4.22-1.12q2-.55,3.7-1.07v-26.95a2.13,2.13,0,0,0-1-.81c-0.56-.26-1.13-0.51-1.72-0.76s-1.13-.49-1.62-0.73a1,1,0,0,1-.73-0.68,0.7,0.7,0,0,1,.57-0.63,4.32,4.32,0,0,1,1.62-.16c0.52,0,1.08.09,1.67,0.16s1.15,0.16,1.69.26,1,0.22,1.43.34a4.34,4.34,0,0,1,.89.34,0.82,0.82,0,0,1,.24,1,5.29,5.29,0,0,0-.18,1.3v17.25l1.62-.26a4.16,4.16,0,0,0,1.43-.37c0.33-.17.68-0.35,1.07-0.52a6.92,6.92,0,0,1,1.49-.44,12.81,12.81,0,0,1,2.68-.13,2.12,2.12,0,0,1,1.2.39,1,1,0,0,1,.41.78,1.09,1.09,0,0,1-.39.81,2.08,2.08,0,0,1-1.17.47l-8.34,1.2v21.06a7.07,7.07,0,0,1-.44,2.71,2.85,2.85,0,0,1-1,1.35,0.7,0.7,0,0,1-1-.18,3,3,0,0,1-.44-1.9v-13q-2.71.89-6.25,2t-7.14,2l-6.8,1.8q-3.21.83-5.19,1.25a11.17,11.17,0,0,0-1.56.47,9.32,9.32,0,0,1-1.88.47,6.2,6.2,0,0,1-2.87-.26,21.82,21.82,0,0,1-2.5-1q-0.73-.36-0.5-0.86a0.79,0.79,0,0,1,.76-0.5,27.88,27.88,0,0,0,3.54-.26c1.35-.17,2.57-0.34,3.65-0.52l3.21-.6C4694.29,1646.06,4695.57,1645.79,4696.92,1645.48Zm11.57-19.24a12.27,12.27,0,0,1-.57,3.7,9.78,9.78,0,0,1-1.82,3.34,11.32,11.32,0,0,1-3.18,2.61,12.8,12.8,0,0,1-4.64,1.46,11.33,11.33,0,0,1-4.59-.18,8.66,8.66,0,0,1-3.34-1.7,7.26,7.26,0,0,1-2-2.76,8.68,8.68,0,0,1-.67-3.39,7.75,7.75,0,0,1,.81-3.57,10.33,10.33,0,0,1,2.06-2.79,14.52,14.52,0,0,1,2.74-2.06,20.36,20.36,0,0,1,2.84-1.38,0.76,0.76,0,0,0,.63-0.73,0.81,0.81,0,0,0-.24-0.6,3.09,3.09,0,0,0-.52-0.42l-0.52-.34a0.45,0.45,0,0,1-.24-0.37c0-.21.25-0.36,0.76-0.44a4.45,4.45,0,0,1,1.64,0,4,4,0,0,1,1.59.7,1.64,1.64,0,0,1,.65,1.51,12.1,12.1,0,0,1,3.54.81,9.78,9.78,0,0,1,2.74,1.62,7,7,0,0,1,1.75,2.24A6.06,6.06,0,0,1,4708.5,1626.24Zm-9.8-5.63-0.41.18a3.33,3.33,0,0,0-.42.18,12.18,12.18,0,0,0-5.16,3.07,6.92,6.92,0,0,0-2,5,7.58,7.58,0,0,0,.47,2.74,5,5,0,0,0,1.43,2.06,5.72,5.72,0,0,0,2.4,1.2,8.6,8.6,0,0,0,3.31.1,9.21,9.21,0,0,0,3.39-1.09,8.59,8.59,0,0,0,2.42-2,8.08,8.08,0,0,0,1.43-2.56,8.6,8.6,0,0,0,.47-2.79,4.93,4.93,0,0,0-.52-2.17,6.12,6.12,0,0,0-1.46-1.9,7.82,7.82,0,0,0-2.29-1.38A9.58,9.58,0,0,0,4698.69,1620.61Z" transform="translate(-3691.51 -1426.35)"/><path class="cls-2" d="M4717.64,1658.4a1.61,1.61,0,0,1-1.22-.59,3.61,3.61,0,0,1-.66-2.48v-11.84q-2.3.74-5.14,1.59c-2.34.71-4.75,1.39-7.17,2l-6.81,1.8c-2.19.57-3.9,1-5.23,1.26a10.75,10.75,0,0,0-1.44.43,10,10,0,0,1-2,.51,7,7,0,0,1-3.27-.29,23.53,23.53,0,0,1-2.6-1,1.46,1.46,0,0,1-.9-2,1.65,1.65,0,0,1,1.54-1,27.46,27.46,0,0,0,3.44-.26q2-.26,3.62-0.52l3.19-.6c1-.19,2-0.4,3.13-0.65v-3.7a0.84,0.84,0,0,0-.22-0.19,3.88,3.88,0,0,0-.67-0.34l-0.76-.3a1.28,1.28,0,0,1-.84-1.19,1.44,1.44,0,0,1,.37-1l-0.46-.12a9.54,9.54,0,0,1-3.67-1.87,8.11,8.11,0,0,1-2.27-3.09,9.54,9.54,0,0,1-.75-3.72,8.67,8.67,0,0,1,.9-4,11.31,11.31,0,0,1,2.23-3,15.26,15.26,0,0,1,2.9-2.19,21.32,21.32,0,0,1,3-1.44,2.33,2.33,0,0,0-.28-0.21l-0.53-.35a1.28,1.28,0,0,1-.63-1.09c0-.39.19-1.08,1.48-1.3a5.28,5.28,0,0,1,2,.06,4.88,4.88,0,0,1,1.93.86,2.42,2.42,0,0,1,.94,1.42,12.7,12.7,0,0,1,3.07.79,10.69,10.69,0,0,1,3,1.76,7.92,7.92,0,0,1,2,2.52,6.93,6.93,0,0,1,.71,3.06,13.21,13.21,0,0,1-.62,4,10.72,10.72,0,0,1-2,3.63,12.2,12.2,0,0,1-3.42,2.81,12.68,12.68,0,0,1-3.55,1.32,3.22,3.22,0,0,1,.39.24,1.73,1.73,0,0,1,.58,2,4.42,4.42,0,0,0-.16,1v2.55l3.41-.84,4.47-1.15,4.22-1.12c1.1-.3,2.12-0.59,3.06-0.87v-26a2.52,2.52,0,0,0-.55-0.32q-0.81-.38-1.68-0.74c-0.61-.25-1.17-0.5-1.67-0.75a1.82,1.82,0,0,1-1.21-1.45,1.51,1.51,0,0,1,1.14-1.44,5,5,0,0,1,2-.21c0.55,0,1.12.09,1.73,0.16s1.2,0.16,1.76.27,1.07,0.23,1.51.36a5.09,5.09,0,0,1,1.09.43,1.63,1.63,0,0,1,.63,1.95,4.4,4.4,0,0,0-.16,1.09v16.24l0.61-.1a3.43,3.43,0,0,0,1.17-.28c0.34-.18.72-0.36,1.12-0.54a7.74,7.74,0,0,1,1.67-.5,13.79,13.79,0,0,1,2.88-.15,3,3,0,0,1,1.72.59,1.84,1.84,0,0,1,.74,1.45,1.94,1.94,0,0,1-.67,1.44,2.94,2.94,0,0,1-1.65.69l-7.59,1.09v20.31a7.8,7.8,0,0,1-.51,3.05,3.58,3.58,0,0,1-1.32,1.76A1.64,1.64,0,0,1,4717.64,1658.4Zm-0.15-17.3v14.23a2.93,2.93,0,0,0,.18,1.27,2.66,2.66,0,0,0,.53-0.88,6.23,6.23,0,0,0,.38-2.37v-21.81l9.08-1.31a1.27,1.27,0,0,0,.71-0.24,0.3,0.3,0,0,0,.12-0.18,1.19,1.19,0,0,0-.81-0.31,13.49,13.49,0,0,0-2.46.12,6.06,6.06,0,0,0-1.3.38c-0.37.17-.71,0.33-1,0.5a4.88,4.88,0,0,1-1.74.46l-2.57.42v-18.27a6.28,6.28,0,0,1,.21-1.52,0.67,0.67,0,0,0,0-.1,5.64,5.64,0,0,0-.55-0.19c-0.39-.11-0.84-0.22-1.35-0.32s-1.07-.18-1.63-0.25-1.11-.12-1.62-0.15H4713c0.37,0.18.77,0.35,1.19,0.52,0.61,0.25,1.19.51,1.76,0.77a2.86,2.86,0,0,1,1.45,1.21l0.09,0.18v27.79l-0.61.19q-1.68.53-3.73,1.08l-4.23,1.12c-1.46.39-3,.77-4.49,1.15s-3,.75-4.49,1.09l-1.06.25v-4.74a6.19,6.19,0,0,1,.21-1.46,0.54,0.54,0,0,0,0-.22,6.1,6.1,0,0,0-.93-0.35,6,6,0,0,0-1.57-.18l-0.57.05a6,6,0,0,1,.71.38,2.54,2.54,0,0,1,.94,1l0.09,0.18v5.53l-0.67.15q-2.06.47-3.87,0.81l-3.21.6c-1.1.18-2.33,0.35-3.7,0.53-1.07.14-2,.22-2.92,0.25,0.54,0.23,1.14.45,1.79,0.67a5.28,5.28,0,0,0,2.47.23,8.38,8.38,0,0,0,1.69-.42,12.34,12.34,0,0,1,1.69-.5c1.3-.27,3-0.68,5.15-1.24l6.79-1.8c2.4-.64,4.79-1.33,7.12-2s4.43-1.36,6.24-1.95ZM4697,1617.45l0.13,0.12a1.68,1.68,0,0,1,.49,1.21,1.61,1.61,0,0,1-1.22,1.55,19.61,19.61,0,0,0-2.68,1.31,13.4,13.4,0,0,0-2.57,1.94,9.45,9.45,0,0,0-1.89,2.55,6.94,6.94,0,0,0-.71,3.18,7.8,7.8,0,0,0,.61,3.05,6.38,6.38,0,0,0,1.79,2.44,7.85,7.85,0,0,0,3,1.52,10.55,10.55,0,0,0,4.23.16,12,12,0,0,0,4.34-1.35,10.5,10.5,0,0,0,2.94-2.41,8.94,8.94,0,0,0,1.67-3,11.49,11.49,0,0,0,.54-3.44,5.2,5.2,0,0,0-.54-2.3,6.15,6.15,0,0,0-1.53-2,9,9,0,0,0-2.5-1.47,11.4,11.4,0,0,0-3.29-.75l-0.84-.07,0-.84a0.79,0.79,0,0,0-.3-0.77,3.18,3.18,0,0,0-1.25-.55Zm-0.17,18.68a8.27,8.27,0,0,1-2-.24,6.62,6.62,0,0,1-2.75-1.38,5.94,5.94,0,0,1-1.68-2.4,8.47,8.47,0,0,1-.53-3,7.78,7.78,0,0,1,2.28-5.61,13.11,13.11,0,0,1,5.52-3.3,2.13,2.13,0,0,1,.38-0.17l0.33-.14,0.21-.1h0.23a10.57,10.57,0,0,1,3.3.71,8.79,8.79,0,0,1,2.54,1.54,7,7,0,0,1,1.66,2.17,5.78,5.78,0,0,1,.61,2.55,9.54,9.54,0,0,1-.51,3.07,9.06,9.06,0,0,1-1.59,2.83,9.54,9.54,0,0,1-2.66,2.21,10.13,10.13,0,0,1-3.7,1.2A11.52,11.52,0,0,1,4696.79,1636.13Zm2.07-14.64-0.26.11-0.33.15a11.7,11.7,0,0,0-4.94,2.91,6,6,0,0,0-1.79,4.4,6.82,6.82,0,0,0,.41,2.43,4.17,4.17,0,0,0,1.19,1.71,5,5,0,0,0,2,1,7.78,7.78,0,0,0,3,.09,8.48,8.48,0,0,0,3.08-1,7.92,7.92,0,0,0,2.18-1.81,7.27,7.27,0,0,0,1.28-2.28,7.74,7.74,0,0,0,.42-2.51,4,4,0,0,0-.44-1.79,5.27,5.27,0,0,0-1.26-1.63,6.93,6.93,0,0,0-2-1.23A8.72,8.72,0,0,0,4698.86,1621.49Z" transform="translate(-3691.51 -1426.35)"/></svg>
