<svg id="introducing_service" data-name="introducing service" xmlns="http://www.w3.org/2000/svg" xmlns:xlink="http://www.w3.org/1999/xlink" viewBox="0 0 1920 1090.95"><defs><style>.cls-1,.cls-2{fill:none;}.cls-1{stroke:#c6c6c5;stroke-miterlimit:10;stroke-width:2px;}.cls-3,.cls-6{fill:#66635a;}.cls-4{fill:#c6c6c5;}.cls-5{font-size:11px;}.cls-5,.cls-7{fill:#9b9c9e;}.cls-5,.cls-6,.cls-7{font-family:Noto Sans CJK KR;}.cls-6{font-size:36px;font-weight:700;}.cls-7{font-size:22px;}.cls-8{fill:url(#linear-gradient);}.cls-9{fill:url(#linear-gradient-2);}.cls-10{fill:url(#linear-gradient-3);}.cls-11{fill:url(#linear-gradient-4);}.cls-12{fill:url(#linear-gradient-5);}.cls-13{fill:url(#linear-gradient-6);}.cls-14{fill:url(#linear-gradient-7);}.cls-15{fill:url(#linear-gradient-8);}.cls-16{fill:url(#linear-gradient-9);}.cls-17{fill:url(#linear-gradient-10);}.cls-18{fill:url(#linear-gradient-11);}.cls-19{fill:url(#linear-gradient-12);}.cls-20{fill:url(#linear-gradient-13);}.cls-21{fill:url(#linear-gradient-14);}.cls-22{fill:url(#linear-gradient-15);}.cls-23{fill:url(#linear-gradient-16);}.cls-24{fill:url(#linear-gradient-17);}.cls-25{fill:url(#linear-gradient-18);}.cls-26{fill:url(#linear-gradient-19);}.cls-27{fill:url(#linear-gradient-20);}.cls-28{fill:url(#linear-gradient-21);}</style><linearGradient id="linear-gradient" x1="350.96" y1="132.61" x2="360.85" y2="132.61" gradientUnits="userSpaceOnUse"><stop offset="0" stop-color="#f2c161"/><stop offset="0.16" stop-color="#f2c161"/><stop offset="1" stop-color="#f2c161"/></linearGradient><linearGradient id="linear-gradient-2" x1="334.85" y1="158.92" x2="361.09" y2="158.92" xlink:href="#linear-gradient"/><linearGradient id="linear-gradient-3" x1="324.49" y1="140.59" x2="349.49" y2="140.59" xlink:href="#linear-gradient"/><linearGradient id="linear-gradient-4" x1="375.58" y1="145.18" x2="402.29" y2="145.18" xlink:href="#linear-gradient"/><linearGradient id="linear-gradient-5" x1="403.6" y1="142.68" x2="423.16" y2="142.68" xlink:href="#linear-gradient"/><linearGradient id="linear-gradient-6" x1="436.03" y1="132.04" x2="457.57" y2="132.04" xlink:href="#linear-gradient"/><linearGradient id="linear-gradient-7" x1="428.7" y1="153.36" x2="472.84" y2="153.36" xlink:href="#linear-gradient"/><linearGradient id="linear-gradient-8" x1="454.07" y1="136.19" x2="469.27" y2="136.19" xlink:href="#linear-gradient"/><linearGradient id="linear-gradient-9" x1="319.76" y1="219.58" x2="366.87" y2="219.58" xlink:href="#linear-gradient"/><linearGradient id="linear-gradient-10" x1="385.76" y1="224.16" x2="416.63" y2="224.16" xlink:href="#linear-gradient"/><linearGradient id="linear-gradient-11" x1="378.18" y1="202.11" x2="407.33" y2="202.11" xlink:href="#linear-gradient"/><linearGradient id="linear-gradient-12" x1="405.17" y1="198.48" x2="415.06" y2="198.48" xlink:href="#linear-gradient"/><linearGradient id="linear-gradient-13" x1="436.54" y1="199.54" x2="465.9" y2="199.54" xlink:href="#linear-gradient"/><linearGradient id="linear-gradient-14" x1="381.27" y1="254.79" x2="395.01" y2="254.79" xlink:href="#linear-gradient"/><linearGradient id="linear-gradient-15" x1="397.87" y1="266.59" x2="416.63" y2="266.59" xlink:href="#linear-gradient"/><linearGradient id="linear-gradient-16" x1="376.05" y1="270.75" x2="399.71" y2="270.75" xlink:href="#linear-gradient"/><linearGradient id="linear-gradient-17" x1="428.18" y1="267.15" x2="477.37" y2="267.15" xlink:href="#linear-gradient"/><linearGradient id="linear-gradient-18" x1="319.75" y1="262.04" x2="366.87" y2="262.04" xlink:href="#linear-gradient"/><linearGradient id="linear-gradient-19" x1="329.38" y1="286.33" x2="356.43" y2="286.33" xlink:href="#linear-gradient"/><linearGradient id="linear-gradient-20" x1="428.18" y1="219.58" x2="475.29" y2="219.58" xlink:href="#linear-gradient"/><linearGradient id="linear-gradient-21" x1="327.34" y1="199.32" x2="359.83" y2="199.32" xlink:href="#linear-gradient"/></defs><title>description</title><g id="dummy-2" data-name="dummy"><rect class="cls-1" x="991.99" y="399.34" width="738.67" height="474.18"/><polyline class="cls-1" points="1730.66 399.34 991.99 873.52 991.99 399.34 1730.66 873.52"/></g><g id="top_menu-3" data-name="top menu"><rect class="cls-2" x="1407.67" y="53.67" width="106.67" height="26.67"/><path class="cls-3" d="M1419.11,62.22c0,3.53,1.8,7,4.7,8.31l-1.28,1.74a9.35,9.35,0,0,1-4.49-5.69,9.8,9.8,0,0,1-4.55,6l-1.37-1.72c3-1.45,4.81-5.1,4.81-8.65V59.1h2.18v3.13Zm8.88-4.7v19h-2.18v-11h-4.05V63.76h4.05V57.52H1428Z"/><path class="cls-3" d="M1434.71,59.12v4.83h4.81V59.12h2.16V72.05h-9.11V59.12h2.14Zm0,11.19h4.81V65.67h-4.81v4.64Zm12.45-12.77v19H1445v-19h2.18Z"/><path class="cls-3" d="M1468.06,72.3v1.78h-17.17V72.3h17.17Zm-1.68-3.7a9.92,9.92,0,0,1-7-5.21,9.93,9.93,0,0,1-7,5.21l-0.92-1.78c3.74-.69,6.78-3.61,6.78-6.61V58.78h2.29v1.43c0,3,3,5.94,6.78,6.61Z"/><path class="cls-3" d="M1475.47,68.31a4.75,4.75,0,1,1,5.06-4.75A4.76,4.76,0,0,1,1475.47,68.31Zm0-1.87a2.87,2.87,0,1,0-2.92-2.88A2.8,2.8,0,0,0,1475.47,66.44Zm-0.29,8h10.58v1.76H1473V70h2.18V74.4Zm12.51-11.21V65H1485v6.49h-2.16V57.56H1485v5.63h2.69Z"/><path class="cls-3" d="M1492.53,69.89a35.21,35.21,0,0,0,5.56-.57l0.23,1.85a36.43,36.43,0,0,1-6.7.57h-1.26v-12h2.16V69.89Zm13.12-12.32v19h-2.06V66.89h-2.25v8.69h-2V57.94h2V65.1h2.25V57.56h2.06Z"/><rect class="cls-3" x="1559.25" y="57.01" width="1.5" height="18.99"/><rect class="cls-3" x="1734.25" y="57.01" width="1.5" height="18.99"/><path class="cls-3" d="M1620.75,65.63c0,4.12-2.06,6.7-4.89,6.7s-4.87-2.58-4.87-6.7,2.06-6.68,4.87-6.68S1620.75,61.55,1620.75,65.63Zm-7.69,0c0,3,1.16,4.77,2.79,4.77s2.81-1.78,2.81-4.77-1.16-4.72-2.81-4.72S1613.06,62.69,1613.06,65.63ZM1626,57.54v19h-2.18v-19H1626Z"/><path class="cls-3" d="M1646.81,66.78V68.5h-17.15V66.78h4.07V64.26a3.13,3.13,0,0,1-2.25-2.81c0-2.23,2.6-3.57,6.76-3.57s6.76,1.34,6.76,3.57c0,1.24-.84,2.2-2.29,2.83v2.5h4.1Zm-2.08,6.34c0,2.18-2.44,3.4-6.53,3.4s-6.53-1.22-6.53-3.4,2.46-3.4,6.53-3.4S1644.73,71,1644.73,73.12Zm-11-11.67c0,1.22,1.7,1.91,4.54,1.91s4.51-.69,4.51-1.91-1.7-1.89-4.51-1.89S1633.71,60.23,1633.71,61.45Zm8.84,11.67c0-1.13-1.57-1.74-4.35-1.74s-4.32.61-4.32,1.74,1.55,1.74,4.32,1.74S1642.54,74.28,1642.54,73.12Zm-6.65-6.34h4.66V64.85a15.47,15.47,0,0,1-2.31.17,16.06,16.06,0,0,1-2.35-.17v1.93Z"/><path class="cls-3" d="M1658.59,67.58h-8.95V58.76h2.16v2.62h4.64V58.76h2.14v8.82Zm5.42,5.35c0,2.27-2.41,3.61-6.32,3.61s-6.32-1.34-6.32-3.61,2.41-3.61,6.32-3.61S1664,70.69,1664,72.93Zm-7.56-9.85h-4.64v2.77h4.64V63.09Zm5.42,9.85c0-1.22-1.53-1.89-4.18-1.89s-4.18.67-4.18,1.89,1.53,1.91,4.18,1.91S1661.86,74.17,1661.86,72.93Zm4.62-10.75V64h-2.69v4.91h-2.16V57.56h2.16v4.62h2.69Z"/><path class="cls-3" d="M1684,57.56V68h-2.16V63.84h-3.95v3.46h-8.73v-8.8h2.14V61.2h4.47V58.53h2.12v3.55h3.95V57.54Zm-8.23,5.31h-4.47v2.67h4.47V62.88Zm6.07,5.94H1684v7.45h-12.32V68.82h2.14v2h8v-2Zm0,3.72h-8v2h8v-2Z"/><rect class="cls-2" x="1605.67" y="53.67" width="83.8" height="26.67"/><path class="cls-3" d="M1798.5,72.26V74h-17.13V72.26h6.38V65.58h2.18v6.68h8.57Zm-4-11.17h-11.32V59.33h13.5V61.2a43.38,43.38,0,0,1-.74,8.9l-2.18-.23a40.84,40.84,0,0,0,.73-8.67V61.09Z"/><path class="cls-3" d="M1808.92,58.93c0,4.66-2.37,8-7.24,9.93l-1-1.55c3.74-1.47,5.69-3.72,6-6.63h-5.21V58.93h7.43Zm-5.08,10.62h12.89v7h-2.16V71.29h-10.73V69.55Zm12.89-12V68.69h-2.06V63.92h-2.1v4.68h-2V57.92h2v4.24h2.1v-4.6h2.06Z"/><path class="cls-3" d="M1828.11,68.69a6.55,6.55,0,0,1-3.36-3.63,7.33,7.33,0,0,1-3.65,4.12l-1.2-1.64a6.76,6.76,0,0,0,3.78-6V58.86h2.1v2.65a6,6,0,0,0,3.5,5.54Zm8.46,5.71v1.76h-13.06V70.1h2.18v4.3h10.88Zm-6.3-10.48h-2.67V62.14h2.67V57.92h2V71.23h-2V63.92Zm5.78,7.85H1834V57.56H1836V71.78Z"/><path class="cls-3" d="M1842.33,70.35a45,45,0,0,0,7.66-.55l0.19,1.74a45.76,45.76,0,0,1-8.52.57h-1.49V59.2h8.8V61h-6.63v3.55h5.86v1.72h-5.86v4.09Zm12.74-12.83v19h-2.18V66.28h-3.63V64.49h3.63v-7h2.18Z"/><rect class="cls-2" x="1775.33" y="53.67" width="86.59" height="26.67"/></g><g id="dividing_line-3" data-name="dividing line"><rect class="cls-4" x="794.68" width="2" height="1050"/></g><g id="footer-3" data-name="footer"><text class="cls-5" transform="translate(271.5 1034.61)">Co<tspan x="13.68" y="0">p</tspan><tspan x="20.46" y="0">yright © 2016 김사원프린트좀해와 All righ</tspan><tspan x="220.58" y="0">t</tspan><tspan x="224.61" y="0">s </tspan><tspan x="232.22" y="0">r</tspan><tspan x="236.37" y="0">ese</tspan><tspan x="253.7" y="0">r</tspan><tspan x="258.29" y="0">v</tspan><tspan x="263.98" y="0">ed.</tspan></text><rect class="cls-2" x="241.58" y="1011.68" width="313.57" height="32.35"/></g><g id="text-3" data-name="text"><text class="cls-6" transform="translate(310.52 399.34)">서비스 소개</text><text class="cls-7" transform="translate(136.17 486.25)">안녕, 나는 김사원이라고 해!<tspan x="0" y="26.4">나는 우리 팀의 막내야.</tspan><tspan x="0" y="79.2">대학생때 동아리와 학생회로 시작해서</tspan><tspan x="0" y="105.6">이제는 회사에서까지 “인쇄 셔틀”을 맡고 있어!</tspan><tspan x="0" y="158.4">나처럼 오랜 기간 동안 인쇄 셔틀로 살아오며</tspan><tspan x="0" y="184.8">인쇄라면 척척인 [인쇄 고수]가 된 사람들도 있겠지만,</tspan><tspan x="0" y="211.2">처음 인쇄 심부름을 맡았을때의 나처럼 [인쇄 하수]거나</tspan><tspan x="0" y="237.6">혹은 그것보다 조금 더 빠릿한 [인쇄 중수]도 있겠지?</tspan><tspan x="0" y="290.4">같은 인쇄 셔틀로서,</tspan><tspan x="0" y="316.8">인쇄 심부름을 좀 더 쉽게, 간편하게, 저렴하게 할 수 있도록</tspan><tspan x="0" y="343.2">[김사원프린트좀해와] 서비스를 준비해보았어.</tspan><tspan x="0" y="396">여기서는 인쇄 실력이 어떻든 최저가에 인쇄를 할 수 있어.</tspan><tspan x="0" y="422.4">때로는 예상치 못한 초저가를 만나는 기쁨도 있을거야!</tspan><tspan x="0" y="475.2">대한민국의 모든 미생들이 완생할 수 있기를!</tspan></text></g><g id="logo-3" data-name="logo"><path class="cls-8" d="M352.19,121.18c0.5,0.19,1,.38,1.65.58s1.14,0.39,1.68.6a1.81,1.81,0,0,1,.54.29v21.79a3.26,3.26,0,0,0,.68,2.41,1.49,1.49,0,0,0,1.19.46,1.77,1.77,0,0,0,.85-0.32,4,4,0,0,0,1.31-1.87,8.09,8.09,0,0,0,.51-3.09V121.6a4.45,4.45,0,0,1,.15-1.07,1.59,1.59,0,0,0-.63-1.92,4.49,4.49,0,0,0-1.09-.34c-0.44-.09-0.94-0.17-1.52-0.23s-1.14-.1-1.75-0.12-1.26,0-1.73,0a5.16,5.16,0,0,0-2,.37,1.68,1.68,0,0,0-1.15,1.53A1.61,1.61,0,0,0,352.19,121.18Z"/><path class="cls-9" d="M341.85,169.23l16.93-3.82a3.08,3.08,0,0,0,1.61-.87A2.2,2.2,0,0,0,361,163a1.67,1.67,0,0,0-.74-1.39,2,2,0,0,0-1-.35q0.08-.76.17-1.66l0.31-3c0.1-1,.21-1.94.31-2.83,0.08-.72.16-1.31,0.22-1.77a3.6,3.6,0,0,0,.36-0.58,3.49,3.49,0,0,0,.36-1.14,2.16,2.16,0,0,0-.18-1.21,1.47,1.47,0,0,0-1.46-.77,6.86,6.86,0,0,0-1.58.2,12.09,12.09,0,0,0-1.24.38,10.77,10.77,0,0,0-1.2.53,6.9,6.9,0,0,1-1.1.44l-1,.28-2.1.54-2.73.67-2.88.68-2.59.58-1.7.35a21.94,21.94,0,0,0-2.68.17q-1.26.16-2.29,0.24a1.55,1.55,0,0,0-1.16.65,1.8,1.8,0,0,0-.33,1,2,2,0,0,0,.18.86,1.2,1.2,0,0,0,1,.71,1.47,1.47,0,0,1,1.47,1.67l0.42,9.06c0,0.84.28,1.76,0.83,1.94A6.6,6.6,0,0,0,341.85,169.23Zm13.55-7.1-1.23.46a12.75,12.75,0,0,1-1.84.54l-10.25,2.28q0-1.09,0-2.31v-6.48l2-.5q1.74-.43,3.84-0.92l4.37-1,3.29-.72Z"/><path class="cls-10" d="M326.1,155.5h0.12a2.86,2.86,0,0,0,1.37-.55c1.76-1.3,3.68-2.91,5.71-4.75a85.18,85.18,0,0,0,6-6.12,69.67,69.67,0,0,0,5.55-7.1,41.94,41.94,0,0,0,4.11-7.46,2.92,2.92,0,0,0,.48-1.38,2.7,2.7,0,0,0-.19-1.19,2,2,0,0,0-.76-0.94,1.75,1.75,0,0,0-1.11-.31h0l-0.38,0a7,7,0,0,0-2.5.62,21.49,21.49,0,0,1-2.27.93,11.61,11.61,0,0,1-1.25.36c-0.71.18-1.53,0.38-2.46,0.59s-1.88.42-2.85,0.63l-2.43.49q-1.6.29-2.84,0.47c-0.83.12-1.74,0.24-2.71,0.36a2,2,0,0,0-1.86,1.3,1.38,1.38,0,0,0,1,1.88,15.34,15.34,0,0,0,2.61.75,7,7,0,0,0,3,0,7.33,7.33,0,0,0,2-.79,5.83,5.83,0,0,1,1.48-.61q1-.29,2.27-0.63l2.61-.66,2.52-.63,0.25-.07a50.67,50.67,0,0,1-3.11,5.2,74,74,0,0,1-4.81,6.32c-1.7,2-3.44,3.87-5.18,5.56s-3.39,3.19-4.93,4.45a2.72,2.72,0,0,0-1,1.41,1.49,1.49,0,0,0,.27,1.4A1.53,1.53,0,0,0,326.1,155.5Z"/><path class="cls-11" d="M377.22,161.23l0.14,0a2.77,2.77,0,0,0,1.39-.71,53,53,0,0,0,6.22-6.89,79.09,79.09,0,0,0,4.73-7l1.72,1.35q1.48,1.15,2.93,2.32l2.63,2.13a18.61,18.61,0,0,1,1.45,1.25,2,2,0,0,0,1.67.78l0.24,0a2.27,2.27,0,0,0,1.46-1.09,3.63,3.63,0,0,0,.47-1.78,3.29,3.29,0,0,0-.58-2,8,8,0,0,0-1.68-1.87,9,9,0,0,0-1.74-1.08q-0.84-.39-1.71-0.7a6.7,6.7,0,0,1-1.46-.72l-3.33-2.13a52.38,52.38,0,0,0,2.67-5.78,14.78,14.78,0,0,0,1.18-5,1.82,1.82,0,0,0-.71-1.4,5.59,5.59,0,0,0-1.31-.81,10.82,10.82,0,0,0-1.61-.57,12.58,12.58,0,0,0-1.6-.33,3.94,3.94,0,0,0-2.14.13,2,2,0,0,0-1.39,1.45,1.6,1.6,0,0,0,.65,1.48,13.41,13.41,0,0,0,1.08.83,11.73,11.73,0,0,1,1,.79,1.88,1.88,0,0,1,.4.46,17,17,0,0,1-1.23,4.89,46.58,46.58,0,0,1-3.06,6.28,71.23,71.23,0,0,1-9.41,12.66,2.45,2.45,0,0,0-.75,1.48,1.43,1.43,0,0,0,.5,1.26A1.55,1.55,0,0,0,377.22,161.23Z"/><path class="cls-12" d="M420.71,135.87h0a16,16,0,0,0-2.86.35,7.46,7.46,0,0,0-1.69.62c-0.4.21-.77,0.43-1.12,0.64a4.29,4.29,0,0,1-1.14.42l-0.64.14V121.78a4.35,4.35,0,0,1,.16-1.08,1.6,1.6,0,0,0-.64-1.92,4.42,4.42,0,0,0-1.08-.33c-0.44-.09-0.94-0.17-1.51-0.23s-1.14-.1-1.76-0.12-1.18,0-1.72,0a5.16,5.16,0,0,0-2,.37A1.68,1.68,0,0,0,403.6,120a1.64,1.64,0,0,0,1.21,1.35c0.5,0.21,1.06.41,1.67,0.61s1.14,0.39,1.69.6a2.6,2.6,0,0,1,.54.27v41.56a3.39,3.39,0,0,0,.66,2.42,1.48,1.48,0,0,0,1.22.49,1.73,1.73,0,0,0,.84-0.31,4.09,4.09,0,0,0,1.32-1.87,8.16,8.16,0,0,0,.51-3.09V141.71l7.59-1.72a3.23,3.23,0,0,0,1.65-.83,2.11,2.11,0,0,0,.67-1.5,1.68,1.68,0,0,0-.74-1.39A2.51,2.51,0,0,0,420.71,135.87Z"/><path class="cls-13" d="M439.1,140.79a8.4,8.4,0,0,0,3.51,1.18,11.63,11.63,0,0,0,2.4,0,16.64,16.64,0,0,0,2.11-.32,14.89,14.89,0,0,0,4.56-1.72,12.91,12.91,0,0,0,3.27-2.73,11.14,11.14,0,0,0,2.62-7.13,5.72,5.72,0,0,0-2.34-4.82,10,10,0,0,0-5.89-1.6,1.94,1.94,0,0,0-.92-1.12,4.1,4.1,0,0,0-1.87-.53,5.42,5.42,0,0,0-1.84.22,1.56,1.56,0,0,0-1.38,1.43,1.13,1.13,0,0,0,.61,1l0.28,0.15a19,19,0,0,0-2.37,1.21,14.28,14.28,0,0,0-2.8,2.16,11.53,11.53,0,0,0-2.13,2.94,8.14,8.14,0,0,0-.89,3.77,7.22,7.22,0,0,0,.79,3.4A6.45,6.45,0,0,0,439.1,140.79Zm3.19-10.35a13,13,0,0,1,4.48-2.81,2.91,2.91,0,0,0,.67-0.29l0.22-.12a6.76,6.76,0,0,1,4.26,1,3.23,3.23,0,0,1,1.42,2.66,6.13,6.13,0,0,1-.41,2.17,6.52,6.52,0,0,1-1.21,2,8.61,8.61,0,0,1-2,1.67,8.78,8.78,0,0,1-2.79,1.05,12.13,12.13,0,0,1-1.55.24,4.82,4.82,0,0,1-3.08-.58,3.52,3.52,0,0,1-1.47-3.19A5.2,5.2,0,0,1,442.28,130.45Z"/><path class="cls-14" d="M429.74,150.72a21,21,0,0,0,2.6.82,6.94,6.94,0,0,0,3.27,0,10.63,10.63,0,0,0,2.05-.69,11.08,11.08,0,0,1,1.43-.55c0.7-.2,1.51-0.44,2.42-0.73l2-.63v4.78A3.82,3.82,0,0,0,444,156l-0.44.09a5,5,0,0,0-1.79.69,1.15,1.15,0,0,0,.39,2.25c0.38,0.06.82,0.11,1.3,0.14a10,10,0,0,1,1.23.16,0.8,0.8,0,0,1,.23.08v5.35a2.83,2.83,0,0,0,1.57,2.7,4.37,4.37,0,0,0,2.37.41,6.82,6.82,0,0,0,1-.16L470.53,163a3.12,3.12,0,0,0,1.67-.88,2.2,2.2,0,0,0,.64-1.5,1.68,1.68,0,0,0-.74-1.4,2.53,2.53,0,0,0-1.71-.39h0a14.35,14.35,0,0,0-2.79.35,8,8,0,0,0-1.56.58l-1.19.63a6.4,6.4,0,0,1-1.7.52l-13.54,3.12h-0.17v-5.53a3.38,3.38,0,0,1,.14-0.93,1.53,1.53,0,0,0-.62-1.86,2.76,2.76,0,0,0-1.26-.22l-0.72,0a6.34,6.34,0,0,0,.54-1,8.09,8.09,0,0,0,.51-3.09v-3.92q3.16-1.08,6.54-2.34c2.49-.92,4.79-1.83,6.84-2.69a2.15,2.15,0,0,0,1.15-1,2.08,2.08,0,0,0,.21-1.25,1.6,1.6,0,0,0-.57-1,1.52,1.52,0,0,0-1.53-.1c-1.64.65-3.55,1.33-5.68,2s-4.3,1.38-6.45,2-4.21,1.29-6.19,1.87-3.62,1-4.91,1.39q-1.6.39-3.61,0.79a31.15,31.15,0,0,1-3.44.52,1.84,1.84,0,0,0-1.54,1.12A1.37,1.37,0,0,0,429.74,150.72Z"/><path class="cls-15" d="M460.61,120.08c0.5,0.19,1,.38,1.65.58s1.14,0.39,1.69.6a1.91,1.91,0,0,1,.54.29v24.54l-1,.26-1.89.49-1.65.43a7.09,7.09,0,0,1-.89.2c-0.44.1-.74,0.23-1.51,0.38s-1.31.23-1.7,0.27a1.83,1.83,0,0,0-1.76,1.46,1.43,1.43,0,0,0,1.12,1.77,6.87,6.87,0,0,0,1.89.29,7.22,7.22,0,0,0,2.13-.23l1.11-.31,1.71-.51,2.44-.75v2.88a3.27,3.27,0,0,0,.68,2.42,1.48,1.48,0,0,0,1.19.45,1.75,1.75,0,0,0,.85-0.32,4,4,0,0,0,1.32-1.87,8.32,8.32,0,0,0,.51-3.09V120.49a4.55,4.55,0,0,1,.16-1.08,1.6,1.6,0,0,0-.63-1.92,4.5,4.5,0,0,0-1.08-.33c-0.44-.09-0.94-0.17-1.51-0.23s-1.15-.1-1.76-0.12a15.67,15.67,0,0,0-1.7,0h0a5.17,5.17,0,0,0-2,.37,1.68,1.68,0,0,0-1.14,1.53A1.61,1.61,0,0,0,460.61,120.08Z"/><path class="cls-16" d="M364.41,212.73h0a31.34,31.34,0,0,0-4,.62,8.15,8.15,0,0,0-1.67.55c-0.42.2-.84,0.42-1.26,0.65a6.74,6.74,0,0,1-1.54.55c-1,.29-2.29.63-3.74,1s-1.83.49-3.56,0.91-3.55.85-5.43,1.29l-5.62,1.28q-2.78.62-5.37,1.12l-4.68.88q-1.6.29-3.09,0.49c-1,.13-1.92.22-3,0.27a1.84,1.84,0,0,0-1.54,1.12,1.38,1.38,0,0,0,.91,1.94,20.79,20.79,0,0,0,2.6.81,6.85,6.85,0,0,0,2.25.18c0.34,0,1.67-.08,2-0.16a11,11,0,0,0,2.05-.69,10.81,10.81,0,0,1,1.42-.55c1.31-.35,2.26-0.83,4.84-1.45s5.49-1.29,8.7-2,6.55-1.49,10-2.24,6.75-1.46,9.85-2.1a2.94,2.94,0,0,0,1.71-1,2.4,2.4,0,0,0,.61-1.54,1.91,1.91,0,0,0-.67-1.44A2.27,2.27,0,0,0,364.41,212.73Z"/><path class="cls-17" d="M414.17,222.38h0a14.21,14.21,0,0,0-2.79.35,8.39,8.39,0,0,0-1.56.58l-1.17.59a8.62,8.62,0,0,1-1.72.55l-12.5,2.87h-0.17v-7.1a3.27,3.27,0,0,1,.14-0.93,1.53,1.53,0,0,0-.62-1.85,2.74,2.74,0,0,0-1.26-.23,12.9,12.9,0,0,0-1.48.1c-0.53.06-1,.14-1.53,0.24l-1.15.23a5.19,5.19,0,0,0-1.79.69,1.14,1.14,0,0,0,.39,2.24c0.38,0.06.82,0.11,1.29,0.14a9.79,9.79,0,0,1,1.23.16,0.81,0.81,0,0,1,.23.07V228a2.82,2.82,0,0,0,1.57,2.7,4.35,4.35,0,0,0,2.37.42,6.89,6.89,0,0,0,1-.17l19.65-4.4a3.1,3.1,0,0,0,1.67-.88,2.19,2.19,0,0,0,.64-1.5,1.66,1.66,0,0,0-.73-1.39A2.49,2.49,0,0,0,414.17,222.38Z"/><path class="cls-18" d="M400.14,207c-1.65.67-3.31,1.3-4.93,1.86s-3.21,1.06-4.8,1.51-3,.82-4.4,1.14h-0.17V205l13.6-3a3.09,3.09,0,0,0,1.53-.82,2.4,2.4,0,0,0,.71-1.37,1.69,1.69,0,0,0-.52-1.44,1.8,1.8,0,0,0-.8-0.44c0-.32.08-0.65,0.11-1q0.1-1,.23-2c0.08-.68.16-1.33,0.21-2,0-.46.08-0.86,0.13-1.21a3.28,3.28,0,0,0,.37-0.58,3.38,3.38,0,0,0,.36-1.14,2.16,2.16,0,0,0-.17-1.21,1.47,1.47,0,0,0-1.46-.77,6.7,6.7,0,0,0-1.59.2,9.73,9.73,0,0,0-1.27.42l-1.13.5c-0.35.16-.74,0.33-1.09,0.47l-1.43.38-2.67.66-3,.69c-1,.22-1.73.36-2.33,0.45q-1.6.29-2.84,0.47t-2.71.3a2,2,0,0,0-1.86,1.3,1.46,1.46,0,0,0,1,1.93,13.8,13.8,0,0,0,2.63.72,7.77,7.77,0,0,0,3,0,7.3,7.3,0,0,0,2-.79,5.78,5.78,0,0,1,1.48-.61q1-.29,2.23-0.6l2.57-.66q1.27-.34,2.4-0.62l0.9-.22-0.16,5.52c-0.58.18-1.13,0.38-1.67,0.58a20.72,20.72,0,0,1-2.14.67L385,201.51a17.31,17.31,0,0,0-2.62.23c-0.83.13-1.58,0.23-2.25,0.29a1.54,1.54,0,0,0-1.16.65,1.79,1.79,0,0,0-.33,1,2,2,0,0,0,.18.86,1.2,1.2,0,0,0,1,.7,1.42,1.42,0,0,1,1.49,1.63v6a2.88,2.88,0,0,0,1.47,2.69,4.15,4.15,0,0,0,2.39.45A6.59,6.59,0,0,0,386,216c1.42-.33,3-0.76,4.63-1.28s3.37-1.12,5.11-1.8,3.48-1.41,5.24-2.2,3.43-1.62,5-2.45a2.45,2.45,0,0,0,1.11-1.13,2.21,2.21,0,0,0,.24-1.29,1.42,1.42,0,0,0-.78-1.07,1.77,1.77,0,0,0-1.59.1C403.4,205.6,401.79,206.32,400.14,207Z"/><path class="cls-19" d="M411,216.39a1.49,1.49,0,0,0,1.19.45,1.79,1.79,0,0,0,.85-0.32,4,4,0,0,0,1.31-1.87,8.07,8.07,0,0,0,.51-3.09V183.83a4.41,4.41,0,0,1,.15-1.08,1.6,1.6,0,0,0-.63-1.93,4.49,4.49,0,0,0-1.08-.33c-0.44-.09-0.94-0.17-1.51-0.23s-1.14-.1-1.76-0.12a8.34,8.34,0,0,0-1.68,0,4.65,4.65,0,0,0-2,.32,1.68,1.68,0,0,0-1.14,1.53,1.65,1.65,0,0,0,1.21,1.35c0.5,0.21,1.06.42,1.67,0.62s1.14,0.39,1.68.6a1.88,1.88,0,0,1,.55.29V214A3.25,3.25,0,0,0,411,216.39Z"/><path class="cls-20" d="M441.23,213a4.28,4.28,0,0,0,2.41.44,6.39,6.39,0,0,0,1-.16l19-4.29a3.22,3.22,0,0,0,1.65-.83,2.11,2.11,0,0,0,.66-1.5,1.68,1.68,0,0,0-.74-1.4,2.51,2.51,0,0,0-1.71-.39h0a14.24,14.24,0,0,0-2.79.35,8,8,0,0,0-1.56.58l-1.17.59a8.15,8.15,0,0,1-1.71.55l-11.93,2.65h-0.07v-6.19l18.59-4.2a3.24,3.24,0,0,0,1.65-.83,2.12,2.12,0,0,0,.67-1.5,1.68,1.68,0,0,0-.74-1.39,2.5,2.5,0,0,0-1.72-.39h0a14.91,14.91,0,0,0-2.79.35,8.3,8.3,0,0,0-1.56.58l-1.17.59a8.15,8.15,0,0,1-1.71.55l-11.21,2.52V194l18.85-4.23a3.1,3.1,0,0,0,1.67-.88,2.2,2.2,0,0,0,.65-1.5,1.67,1.67,0,0,0-.74-1.39,2.5,2.5,0,0,0-1.72-.39,14.25,14.25,0,0,0-2.79.35,7.89,7.89,0,0,0-1.56.57l-1.17.59a8.8,8.8,0,0,1-1.72.55l-12.31,2.74a27.09,27.09,0,0,0-2.82.19,24.08,24.08,0,0,0-2.68.45,1.76,1.76,0,0,0-1.33,1.62,1.3,1.3,0,0,0,1.13,1.55,4,4,0,0,1,1.57.56,1,1,0,0,1,.42.93v14.6A2.89,2.89,0,0,0,441.23,213Z"/><path class="cls-21" d="M384,253.61l-1.07.09a1.83,1.83,0,0,0-1.54,1.12,1.38,1.38,0,0,0,.91,1.94,10.56,10.56,0,0,0,2.43.56,8.53,8.53,0,0,0,1.78.05,5.81,5.81,0,0,0,.87-0.13l5.53-1.24a2.48,2.48,0,0,0,1.53-.82,2.12,2.12,0,0,0,.57-1.39,1.58,1.58,0,0,0-.65-1.29,2.14,2.14,0,0,0-1.63-.3q-1.52.23-3,.48c-1,.17-1.84.34-2.64,0.52a7.65,7.65,0,0,1-.76.13l-1.17.15Z"/><path class="cls-22" d="M416,242.61a5.77,5.77,0,0,0-2.41-.57,31.82,31.82,0,0,0-3.2-.11,5.12,5.12,0,0,0-2,.37,1.69,1.69,0,0,0-1.14,1.53,1.58,1.58,0,0,0,1.08,1.33c0.43,0.2.93,0.4,1.49,0.61l1.54,0.59a1.48,1.48,0,0,1,.47.27v15.82L407,263.81v-13a4.27,4.27,0,0,1,.16-1.07,1.6,1.6,0,0,0-.58-1.9,5.78,5.78,0,0,0-2.41-.57,31.85,31.85,0,0,0-3.2-.11,5.13,5.13,0,0,0-2,.37,1.68,1.68,0,0,0-1.14,1.53,1.58,1.58,0,0,0,1.08,1.32c0.43,0.2.93,0.4,1.49,0.61l1.54,0.59a1.62,1.62,0,0,1,.48.27v36a3.27,3.27,0,0,0,.68,2.42,1.49,1.49,0,0,0,1.19.45,1.77,1.77,0,0,0,.85-0.32,4,4,0,0,0,1.31-1.87,8.16,8.16,0,0,0,.51-3.09V267.76l4.83-1.36v22a3.27,3.27,0,0,0,.68,2.41,1.49,1.49,0,0,0,1.19.45,1.77,1.77,0,0,0,.85-0.32,4,4,0,0,0,1.31-1.87,8.22,8.22,0,0,0,.51-3.09v-40.4a4.27,4.27,0,0,1,.15-1.07A1.59,1.59,0,0,0,416,242.61Z"/><path class="cls-23" d="M397.22,257.36a18.49,18.49,0,0,0-2.55.35,10.52,10.52,0,0,0-1.56.48,6.74,6.74,0,0,0-1.15.62,6.41,6.41,0,0,1-1,.51c-0.27.09-.71,0.22-1.33,0.39s-1.33.35-2.11,0.54l-2.39.56c-0.8.19-1.51,0.34-2.15,0.46q-1.59.34-3,.56t-2.26.29a1.84,1.84,0,0,0-1.54,1.12,1.37,1.37,0,0,0,.91,1.94,9.73,9.73,0,0,0,2.44.54,7.78,7.78,0,0,0,2.64-.11,10.79,10.79,0,0,0,2-.69,11.48,11.48,0,0,1,1.43-.55l0.56-.16a1.52,1.52,0,0,0-1.28,1.4,1.14,1.14,0,0,0,.62,1l0.29,0.15a18,18,0,0,0-2.08,1.13,11,11,0,0,0-2.49,2.15,11.64,11.64,0,0,0-1.85,3,9.66,9.66,0,0,0-.75,3.86,7.31,7.31,0,0,0,.8,3.48,6.73,6.73,0,0,0,2.17,2.43,7.64,7.64,0,0,0,3.22,1.22,9.84,9.84,0,0,0,2.28.07,11.79,11.79,0,0,0,1.6-.25,13.4,13.4,0,0,0,3.84-1.56,11.94,11.94,0,0,0,3-2.55,10.91,10.91,0,0,0,1.91-3.33,11.12,11.12,0,0,0,.65-3.79,6.72,6.72,0,0,0-2-5,7.82,7.82,0,0,0-5.16-1.92,2,2,0,0,0-.94-1.19,4.06,4.06,0,0,0-1.88-.52,5.37,5.37,0,0,0-1.4.11l1.91-.5q1.65-.42,3.28-0.79l3.08-.7,2.37-.56a3.11,3.11,0,0,0,1.67-.88,2.2,2.2,0,0,0,.64-1.5,1.68,1.68,0,0,0-.74-1.39A2.54,2.54,0,0,0,397.22,257.36Zm-8.71,12.2a5.94,5.94,0,0,0,.72-0.4,4.9,4.9,0,0,1,3.51,1.21,4.25,4.25,0,0,1,1.16,3.08,6.28,6.28,0,0,1-1.45,4.21,7,7,0,0,1-4,2.32,8.62,8.62,0,0,1-1.12.17,4.15,4.15,0,0,1-2.66-.53c-0.85-.55-1.29-1.69-1.29-3.37a6.28,6.28,0,0,1,1.27-4.12A9.25,9.25,0,0,1,388.51,269.56Z"/><path class="cls-24" d="M476.64,260.74a2.76,2.76,0,0,0-1.72-.44,14.09,14.09,0,0,0-2.88.39,8.39,8.39,0,0,0-1.67.64c-0.4.21-.77,0.43-1.12,0.64a3.66,3.66,0,0,1-1.17.37l-0.61.15V246.25a4.56,4.56,0,0,1,.16-1.11,1.52,1.52,0,0,0-.63-1.89,4.75,4.75,0,0,0-1.09-.34c-0.44-.09-0.94-0.17-1.51-0.23s-1.15-.1-1.76-0.12-1.18,0-1.73,0a5.12,5.12,0,0,0-2,.37,1.68,1.68,0,0,0-1.14,1.54A1.63,1.63,0,0,0,459,245.8c0.51,0.21,1.06.42,1.67,0.62s1.14,0.39,1.68.6a2.26,2.26,0,0,1,.54.28v26c-0.94.37-2,.74-3.06,1.13l-4.22,1.47-4.47,1.52-3.41,1.12V276a4.58,4.58,0,0,1,.16-1.05,1.62,1.62,0,0,0-.58-1.92,3.06,3.06,0,0,0-.39-0.21,13.88,13.88,0,0,0,7-4.71,11.89,11.89,0,0,0,2-3.79,13.72,13.72,0,0,0,.62-4,6.55,6.55,0,0,0-.71-3,7,7,0,0,0-2-2.35,9.62,9.62,0,0,0-3-1.52,12,12,0,0,0-3.07-.53,2.16,2.16,0,0,0-.94-1.35,4.48,4.48,0,0,0-1.93-.7,5.29,5.29,0,0,0-2,.11c-1.29.33-1.48,1-1.48,1.42a1.17,1.17,0,0,0,.63,1l0.53,0.3a2.1,2.1,0,0,1,.28.18,23.78,23.78,0,0,0-3,1.69,17.23,17.23,0,0,0-2.9,2.43,12.75,12.75,0,0,0-2.23,3.21,9.44,9.44,0,0,0-.16,7.7,7.2,7.2,0,0,0,2.27,2.9,8.68,8.68,0,0,0,3.67,1.56l0.46,0.08a1.55,1.55,0,0,0-.37,1,1.15,1.15,0,0,0,.84,1.12l0.76,0.24a3.57,3.57,0,0,1,.67.28,0.74,0.74,0,0,1,.22.17V280c-1.09.34-2.14,0.64-3.12,0.91l-3.19.86q-1.6.39-3.62,0.82a28,28,0,0,1-3.44.54,1.83,1.83,0,0,0-1.54,1.12,1.37,1.37,0,0,0,.9,1.94,21.89,21.89,0,0,0,2.6.81,7,7,0,0,0,3.27,0,10.77,10.77,0,0,0,2-.68,11.38,11.38,0,0,1,1.44-.55c1.32-.39,3-0.94,5.23-1.7l6.81-2.37c2.42-.85,4.83-1.74,7.17-2.64q2.83-1.09,5.14-2v11.84a3.39,3.39,0,0,0,.66,2.42,1.49,1.49,0,0,0,1.22.49,1.78,1.78,0,0,0,.84-0.31,4,4,0,0,0,1.32-1.87,8.13,8.13,0,0,0,.51-3.09V266.18l7.59-1.72a3.23,3.23,0,0,0,1.65-.83,2.11,2.11,0,0,0,.67-1.5A1.68,1.68,0,0,0,476.64,260.74Zm-34.29,8.72a4.51,4.51,0,0,1-2-.85,3.71,3.71,0,0,1-1.19-1.61,6.84,6.84,0,0,1,1.38-6.94,13.1,13.1,0,0,1,4.94-3.32l0.33-.17,0.26-.13a8.34,8.34,0,0,1,2.54.36,6.22,6.22,0,0,1,2,1.06,4.67,4.67,0,0,1,1.26,1.53,3.75,3.75,0,0,1,.44,1.75,8.13,8.13,0,0,1-1.7,4.94,8.94,8.94,0,0,1-2.18,2,9.21,9.21,0,0,1-3.08,1.25A7.81,7.81,0,0,1,442.34,269.45Z"/><path class="cls-25" d="M364.41,264.86h0a17.55,17.55,0,0,0-2.81.32,8.08,8.08,0,0,0-1.68.56q-0.63.3-1.25,0.65a6.85,6.85,0,0,1-1.55.56q-2,.59-5.19,1.39-2.73.7-5.82,1.45v-4.36a4.6,4.6,0,0,1,.16-1.06,1.62,1.62,0,0,0-.58-1.91,4.47,4.47,0,0,0-2-.53,8.28,8.28,0,0,0-2.17.09,10.4,10.4,0,0,0-1.28.25c1.58-1.17,3.11-2.37,4.57-3.61l2.35,0.83c1,0.35,2,.71,2.95,1.07s1.88,0.73,2.74,1.09l2.13,0.91a2.44,2.44,0,0,0,2,.23,2.2,2.2,0,0,0,1.32-1.3,3,3,0,0,0-.94-3.37,8,8,0,0,0-2-1.33,5.88,5.88,0,0,0-1.81-.48c-0.53,0-1.05-.07-1.57-0.06a6,6,0,0,1-1.37-.16l-2.32-.54c0.89-.85,1.74-1.7,2.55-2.54a45.47,45.47,0,0,0,3-3.46,2.23,2.23,0,0,0,.77-1.4,2.49,2.49,0,0,0-.16-1.24,2.31,2.31,0,0,0-.75-1,2.08,2.08,0,0,0-1.13-.44,4.64,4.64,0,0,0-2.48.61,7.19,7.19,0,0,1-1.2.6l-0.92.24-1.92.47-2.5.6-2.6.61-2.34.53c-0.71.16-1.25,0.27-1.63,0.34q-1.13.2-2.42,0.38t-2.76.31a2,2,0,0,0-1.86,1.3,1.39,1.39,0,0,0,1,1.88,14.89,14.89,0,0,0,2.5.73,6.64,6.64,0,0,0,2.78,0,7.32,7.32,0,0,0,1.88-.72,5.64,5.64,0,0,1,1.4-.55l1.88-.49,3-.77q1.52-.4,2.95-0.74c-0.71.77-1.49,1.56-2.32,2.36-1.53,1.47-3.23,3-5,4.41s-3.75,2.89-5.74,4.28-4,2.66-6,3.84a2.64,2.64,0,0,0-1.11,1.19,1.6,1.6,0,0,0,0,1.41,1.55,1.55,0,0,0,1,.79,2.11,2.11,0,0,0,1.52-.28,66.22,66.22,0,0,0,7.83-4.67l1-.72a1.5,1.5,0,0,0-.1.52,1.26,1.26,0,0,0,.89,1.2,10,10,0,0,0,1,.32,9.33,9.33,0,0,1,.93.3,0.75,0.75,0,0,1,.21.12v4.93q-3.63.81-7.17,1.56c-2.59.55-4.92,1-6.91,1.33q-1.6.29-3.09,0.49c-1,.13-1.92.22-3,0.27a1.84,1.84,0,0,0-1.54,1.12,1.37,1.37,0,0,0,.91,1.94,20.83,20.83,0,0,0,2.6.81,7,7,0,0,0,2.25.18,7.2,7.2,0,0,0,1-.16,10.77,10.77,0,0,0,2.05-.69,11.15,11.15,0,0,1,1.42-.54q2-.53,5.84-1.45t8.7-2q4.82-1.1,10-2.24t9.85-2.1a2.91,2.91,0,0,0,1.71-1,2.43,2.43,0,0,0,.61-1.54,1.92,1.92,0,0,0-.67-1.44A2.27,2.27,0,0,0,364.41,264.86Z"/><path class="cls-26" d="M336.59,296.65L354,292.79a3.21,3.21,0,0,0,1.66-.88,2.17,2.17,0,0,0,.66-1.5,1.64,1.64,0,0,0-.76-1.39,2.08,2.08,0,0,0-1-.34q0.08-.76.18-1.66l0.32-3c0.11-1,.21-1.94.32-2.83,0.09-.72.16-1.31,0.23-1.77a3.77,3.77,0,0,0,.37-0.58,3.43,3.43,0,0,0,.37-1.14,2.1,2.1,0,0,0-.18-1.21,1.52,1.52,0,0,0-1.51-.77,7.39,7.39,0,0,0-1.63.2,12.93,12.93,0,0,0-1.28.39,11.7,11.7,0,0,0-1.24.53,7.11,7.11,0,0,1-1.13.44l-1,.28-2.17.54-2.81.68-3,.69-2.67.58-1.75.35a23.09,23.09,0,0,0-2.76.18q-1.3.16-2.36,0.25a1.62,1.62,0,0,0-1.2.66,1.77,1.77,0,0,0-.34,1,2,2,0,0,0,.18.86,1.23,1.23,0,0,0,1,.7,1.49,1.49,0,0,1,1.52,1.66l0.43,9.06c0,0.84.29,1.75,0.86,1.94A7,7,0,0,0,336.59,296.65Zm14-7.14-1.27.47a13.43,13.43,0,0,1-1.9.55l-10.56,2.3c0-.73,0-1.5,0-2.31V284l2.07-.5q1.79-.44,4-0.93l4.5-1,3.39-.73Z"/><path class="cls-27" d="M472.83,212.73h0a31.42,31.42,0,0,0-4,.62,8.17,8.17,0,0,0-1.67.55c-0.42.2-.84,0.42-1.26,0.65a6.7,6.7,0,0,1-1.54.55c-1,.29-2.29.63-3.74,1s-1.83.49-3.56,0.91-3.55.85-5.43,1.29L446,219.59q-2.78.62-5.37,1.12l-4.68.88q-1.6.29-3.09,0.49c-1,.13-1.92.22-3,0.27a1.84,1.84,0,0,0-1.54,1.12,1.38,1.38,0,0,0,.91,1.94,20.79,20.79,0,0,0,2.6.81,6.85,6.85,0,0,0,2.25.18c0.34,0,1.67-.08,2-0.16a11,11,0,0,0,2.05-.69,10.81,10.81,0,0,1,1.42-.55c1.31-.35,2.26-0.83,4.84-1.45s5.49-1.29,8.7-2,6.55-1.49,10-2.24,6.75-1.46,9.85-2.1a2.94,2.94,0,0,0,1.71-1,2.4,2.4,0,0,0,.61-1.54,1.91,1.91,0,0,0-.67-1.44A2.27,2.27,0,0,0,472.83,212.73Z"/><path class="cls-28" d="M359.09,202.6a2.54,2.54,0,0,0-1.74-.39,18.52,18.52,0,0,0-2.55.35,10.18,10.18,0,0,0-1.55.48,6.68,6.68,0,0,0-1.16.62,5.64,5.64,0,0,1-.89.46l0.42-7.49a17.09,17.09,0,0,1,.59-2.1,5.62,5.62,0,0,0,0-3.33c1.32-.29,3.71-0.88,4.29-1a3.09,3.09,0,0,0,1.67-.88,2.19,2.19,0,0,0,.65-1.5,1.68,1.68,0,0,0-.74-1.39,2.54,2.54,0,0,0-1.74-.38,18.21,18.21,0,0,0-2.55.35,10.22,10.22,0,0,0-1.55.48,8.48,8.48,0,0,0-1.12.57,8.46,8.46,0,0,1-1,.51q-0.4.13-2.14,0.55l-4.07,1q-2.26.55-4.62,1.08l-3.92.87c-1.06.23-2.06,0.41-3,.56s-1.68.24-2.26,0.29a1.83,1.83,0,0,0-1.54,1.12,1.39,1.39,0,0,0,.91,1.94,9.92,9.92,0,0,0,2.45.54,7.75,7.75,0,0,0,2.64-.11l0.25-.06a2.14,2.14,0,0,0-.33.16,1.62,1.62,0,0,0-.77,1,1.57,1.57,0,0,0,.26,1.3,6.16,6.16,0,0,1,.61,1.35q0.32,1,.58,2t0.4,2.21c0.1,0.75.17,1.41,0.2,2a2.37,2.37,0,0,0,.82,1.89l-2.25.5q-1.59.34-3,.56c-0.93.15-1.68,0.24-2.25,0.29a1.78,1.78,0,0,0-1,.42,1.93,1.93,0,0,0-.56.74,1.35,1.35,0,0,0,0,1.11,1.44,1.44,0,0,0,.89.74,10,10,0,0,0,2.43.57,8.46,8.46,0,0,0,1.78.06,5.77,5.77,0,0,0,.87-0.14,9.81,9.81,0,0,0,2.07-.72,6.62,6.62,0,0,1,1.41-.51q1.29-.37,3.15-0.83t3.95-1l4.22-1,4-.9,3.25-.71c1-.2,1.64-0.36,2-0.46a3.1,3.1,0,0,0,1.67-.88,2.19,2.19,0,0,0,.64-1.5A1.67,1.67,0,0,0,359.09,202.6Zm-11.8,2.5q-1.27.32-2.79,0.67l-3.83.89-1,.24,0.12-.16a3.39,3.39,0,0,0,.63-2,10.27,10.27,0,0,0-.37-2.64,18.54,18.54,0,0,0-.87-2.54,13.78,13.78,0,0,0-1.14-2.14,4.59,4.59,0,0,0-1.35-1.43,2.36,2.36,0,0,0-1.38-.35l-0.15,0a10.36,10.36,0,0,0,1.42-.52,11.39,11.39,0,0,1,1.42-.55q2-.53,4.75-1.2c1.1-.27,2.87-0.74,4-1a3.56,3.56,0,0,0-1.19,1.44,1.11,1.11,0,0,0,.54,1.35,9.93,9.93,0,0,0,1.1.59,9.4,9.4,0,0,1,1,.54,1.13,1.13,0,0,1,.28.24Z"/><rect class="cls-2" x="313.68" y="106.76" width="171" height="202"/></g></svg>