<svg id="customer_center" data-name="customer center" xmlns="http://www.w3.org/2000/svg" xmlns:xlink="http://www.w3.org/1999/xlink" viewBox="0 0 1920 1050">
  <defs>
    <style>
      .cls-1 {
        font-size: 18px;
        fill: #9b9c9e;
      }

      .cls-1, .cls-6 {
        font-family: Noto Sans CJK KR;
      }

      .cls-2, .cls-3 {
        fill: none;
      }

      .cls-3 {
        stroke: #c6c6c5;
        stroke-miterlimit: 10;
        stroke-width: 2px;
      }

      .cls-4 {
        fill: #f3c262;
      }

      .cls-5, .cls-6 {
        fill: #66635a;
      }

      .cls-6 {
        font-size: 36px;
        font-weight: 700;
      }

      .cls-7 {
        fill: url(#linear-gradient);
      }

      .cls-8 {
        fill: url(#linear-gradient-2);
      }

      .cls-9 {
        fill: url(#linear-gradient-3);
      }

      .cls-10 {
        fill: url(#linear-gradient-4);
      }

      .cls-11 {
        fill: url(#linear-gradient-5);
      }

      .cls-12 {
        fill: url(#linear-gradient-6);
      }

      .cls-13 {
        fill: url(#linear-gradient-7);
      }

      .cls-14 {
        fill: url(#linear-gradient-8);
      }

      .cls-15 {
        fill: url(#linear-gradient-9);
      }

      .cls-16 {
        fill: url(#linear-gradient-10);
      }

      .cls-17 {
        fill: url(#linear-gradient-11);
      }

      .cls-18 {
        fill: url(#linear-gradient-12);
      }

      .cls-19 {
        fill: url(#linear-gradient-13);
      }

      .cls-20 {
        fill: url(#linear-gradient-14);
      }

      .cls-21 {
        fill: url(#linear-gradient-15);
      }

      .cls-22 {
        fill: url(#linear-gradient-16);
      }

      .cls-23 {
        fill: url(#linear-gradient-17);
      }

      .cls-24 {
        fill: url(#linear-gradient-18);
      }

      .cls-25 {
        fill: url(#linear-gradient-19);
      }

      .cls-26 {
        fill: url(#linear-gradient-20);
      }

      .cls-27 {
        fill: url(#linear-gradient-21);
      }
    </style>
    <linearGradient id="linear-gradient" x1="253.83" y1="132.61" x2="263.73" y2="132.61" gradientUnits="userSpaceOnUse">
      <stop offset="0" stop-color="#f2c161"/>
      <stop offset="0.16" stop-color="#f2c161"/>
      <stop offset="1" stop-color="#f2c161"/>
    </linearGradient>
    <linearGradient id="linear-gradient-2" x1="237.73" y1="158.92" x2="263.97" y2="158.92" xlink:href="#linear-gradient"/>
    <linearGradient id="linear-gradient-3" x1="227.37" y1="140.59" x2="252.37" y2="140.59" xlink:href="#linear-gradient"/>
    <linearGradient id="linear-gradient-4" x1="278.46" y1="145.18" x2="305.17" y2="145.18" xlink:href="#linear-gradient"/>
    <linearGradient id="linear-gradient-5" x1="306.48" y1="142.68" x2="326.04" y2="142.68" xlink:href="#linear-gradient"/>
    <linearGradient id="linear-gradient-6" x1="338.9" y1="132.04" x2="360.44" y2="132.04" xlink:href="#linear-gradient"/>
    <linearGradient id="linear-gradient-7" x1="331.57" y1="153.36" x2="375.72" y2="153.36" xlink:href="#linear-gradient"/>
    <linearGradient id="linear-gradient-8" x1="356.94" y1="136.19" x2="372.15" y2="136.19" xlink:href="#linear-gradient"/>
    <linearGradient id="linear-gradient-9" x1="222.64" y1="219.58" x2="269.75" y2="219.58" xlink:href="#linear-gradient"/>
    <linearGradient id="linear-gradient-10" x1="288.64" y1="224.16" x2="319.5" y2="224.16" xlink:href="#linear-gradient"/>
    <linearGradient id="linear-gradient-11" x1="281.05" y1="202.11" x2="310.2" y2="202.11" xlink:href="#linear-gradient"/>
    <linearGradient id="linear-gradient-12" x1="308.04" y1="198.48" x2="317.94" y2="198.48" xlink:href="#linear-gradient"/>
    <linearGradient id="linear-gradient-13" x1="339.42" y1="199.54" x2="368.78" y2="199.54" xlink:href="#linear-gradient"/>
    <linearGradient id="linear-gradient-14" x1="284.14" y1="254.79" x2="297.89" y2="254.79" xlink:href="#linear-gradient"/>
    <linearGradient id="linear-gradient-15" x1="300.75" y1="266.59" x2="319.5" y2="266.59" xlink:href="#linear-gradient"/>
    <linearGradient id="linear-gradient-16" x1="278.93" y1="270.75" x2="302.58" y2="270.75" xlink:href="#linear-gradient"/>
    <linearGradient id="linear-gradient-17" x1="331.05" y1="267.15" x2="380.25" y2="267.15" xlink:href="#linear-gradient"/>
    <linearGradient id="linear-gradient-18" x1="222.63" y1="262.04" x2="269.75" y2="262.04" xlink:href="#linear-gradient"/>
    <linearGradient id="linear-gradient-19" x1="232.25" y1="286.33" x2="259.31" y2="286.33" xlink:href="#linear-gradient"/>
    <linearGradient id="linear-gradient-20" x1="331.06" y1="219.58" x2="378.17" y2="219.58" xlink:href="#linear-gradient"/>
    <linearGradient id="linear-gradient-21" x1="230.21" y1="199.32" x2="262.71" y2="199.32" xlink:href="#linear-gradient"/>
  </defs>
  <title>faq1</title>
  <g id="footer">
    <g>
      <text class="cls-1" transform="translate(153.12 995.79)">Co<tspan x="22.39" y="0">p</tspan><tspan x="33.48" y="0">yright© 김사원프린트좀해와 2016</tspan></text>
      <rect class="cls-2" x="145.27" y="972.86" width="313.57" height="32.35"/>
    </g>
  </g>
  <g id="ten_next_page" data-name="ten next page">
    <rect class="cls-2" x="700.08" y="116.8" width="1127.99" height="856.06"/>
  </g>
  <g id="dividing_line" data-name="dividing line">
    <line class="cls-3" x1="604.1" x2="604.1" y2="1050"/>
  </g>
  <g id="menu_selected" data-name="menu selected">
    <path class="cls-4" d="M155.27,544.61c16.2-5.81,31.45,9.75,47.7,7.43,1.28-.18,1.29-3,0-2.82-16.47,2.35-31.74-13.25-48.24-7.33-1.26.45-.73,3.17,0.54,2.72h0Z"/>
  </g>
  <g id="menu">
    <g id="cs" style="cursor:pointer; pointer-events:all;">
      <path class="cls-5" d="M178.62,491.6v1.47H160.86V491.6h7.28v-3.79h1.8v3.79h8.67Zm-2.07,6.91c0,2.24-2.68,3.61-6.89,3.61s-6.87-1.36-6.87-3.61,2.66-3.63,6.87-3.63S176.55,496.22,176.55,498.51Zm-1.94-13.64H163v-1.45H176.4v1.67a18.28,18.28,0,0,1-.55,5.21l-1.76-.2a17.87,17.87,0,0,0,.53-5v-0.22Zm0.13,13.64c0-1.41-2-2.25-5.08-2.25s-5.06.84-5.06,2.25,2,2.2,5.06,2.2S174.75,499.87,174.75,498.51Z"/>
      <path class="cls-5" d="M188.1,488.43a9.19,9.19,0,0,0,5.28,8l-1,1.45a10.43,10.43,0,0,1-5.17-6,11.07,11.07,0,0,1-5.08,6.51l-1.06-1.45a10.09,10.09,0,0,0,5.24-8.47v-2.51h-4.58v-1.5h11v1.5H188.1v2.51Zm9.11-6v19.71h-1.8V482.42h1.8Z"/>
      <path class="cls-5" d="M207.92,487.66a10,10,0,0,0,5,8.45l-1.12,1.43A10.88,10.88,0,0,1,207,491.4a10.93,10.93,0,0,1-4.91,6.54l-1.08-1.45a10.46,10.46,0,0,0,5.08-8.82v-3.54h1.78v3.54Zm11.82,4.25h-3.26v10.23h-1.8V482.42h1.8v8h3.26v1.5Z"/>
      <path class="cls-5" d="M233.24,486.07H221.6v-1.45h4.91v-2.4h1.8v2.4h4.93v1.45Zm-5.83,8c-2.82,0-4.71-1.36-4.71-3.5s1.89-3.48,4.71-3.48,4.73,1.36,4.73,3.48S230.23,494,227.41,494Zm9.68,4.66c0,2.16-2.46,3.41-6.42,3.41s-6.43-1.25-6.43-3.41,2.44-3.41,6.43-3.41S237.09,496.53,237.09,498.7Zm-9.68-6c1.8,0,3-.84,3-2.13s-1.21-2.11-3-2.11-3,.84-3,2.11S225.63,492.67,227.41,492.67Zm7.9,6c0-1.28-1.76-2-4.64-2s-4.64.75-4.64,2,1.76,2,4.64,2S235.31,500,235.31,498.7Zm4.47-10.83v1.5h-2.93v5.72H235V482.4h1.8v5.48h2.93Z"/>
      <rect class="cls-2" x="156.38" y="473.45" width="91.68" height="33.58"/>
    </g>
    <g>
      <path class="cls-5" d="M161.85,537.18h9.31v1.72H163.9v5.46h6.16v1.72H163.9v7.24h-2V537.18Z"/>
      <path class="cls-5" d="M180.46,548.38h-5.9L173,553.31h-2.07l5.48-16.13h2.27l5.48,16.13H182ZM180,546.75l-0.77-2.46c-0.59-1.83-1.1-3.59-1.63-5.46h-0.09c-0.51,1.89-1,3.63-1.61,5.46l-0.79,2.46H180Z"/>
      <path class="cls-5" d="M199.39,557a7.28,7.28,0,0,1-2.31.35,6.09,6.09,0,0,1-5.92-3.83c-3.52-.48-5.9-3.61-5.9-8.34,0-5.17,2.84-8.32,6.89-8.32S199,540,199,545.19c0,4.64-2.29,7.72-5.7,8.32a4.19,4.19,0,0,0,4,2.16,5.54,5.54,0,0,0,1.69-.24Zm-7.24-5.08c2.88,0,4.8-2.62,4.8-6.73s-1.91-6.54-4.8-6.54-4.8,2.49-4.8,6.54S189.24,551.92,192.15,551.92Z"/>
      <rect class="cls-2" x="155.65" y="531.51" width="50.74" height="28.68"/>
    </g>
    <g id="ask" style="cursor:pointer; pointer-events:all;">
      <path class="cls-5" d="M178.71,598.1v1.45h-7.92v4H169v-4h-8.21V598.1h17.93Zm-13.84,7.72H176.7v1.47H163.06v-5.63h1.8v4.16Zm11.51-10H163.11v-6.93h13.27v6.93Zm-1.78-5.48h-9.72v4h9.72v-4Z"/>
      <path class="cls-5" d="M181.19,601.93a88.86,88.86,0,0,0,12.85-.68l0.15,1.34a70.52,70.52,0,0,1-12.78.86Zm11.55-7.83c0,2.75-2.2,4.64-5.28,4.64s-5.28-1.89-5.28-4.64,2.22-4.64,5.28-4.64S192.74,591.32,192.74,594.09Zm-8.8,0c0,1.83,1.47,3.1,3.52,3.1s3.52-1.28,3.52-3.1-1.47-3.1-3.52-3.1S183.94,592.25,183.94,594.09Zm13.2-6.09v19.78h-1.8V588h1.8Z"/>
      <rect class="cls-2" x="156.38" y="584.49" width="45.84" height="30.09"/>
    </g>
  </g>
  <g id="text">
    <text class="cls-6" transform="translate(159.65 433.51)">고객센터</text>
  </g>
  <g id="logo">
    <g>
      <g>
        <g>
          <path class="cls-7" d="M255.06,121.18c0.5,0.19,1,.38,1.65.58s1.14,0.39,1.68.6a1.81,1.81,0,0,1,.54.29v21.79a3.26,3.26,0,0,0,.68,2.41,1.49,1.49,0,0,0,1.19.46,1.78,1.78,0,0,0,.85-0.32,4,4,0,0,0,1.31-1.87,8.09,8.09,0,0,0,.51-3.09V121.6a4.46,4.46,0,0,1,.16-1.07,1.59,1.59,0,0,0-.63-1.92,4.49,4.49,0,0,0-1.09-.34c-0.44-.09-0.94-0.17-1.52-0.23s-1.14-.1-1.75-0.12-1.26,0-1.73,0a5.16,5.16,0,0,0-2,.37,1.68,1.68,0,0,0-1.15,1.53A1.61,1.61,0,0,0,255.06,121.18Z"/>
          <path class="cls-8" d="M244.73,169.23l16.93-3.82a3.08,3.08,0,0,0,1.61-.87,2.2,2.2,0,0,0,.64-1.5,1.66,1.66,0,0,0-.73-1.39,2,2,0,0,0-1-.35c0.05-.51.11-1.06,0.17-1.66l0.31-3c0.1-1,.21-1.94.31-2.83,0.08-.72.16-1.31,0.22-1.77a3.52,3.52,0,0,0,.36-0.58,3.49,3.49,0,0,0,.36-1.14,2.16,2.16,0,0,0-.18-1.21,1.47,1.47,0,0,0-1.46-.77,6.84,6.84,0,0,0-1.58.2,12,12,0,0,0-1.24.38,10.76,10.76,0,0,0-1.2.53,6.9,6.9,0,0,1-1.1.44l-1,.28-2.1.54-2.73.67-2.88.68-2.59.58-1.7.35a21.94,21.94,0,0,0-2.68.17q-1.26.16-2.29,0.24a1.55,1.55,0,0,0-1.16.65,1.8,1.8,0,0,0-.33,1,2,2,0,0,0,.18.86,1.2,1.2,0,0,0,1,.71,1.47,1.47,0,0,1,1.47,1.67l0.42,9.06c0,0.84.29,1.76,0.83,1.94A6.61,6.61,0,0,0,244.73,169.23Zm13.55-7.1-1.23.46a12.79,12.79,0,0,1-1.84.54L245,165.41q0-1.09,0-2.31v-6.48l2-.5q1.74-.43,3.84-0.92l4.37-1,3.29-.72Z"/>
          <path class="cls-9" d="M229,155.5h0.12a2.85,2.85,0,0,0,1.37-.55c1.76-1.3,3.68-2.91,5.71-4.75a85.2,85.2,0,0,0,6-6.12,69.67,69.67,0,0,0,5.55-7.1,41.88,41.88,0,0,0,4.11-7.46,2.92,2.92,0,0,0,.48-1.38,2.7,2.7,0,0,0-.19-1.19,2,2,0,0,0-.76-0.94,1.75,1.75,0,0,0-1.11-.31h0l-0.38,0a7,7,0,0,0-2.5.62,21.49,21.49,0,0,1-2.27.93,11.61,11.61,0,0,1-1.25.36c-0.71.18-1.53,0.38-2.46,0.59s-1.88.42-2.85,0.63l-2.43.49q-1.6.29-2.84,0.47c-0.83.12-1.74,0.24-2.71,0.36a2,2,0,0,0-1.86,1.3,1.38,1.38,0,0,0,1,1.88,15.34,15.34,0,0,0,2.61.75,7,7,0,0,0,3,0,7.33,7.33,0,0,0,2-.79,5.8,5.8,0,0,1,1.48-.61q1-.29,2.27-0.63l2.61-.66q1.34-.32,2.52-0.63l0.25-.07a50.67,50.67,0,0,1-3.11,5.2,73.94,73.94,0,0,1-4.81,6.32c-1.7,2-3.44,3.87-5.18,5.56s-3.4,3.19-4.93,4.45a2.72,2.72,0,0,0-1,1.41,1.5,1.5,0,0,0,.27,1.4A1.53,1.53,0,0,0,229,155.5Z"/>
        </g>
        <g>
          <path class="cls-10" d="M280.1,161.23l0.14,0a2.77,2.77,0,0,0,1.39-.71,53,53,0,0,0,6.22-6.89,79.09,79.09,0,0,0,4.73-7L294.3,148q1.48,1.15,2.93,2.32l2.63,2.13a18.58,18.58,0,0,1,1.45,1.25,2,2,0,0,0,1.67.78l0.24,0a2.27,2.27,0,0,0,1.46-1.09,3.64,3.64,0,0,0,.47-1.78,3.28,3.28,0,0,0-.58-2,8,8,0,0,0-1.68-1.87,9,9,0,0,0-1.74-1.08q-0.84-.39-1.71-0.7a6.7,6.7,0,0,1-1.46-.72l-3.33-2.13a52.39,52.39,0,0,0,2.67-5.78,14.78,14.78,0,0,0,1.18-5,1.82,1.82,0,0,0-.71-1.4,5.56,5.56,0,0,0-1.31-.81,10.82,10.82,0,0,0-1.61-.57,12.58,12.58,0,0,0-1.6-.33,3.94,3.94,0,0,0-2.14.13,2,2,0,0,0-1.39,1.45,1.6,1.6,0,0,0,.65,1.48,13.42,13.42,0,0,0,1.08.83,11.91,11.91,0,0,1,1,.79,1.89,1.89,0,0,1,.4.46,17,17,0,0,1-1.23,4.89,46.71,46.71,0,0,1-3.07,6.28,71.24,71.24,0,0,1-9.41,12.66,2.45,2.45,0,0,0-.75,1.48,1.43,1.43,0,0,0,.5,1.26A1.54,1.54,0,0,0,280.1,161.23Z"/>
          <path class="cls-11" d="M323.59,135.87h0a15.93,15.93,0,0,0-2.86.35,7.46,7.46,0,0,0-1.7.62c-0.4.21-.77,0.43-1.12,0.64a4.28,4.28,0,0,1-1.14.42l-0.64.14V121.78a4.4,4.4,0,0,1,.16-1.08,1.6,1.6,0,0,0-.64-1.92,4.4,4.4,0,0,0-1.08-.33c-0.44-.09-0.94-0.17-1.51-0.23s-1.14-.1-1.76-0.12-1.18,0-1.72,0a5.16,5.16,0,0,0-2,.37,1.68,1.68,0,0,0-1.15,1.54,1.64,1.64,0,0,0,1.21,1.35c0.5,0.21,1.06.41,1.67,0.61s1.14,0.39,1.69.6a2.57,2.57,0,0,1,.54.27v41.56a3.38,3.38,0,0,0,.66,2.42,1.48,1.48,0,0,0,1.22.49,1.73,1.73,0,0,0,.84-0.31,4.09,4.09,0,0,0,1.32-1.87,8.18,8.18,0,0,0,.51-3.09V141.71l7.59-1.72a3.23,3.23,0,0,0,1.64-.83,2.11,2.11,0,0,0,.67-1.5,1.68,1.68,0,0,0-.74-1.39A2.51,2.51,0,0,0,323.59,135.87Z"/>
        </g>
        <g>
          <path class="cls-12" d="M342,140.79a8.4,8.4,0,0,0,3.51,1.18,11.63,11.63,0,0,0,2.4,0,16.64,16.64,0,0,0,2.11-.32,14.89,14.89,0,0,0,4.56-1.72,12.91,12.91,0,0,0,3.27-2.73,11.16,11.16,0,0,0,2.62-7.13,5.72,5.72,0,0,0-2.34-4.82,10,10,0,0,0-5.89-1.6,1.94,1.94,0,0,0-.92-1.12,4.08,4.08,0,0,0-1.87-.53,5.42,5.42,0,0,0-1.84.22,1.56,1.56,0,0,0-1.38,1.43,1.13,1.13,0,0,0,.61,1l0.28,0.15a19,19,0,0,0-2.37,1.21,14.25,14.25,0,0,0-2.8,2.16,11.52,11.52,0,0,0-2.13,2.94,8.13,8.13,0,0,0-.89,3.77,7.21,7.21,0,0,0,.8,3.4A6.44,6.44,0,0,0,342,140.79Zm3.19-10.35a13,13,0,0,1,4.48-2.81,3,3,0,0,0,.67-0.29l0.22-.12a6.76,6.76,0,0,1,4.26,1,3.23,3.23,0,0,1,1.41,2.66,6.11,6.11,0,0,1-.41,2.17,6.49,6.49,0,0,1-1.21,2,8.62,8.62,0,0,1-2,1.67,8.77,8.77,0,0,1-2.79,1.05,12.08,12.08,0,0,1-1.55.24,4.83,4.83,0,0,1-3.08-.58,3.52,3.52,0,0,1-1.47-3.19A5.2,5.2,0,0,1,345.16,130.45Z"/>
          <path class="cls-13" d="M332.62,150.72a20.94,20.94,0,0,0,2.6.82,6.94,6.94,0,0,0,3.27,0,10.59,10.59,0,0,0,2.05-.69,11.14,11.14,0,0,1,1.43-.55c0.7-.2,1.51-0.44,2.43-0.73l2-.63v4.78a3.81,3.81,0,0,0,.5,2.23l-0.44.09a5,5,0,0,0-1.79.69A1.15,1.15,0,0,0,345,159q0.58,0.09,1.29.14a10.07,10.07,0,0,1,1.23.16,0.8,0.8,0,0,1,.23.08v5.35a2.83,2.83,0,0,0,1.57,2.7,4.38,4.38,0,0,0,2.37.41,6.78,6.78,0,0,0,1-.16L373.4,163a3.13,3.13,0,0,0,1.67-.88,2.19,2.19,0,0,0,.64-1.5,1.68,1.68,0,0,0-.74-1.4,2.53,2.53,0,0,0-1.71-.39h0a14.36,14.36,0,0,0-2.79.35,8,8,0,0,0-1.56.58l-1.19.63a6.41,6.41,0,0,1-1.7.52l-13.54,3.12h-0.17v-5.53a3.41,3.41,0,0,1,.14-0.93,1.53,1.53,0,0,0-.62-1.86,2.76,2.76,0,0,0-1.26-.22l-0.72,0a6.5,6.5,0,0,0,.54-1,8.11,8.11,0,0,0,.51-3.09v-3.92q3.16-1.08,6.54-2.34c2.49-.92,4.79-1.83,6.84-2.69a2.15,2.15,0,0,0,1.15-1,2.08,2.08,0,0,0,.21-1.25,1.6,1.6,0,0,0-.57-1,1.52,1.52,0,0,0-1.53-.1c-1.64.65-3.55,1.33-5.68,2s-4.3,1.38-6.45,2-4.21,1.29-6.19,1.87-3.62,1-4.91,1.39c-1.07.26-2.27,0.52-3.61,0.79a31.16,31.16,0,0,1-3.44.52,1.84,1.84,0,0,0-1.54,1.12A1.37,1.37,0,0,0,332.62,150.72Z"/>
          <path class="cls-14" d="M363.49,120.08c0.5,0.19,1,.38,1.65.58s1.14,0.39,1.69.6a1.92,1.92,0,0,1,.54.29v24.54l-1,.26-1.89.49-1.65.43a7.14,7.14,0,0,1-.89.2c-0.44.1-.74,0.23-1.51,0.38s-1.31.23-1.7,0.27a1.83,1.83,0,0,0-1.76,1.46,1.43,1.43,0,0,0,1.12,1.77,6.86,6.86,0,0,0,1.89.29,7.23,7.23,0,0,0,2.13-.23l1.11-.31,1.71-.51,2.44-.75v2.88a3.27,3.27,0,0,0,.68,2.42,1.48,1.48,0,0,0,1.19.45,1.75,1.75,0,0,0,.85-0.32,4,4,0,0,0,1.32-1.87,8.32,8.32,0,0,0,.51-3.09V120.49a4.65,4.65,0,0,1,.16-1.08,1.6,1.6,0,0,0-.63-1.92,4.47,4.47,0,0,0-1.08-.33c-0.44-.09-0.94-0.17-1.51-0.23s-1.15-.1-1.76-0.12a15.69,15.69,0,0,0-1.71,0h0a5.17,5.17,0,0,0-2,.37,1.68,1.68,0,0,0-1.14,1.53A1.61,1.61,0,0,0,363.49,120.08Z"/>
        </g>
        <path class="cls-15" d="M267.29,212.73h0a31.36,31.36,0,0,0-4,.62,8.19,8.19,0,0,0-1.67.55c-0.42.2-.84,0.42-1.26,0.65a6.68,6.68,0,0,1-1.54.55c-1,.29-2.29.63-3.74,1s-1.83.49-3.56,0.91-3.55.85-5.43,1.29l-5.62,1.28q-2.78.62-5.37,1.12l-4.68.88q-1.6.29-3.09,0.49c-1,.13-1.92.22-3,0.27a1.84,1.84,0,0,0-1.54,1.12,1.38,1.38,0,0,0,.91,1.94,20.79,20.79,0,0,0,2.6.81,6.85,6.85,0,0,0,2.25.18c0.34,0,1.67-.08,2-0.16a11,11,0,0,0,2.05-.69A10.81,10.81,0,0,1,234,225c1.31-.35,2.26-0.83,4.84-1.45s5.49-1.29,8.7-2,6.55-1.49,10-2.24,6.75-1.46,9.85-2.1a2.93,2.93,0,0,0,1.71-1,2.39,2.39,0,0,0,.61-1.54,1.91,1.91,0,0,0-.67-1.44A2.27,2.27,0,0,0,267.29,212.73Z"/>
        <g>
          <path class="cls-16" d="M317.05,222.38h0a14.22,14.22,0,0,0-2.79.35,8.38,8.38,0,0,0-1.56.58l-1.17.59a8.64,8.64,0,0,1-1.72.55l-12.5,2.87h-0.17v-7.1a3.27,3.27,0,0,1,.14-0.93,1.53,1.53,0,0,0-.62-1.85,2.75,2.75,0,0,0-1.26-.23,12.9,12.9,0,0,0-1.48.1c-0.53.06-1,.14-1.53,0.24l-1.15.23a5.18,5.18,0,0,0-1.79.69,1.14,1.14,0,0,0,.39,2.24c0.38,0.06.82,0.11,1.29,0.14a9.8,9.8,0,0,1,1.23.16,0.79,0.79,0,0,1,.23.07V228a2.82,2.82,0,0,0,1.57,2.7,4.35,4.35,0,0,0,2.37.42,6.89,6.89,0,0,0,1-.17l19.65-4.4a3.1,3.1,0,0,0,1.67-.88,2.19,2.19,0,0,0,.64-1.5,1.66,1.66,0,0,0-.73-1.39A2.49,2.49,0,0,0,317.05,222.38Z"/>
          <path class="cls-17" d="M303,207c-1.65.67-3.31,1.3-4.93,1.86s-3.21,1.06-4.8,1.51-3,.82-4.4,1.14h-0.17V205l13.6-3a3.09,3.09,0,0,0,1.53-.82,2.4,2.4,0,0,0,.71-1.37,1.69,1.69,0,0,0-.52-1.44,1.81,1.81,0,0,0-.8-0.44c0-.32.08-0.65,0.11-1q0.1-1,.23-2t0.21-2c0-.46.08-0.86,0.13-1.21a3.28,3.28,0,0,0,.37-0.58,3.38,3.38,0,0,0,.36-1.14,2.16,2.16,0,0,0-.17-1.21,1.47,1.47,0,0,0-1.46-.77,6.7,6.7,0,0,0-1.59.2,9.74,9.74,0,0,0-1.27.42l-1.13.5c-0.35.16-.73,0.33-1.09,0.47l-1.43.38-2.67.66-3,.69c-1,.22-1.73.36-2.33,0.45q-1.6.29-2.84,0.47c-0.82.12-1.72,0.22-2.71,0.3a2,2,0,0,0-1.86,1.3,1.46,1.46,0,0,0,1,1.93,13.83,13.83,0,0,0,2.63.72,7.77,7.77,0,0,0,3,0,7.3,7.3,0,0,0,2-.79,5.78,5.78,0,0,1,1.48-.61q1-.29,2.23-0.6l2.57-.66q1.27-.34,2.4-0.62l0.9-.22-0.16,5.52c-0.58.18-1.13,0.38-1.67,0.58a20.73,20.73,0,0,1-2.14.67l-7.47,1.65a17.31,17.31,0,0,0-2.62.23c-0.83.13-1.58,0.23-2.25,0.29a1.54,1.54,0,0,0-1.16.65,1.79,1.79,0,0,0-.33,1,2,2,0,0,0,.18.86,1.2,1.2,0,0,0,1,.7,1.42,1.42,0,0,1,1.49,1.63v6a2.88,2.88,0,0,0,1.47,2.69,4.15,4.15,0,0,0,2.39.45,6.58,6.58,0,0,0,.84-0.13c1.42-.33,3-0.76,4.63-1.28s3.37-1.12,5.11-1.8,3.48-1.41,5.24-2.2,3.43-1.62,5-2.45a2.45,2.45,0,0,0,1.11-1.13,2.22,2.22,0,0,0,.24-1.29,1.42,1.42,0,0,0-.78-1.07,1.77,1.77,0,0,0-1.59.1C306.28,205.6,304.67,206.32,303,207Z"/>
          <path class="cls-18" d="M313.83,216.39a1.49,1.49,0,0,0,1.19.45,1.79,1.79,0,0,0,.85-0.32,4,4,0,0,0,1.31-1.87,8.09,8.09,0,0,0,.51-3.09V183.83a4.32,4.32,0,0,1,.15-1.08,1.6,1.6,0,0,0-.63-1.93,4.49,4.49,0,0,0-1.08-.33c-0.44-.09-0.94-0.17-1.51-0.23s-1.14-.1-1.76-0.12a8.33,8.33,0,0,0-1.68,0,4.66,4.66,0,0,0-2,.32A1.68,1.68,0,0,0,308,182a1.65,1.65,0,0,0,1.21,1.35c0.5,0.21,1.06.42,1.67,0.62s1.14,0.39,1.68.6a1.88,1.88,0,0,1,.55.29V214A3.25,3.25,0,0,0,313.83,216.39Z"/>
        </g>
        <path class="cls-19" d="M344.11,213a4.28,4.28,0,0,0,2.41.44,6.4,6.4,0,0,0,1-.16l19-4.29a3.23,3.23,0,0,0,1.65-.83,2.11,2.11,0,0,0,.66-1.5,1.68,1.68,0,0,0-.74-1.4,2.51,2.51,0,0,0-1.71-.39h0a14.24,14.24,0,0,0-2.79.35,7.91,7.91,0,0,0-1.56.58l-1.17.59a8.17,8.17,0,0,1-1.71.55l-11.93,2.65H347.1v-6.19l18.59-4.2a3.23,3.23,0,0,0,1.65-.83,2.12,2.12,0,0,0,.67-1.5,1.67,1.67,0,0,0-.74-1.39,2.5,2.5,0,0,0-1.72-.39h0a14.92,14.92,0,0,0-2.79.35,8.29,8.29,0,0,0-1.55.58l-1.17.59a8.21,8.21,0,0,1-1.71.55l-11.21,2.52V194l18.85-4.23a3.1,3.1,0,0,0,1.67-.88,2.19,2.19,0,0,0,.64-1.5,1.67,1.67,0,0,0-.74-1.39,2.49,2.49,0,0,0-1.72-.39A14.28,14.28,0,0,0,363,186a7.88,7.88,0,0,0-1.56.57l-1.17.59a8.81,8.81,0,0,1-1.72.55l-12.31,2.74a27,27,0,0,0-2.82.19,24.08,24.08,0,0,0-2.68.45,1.76,1.76,0,0,0-1.33,1.62,1.3,1.3,0,0,0,1.13,1.55,4,4,0,0,1,1.57.56,1,1,0,0,1,.42.93v14.6A2.9,2.9,0,0,0,344.11,213Z"/>
        <path class="cls-20" d="M286.89,253.61l-1.07.09a1.83,1.83,0,0,0-1.54,1.12,1.38,1.38,0,0,0,.91,1.94,10.56,10.56,0,0,0,2.43.56,8.53,8.53,0,0,0,1.78.05,5.81,5.81,0,0,0,.87-0.13l5.53-1.24a2.48,2.48,0,0,0,1.53-.82,2.12,2.12,0,0,0,.57-1.39,1.58,1.58,0,0,0-.65-1.29,2.14,2.14,0,0,0-1.63-.3q-1.52.23-3,.48c-1,.17-1.84.34-2.64,0.52a7.64,7.64,0,0,1-.76.13l-1.17.15Z"/>
        <g>
          <path class="cls-21" d="M318.84,242.61a5.77,5.77,0,0,0-2.41-.57,31.81,31.81,0,0,0-3.2-.11,5.11,5.11,0,0,0-2,.37,1.69,1.69,0,0,0-1.14,1.53,1.58,1.58,0,0,0,1.08,1.33c0.43,0.2.93,0.4,1.49,0.61l1.54,0.59a1.45,1.45,0,0,1,.47.27v15.82l-4.83,1.36v-13a4.26,4.26,0,0,1,.16-1.07,1.6,1.6,0,0,0-.58-1.9,5.79,5.79,0,0,0-2.41-.57,31.83,31.83,0,0,0-3.2-.11,5.13,5.13,0,0,0-2,.37,1.68,1.68,0,0,0-1.14,1.53,1.58,1.58,0,0,0,1.08,1.32c0.43,0.2.93,0.4,1.49,0.61l1.54,0.59a1.61,1.61,0,0,1,.48.27v36a3.27,3.27,0,0,0,.68,2.42,1.49,1.49,0,0,0,1.19.45,1.77,1.77,0,0,0,.85-0.32,4.06,4.06,0,0,0,1.31-1.87,8.16,8.16,0,0,0,.51-3.09V267.76l4.83-1.36v22a3.26,3.26,0,0,0,.68,2.41,1.48,1.48,0,0,0,1.19.45,1.78,1.78,0,0,0,.85-0.32,4,4,0,0,0,1.31-1.87,8.2,8.2,0,0,0,.51-3.09v-40.4a4.32,4.32,0,0,1,.15-1.07A1.59,1.59,0,0,0,318.84,242.61Z"/>
          <path class="cls-22" d="M300.1,257.36a18.49,18.49,0,0,0-2.55.35,10.52,10.52,0,0,0-1.56.48,6.74,6.74,0,0,0-1.15.62,6.42,6.42,0,0,1-1,.51c-0.27.09-.71,0.22-1.33,0.39s-1.33.35-2.11,0.54l-2.39.56c-0.8.19-1.51,0.34-2.15,0.46q-1.59.34-3,.56t-2.26.29a1.84,1.84,0,0,0-1.54,1.12,1.37,1.37,0,0,0,.91,1.94,9.73,9.73,0,0,0,2.44.54,7.78,7.78,0,0,0,2.64-.11,10.82,10.82,0,0,0,2-.69,11.42,11.42,0,0,1,1.43-.55l0.56-.16a1.52,1.52,0,0,0-1.28,1.4,1.14,1.14,0,0,0,.62,1l0.29,0.15a17.93,17.93,0,0,0-2.08,1.13,11,11,0,0,0-2.49,2.15,11.62,11.62,0,0,0-1.85,3,9.66,9.66,0,0,0-.75,3.86,7.31,7.31,0,0,0,.8,3.48,6.73,6.73,0,0,0,2.17,2.43,7.64,7.64,0,0,0,3.22,1.22,9.84,9.84,0,0,0,2.28.07,11.8,11.8,0,0,0,1.6-.25,13.4,13.4,0,0,0,3.84-1.56,12,12,0,0,0,3-2.55,10.91,10.91,0,0,0,1.91-3.33,11.12,11.12,0,0,0,.65-3.79,6.72,6.72,0,0,0-2-5,7.82,7.82,0,0,0-5.16-1.92,2,2,0,0,0-.94-1.19A4.06,4.06,0,0,0,291,264a5.37,5.37,0,0,0-1.4.11l1.91-.5q1.65-.42,3.28-0.79l3.08-.7,2.37-.56a3.11,3.11,0,0,0,1.67-.88,2.2,2.2,0,0,0,.64-1.5,1.68,1.68,0,0,0-.74-1.39A2.53,2.53,0,0,0,300.1,257.36Zm-8.71,12.2a5.94,5.94,0,0,0,.72-0.4,4.9,4.9,0,0,1,3.51,1.21,4.25,4.25,0,0,1,1.16,3.08,6.28,6.28,0,0,1-1.45,4.21,7,7,0,0,1-4,2.32,8.66,8.66,0,0,1-1.12.17,4.15,4.15,0,0,1-2.66-.53c-0.85-.55-1.29-1.69-1.29-3.37a6.28,6.28,0,0,1,1.27-4.12A9.25,9.25,0,0,1,291.39,269.56Z"/>
        </g>
        <path class="cls-23" d="M379.51,260.74a2.76,2.76,0,0,0-1.72-.44,14.11,14.11,0,0,0-2.88.39,8.37,8.37,0,0,0-1.67.64c-0.4.21-.78,0.43-1.12,0.64a3.66,3.66,0,0,1-1.17.37l-0.61.15V246.25a4.65,4.65,0,0,1,.16-1.11,1.52,1.52,0,0,0-.63-1.89,4.72,4.72,0,0,0-1.09-.34c-0.44-.09-0.94-0.17-1.51-0.23s-1.15-.1-1.76-0.12-1.18,0-1.73,0a5.12,5.12,0,0,0-2,.37,1.68,1.68,0,0,0-1.14,1.54,1.63,1.63,0,0,0,1.2,1.35c0.51,0.21,1.07.42,1.67,0.62s1.14,0.39,1.68.6a2.26,2.26,0,0,1,.54.28v26c-0.94.37-2,.74-3.06,1.13l-4.22,1.47-4.47,1.52-3.41,1.12V276a4.58,4.58,0,0,1,.16-1.05,1.62,1.62,0,0,0-.58-1.92,3.13,3.13,0,0,0-.39-0.21,13.88,13.88,0,0,0,7-4.71,11.84,11.84,0,0,0,2-3.79,13.69,13.69,0,0,0,.62-4,6.56,6.56,0,0,0-.71-3,7,7,0,0,0-2-2.35,9.66,9.66,0,0,0-3-1.52,12.05,12.05,0,0,0-3.07-.53,2.17,2.17,0,0,0-.94-1.35,4.47,4.47,0,0,0-1.93-.7,5.29,5.29,0,0,0-2,.11c-1.29.33-1.48,1-1.48,1.42a1.17,1.17,0,0,0,.63,1l0.53,0.3a2.23,2.23,0,0,1,.28.18,23.63,23.63,0,0,0-3,1.69A17.19,17.19,0,0,0,340,258a12.72,12.72,0,0,0-2.23,3.21,9.43,9.43,0,0,0-.16,7.7,7.2,7.2,0,0,0,2.27,2.9,8.68,8.68,0,0,0,3.67,1.56l0.46,0.08a1.55,1.55,0,0,0-.37,1,1.15,1.15,0,0,0,.84,1.12l0.76,0.24a3.59,3.59,0,0,1,.67.28,0.75,0.75,0,0,1,.22.17V280c-1.09.34-2.14,0.64-3.12,0.91l-3.19.86q-1.6.39-3.62,0.82a28,28,0,0,1-3.43.54,1.83,1.83,0,0,0-1.54,1.12,1.37,1.37,0,0,0,.9,1.94,22,22,0,0,0,2.6.81,7,7,0,0,0,3.27,0,10.76,10.76,0,0,0,2-.68,11.38,11.38,0,0,1,1.44-.55c1.32-.39,3-0.94,5.23-1.7s4.41-1.52,6.81-2.37,4.83-1.74,7.17-2.64q2.83-1.09,5.14-2v11.84a3.39,3.39,0,0,0,.66,2.42,1.49,1.49,0,0,0,1.22.49,1.78,1.78,0,0,0,.84-0.31,4,4,0,0,0,1.31-1.87,8.11,8.11,0,0,0,.51-3.09V266.18l7.59-1.72a3.23,3.23,0,0,0,1.65-.83,2.11,2.11,0,0,0,.67-1.5A1.68,1.68,0,0,0,379.51,260.74Zm-34.29,8.72a4.51,4.51,0,0,1-2-.85A3.71,3.71,0,0,1,342,267a6.84,6.84,0,0,1,1.38-6.94,13.1,13.1,0,0,1,4.94-3.32l0.33-.17,0.27-.13a8.35,8.35,0,0,1,2.54.36,6.21,6.21,0,0,1,2,1.06,4.66,4.66,0,0,1,1.26,1.53,3.75,3.75,0,0,1,.43,1.75,8.13,8.13,0,0,1-1.7,4.94,8.93,8.93,0,0,1-2.18,2,9.21,9.21,0,0,1-3.08,1.25A7.81,7.81,0,0,1,345.22,269.45Z"/>
        <g>
          <path class="cls-24" d="M267.29,264.86h0a17.55,17.55,0,0,0-2.81.32,8.06,8.06,0,0,0-1.68.56q-0.63.3-1.25,0.65a6.85,6.85,0,0,1-1.55.56q-2,.59-5.19,1.39-2.73.7-5.82,1.45v-4.36a4.6,4.6,0,0,1,.16-1.06,1.62,1.62,0,0,0-.58-1.91,4.47,4.47,0,0,0-2-.53,8.27,8.27,0,0,0-2.17.09,10.41,10.41,0,0,0-1.28.25c1.58-1.17,3.11-2.37,4.57-3.61l2.35,0.83c1,0.35,2,.71,2.95,1.07s1.88,0.73,2.74,1.09l2.13,0.91a2.44,2.44,0,0,0,2,.23,2.2,2.2,0,0,0,1.32-1.3,3,3,0,0,0-.94-3.37,8,8,0,0,0-2-1.33,5.88,5.88,0,0,0-1.81-.48c-0.53,0-1.05-.07-1.57-0.06a6,6,0,0,1-1.37-.16l-2.32-.54c0.89-.85,1.74-1.7,2.55-2.54a45.47,45.47,0,0,0,3-3.46,2.23,2.23,0,0,0,.77-1.4,2.49,2.49,0,0,0-.16-1.24,2.31,2.31,0,0,0-.74-1,2.09,2.09,0,0,0-1.13-.44,4.64,4.64,0,0,0-2.48.61,7.22,7.22,0,0,1-1.2.6L251,247l-1.92.47-2.5.6-2.6.61-2.34.53c-0.71.16-1.25,0.27-1.63,0.34q-1.13.2-2.42,0.38t-2.76.31a2,2,0,0,0-1.86,1.3,1.39,1.39,0,0,0,1,1.88,14.89,14.89,0,0,0,2.5.73,6.64,6.64,0,0,0,2.78,0,7.32,7.32,0,0,0,1.88-.72,5.64,5.64,0,0,1,1.4-.55l1.88-.49,3-.77q1.52-.4,2.95-0.74c-0.71.77-1.49,1.56-2.32,2.36-1.53,1.47-3.23,3-5,4.41s-3.75,2.89-5.74,4.28-4,2.66-6,3.84a2.64,2.64,0,0,0-1.11,1.19,1.6,1.6,0,0,0,0,1.41,1.55,1.55,0,0,0,1,.79,2.1,2.1,0,0,0,1.52-.28,66.22,66.22,0,0,0,7.83-4.67l1-.72a1.5,1.5,0,0,0-.1.52,1.26,1.26,0,0,0,.89,1.2,10,10,0,0,0,1,.32,9.33,9.33,0,0,1,.93.3,0.77,0.77,0,0,1,.21.12v4.93q-3.63.81-7.17,1.56c-2.59.55-4.92,1-6.91,1.33q-1.6.29-3.09,0.49c-1,.13-1.92.22-3,0.27a1.84,1.84,0,0,0-1.54,1.12,1.37,1.37,0,0,0,.91,1.94,20.84,20.84,0,0,0,2.6.81,7,7,0,0,0,2.25.18,7.16,7.16,0,0,0,1-.16,10.76,10.76,0,0,0,2.05-.69,11.15,11.15,0,0,1,1.42-.54q2-.53,5.84-1.45t8.7-2q4.82-1.1,10-2.24t9.85-2.1a2.91,2.91,0,0,0,1.71-1,2.43,2.43,0,0,0,.61-1.54,1.92,1.92,0,0,0-.67-1.44A2.27,2.27,0,0,0,267.29,264.86Z"/>
          <path class="cls-25" d="M239.47,296.65l17.45-3.87a3.2,3.2,0,0,0,1.66-.88,2.16,2.16,0,0,0,.66-1.5,1.64,1.64,0,0,0-.76-1.39,2.08,2.08,0,0,0-1-.34q0.08-.76.18-1.66l0.32-3c0.11-1,.21-1.94.32-2.83,0.09-.72.16-1.31,0.23-1.77a3.71,3.71,0,0,0,.38-0.58,3.43,3.43,0,0,0,.37-1.14,2.11,2.11,0,0,0-.18-1.21,1.52,1.52,0,0,0-1.51-.77,7.38,7.38,0,0,0-1.63.2,13,13,0,0,0-1.28.39,11.51,11.51,0,0,0-1.24.53,7.12,7.12,0,0,1-1.13.44l-1,.28-2.17.54-2.81.68-3,.69-2.67.58-1.75.35a23.11,23.11,0,0,0-2.76.18q-1.3.16-2.36,0.25a1.61,1.61,0,0,0-1.2.66,1.77,1.77,0,0,0-.34,1,1.94,1.94,0,0,0,.18.86,1.23,1.23,0,0,0,1,.7,1.49,1.49,0,0,1,1.52,1.66l0.43,9.06c0,0.84.29,1.75,0.86,1.94A7,7,0,0,0,239.47,296.65Zm14-7.14-1.27.47a13.41,13.41,0,0,1-1.9.55l-10.56,2.3q0-1.09,0-2.31V284l2.07-.5q1.79-.44,4-0.93l4.5-1,3.39-.73Z"/>
        </g>
        <path class="cls-26" d="M375.71,212.73h0a31.47,31.47,0,0,0-4,.62,8.13,8.13,0,0,0-1.67.55c-0.42.2-.84,0.42-1.26,0.65a6.72,6.72,0,0,1-1.54.55c-1,.29-2.29.63-3.74,1s-1.83.49-3.56,0.91-3.55.85-5.43,1.29l-5.63,1.28q-2.78.62-5.37,1.12l-4.68.88q-1.6.29-3.09,0.49c-1,.13-1.92.22-3,0.27a1.84,1.84,0,0,0-1.54,1.12,1.38,1.38,0,0,0,.91,1.94,20.76,20.76,0,0,0,2.6.81,6.86,6.86,0,0,0,2.25.18c0.33,0,1.67-.08,2-0.16a11,11,0,0,0,2.05-.69,10.77,10.77,0,0,1,1.42-.55c1.31-.35,2.26-0.83,4.84-1.45s5.49-1.29,8.7-2,6.55-1.49,10-2.24,6.75-1.46,9.85-2.1a2.94,2.94,0,0,0,1.71-1,2.4,2.4,0,0,0,.61-1.54,1.91,1.91,0,0,0-.67-1.44A2.27,2.27,0,0,0,375.71,212.73Z"/>
        <path class="cls-27" d="M262,202.6a2.54,2.54,0,0,0-1.74-.39,18.56,18.56,0,0,0-2.55.35,10.2,10.2,0,0,0-1.55.48,6.68,6.68,0,0,0-1.16.62,5.64,5.64,0,0,1-.89.46l0.41-7.49a17.11,17.11,0,0,1,.59-2.1,5.61,5.61,0,0,0,0-3.33c1.32-.29,3.71-0.88,4.3-1a3.09,3.09,0,0,0,1.67-.88,2.19,2.19,0,0,0,.65-1.5,1.68,1.68,0,0,0-.74-1.39,2.54,2.54,0,0,0-1.74-.38,18.19,18.19,0,0,0-2.55.35,10.19,10.19,0,0,0-1.55.48,8.47,8.47,0,0,0-1.12.57,8.55,8.55,0,0,1-1,.51q-0.4.13-2.14,0.55l-4.07,1q-2.26.55-4.62,1.08l-3.92.87c-1.06.23-2.06,0.41-3,.56s-1.68.24-2.26,0.29a1.83,1.83,0,0,0-1.54,1.12,1.39,1.39,0,0,0,.91,1.94,9.91,9.91,0,0,0,2.45.54,7.75,7.75,0,0,0,2.64-.11l0.25-.06a2.1,2.1,0,0,0-.33.16,1.62,1.62,0,0,0-.77,1,1.56,1.56,0,0,0,.26,1.3,6.26,6.26,0,0,1,.61,1.35q0.32,1,.58,2t0.4,2.21c0.1,0.75.17,1.41,0.2,2a2.37,2.37,0,0,0,.82,1.89l-2.25.5q-1.59.34-3,.56c-0.93.15-1.68,0.24-2.25,0.29a1.78,1.78,0,0,0-1,.42,1.93,1.93,0,0,0-.56.74,1.35,1.35,0,0,0,0,1.11,1.44,1.44,0,0,0,.89.74,10,10,0,0,0,2.43.57,8.46,8.46,0,0,0,1.78.06,5.77,5.77,0,0,0,.87-0.14,9.81,9.81,0,0,0,2.07-.72,6.62,6.62,0,0,1,1.41-.51q1.29-.37,3.15-0.83t3.95-1l4.22-1,4-.9,3.25-.71c1-.2,1.64-0.36,2-0.46a3.1,3.1,0,0,0,1.67-.88,2.19,2.19,0,0,0,.64-1.5A1.67,1.67,0,0,0,262,202.6Zm-11.8,2.5q-1.27.32-2.79,0.67l-3.83.89-1,.24,0.12-.16a3.39,3.39,0,0,0,.63-2,10.28,10.28,0,0,0-.37-2.64,18.55,18.55,0,0,0-.87-2.54,13.79,13.79,0,0,0-1.14-2.14,4.59,4.59,0,0,0-1.35-1.43,2.36,2.36,0,0,0-1.38-.35l-0.15,0a10.36,10.36,0,0,0,1.42-.52,11.45,11.45,0,0,1,1.42-.55q2-.53,4.75-1.2c1.1-.27,2.87-0.74,4-1a3.56,3.56,0,0,0-1.19,1.44,1.11,1.11,0,0,0,.55,1.35,9.92,9.92,0,0,0,1.1.59,9.4,9.4,0,0,1,1,.54,1.15,1.15,0,0,1,.28.24Z"/>
      </g>
      <rect class="cls-2" x="216.55" y="106.76" width="171" height="202"/>
    </g>
  </g>
</svg>
