<svg id="customer_center" data-name="customer center" xmlns="http://www.w3.org/2000/svg" xmlns:xlink="http://www.w3.org/1999/xlink" viewBox="0 0 1920 1242.92">
  <defs>
    <style>
      .cls-1, .cls-28 {
        font-size: 36px;
        font-weight: 700;
      }

      .cls-1 {
        fill: #f2c161;
      }

      .cls-1, .cls-27, .cls-28, .cls-29 {
        font-family: Noto Sans CJK KR;
      }

      .cls-2, .cls-28, .cls-8 {
        fill: #66635a;
      }

      .cls-2 {
        white-space: pre;
      }

      .cls-3 {
        fill: #ce6545;
      }

      .cls-4 {
        fill: none;
      }

      .cls-5 {
        fill: #939293;
      }

      .cls-6 {
        fill: #8b8a8a;
      }

      .cls-7 {
        fill: #648ab2;
      }

      .cls-8 {
        fill-rule: evenodd;
      }

      .cls-9 {
        fill: #707276;
      }

      .cls-10 {
        fill: url(#linear-gradient);
      }

      .cls-11 {
        fill: #818993;
      }

      .cls-12 {
        fill: #878788;
      }

      .cls-13 {
        fill: #7489a2;
      }

      .cls-14 {
        fill: #eef8fb;
      }

      .cls-15 {
        fill: #f1f9fb;
      }

      .cls-16 {
        fill: #f0f8fa;
      }

      .cls-17 {
        fill: #eff7fa;
      }

      .cls-18 {
        fill: #eef7fa;
      }

      .cls-19 {
        fill: #eff8fb;
      }

      .cls-20 {
        fill: #d8ecf3;
      }

      .cls-21 {
        fill: #d5e8ef;
      }

      .cls-22 {
        fill: #449ad5;
      }

      .cls-23 {
        fill: url(#linear-gradient-2);
      }

      .cls-24 {
        fill: url(#linear-gradient-3);
      }

      .cls-25 {
        fill: url(#linear-gradient-4);
      }

      .cls-26 {
        fill: #c6c6c5;
      }

      .cls-27 {
        font-size: 18px;
      }

      .cls-27, .cls-30 {
        fill: #9b9c9e;
      }

      .cls-29 {
        font-size: 22px;
        fill: #5d5d5d;
      }

      .cls-31 {
        fill: url(#linear-gradient-5);
      }

      .cls-32 {
        fill: url(#linear-gradient-6);
      }

      .cls-33 {
        fill: url(#linear-gradient-7);
      }

      .cls-34 {
        fill: url(#linear-gradient-8);
      }

      .cls-35 {
        fill: url(#linear-gradient-9);
      }

      .cls-36 {
        fill: url(#linear-gradient-10);
      }

      .cls-37 {
        fill: url(#linear-gradient-11);
      }

      .cls-38 {
        fill: url(#linear-gradient-12);
      }

      .cls-39 {
        fill: url(#linear-gradient-13);
      }

      .cls-40 {
        fill: url(#linear-gradient-14);
      }

      .cls-41 {
        fill: url(#linear-gradient-15);
      }

      .cls-42 {
        fill: url(#linear-gradient-16);
      }

      .cls-43 {
        fill: url(#linear-gradient-17);
      }

      .cls-44 {
        fill: url(#linear-gradient-18);
      }

      .cls-45 {
        fill: url(#linear-gradient-19);
      }

      .cls-46 {
        fill: url(#linear-gradient-20);
      }

      .cls-47 {
        fill: url(#linear-gradient-21);
      }

      .cls-48 {
        fill: url(#linear-gradient-22);
      }

      .cls-49 {
        fill: url(#linear-gradient-23);
      }

      .cls-50 {
        fill: url(#linear-gradient-24);
      }

      .cls-51 {
        fill: url(#linear-gradient-25);
      }
    </style>
    <linearGradient id="linear-gradient" x1="1168.47" y1="636.22" x2="1554.21" y2="636.22" gradientUnits="userSpaceOnUse">
      <stop offset="0" stop-color="#f2c161"/>
      <stop offset="0.16" stop-color="#f2c161"/>
      <stop offset="1" stop-color="#f2c161"/>
    </linearGradient>
    <linearGradient id="linear-gradient-2" x1="1274.56" y1="609.31" x2="1299.41" y2="609.31" xlink:href="#linear-gradient"/>
    <linearGradient id="linear-gradient-3" x1="1371.05" y1="671.88" x2="1396.56" y2="671.88" xlink:href="#linear-gradient"/>
    <linearGradient id="linear-gradient-4" x1="1314.06" y1="671.86" x2="1339.51" y2="671.86" xlink:href="#linear-gradient"/>
    <linearGradient id="linear-gradient-5" x1="350.96" y1="132.61" x2="360.85" y2="132.61" xlink:href="#linear-gradient"/>
    <linearGradient id="linear-gradient-6" x1="334.85" y1="158.92" x2="361.09" y2="158.92" xlink:href="#linear-gradient"/>
    <linearGradient id="linear-gradient-7" x1="324.49" y1="140.59" x2="349.49" y2="140.59" xlink:href="#linear-gradient"/>
    <linearGradient id="linear-gradient-8" x1="375.58" y1="145.18" x2="402.29" y2="145.18" xlink:href="#linear-gradient"/>
    <linearGradient id="linear-gradient-9" x1="403.6" y1="142.68" x2="423.16" y2="142.68" xlink:href="#linear-gradient"/>
    <linearGradient id="linear-gradient-10" x1="436.03" y1="132.04" x2="457.57" y2="132.04" xlink:href="#linear-gradient"/>
    <linearGradient id="linear-gradient-11" x1="428.7" y1="153.36" x2="472.84" y2="153.36" xlink:href="#linear-gradient"/>
    <linearGradient id="linear-gradient-12" x1="454.07" y1="136.19" x2="469.27" y2="136.19" xlink:href="#linear-gradient"/>
    <linearGradient id="linear-gradient-13" x1="319.76" y1="219.58" x2="366.87" y2="219.58" xlink:href="#linear-gradient"/>
    <linearGradient id="linear-gradient-14" x1="385.76" y1="224.16" x2="416.63" y2="224.16" xlink:href="#linear-gradient"/>
    <linearGradient id="linear-gradient-15" x1="378.18" y1="202.11" x2="407.33" y2="202.11" xlink:href="#linear-gradient"/>
    <linearGradient id="linear-gradient-16" x1="405.17" y1="198.48" x2="415.06" y2="198.48" xlink:href="#linear-gradient"/>
    <linearGradient id="linear-gradient-17" x1="436.54" y1="199.54" x2="465.9" y2="199.54" xlink:href="#linear-gradient"/>
    <linearGradient id="linear-gradient-18" x1="381.27" y1="254.79" x2="395.01" y2="254.79" xlink:href="#linear-gradient"/>
    <linearGradient id="linear-gradient-19" x1="397.87" y1="266.59" x2="416.63" y2="266.59" xlink:href="#linear-gradient"/>
    <linearGradient id="linear-gradient-20" x1="376.05" y1="270.75" x2="399.71" y2="270.75" xlink:href="#linear-gradient"/>
    <linearGradient id="linear-gradient-21" x1="428.18" y1="267.15" x2="477.37" y2="267.15" xlink:href="#linear-gradient"/>
    <linearGradient id="linear-gradient-22" x1="319.75" y1="262.04" x2="366.87" y2="262.04" xlink:href="#linear-gradient"/>
    <linearGradient id="linear-gradient-23" x1="329.38" y1="286.33" x2="356.43" y2="286.33" xlink:href="#linear-gradient"/>
    <linearGradient id="linear-gradient-24" x1="428.18" y1="219.58" x2="475.29" y2="219.58" xlink:href="#linear-gradient"/>
    <linearGradient id="linear-gradient-25" x1="327.34" y1="199.32" x2="359.83" y2="199.32" xlink:href="#linear-gradient"/>
  </defs>
  <title>howto</title>
  <g id="menu">
    <text class="cls-1" transform="translate(1124.97 962.79)">업체수<tspan class="cls-2" x="99.36" y="0"> 51개 </tspan><tspan x="193.14" y="0">자료수</tspan><tspan class="cls-2" x="292.5" y="0"> 303,446개</tspan></text>
  </g>
  <g id="dummy">
    <rect class="cls-3" x="991.99" y="399.34" width="738.67" height="474.18"/>
    <path class="cls-4" d="M1447.08,670.65l-0.53.53h0C1446.72,671,1446.9,670.82,1447.08,670.65Z"/>
    <path class="cls-4" d="M1207.38,516.6c0,1.82.21,3.64,0.32,5.46,6.73,0.2,7.1.7,5.27,7,2.62,0.14,5.25.41,7.88,0.41q141.79,0,283.58,0c2.42,0,4.84-.34,7.25-0.52-2.11-6.24-1.8-6.63,5.59-7,0.07-2.23.21-4.46,0.21-6.69q0-58,0-115.94H1207.37Q1207.37,458,1207.38,516.6Z"/>
    <path class="cls-4" d="M1200.35,529.53l1,14.44h0Q1200.83,536.74,1200.35,529.53Z"/>
    <path class="cls-4" d="M1206.61,529.6l6.36-.52-6.36.52q0,7.18-.11,14.37Q1206.56,536.79,1206.61,529.6Z"/>
    <path class="cls-4" d="M1517.53,544q-104.9,0-209.79.07,104.9,0,209.79-.07h0Z"/>
    <path class="cls-4" d="M1525.34,555.36c-0.14-1-1.73-2.57-2.53-3.83q-0.11-3.73-.23-7.47,0.11,3.73.22,7.47C1523.6,552.79,1525.2,554.37,1525.34,555.36Z"/>
    <path class="cls-4" d="M1206.61,529.6l-6.26-.08-5.75-.59,5.75,0.59Z"/>
    <path class="cls-5" d="M1207.38,516.6q0-58.63,0-117.26h-7q0,55.85,0,111.7c0,3.65-.15,7.31-0.24,11l7.58,0.06C1207.59,520.24,1207.38,518.42,1207.38,516.6Z"/>
    <path class="cls-6" d="M1517.5,399.34q0,58,0,115.94c0,2.23-.13,4.46-0.21,6.69l7.55,0.15c-0.19-2.21-.55-4.41-0.55-6.62q0-58.08,0-116.16h-6.79Z"/>
    <path class="cls-7" d="M1522.58,544.06h31.13c0.15,2.84.38,5.19,0.38,7.53,0,56.71-.07,113.43.13,170.14,0,5.51-1.63,6.74-6.89,6.74q-186-.21-372,0c-4.57,0-6.88-.49-6.86-6.11,0.21-57.32.13-114.65,0.14-172,0-1.79.2-3.58,0.37-6.39h32.34l-1-14.44-5.75-.59h-40.27V743.15h414V529h-38.53l-6.09.55Z"/>
    <path class="cls-8" d="M1479.52,780.93c-18.65-.76-37.33-1.26-56-1.21q-67.94.18-135.88,1.06c-32.66.47-65.31,1.51-97.95,2.63-7.69.26-15.33,1.85-23,2.82q0,1.06,0,2.12c3.78,0.71,7.54,1.85,11.35,2.08,22.43,1.35,44.88,2.71,67.33,3.63,17.84,0.74,35.7,1.25,53.55,1.2q66.72-.18,133.44-1c32.25-.47,64.5-1.5,96.73-2.59,8.72-.29,17.4-1.72,26.1-2.62,0-.81.1-1.62,0.14-2.44-3-.68-6-1.8-9.08-2C1524,783.22,1501.77,781.83,1479.52,780.93Z"/>
    <path class="cls-9" d="M1206.61,529.6l6.36-.52c1.83-6.33,1.46-6.83-5.27-7l-7.58-.06c-7,.29-7.3.64-5.52,6.94l5.75,0.59Z"/>
    <path class="cls-9" d="M1511.69,529l4.88,0.53,3.23,0.14,3.9-.09,6.09-.55c2-6.06,1.54-6.64-5-6.89l-7.55-.15C1509.89,522.34,1509.58,522.73,1511.69,529Z"/>
    <path class="cls-7" d="M1220.85,529.49c-2.63,0-5.26-.27-7.88-0.41l-6.36.52q-0.06,7.18-.11,14.36,50.62,0.07,101.23.13,104.9,0,209.79-.07-0.48-7.26-1-14.52l-4.88-.53c-2.42.18-4.84,0.52-7.25,0.52Q1362.64,529.53,1220.85,529.49Z"/>
    <path class="cls-7" d="M1516.57,529.5l-4.88-.53,4.88,0.53h0Z"/>
    <path class="cls-10" d="M1525.34,555.36a0.74,0.74,0,0,1,0,.38,6.62,6.62,0,0,1-4.25,3.54c-1.28.24-3.54-1.19-4.25-2.49s-0.16-3.47-.16-5.25l0.89-7.5q-104.9,0-209.79.07-50.62,0-101.23-.13l0.74,7.53a44.21,44.21,0,0,1,0,5.2,4.33,4.33,0,0,1-.48,1.46c-0.52.93-4.91,1.12-5.56,0.21-1.11-1.54-.65-4.21-0.84-6.41q0.47-4,.94-8H1169c-0.17,2.81-.37,4.6-0.37,6.39,0,57.32.07,114.65-.14,172,0,5.62,2.29,6.12,6.86,6.11q186-.14,372,0c5.25,0,6.91-1.23,6.89-6.74-0.2-56.71-.11-113.43-0.13-170.14,0-2.34-.23-4.69-0.38-7.53h-31.13q0.11,3.73.23,7.47C1523.61,552.79,1525.2,554.37,1525.34,555.36ZM1389.41,585.8c3.45-.49,5.95.25,5.8,4.7-0.22,6.49-.06,13-0.06,19.47,0,6.09-.17,12.18.05,18.26,0.18,5-2.9,5-6.38,4.83s-6.95.92-6.91-4.79c0.08-12.54-.28-25.09-0.64-37.64C1381.07,583.85,1386.1,586.26,1389.41,585.8Zm-69.08,1c14.16-5.68,18.44,6.36,25.81,14.32,3.76-4.46,7.16-8.58,10.66-12.6,2-2.33,11.88-4,14.12-2.25a5.24,5.24,0,0,1,1.33,3.69c0.09,13-.07,26,0.11,39,0.06,4-2.12,4.47-5,4-3.13-.51-8.07,2-8.2-4.21-0.11-5.28,0-10.57,0-15.85,0-1.92,0-3.84,0-7.41-3.86,4.39-6.93,7.3-9.28,10.7-2.77,4-4.83,3.34-7.43,0s-5.34-6.33-9.14-10.78c0,7.62,0,13.42,0,19.21,0,8.38,0,8.39-8.2,8.29-1.39,0-2.77-.19-4.78-0.34V586.83Zm-32.26-2.19c14.57,0,25.33,10.22,25.42,24,0.09,15.34-10.55,25.6-26.39,25.44-16-.16-25.92-9.82-25.8-25.16C1261.41,594,1271.83,584.59,1288.07,584.64Zm-62.21,45c-9-6.36-12-18.88-7.33-30.14,4.27-10.29,15.71-16.87,26.74-14.49,5.07,1.1,9.77,4,15.46,6.37l-7.81,8.56c-2.18-.89-4.19-1.82-6.27-2.55-5.65-2-11.95-.24-14.79,4-3.34,5-3.16,12.79.38,17.21,3.67,4.57,9.6,6.19,15.25,2.6s8.53-1.38,11.09,3a5.12,5.12,0,0,1-.67,4.83C1250.74,635.59,1234.54,635.77,1225.86,629.61Zm63.81,64.14c-4.27,1.67-8.93,2.33-14.86,3.81-4.21-1.71-9.27-3.44-14-5.81-2.8-1.39-3.86-4.09-1.49-7,2-2.47,3.6-4.93,7.95-2.57,3.48,1.89,8.06,2.13,12.19,2.31,1.62,0.07,3.34-2,5-3.16-1.69-1.43-3.16-3.52-5.1-4.16-3.8-1.25-8-1.24-11.78-2.55-7.22-2.52-9.92-6.58-9.57-13,0.36-6.67,4.49-11.49,11.39-13.34a29.56,29.56,0,0,1,20.72,1.81c1.57,0.74,3.81,3.58,3.45,4.28-1.42,2.76-2.2,6.94-7.06,5.86-3.14-.7-6.35-1.67-9.5-1.56-1.91.07-3.75,2-5.62,3.07,1.67,1.13,3.21,2.67,5.05,3.29,4.39,1.49,9.09,2.16,13.37,3.89,5,2,8.13,5.84,8,11.75C1297.73,686.76,1295.35,691.52,1289.67,693.75Zm37.82,2.77c-16.39-.07-26.88-9.91-26.73-25.06,0.14-14.24,11.49-24.47,27.09-24.41,14.88,0.06,25.16,10.18,25.06,24.68C1352.82,686.85,1342.84,696.58,1327.5,696.51Zm56.59,0c-16,0-26.33-9.71-26.31-24.72,0-14.66,10.58-24.5,26.51-24.72,14.62-.2,25.64,10.23,25.68,24.3C1410,686.68,1399.86,696.54,1384.09,696.51ZM1411.64,633c-2.89-.32-7.53,2.19-7.51-3.95,0-13,0-26,.15-38.95,0-1.41,1.75-4.08,2.41-4,3.82,0.49,8.62.49,11.08,2.79,5,4.65,8.63,10.68,12.85,16.12,1.2,1.55,2.49,3,4.19,5.08,0-7.23,0-13.56,0-19.9,0-7.37,5.7-3.75,9-4.39,3.54-.69,5.13,1.07,5,4.83-0.38,11.92-.41,23.85-0.93,35.76-0.09,2.19-1.48,5.88-2.82,6.15-3.44.69-7.5,2-10.38-2.29-3.83-5.71-8.14-11.11-12.3-16.6-1-1.37-2.31-2.57-3.47-3.85l-1.42.71c0,6-.25,12.1.08,18.12C1417.86,633.6,1414.64,633.3,1411.64,633Zm48.63,56c-0.09,2.11-1.63,5.67-3,5.91-3.46.62-7.44,1.87-10.38-2.43-4.77-7-10.12-13.58-15.23-20.33l-1.84.33c0,5.88-.5,11.82.16,17.63,0.5,4.42-1.1,5.82-4.84,5.18-3.28-.56-8.82,2.85-8.74-4.62,0.14-12.59,0-25.19.12-37.78,0-1.53,1.52-4.42,2-4.35,3.84,0.52,8.64.48,11.17,2.78,5,4.58,8.79,10.57,13.13,15.93,1.12,1.39,2.45,2.61,3.69,3.91l0.53-.53c0-5.89.28-11.79,0-17.66-0.27-5.53,3.19-5.05,6.8-4.94s7.56-.89,7.33,5.13C1460.74,665.12,1460.79,677.08,1460.27,689Zm41-68.06c-0.79,3.37-2.68,7.64-5.4,9.2-13.22,7.59-36.56,5.82-40.18-17.71-1.5-9.76,4.16-20.67,13.49-25.13,9-4.29,23-4,30,5-3.25,4.51-5.81,8.25-12.4,4.71a12.17,12.17,0,0,0-15.37,3.43c-3.38,5-3.12,13.71.55,18.38,3.24,4.12,9.43,5.57,14.91,2.9,1.58-.77,2.38-3.16,3.54-4.8-1.59-.78-3.16-2.16-4.77-2.22-3.84-.13-7.32.35-7.23-5.41,0.06-3.88.93-5.6,5.08-5.36a130.77,130.77,0,0,0,14-.07c3.29-.16,4.32,1.24,4.19,4.3C1501.54,612.46,1502.26,616.9,1501.3,621Z"/>
    <path class="cls-11" d="M1200.38,552c2.47,2.61,4.76,2.5,6.86-.45h0q-0.36-3.77-.74-7.53,0.05-7.18.11-14.37l-6.26-.08q0.48,7.22,1,14.44Q1200.85,548,1200.38,552Z"/>
    <path class="cls-11" d="M1207.24,551.5h0L1206.5,544q0.37,3.77.74,7.53h0Z"/>
    <path class="cls-12" d="M1522.81,551.53q-0.11-3.74-.22-7.47l1.12-14.51-3.9.09q-0.57,11.49-1.14,23Z"/>
    <path class="cls-13" d="M1516.57,529.51q0.48,7.26,1,14.52h0l-0.89,7.5,2,1.09q0.57-11.49,1.14-23l-3.23-.14h0Z"/>
    <path class="cls-13" d="M1516.57,529.51l3.23,0.14-3.23-.14h0Z"/>
    <path class="cls-13" d="M1516.57,529.51h0q0.48,7.26,1,14.52h0Q1517,536.77,1516.57,529.51Z"/>
    <path class="cls-14" d="M1333.3,624.67c0-5.8,0-11.6,0-19.21,3.8,4.45,6.6,7.51,9.14,10.78s4.66,4,7.43,0c2.35-3.4,5.42-6.31,9.28-10.7,0,3.56,0,5.48,0,7.41,0,5.29-.11,10.57,0,15.85,0.13,6.24,5.07,3.7,8.2,4.21,2.89,0.47,5.07,0,5-4-0.18-13,0-26-.11-39a5.24,5.24,0,0,0-1.33-3.69c-2.24-1.77-12.08-.09-14.12,2.25-3.51,4-6.9,8.14-10.66,12.6-7.37-8-11.65-20-25.81-14.32v45.79c2,0.15,3.39.32,4.78,0.34C1333.29,633.06,1333.3,633.05,1333.3,624.67Z"/>
    <path class="cls-15" d="M1453.87,648c-3.61-.12-7.07-0.6-6.8,4.94,0.28,5.88,0,11.78,0,17.66l0.29,0.91-0.81-.38h0c-1.23-1.3-2.56-2.52-3.69-3.91-4.34-5.36-8.09-11.35-13.13-15.93-2.53-2.3-7.33-2.25-11.17-2.78-0.5-.07-2,2.82-2,4.35-0.16,12.59,0,25.19-.12,37.78-0.08,7.47,5.45,4.06,8.74,4.62,3.74,0.64,5.34-.76,4.84-5.18-0.66-5.81-.16-11.75-0.16-17.63l1.84-.33c5.1,6.76,10.45,13.35,15.23,20.33,2.94,4.3,6.91,3.05,10.38,2.43,1.35-.24,2.88-3.8,3-5.91,0.52-11.94.47-23.9,0.93-35.84C1461.43,647.16,1457.48,648.17,1453.87,648Z"/>
    <path class="cls-15" d="M1446.55,671.18c-1.24-1.3-2.56-2.52-3.69-3.91,1.12,1.39,2.45,2.61,3.69,3.91h0Z"/>
    <path class="cls-16" d="M1417.59,628.63c-0.33-6-.08-12.08-0.08-18.12l1.42-.71c1.16,1.28,2.43,2.48,3.47,3.85,4.16,5.49,8.47,10.89,12.3,16.6,2.88,4.29,6.94,3,10.38,2.29,1.34-.27,2.73-4,2.82-6.15,0.51-11.91.55-23.84,0.93-35.76,0.12-3.76-1.47-5.52-5-4.83-3.31.65-9-3-9,4.39,0,6.33,0,12.67,0,19.9-1.7-2-3-3.53-4.19-5.08-4.22-5.44-7.89-11.48-12.85-16.12-2.46-2.31-7.27-2.3-11.08-2.79-0.66-.08-2.38,2.58-2.41,4-0.2,13-.1,26-0.15,38.95,0,6.14,4.62,3.63,7.51,3.95S1417.86,633.6,1417.59,628.63Z"/>
    <path class="cls-17" d="M1287.09,634.08c15.84,0.15,26.49-10.11,26.39-25.44-0.08-13.78-10.85-24-25.42-24-16.24-.05-26.66,9.4-26.78,24.28C1261.17,624.26,1271.08,633.92,1287.09,634.08Zm0.43-37.83c7.52,0,11.9,4.81,11.89,13s-4.63,13.23-11.82,13.16c-8.16-.07-13.07-5.14-13-13.45C1274.59,600.91,1279.4,596.2,1287.52,596.25Z"/>
    <path class="cls-16" d="M1384.29,647.07c-15.93.22-26.49,10.06-26.51,24.72,0,15,10.29,24.69,26.31,24.72,15.78,0,25.93-9.83,25.89-25.14C1409.93,657.3,1398.91,646.87,1384.29,647.07Zm-0.21,38.08c-7.75-.21-13.13-5.89-13-13.77s5.1-12.79,13-12.77a12.74,12.74,0,0,1,12.46,13.49C1396.28,679.59,1390.8,685.33,1384.08,685.15Z"/>
    <path class="cls-16" d="M1327.85,647c-15.59-.06-26.94,10.17-27.09,24.41-0.15,15.16,10.34,25,26.73,25.06,15.35,0.06,25.32-9.66,25.42-24.79C1353,657.22,1342.73,647.09,1327.85,647Zm-0.82,38.1a13.34,13.34,0,0,1-13-13.38c0.16-7.88,5.21-13.05,12.87-13.18s12.56,5,12.58,13.13C1339.52,679.63,1334.24,685.31,1327,685.13Z"/>
    <path class="cls-18" d="M1501.72,608.2c0.13-3.06-.9-4.47-4.19-4.3a130.77,130.77,0,0,1-14,.07c-4.16-.24-5,1.48-5.08,5.36-0.09,5.76,3.38,5.28,7.23,5.41,1.61,0.06,3.18,1.44,4.77,2.22-1.16,1.64-2,4-3.54,4.8-5.48,2.66-11.67,1.22-14.91-2.9-3.67-4.67-3.94-13.4-.55-18.38A12.17,12.17,0,0,1,1486.8,597c6.59,3.54,9.15-.19,12.4-4.71-7-9-21-9.31-30-5-9.34,4.46-15,15.37-13.49,25.13,3.62,23.53,27,25.3,40.18,17.71,2.72-1.56,4.61-5.83,5.4-9.2C1502.26,616.9,1501.54,612.46,1501.72,608.2Z"/>
    <path class="cls-14" d="M1289.78,668.94c-4.28-1.73-9-2.4-13.37-3.89-1.84-.63-3.38-2.17-5.05-3.29,1.87-1.09,3.71-3,5.62-3.07,3.14-.12,6.36.85,9.5,1.56,4.86,1.09,5.65-3.1,7.06-5.86,0.36-.7-1.88-3.54-3.45-4.28a29.56,29.56,0,0,0-20.72-1.81c-6.91,1.84-11,6.67-11.39,13.34-0.35,6.44,2.35,10.5,9.57,13,3.76,1.31,8,1.3,11.78,2.55,1.95,0.64,3.42,2.73,5.1,4.16-1.67,1.12-3.39,3.23-5,3.16-4.12-.17-8.7-0.41-12.19-2.31-4.35-2.36-5.9.11-7.95,2.57-2.37,2.87-1.31,5.57,1.49,7,4.75,2.36,9.81,4.1,14,5.81,5.94-1.47,10.6-2.14,14.86-3.81,5.68-2.22,8.06-7,8.15-13.07C1297.91,674.78,1294.8,671,1289.78,668.94Z"/>
    <path class="cls-18" d="M1258.58,624.13c-2.56-4.38-5.58-6.51-11.09-3s-11.57,2-15.25-2.6c-3.55-4.41-3.72-12.24-.38-17.21,2.84-4.22,9.14-5.95,14.79-4,2.08,0.72,4.08,1.65,6.27,2.55l7.81-8.56c-5.69-2.41-10.39-5.27-15.46-6.37-11-2.38-22.47,4.2-26.74,14.49-4.68,11.27-1.63,23.78,7.33,30.14,8.68,6.16,24.88,6,32.06-.64A5.12,5.12,0,0,0,1258.58,624.13Z"/>
    <path class="cls-19" d="M1388.83,633.06c3.48,0.13,6.56.14,6.38-4.83-0.22-6.08-.05-12.17-0.05-18.26,0-6.49-.16-13,0.06-19.47,0.15-4.45-2.35-5.18-5.8-4.7s-8.34-1.95-8.14,4.84c0.36,12.54.72,25.09,0.64,37.64C1381.88,634,1385.49,632.93,1388.83,633.06Z"/>
    <path class="cls-20" d="M1207.24,551.5c-2.1,2.94-4.39,3.06-6.86.45,0.2,2.2-.26,4.87.84,6.41,0.65,0.91,5,.72,5.56-0.21a4.33,4.33,0,0,0,.48-1.46A43.33,43.33,0,0,0,1207.24,551.5Z"/>
    <path class="cls-20" d="M1207.26,556.7a44.21,44.21,0,0,0,0-5.2h0A43.33,43.33,0,0,1,1207.26,556.7Z"/>
    <path class="cls-21" d="M1516.81,556.79c0.7,1.3,3,2.73,4.25,2.49a6.62,6.62,0,0,0,4.25-3.54,0.74,0.74,0,0,0,0-.38c-0.14-1-1.73-2.57-2.53-3.83l-4.14,1.09-2-1.09C1516.64,553.31,1516.06,555.41,1516.81,556.79Z"/>
    <path class="cls-22" d="M1447.37,671.56l-0.29-.91c-0.18.17-.36,0.35-0.53,0.53Z"/>
    <path class="cls-23" d="M1287.6,622.37c7.18,0.06,11.81-5.09,11.82-13.16s-4.37-12.91-11.89-13c-8.12,0-12.93,4.66-13,12.67C1274.53,617.23,1279.44,622.3,1287.6,622.37Z"/>
    <path class="cls-24" d="M1384.08,658.61c-7.94,0-12.93,4.88-13,12.77s5.28,13.57,13,13.77c6.72,0.18,12.2-5.56,12.47-13.05A12.74,12.74,0,0,0,1384.08,658.61Z"/>
    <path class="cls-25" d="M1326.93,658.58c-7.66.13-12.71,5.3-12.87,13.18a13.34,13.34,0,0,0,13,13.38c7.21,0.18,12.49-5.5,12.48-13.42C1339.5,663.59,1334.58,658.46,1326.93,658.58Z"/>
  </g>
  <g id="dividing_line-2" data-name="dividing line">
    <rect class="cls-26" x="794.68" width="2" height="1242.92"/>
  </g>
  <g id="footer-2" data-name="footer">
    <g>
      <text class="cls-27" transform="translate(250.55 1188.11)">Co<tspan x="22.39" y="0">p</tspan><tspan x="33.48" y="0">yright© 김사원프린트좀해와 2016</tspan></text>
      <rect class="cls-4" x="241.37" y="1160.44" width="313.97" height="40.81"/>
    </g>
  </g>
  <g id="text-2" data-name="text">
    <text class="cls-28" transform="translate(332.12 373.27)">이용방법</text>
    <text class="cls-29" transform="translate(89.17 481.55)">첫번째.<tspan class="cls-30"><tspan x="0" y="26.4">‘김사원프린트좀해와’ 홈화면에서 나에 해당되는 유저 타입을 선택해.</tspan></tspan><tspan x="0" y="79.2">두번째.</tspan><tspan class="cls-30"><tspan x="0" y="105.6">최저가 검색 페이지에서 원하는 옵션을 선택해봐. 페이지 하단에 내가</tspan><tspan x="0" y="132">선택한 옵션이 요약글로 뜨지? 이때 검색결과 개수를 잘 확인하는게</tspan><tspan x="0" y="158.4">좋을거야. 결과가 아예 없을수도 있으니까!</tspan></tspan><tspan x="0" y="211.2">세번째.</tspan><tspan class="cls-30"><tspan x="0" y="237.6">&lt;제출&gt; 버튼을 눌러봐. 페이지 상단에 요약글이 뜨고, 그걸 가장</tspan><tspan x="0" y="264">저렴하게 제공하는 홈페이지가 표시될거야.</tspan></tspan><tspan x="0" y="316.8">네번째.</tspan><tspan class="cls-30"><tspan x="0" y="343.2">페이지 하단의 [더 저렴하게?] 목록을 보면 매수를 높이고도 더</tspan><tspan x="0" y="369.6">저렴하게 구입을 할 수 있는 옵션들이 보여져! 굉장하지?</tspan></tspan><tspan x="0" y="422.4">다섯번째.</tspan><tspan class="cls-30"><tspan x="0" y="448.8">페이지 하단의 [이건 어때요?] 목록을 보면 매수를 많이 높였을때 장당</tspan><tspan x="0" y="475.2">가격이 더 저렴해지는 옵션들이 떠! 총액은 더 비싸지만 장당 가격을</tspan><tspan x="0" y="501.6">고려하면 이득이지.</tspan></tspan><tspan x="0" y="554.4">여섯번째.</tspan><tspan class="cls-30"><tspan x="0" y="580.8">이 중에 원하는 옵션의 링크를 타고 쇼핑몰에 가서 요약글대로 주문을</tspan><tspan x="0" y="607.2">하면 끝이야!</tspan></tspan></text>
  </g>
  <g id="logo-2" data-name="logo">
    <g>
      <g>
        <g>
          <path class="cls-31" d="M352.19,121.18c0.5,0.19,1,.38,1.65.58s1.14,0.39,1.68.6a1.81,1.81,0,0,1,.54.29v21.79a3.26,3.26,0,0,0,.68,2.41,1.49,1.49,0,0,0,1.19.46,1.77,1.77,0,0,0,.85-0.32,4,4,0,0,0,1.31-1.87,8.09,8.09,0,0,0,.51-3.09V121.6a4.45,4.45,0,0,1,.15-1.07,1.59,1.59,0,0,0-.63-1.92,4.49,4.49,0,0,0-1.09-.34c-0.44-.09-0.94-0.17-1.52-0.23s-1.14-.1-1.75-0.12-1.26,0-1.73,0a5.16,5.16,0,0,0-2,.37,1.68,1.68,0,0,0-1.15,1.53A1.61,1.61,0,0,0,352.19,121.18Z"/>
          <path class="cls-32" d="M341.85,169.23l16.93-3.82a3.08,3.08,0,0,0,1.61-.87A2.2,2.2,0,0,0,361,163a1.67,1.67,0,0,0-.74-1.39,2,2,0,0,0-1-.35q0.08-.76.17-1.66l0.31-3c0.1-1,.21-1.94.31-2.83,0.08-.72.16-1.31,0.22-1.77a3.63,3.63,0,0,0,.72-1.72,2.16,2.16,0,0,0-.18-1.21,1.47,1.47,0,0,0-1.46-.77,6.85,6.85,0,0,0-1.58.2,12.1,12.1,0,0,0-1.24.38,10.76,10.76,0,0,0-1.2.53,6.9,6.9,0,0,1-1.1.44l-1,.28-2.1.54-2.73.67-2.88.68-2.59.58-1.7.35a21.94,21.94,0,0,0-2.68.17q-1.26.16-2.29,0.24a1.55,1.55,0,0,0-1.16.65,1.8,1.8,0,0,0-.33,1,2,2,0,0,0,.18.86,1.2,1.2,0,0,0,1,.71,1.47,1.47,0,0,1,1.47,1.67l0.42,9.06c0,0.84.29,1.76,0.83,1.94A6.6,6.6,0,0,0,341.85,169.23Zm13.55-7.1-1.23.46a12.7,12.7,0,0,1-1.84.54l-10.25,2.28q0-1.09,0-2.31v-6.48l2-.5q1.74-.43,3.84-0.92l4.37-1,3.29-.72Z"/>
          <path class="cls-33" d="M326.1,155.5h0.12a2.86,2.86,0,0,0,1.37-.55c1.76-1.3,3.68-2.91,5.71-4.75a85.18,85.18,0,0,0,6-6.12,69.67,69.67,0,0,0,5.55-7.1,42,42,0,0,0,4.11-7.46,2.92,2.92,0,0,0,.48-1.38,2.7,2.7,0,0,0-.19-1.19,2,2,0,0,0-.76-0.94,1.75,1.75,0,0,0-1.11-.31h0l-0.38,0a7,7,0,0,0-2.5.62,21.47,21.47,0,0,1-2.27.93,11.6,11.6,0,0,1-1.25.36c-0.71.18-1.53,0.38-2.46,0.59s-1.88.42-2.85,0.63l-2.43.49q-1.6.29-2.84,0.47c-0.83.12-1.74,0.24-2.71,0.36a2,2,0,0,0-1.86,1.3,1.38,1.38,0,0,0,1,1.88,15.34,15.34,0,0,0,2.61.75,7,7,0,0,0,3,0,7.33,7.33,0,0,0,2-.79,5.82,5.82,0,0,1,1.48-.61q1-.29,2.27-0.63l2.61-.66,2.52-.63,0.25-.07a50.67,50.67,0,0,1-3.11,5.2,73.77,73.77,0,0,1-4.81,6.32c-1.7,2-3.44,3.87-5.18,5.56s-3.39,3.19-4.93,4.45a2.72,2.72,0,0,0-1,1.41,1.49,1.49,0,0,0,.27,1.4A1.53,1.53,0,0,0,326.1,155.5Z"/>
        </g>
        <g>
          <path class="cls-34" d="M377.22,161.23l0.14,0a2.77,2.77,0,0,0,1.39-.71,53,53,0,0,0,6.22-6.89,79.09,79.09,0,0,0,4.73-7l1.72,1.35q1.48,1.15,2.93,2.32l2.63,2.13a18.57,18.57,0,0,1,1.45,1.25,2,2,0,0,0,1.67.78l0.24,0a2.27,2.27,0,0,0,1.46-1.09,3.63,3.63,0,0,0,.47-1.78,3.29,3.29,0,0,0-.58-2,7.93,7.93,0,0,0-1.68-1.87,9,9,0,0,0-1.74-1.08q-0.84-.39-1.71-0.7a6.69,6.69,0,0,1-1.46-.72l-3.33-2.13a52.39,52.39,0,0,0,2.67-5.78,14.78,14.78,0,0,0,1.18-5,1.82,1.82,0,0,0-.71-1.4,5.56,5.56,0,0,0-1.31-.81,10.82,10.82,0,0,0-1.61-.57,12.61,12.61,0,0,0-1.6-.33,3.94,3.94,0,0,0-2.14.13,2,2,0,0,0-1.39,1.45,1.6,1.6,0,0,0,.65,1.48,13.4,13.4,0,0,0,1.08.83,11.58,11.58,0,0,1,1,.79,1.87,1.87,0,0,1,.4.46,17,17,0,0,1-1.23,4.89,46.57,46.57,0,0,1-3.06,6.28,71.24,71.24,0,0,1-9.41,12.66,2.45,2.45,0,0,0-.75,1.48,1.43,1.43,0,0,0,.5,1.26A1.55,1.55,0,0,0,377.22,161.23Z"/>
          <path class="cls-35" d="M420.71,135.87h0a15.94,15.94,0,0,0-2.86.35,7.44,7.44,0,0,0-1.69.62c-0.4.21-.77,0.43-1.12,0.64a4.29,4.29,0,0,1-1.14.42l-0.64.14V121.78a4.36,4.36,0,0,1,.16-1.08,1.6,1.6,0,0,0-.64-1.92,4.44,4.44,0,0,0-1.08-.33c-0.44-.09-0.94-0.17-1.51-0.23s-1.14-.1-1.76-0.12-1.17,0-1.72,0a5.15,5.15,0,0,0-2,.37A1.68,1.68,0,0,0,403.6,120a1.64,1.64,0,0,0,1.21,1.35c0.5,0.21,1.06.41,1.67,0.61s1.14,0.39,1.69.6a2.6,2.6,0,0,1,.54.27v41.56a3.39,3.39,0,0,0,.66,2.42,1.48,1.48,0,0,0,1.22.49,1.73,1.73,0,0,0,.84-0.31,4.08,4.08,0,0,0,1.32-1.87,8.16,8.16,0,0,0,.51-3.09V141.71l7.59-1.72a3.22,3.22,0,0,0,1.65-.83,2.11,2.11,0,0,0,.67-1.5,1.68,1.68,0,0,0-.74-1.39A2.51,2.51,0,0,0,420.71,135.87Z"/>
        </g>
        <g>
          <path class="cls-36" d="M439.1,140.79a8.4,8.4,0,0,0,3.51,1.18,11.63,11.63,0,0,0,2.4,0,16.67,16.67,0,0,0,2.11-.32,14.9,14.9,0,0,0,4.56-1.72,12.93,12.93,0,0,0,3.27-2.73,11.14,11.14,0,0,0,2.62-7.13,5.72,5.72,0,0,0-2.34-4.82,10,10,0,0,0-5.89-1.6,1.94,1.94,0,0,0-.92-1.12,4.1,4.1,0,0,0-1.87-.53,5.42,5.42,0,0,0-1.84.22,1.56,1.56,0,0,0-1.38,1.43,1.13,1.13,0,0,0,.61,1l0.28,0.15a19,19,0,0,0-2.37,1.21,14.32,14.32,0,0,0-2.8,2.16,11.57,11.57,0,0,0-2.13,2.94,8.14,8.14,0,0,0-.89,3.77,7.22,7.22,0,0,0,.79,3.4A6.44,6.44,0,0,0,439.1,140.79Zm3.19-10.35a13,13,0,0,1,4.48-2.81,2.93,2.93,0,0,0,.67-0.29l0.22-.12a6.76,6.76,0,0,1,4.26,1,3.23,3.23,0,0,1,1.42,2.66,6.13,6.13,0,0,1-.41,2.17,6.54,6.54,0,0,1-1.21,2,8.63,8.63,0,0,1-2,1.67,8.79,8.79,0,0,1-2.79,1.05,12.13,12.13,0,0,1-1.55.24,4.82,4.82,0,0,1-3.08-.58,3.52,3.52,0,0,1-1.47-3.19A5.2,5.2,0,0,1,442.28,130.45Z"/>
          <path class="cls-37" d="M429.74,150.72a21,21,0,0,0,2.6.82,7,7,0,0,0,3.27,0,10.61,10.61,0,0,0,2.05-.69,11.08,11.08,0,0,1,1.43-.55c0.7-.2,1.51-0.44,2.42-0.73l2-.63v4.78A3.82,3.82,0,0,0,444,156l-0.44.09a5,5,0,0,0-1.79.69,1.15,1.15,0,0,0,.39,2.25c0.38,0.06.82,0.11,1.29,0.14a10,10,0,0,1,1.23.16,0.8,0.8,0,0,1,.23.08v5.35a2.83,2.83,0,0,0,1.57,2.7,4.37,4.37,0,0,0,2.37.41,6.81,6.81,0,0,0,1-.16L470.53,163a3.12,3.12,0,0,0,1.67-.88,2.2,2.2,0,0,0,.64-1.5,1.69,1.69,0,0,0-.74-1.4,2.53,2.53,0,0,0-1.71-.39h0a14.35,14.35,0,0,0-2.79.35,8,8,0,0,0-1.56.58l-1.19.63a6.4,6.4,0,0,1-1.7.52l-13.54,3.12h-0.17v-5.53a3.45,3.45,0,0,1,.14-0.93,1.53,1.53,0,0,0-.61-1.86,2.76,2.76,0,0,0-1.26-.22l-0.72,0a6.34,6.34,0,0,0,.54-1,8.11,8.11,0,0,0,.51-3.09v-3.92q3.16-1.08,6.54-2.34c2.49-.92,4.79-1.83,6.84-2.69a2.15,2.15,0,0,0,1.15-1,2.08,2.08,0,0,0,.21-1.25,1.6,1.6,0,0,0-.57-1,1.52,1.52,0,0,0-1.53-.1c-1.64.65-3.55,1.33-5.68,2s-4.3,1.38-6.45,2-4.21,1.29-6.19,1.87-3.62,1-4.91,1.39q-1.6.39-3.61,0.79a31.15,31.15,0,0,1-3.44.52,1.84,1.84,0,0,0-1.54,1.12A1.37,1.37,0,0,0,429.74,150.72Z"/>
          <path class="cls-38" d="M460.61,120.08c0.5,0.19,1,.38,1.65.58s1.14,0.39,1.69.6a1.91,1.91,0,0,1,.54.29v24.54l-1,.26-1.89.49-1.65.43a7.18,7.18,0,0,1-.89.2c-0.44.1-.74,0.23-1.51,0.38s-1.31.23-1.7,0.27a1.83,1.83,0,0,0-1.76,1.46,1.43,1.43,0,0,0,1.12,1.77,6.87,6.87,0,0,0,1.89.29,7.22,7.22,0,0,0,2.13-.23l1.1-.31,1.71-.51,2.44-.75v2.88a3.27,3.27,0,0,0,.68,2.42,1.48,1.48,0,0,0,1.19.45,1.75,1.75,0,0,0,.85-0.32,4,4,0,0,0,1.32-1.87,8.29,8.29,0,0,0,.51-3.09V120.49a4.55,4.55,0,0,1,.16-1.08,1.6,1.6,0,0,0-.63-1.92,4.49,4.49,0,0,0-1.08-.33c-0.44-.09-0.94-0.17-1.51-0.23s-1.15-.1-1.76-0.12a15.69,15.69,0,0,0-1.7,0h0a5.18,5.18,0,0,0-2,.37,1.68,1.68,0,0,0-1.14,1.53A1.61,1.61,0,0,0,460.61,120.08Z"/>
        </g>
        <path class="cls-39" d="M364.41,212.73h0a31.34,31.34,0,0,0-4,.62,8.16,8.16,0,0,0-1.67.55c-0.42.2-.84,0.42-1.26,0.65a6.76,6.76,0,0,1-1.54.55c-1,.29-2.29.63-3.74,1s-1.83.49-3.57,0.91-3.55.85-5.43,1.29l-5.62,1.28q-2.78.62-5.37,1.12l-4.68.88q-1.6.29-3.09,0.49c-1,.13-1.92.22-3,0.27a1.84,1.84,0,0,0-1.54,1.12,1.38,1.38,0,0,0,.91,1.94,20.78,20.78,0,0,0,2.6.81,6.85,6.85,0,0,0,2.25.18c0.34,0,1.67-.08,2-0.16a11,11,0,0,0,2.05-.69,10.81,10.81,0,0,1,1.42-.55c1.31-.35,2.26-0.83,4.84-1.45s5.49-1.29,8.7-2,6.55-1.49,10-2.24,6.75-1.46,9.85-2.1a2.94,2.94,0,0,0,1.71-1,2.4,2.4,0,0,0,.61-1.54,1.92,1.92,0,0,0-.67-1.44A2.27,2.27,0,0,0,364.41,212.73Z"/>
        <g>
          <path class="cls-40" d="M414.17,222.38h0a14.21,14.21,0,0,0-2.79.35,8.39,8.39,0,0,0-1.56.58l-1.17.59a8.62,8.62,0,0,1-1.72.55l-12.5,2.87h-0.17v-7.1a3.27,3.27,0,0,1,.14-0.93,1.53,1.53,0,0,0-.62-1.85,2.74,2.74,0,0,0-1.26-.23,12.9,12.9,0,0,0-1.48.1c-0.53.06-1,.14-1.53,0.24l-1.15.23a5.19,5.19,0,0,0-1.79.69,1.14,1.14,0,0,0,.39,2.24c0.38,0.06.82,0.11,1.29,0.14a9.79,9.79,0,0,1,1.23.16,0.81,0.81,0,0,1,.23.07V228a2.82,2.82,0,0,0,1.57,2.7,4.35,4.35,0,0,0,2.37.42,6.86,6.86,0,0,0,1-.17l19.65-4.4a3.1,3.1,0,0,0,1.67-.88,2.19,2.19,0,0,0,.64-1.5,1.66,1.66,0,0,0-.73-1.39A2.49,2.49,0,0,0,414.17,222.38Z"/>
          <path class="cls-41" d="M400.14,207c-1.65.67-3.31,1.3-4.93,1.86s-3.21,1.06-4.8,1.51-3,.82-4.4,1.14h-0.17V205l13.6-3a3.09,3.09,0,0,0,1.53-.82,2.4,2.4,0,0,0,.71-1.37,1.69,1.69,0,0,0-.52-1.44,1.8,1.8,0,0,0-.8-0.44c0-.32.08-0.65,0.11-1q0.1-1,.23-2c0.08-.68.16-1.33,0.21-2,0-.46.08-0.86,0.13-1.21a3.18,3.18,0,0,0,.37-0.58,3.36,3.36,0,0,0,.36-1.14,2.17,2.17,0,0,0-.17-1.21,1.47,1.47,0,0,0-1.46-.77,6.7,6.7,0,0,0-1.59.2,9.73,9.73,0,0,0-1.27.42l-1.13.5c-0.35.16-.74,0.33-1.09,0.47l-1.43.38-2.67.66-3,.69c-1,.22-1.73.36-2.33,0.45q-1.6.29-2.84,0.47t-2.71.3a2,2,0,0,0-1.86,1.3,1.46,1.46,0,0,0,1,1.93,13.8,13.8,0,0,0,2.63.72,7.77,7.77,0,0,0,3,0,7.3,7.3,0,0,0,2-.79,5.78,5.78,0,0,1,1.48-.61q1-.29,2.23-0.6l2.57-.66q1.27-.34,2.4-0.62l0.9-.22-0.16,5.52c-0.58.18-1.13,0.38-1.67,0.58a20.72,20.72,0,0,1-2.14.67L385,201.51a17.3,17.3,0,0,0-2.62.23c-0.83.13-1.58,0.23-2.25,0.29a1.54,1.54,0,0,0-1.16.65,1.79,1.79,0,0,0-.33,1,2,2,0,0,0,.18.86,1.2,1.2,0,0,0,1,.7,1.42,1.42,0,0,1,1.49,1.63v6a2.88,2.88,0,0,0,1.47,2.69,4.15,4.15,0,0,0,2.39.45A6.59,6.59,0,0,0,386,216c1.42-.33,3-0.76,4.63-1.28s3.37-1.12,5.11-1.8,3.48-1.41,5.24-2.2,3.43-1.62,5-2.45a2.45,2.45,0,0,0,1.11-1.13,2.21,2.21,0,0,0,.24-1.29,1.41,1.41,0,0,0-.78-1.07,1.77,1.77,0,0,0-1.59.1C403.4,205.6,401.79,206.32,400.14,207Z"/>
          <path class="cls-42" d="M411,216.39a1.49,1.49,0,0,0,1.19.45,1.79,1.79,0,0,0,.85-0.32,4,4,0,0,0,1.31-1.87,8,8,0,0,0,.52-3.09V183.83a4.41,4.41,0,0,1,.15-1.08,1.6,1.6,0,0,0-.63-1.93,4.51,4.51,0,0,0-1.08-.33q-0.66-.14-1.51-0.23c-0.56-.06-1.14-0.1-1.76-0.12a8.34,8.34,0,0,0-1.68,0,4.65,4.65,0,0,0-2,.32,1.68,1.68,0,0,0-1.14,1.53,1.65,1.65,0,0,0,1.21,1.35c0.5,0.21,1.06.42,1.67,0.62s1.14,0.39,1.68.6a1.88,1.88,0,0,1,.55.29V214A3.24,3.24,0,0,0,411,216.39Z"/>
        </g>
        <path class="cls-43" d="M441.24,213a4.27,4.27,0,0,0,2.41.44,6.38,6.38,0,0,0,1-.16l19-4.29a3.21,3.21,0,0,0,1.65-.83,2.11,2.11,0,0,0,.66-1.5,1.68,1.68,0,0,0-.74-1.4,2.51,2.51,0,0,0-1.71-.39h0a14.24,14.24,0,0,0-2.79.35,8,8,0,0,0-1.56.58l-1.17.59a8.15,8.15,0,0,1-1.71.55l-11.93,2.65h-0.07v-6.19l18.59-4.2a3.24,3.24,0,0,0,1.65-.83,2.12,2.12,0,0,0,.67-1.5,1.68,1.68,0,0,0-.74-1.39,2.5,2.5,0,0,0-1.72-.39h0a14.91,14.91,0,0,0-2.79.35,8.3,8.3,0,0,0-1.56.58l-1.18.59a8.13,8.13,0,0,1-1.71.55l-11.21,2.52V194l18.85-4.23a3.1,3.1,0,0,0,1.67-.88,2.2,2.2,0,0,0,.65-1.5,1.67,1.67,0,0,0-.74-1.39,2.5,2.5,0,0,0-1.72-.39,14.26,14.26,0,0,0-2.79.35,7.92,7.92,0,0,0-1.56.57l-1.17.59a8.81,8.81,0,0,1-1.71.55l-12.31,2.74a27.09,27.09,0,0,0-2.82.19,24.08,24.08,0,0,0-2.68.45,1.76,1.76,0,0,0-1.33,1.62,1.3,1.3,0,0,0,1.13,1.55,4,4,0,0,1,1.57.56,1,1,0,0,1,.42.93v14.6A2.89,2.89,0,0,0,441.24,213Z"/>
        <path class="cls-44" d="M384,253.61l-1.07.09a1.83,1.83,0,0,0-1.54,1.12,1.38,1.38,0,0,0,.91,1.94,10.56,10.56,0,0,0,2.43.56,8.53,8.53,0,0,0,1.78.05,5.81,5.81,0,0,0,.87-0.13l5.53-1.24a2.48,2.48,0,0,0,1.53-.82,2.13,2.13,0,0,0,.57-1.39,1.58,1.58,0,0,0-.65-1.29,2.14,2.14,0,0,0-1.63-.3q-1.52.23-3,.48c-1,.17-1.84.34-2.64,0.52a7.64,7.64,0,0,1-.76.13l-1.17.15Z"/>
        <g>
          <path class="cls-45" d="M416,242.61a5.77,5.77,0,0,0-2.41-.57,31.82,31.82,0,0,0-3.2-.11,5.12,5.12,0,0,0-2,.37,1.69,1.69,0,0,0-1.14,1.53,1.58,1.58,0,0,0,1.08,1.33c0.43,0.2.93,0.4,1.49,0.61l1.54,0.59a1.48,1.48,0,0,1,.47.27v15.82L407,263.81v-13a4.26,4.26,0,0,1,.16-1.07,1.6,1.6,0,0,0-.58-1.9,5.78,5.78,0,0,0-2.41-.57,31.85,31.85,0,0,0-3.2-.11,5.13,5.13,0,0,0-2,.37,1.68,1.68,0,0,0-1.14,1.53,1.58,1.58,0,0,0,1.08,1.32c0.43,0.2.93,0.4,1.49,0.61l1.54,0.59a1.62,1.62,0,0,1,.48.27v36a3.27,3.27,0,0,0,.68,2.42,1.49,1.49,0,0,0,1.19.45,1.77,1.77,0,0,0,.85-0.32,4,4,0,0,0,1.31-1.87,8.14,8.14,0,0,0,.51-3.09V267.76l4.83-1.36v22a3.27,3.27,0,0,0,.68,2.41,1.49,1.49,0,0,0,1.19.45,1.77,1.77,0,0,0,.85-0.32,4,4,0,0,0,1.32-1.87,8.22,8.22,0,0,0,.51-3.09v-40.4a4.27,4.27,0,0,1,.15-1.07A1.59,1.59,0,0,0,416,242.61Z"/>
          <path class="cls-46" d="M397.22,257.36a18.49,18.49,0,0,0-2.55.35,10.52,10.52,0,0,0-1.56.48,6.74,6.74,0,0,0-1.15.62,6.41,6.41,0,0,1-1,.51c-0.27.09-.71,0.22-1.33,0.39s-1.33.35-2.11,0.54l-2.39.56c-0.8.19-1.51,0.34-2.15,0.46q-1.59.34-3,.56t-2.26.29a1.84,1.84,0,0,0-1.54,1.12,1.37,1.37,0,0,0,.91,1.94,9.73,9.73,0,0,0,2.44.54,7.78,7.78,0,0,0,2.64-.11,10.79,10.79,0,0,0,2-.69,11.48,11.48,0,0,1,1.43-.55l0.56-.16a1.52,1.52,0,0,0-1.28,1.4,1.14,1.14,0,0,0,.62,1l0.29,0.15a18,18,0,0,0-2.08,1.13,11,11,0,0,0-2.49,2.15,11.62,11.62,0,0,0-1.85,3,9.66,9.66,0,0,0-.75,3.86,7.31,7.31,0,0,0,.8,3.48,6.72,6.72,0,0,0,2.17,2.43,7.64,7.64,0,0,0,3.22,1.22,9.84,9.84,0,0,0,2.28.07,11.8,11.8,0,0,0,1.6-.25,13.4,13.4,0,0,0,3.84-1.56,12,12,0,0,0,3-2.55,10.91,10.91,0,0,0,1.91-3.33,11.12,11.12,0,0,0,.65-3.79,6.72,6.72,0,0,0-2-5,7.82,7.82,0,0,0-5.16-1.92,2,2,0,0,0-.94-1.19,4.06,4.06,0,0,0-1.88-.52,5.37,5.37,0,0,0-1.4.11l1.91-.5q1.65-.42,3.28-0.79l3.08-.7,2.37-.56a3.11,3.11,0,0,0,1.67-.88,2.2,2.2,0,0,0,.64-1.5,1.68,1.68,0,0,0-.74-1.39A2.54,2.54,0,0,0,397.22,257.36Zm-8.71,12.2a5.94,5.94,0,0,0,.72-0.4,4.9,4.9,0,0,1,3.51,1.21,4.25,4.25,0,0,1,1.17,3.08,6.28,6.28,0,0,1-1.45,4.21,7,7,0,0,1-4,2.32,8.62,8.62,0,0,1-1.12.17,4.15,4.15,0,0,1-2.66-.53c-0.85-.55-1.29-1.69-1.29-3.37a6.28,6.28,0,0,1,1.27-4.12A9.25,9.25,0,0,1,388.51,269.56Z"/>
        </g>
        <path class="cls-47" d="M476.64,260.74a2.76,2.76,0,0,0-1.72-.44,14.09,14.09,0,0,0-2.88.39,8.38,8.38,0,0,0-1.67.64c-0.4.21-.77,0.43-1.12,0.64a3.66,3.66,0,0,1-1.17.37l-0.61.15V246.25a4.55,4.55,0,0,1,.16-1.11,1.52,1.52,0,0,0-.63-1.89,4.73,4.73,0,0,0-1.09-.34c-0.44-.09-0.94-0.17-1.51-0.23s-1.15-.1-1.76-0.12-1.18,0-1.73,0a5.13,5.13,0,0,0-2,.37,1.68,1.68,0,0,0-1.14,1.54A1.63,1.63,0,0,0,459,245.8c0.5,0.21,1.06.42,1.67,0.62s1.14,0.39,1.68.6a2.26,2.26,0,0,1,.55.28v26c-0.94.37-2,.74-3.06,1.13l-4.22,1.47-4.47,1.52-3.41,1.12V276a4.58,4.58,0,0,1,.16-1.05,1.62,1.62,0,0,0-.58-1.92,3,3,0,0,0-.39-0.21,13.87,13.87,0,0,0,7-4.71,11.87,11.87,0,0,0,2-3.79,13.72,13.72,0,0,0,.62-4,6.54,6.54,0,0,0-.72-3,7,7,0,0,0-2-2.35,9.61,9.61,0,0,0-3-1.52,12,12,0,0,0-3.07-.53,2.16,2.16,0,0,0-.94-1.35,4.48,4.48,0,0,0-1.93-.7,5.29,5.29,0,0,0-2,.11c-1.29.33-1.48,1-1.48,1.42a1.17,1.17,0,0,0,.63,1l0.53,0.3a2.19,2.19,0,0,1,.28.18,23.71,23.71,0,0,0-3,1.69,17.19,17.19,0,0,0-2.9,2.43,12.75,12.75,0,0,0-2.23,3.21,9.44,9.44,0,0,0-.15,7.7,7.2,7.2,0,0,0,2.27,2.9,8.68,8.68,0,0,0,3.67,1.56l0.46,0.08a1.55,1.55,0,0,0-.37,1,1.15,1.15,0,0,0,.84,1.12l0.76,0.24a3.57,3.57,0,0,1,.67.28,0.75,0.75,0,0,1,.22.17V280c-1.09.34-2.14,0.64-3.13,0.91l-3.19.86q-1.6.39-3.62,0.82a28,28,0,0,1-3.44.54,1.83,1.83,0,0,0-1.54,1.12,1.37,1.37,0,0,0,.9,1.94,21.89,21.89,0,0,0,2.6.81,7,7,0,0,0,3.27,0,10.78,10.78,0,0,0,2-.68,11.38,11.38,0,0,1,1.44-.55c1.32-.39,3-0.94,5.23-1.7l6.81-2.37c2.42-.85,4.83-1.74,7.17-2.64q2.83-1.09,5.14-2v11.84a3.39,3.39,0,0,0,.66,2.42,1.49,1.49,0,0,0,1.22.49,1.78,1.78,0,0,0,.84-0.31,4,4,0,0,0,1.32-1.87,8.13,8.13,0,0,0,.51-3.09V266.18l7.59-1.72a3.23,3.23,0,0,0,1.65-.83,2.11,2.11,0,0,0,.67-1.5A1.68,1.68,0,0,0,476.64,260.74Zm-34.29,8.72a4.51,4.51,0,0,1-2-.85,3.71,3.71,0,0,1-1.19-1.61,6.84,6.84,0,0,1,1.38-6.94,13.08,13.08,0,0,1,4.94-3.32l0.33-.17,0.26-.13a8.34,8.34,0,0,1,2.54.36,6.21,6.21,0,0,1,2,1.06,4.68,4.68,0,0,1,1.26,1.53,3.75,3.75,0,0,1,.44,1.75,8.13,8.13,0,0,1-1.71,4.94,9,9,0,0,1-2.18,2,9.23,9.23,0,0,1-3.08,1.25A7.81,7.81,0,0,1,442.34,269.45Z"/>
        <g>
          <path class="cls-48" d="M364.41,264.86h0a17.55,17.55,0,0,0-2.81.32,8.08,8.08,0,0,0-1.68.56q-0.63.3-1.25,0.65a6.83,6.83,0,0,1-1.55.56q-2,.59-5.19,1.39-2.73.7-5.82,1.45v-4.36a4.55,4.55,0,0,1,.16-1.06,1.62,1.62,0,0,0-.58-1.91,4.48,4.48,0,0,0-2-.53,8.27,8.27,0,0,0-2.17.09,10.4,10.4,0,0,0-1.28.25c1.58-1.17,3.11-2.37,4.57-3.61l2.35,0.83c1,0.35,2,.71,2.95,1.07s1.88,0.73,2.74,1.09l2.13,0.91a2.44,2.44,0,0,0,2,.23,2.2,2.2,0,0,0,1.32-1.3,3,3,0,0,0-.94-3.37,8,8,0,0,0-2-1.33,5.87,5.87,0,0,0-1.81-.48c-0.53,0-1.05-.07-1.57-0.06a6,6,0,0,1-1.37-.16l-2.32-.54c0.89-.85,1.74-1.7,2.55-2.54a45.47,45.47,0,0,0,3-3.46,2.23,2.23,0,0,0,.77-1.4,2.49,2.49,0,0,0-.16-1.24,2.31,2.31,0,0,0-.75-1,2.08,2.08,0,0,0-1.13-.44,4.64,4.64,0,0,0-2.48.61,7.18,7.18,0,0,1-1.2.6l-0.92.24-1.92.47-2.5.6-2.6.61-2.34.53c-0.71.16-1.25,0.27-1.63,0.34q-1.13.2-2.42,0.38t-2.76.31a2,2,0,0,0-1.86,1.3,1.39,1.39,0,0,0,1,1.88,14.89,14.89,0,0,0,2.5.73,6.63,6.63,0,0,0,2.78,0,7.32,7.32,0,0,0,1.88-.72,5.64,5.64,0,0,1,1.4-.55l1.88-.49,3-.77q1.52-.4,2.95-0.74c-0.71.77-1.49,1.56-2.32,2.36-1.53,1.47-3.23,3-5,4.41s-3.75,2.89-5.74,4.28-4,2.66-6,3.84a2.64,2.64,0,0,0-1.11,1.19,1.6,1.6,0,0,0,0,1.41,1.55,1.55,0,0,0,1,.79,2.11,2.11,0,0,0,1.52-.28,66.12,66.12,0,0,0,7.83-4.67l1-.72a1.49,1.49,0,0,0-.1.52,1.26,1.26,0,0,0,.89,1.2,9.94,9.94,0,0,0,1,.32,9.34,9.34,0,0,1,.93.3,0.75,0.75,0,0,1,.21.12v4.93q-3.63.81-7.17,1.56c-2.59.55-4.92,1-6.91,1.33q-1.6.29-3.09,0.49c-1,.13-1.92.22-3,0.27a1.84,1.84,0,0,0-1.54,1.12,1.37,1.37,0,0,0,.91,1.94,20.83,20.83,0,0,0,2.6.81,7,7,0,0,0,2.25.18,7.2,7.2,0,0,0,1-.16,10.77,10.77,0,0,0,2.05-.69,11.15,11.15,0,0,1,1.42-.54q2-.53,5.84-1.45t8.7-2q4.82-1.1,10-2.24t9.85-2.1a2.91,2.91,0,0,0,1.71-1,2.43,2.43,0,0,0,.61-1.54,1.92,1.92,0,0,0-.67-1.44A2.27,2.27,0,0,0,364.41,264.86Z"/>
          <path class="cls-49" d="M336.59,296.65L354,292.79a3.21,3.21,0,0,0,1.66-.88,2.17,2.17,0,0,0,.66-1.5,1.64,1.64,0,0,0-.76-1.39,2.08,2.08,0,0,0-1-.34q0.08-.76.18-1.66l0.32-3c0.11-1,.21-1.94.32-2.83,0.09-.72.16-1.31,0.23-1.77a3.85,3.85,0,0,0,.37-0.58,3.4,3.4,0,0,0,.37-1.14,2.1,2.1,0,0,0-.18-1.21,1.52,1.52,0,0,0-1.51-.77,7.38,7.38,0,0,0-1.63.2,12.86,12.86,0,0,0-1.28.39,11.68,11.68,0,0,0-1.24.53,7.15,7.15,0,0,1-1.13.44l-1,.28-2.16.54-2.81.68-3,.69-2.67.58-1.75.35a23.08,23.08,0,0,0-2.76.18q-1.3.16-2.36,0.25a1.62,1.62,0,0,0-1.2.66,1.77,1.77,0,0,0-.34,1,2,2,0,0,0,.18.86,1.23,1.23,0,0,0,1,.7,1.49,1.49,0,0,1,1.52,1.66l0.43,9.06c0,0.84.29,1.75,0.86,1.94A7,7,0,0,0,336.59,296.65Zm14-7.14-1.27.47a13.43,13.43,0,0,1-1.9.55l-10.56,2.3c0-.73,0-1.5,0-2.31V284l2.07-.5q1.79-.44,4-0.93l4.5-1,3.39-.73Z"/>
        </g>
        <path class="cls-50" d="M472.83,212.73h0a31.36,31.36,0,0,0-4,.62,8.17,8.17,0,0,0-1.67.55c-0.42.2-.84,0.42-1.26,0.65a6.7,6.7,0,0,1-1.54.55c-1,.29-2.29.63-3.74,1s-1.83.49-3.56,0.91-3.55.85-5.43,1.29L446,219.59q-2.78.62-5.37,1.12l-4.68.88q-1.59.29-3.09,0.49c-1,.13-1.92.22-3,0.27a1.84,1.84,0,0,0-1.54,1.12,1.38,1.38,0,0,0,.91,1.94,20.73,20.73,0,0,0,2.6.81,6.85,6.85,0,0,0,2.25.18c0.34,0,1.67-.08,2-0.16a11,11,0,0,0,2.05-.69,10.81,10.81,0,0,1,1.42-.55c1.31-.35,2.26-0.83,4.84-1.45s5.49-1.29,8.7-2,6.55-1.49,10-2.24,6.75-1.46,9.85-2.1a2.94,2.94,0,0,0,1.71-1,2.4,2.4,0,0,0,.61-1.54,1.91,1.91,0,0,0-.67-1.44A2.27,2.27,0,0,0,472.83,212.73Z"/>
        <path class="cls-51" d="M359.09,202.6a2.54,2.54,0,0,0-1.74-.39,18.57,18.57,0,0,0-2.55.35,10.25,10.25,0,0,0-1.55.48,6.7,6.7,0,0,0-1.15.62,5.65,5.65,0,0,1-.89.46l0.42-7.49a17.12,17.12,0,0,1,.59-2.1,5.62,5.62,0,0,0,0-3.33c1.32-.29,3.71-0.88,4.29-1a3.09,3.09,0,0,0,1.67-.88,2.19,2.19,0,0,0,.65-1.5,1.68,1.68,0,0,0-.74-1.39,2.54,2.54,0,0,0-1.74-.38,18.21,18.21,0,0,0-2.55.35,10.22,10.22,0,0,0-1.55.48,8.47,8.47,0,0,0-1.12.57,8.47,8.47,0,0,1-1,.51q-0.4.13-2.14,0.55l-4.07,1q-2.26.55-4.62,1.08l-3.92.87c-1.06.23-2.06,0.41-3,.56s-1.68.24-2.26,0.29a1.83,1.83,0,0,0-1.54,1.12,1.39,1.39,0,0,0,.91,1.94,9.92,9.92,0,0,0,2.45.54,7.75,7.75,0,0,0,2.64-.11l0.25-.06a2.14,2.14,0,0,0-.33.16,1.62,1.62,0,0,0-.77,1,1.57,1.57,0,0,0,.26,1.3,6.16,6.16,0,0,1,.61,1.35q0.32,1,.58,2t0.4,2.21c0.1,0.75.17,1.41,0.2,2a2.37,2.37,0,0,0,.82,1.89l-2.25.5q-1.59.34-3,.56c-0.93.15-1.68,0.24-2.25,0.29a1.78,1.78,0,0,0-1,.42,1.93,1.93,0,0,0-.56.74,1.35,1.35,0,0,0,0,1.11,1.44,1.44,0,0,0,.89.74,10,10,0,0,0,2.43.57,8.46,8.46,0,0,0,1.78.06,5.77,5.77,0,0,0,.87-0.14,9.81,9.81,0,0,0,2.07-.72,6.62,6.62,0,0,1,1.41-.51q1.29-.37,3.15-0.83t3.95-1l4.22-1,4-.9,3.25-.71c1-.2,1.64-0.36,2-0.46a3.1,3.1,0,0,0,1.67-.88,2.19,2.19,0,0,0,.64-1.5A1.67,1.67,0,0,0,359.09,202.6Zm-11.8,2.5q-1.27.32-2.79,0.67l-3.83.89-1,.24,0.12-.16a3.39,3.39,0,0,0,.63-2,10.27,10.27,0,0,0-.37-2.64,18.54,18.54,0,0,0-.87-2.54,13.79,13.79,0,0,0-1.14-2.14,4.59,4.59,0,0,0-1.35-1.43,2.36,2.36,0,0,0-1.38-.35l-0.15,0a10.36,10.36,0,0,0,1.42-.52,11.4,11.4,0,0,1,1.42-.55q2-.53,4.75-1.2c1.1-.27,2.87-0.74,4-1a3.56,3.56,0,0,0-1.19,1.44,1.11,1.11,0,0,0,.54,1.35,9.92,9.92,0,0,0,1.1.59,9.4,9.4,0,0,1,1,.54,1.13,1.13,0,0,1,.28.24Z"/>
      </g>
      <rect class="cls-4" x="313.68" y="106.76" width="171" height="202"/>
    </g>
  </g>
</svg>
