<svg id="result" xmlns="http://www.w3.org/2000/svg" viewBox="0 0 1920 1052.23">
   <defs>
      <style>.cls-1{fill:#f3c262;}.cls-2,.cls-4{fill:#eff0ea;}.cls-3{fill:#dca63b;}.cls-4{fill-rule:evenodd;}.cls-5{font-size:25px;fill:#66635a;font-family:Noto Sans CJK KR;}.cls-6{white-space:pre;}.cls-7{letter-spacing:-2px;}.cls-8{fill:none;stroke:#f3c262;stroke-miterlimit:10;stroke-width:3px;}</style>
   </defs>
   <title>result</title>
   <g id="background_result">
      <rect class="cls-1" width="1920" height="1050"/>
      <polygon class="cls-2" points="1920 993.71 1885.14 1027.74 1874.69 1037.45 1865.41 1046.5 1850.28 1052.23 1920 1052.23 1920 993.71"/>
      <path class="cls-3" d="M5565.08,7750.36s12.29,40.7-23.29,55.29c0,0,58.22-16.8,69.72-58.52C5611.51,7747.12,5599.69,7756.51,5565.08,7750.36Z" transform="translate(-3691.51 -6755.64)"/>
   </g>
   <g id="template_paper_page" data-name="template paper page">
      <path class="cls-2" d="M4889.2,6755.64H3934.76v234.68a14.61,14.61,0,0,0,14.61,14.61H5353.66a14.61,14.61,0,0,0,14.61-14.61V6755.64H4889.2Z" transform="translate(-3691.51 -6755.64)"/>
      <circle class="cls-1" cx="243.28" cy="108" r="73.94"/>
      <path class="cls-4" d="M3981.68,6864c-0.07,21.27-15.81,39.51-36.75,42.22-14.76,1.91-27.36-2.73-37.58-13.62-1.48-1.57-1.72-3.06-.85-4.61a3.41,3.41,0,0,1,4-1.66,5.52,5.52,0,0,1,2.17,1.48c8.19,8.5,18.18,12.33,29.92,11.33,14.63-1.24,27.6-12.76,30.79-27.17,4.62-20.86-9.26-40.78-30.46-43.19-11.88-1.35-22.12,2.55-30.32,11.39a3.85,3.85,0,0,1-4.08,1.33,3,3,0,0,1-2.41-2.74,4.67,4.67,0,0,1,.85-3.08c7.23-8.11,16.22-13.05,27.08-14.13,16.12-1.61,29.22,4.16,39.1,16.92A40.52,40.52,0,0,1,3981.68,6864Z" transform="translate(-3691.51 -6755.64)"/>
      <path class="cls-4" d="M3899.58,6860.27h38.14c0.45,0,.91,0,1.36,0a3.61,3.61,0,0,1,3.52,3.78,3.56,3.56,0,0,1-3.56,3.56c-1.41.08-2.82,0-4.24,0h-35.74l5,5c2.34,2.34,2.68,4.44,1,6.15s-3.92,1.42-6.29-.94L3887.83,6867c-1.89-1.88-1.94-4.1-.09-6q5.75-5.76,11.54-11.47c1.66-1.64,3.11-2,4.71-1.2a3.62,3.62,0,0,1,1,6c-1.83,1.9-3.78,3.67-5.68,5.51Z" transform="translate(-3691.51 -6755.64)"/>
      <rect class="cls-2" x="243.26" y="198.26" width="1433.51" height="822"/>
   </g>
   <g id="dummy">
      <text class="cls-5" transform="translate(456.71 208.01)">
         <tspan class="cls-6">“포스터 200부를 A2크기의 마시멜로우지 150g으로 4도 단면 출력하고, 단면유광으로 코팅해주세요</tspan>
      </text>
   </g>
   <g id="cheapest_price_banner" data-name="cheapest price banner">
      <polygon class="cls-1" points="243.24 231.72 274.95 252.82 243.24 273.93 243.24 231.72"/>
      <polygon class="cls-1" points="1676.75 231.72 1645.04 252.82 1676.75 273.93 1676.75 231.72"/>
      <rect class="cls-1" x="243.28" y="249.29" width="1433.47" height="7.07"/>
   </g>
</svg>
