<svg id="result" xmlns="http://www.w3.org/2000/svg" viewBox="0 0 1920 793.64"><defs><style>.cls-1,.cls-3{fill:none;}.cls-2{fill:#eff0ea;}.cls-3{stroke:#66635a;stroke-miterlimit:10;stroke-width:2px;}.cls-14,.cls-4,.cls-8{font-size:22px;}.cls-10,.cls-4,.cls-5,.cls-6{fill:#66635a;}.cls-10,.cls-13,.cls-14,.cls-4,.cls-5,.cls-6,.cls-8{font-family:Noto Sans CJK KR;}.cls-5{font-size:40px;}.cls-6{font-size:26px;font-weight:700;}.cls-7,.cls-8{fill:#9b9c9e;}.cls-9{fill:#bfa880;}.cls-10{font-size:25px;}.cls-11{fill:#f3c262;}.cls-12{fill:#ecb450;}.cls-13{font-size:14.74px;}.cls-13,.cls-14{fill:#fff;}</style></defs><title>result_segment</title><g id="background_result"><rect class="cls-1" width="1920" height="793.64"/></g><g id="template_paper_page" data-name="template paper page"><rect class="cls-2" x="243.24" y="-49.65" width="1433.51" height="822"/></g><g id="dummy-3" data-name="dummy"><line class="cls-3" x1="340.55" y1="209.04" x2="1579.24" y2="209.04"/><text class="cls-4" transform="translate(555.4 123.7)">사이트명 <tspan x="0" y="26.4">전화번호 ww</tspan><tspan x="121.17" y="26.4">w</tspan><tspan x="137.83" y="26.4">.사이트주소</tspan><tspan x="245.14" y="26.4">.</tspan><tspan x="250.97" y="26.4">c</tspan><tspan x="261.65" y="26.4">om </tspan><tspan x="0" y="52.8">검색된 옵션 (</tspan><tspan x="119.72" y="52.8">ex</tspan><tspan x="142.52" y="52.8">. 300부-A2-아트지-150g-4도-단면-유광코팅)</tspan></text><text class="cls-5" transform="translate(555.4 75.8)">00,000원</text><text class="cls-6" transform="translate(340.55 293.13)">더 저렴하게?</text><text class="cls-6" transform="translate(340.55 528.49)">이건 어때요?</text><text class="cls-4" transform="translate(340.55 344.91)">매수<tspan class="cls-7" x="40.48" y="0">-크기-종이재질-종이무게-도수-면-코팅</tspan></text><text class="cls-8" transform="translate(801.08 344.91)">업체명</text><text class="cls-8" transform="translate(927.57 344.91)">00,000원</text><text class="cls-8" transform="translate(1104.58 344.91)">0,000원</text><text class="cls-8" transform="translate(801.08 402.83)">업체명</text><text class="cls-8" transform="translate(927.57 402.83)">00,000원</text><text class="cls-8" transform="translate(1104.58 402.83)">0,000원</text><text class="cls-8" transform="translate(801.08 460.75)">업체명</text><text class="cls-8" transform="translate(927.57 460.75)">00,000원</text><text class="cls-8" transform="translate(1104.58 460.75)">0,000원</text><text class="cls-8" transform="translate(801.08 581.09)">업체명</text><text class="cls-8" transform="translate(927.57 581.09)">00,000원</text><text class="cls-8" transform="translate(1104.58 581.09)">0,000원</text><text class="cls-8" transform="translate(801.08 639.01)">업체명</text><text class="cls-8" transform="translate(927.57 639.01)">00,000원</text><text class="cls-8" transform="translate(1104.58 639.01)">0,000원</text><text class="cls-8" transform="translate(801.08 696.93)">업체명</text><text class="cls-8" transform="translate(927.57 696.93)">00,000원</text><text class="cls-8" transform="translate(1104.58 696.93)">0,000원</text><text class="cls-8" transform="translate(1264.58 344.91)">0,000원</text><text class="cls-4" transform="translate(801.08 293.13)">업체명</text><text class="cls-4" transform="translate(927.57 293.13)">총액</text><text class="cls-4" transform="translate(1104.58 293.13)">장당 가격</text><text class="cls-4" transform="translate(1264.58 293.13)">배송비</text><text class="cls-8" transform="translate(1264.58 402.83)">0,000원</text><text class="cls-8" transform="translate(1264.58 460.75)">0,000원</text><text class="cls-8" transform="translate(1264.58 581.09)">0,000원</text><text class="cls-8" transform="translate(1264.58 639.01)">0,000원</text><text class="cls-8" transform="translate(1264.58 696.93)">0,000원</text><text class="cls-4" transform="translate(340.55 402.83)">매수<tspan class="cls-7" x="40.48" y="0">-크기-종이재질-종이무게-도수-면-코팅</tspan></text><text class="cls-4" transform="translate(340.55 460.75)">매수<tspan class="cls-7" x="40.48" y="0">-크기-종이재질-종이무게-도수-면-코팅</tspan></text><text class="cls-4" transform="translate(340.55 581.19)">매수<tspan class="cls-7" x="40.48" y="0">-크기-종이재질-종이무게-도수-면-코팅</tspan></text><text class="cls-4" transform="translate(340.55 639.12)">매수<tspan class="cls-7" x="40.48" y="0">-크기-종이재질-종이무게-도수-면-코팅</tspan></text><text class="cls-4" transform="translate(340.55 697.04)">매수<tspan class="cls-7" x="40.48" y="0">-크기-종이재질-종이무게-도수-면-코팅</tspan></text><circle class="cls-9" cx="414.13" cy="108.62" r="66.9"/></g><g id="more_results" data-name="more results"><text class="cls-10" transform="translate(1381.07 175.05)">검색결과 더보기</text><polygon class="cls-11" points="1558.24 158.15 1568.74 172.34 1579.24 158.15 1558.24 158.15"/></g><g id="cheapest_price_banner" data-name="cheapest price banner"><path class="cls-12" d="M355.87,141.84a66.66,66.66,0,0,1-4.62-9.85H340.55l7.67,12.41-7.59,12.3h13.26V143.14Z"/><path class="cls-12" d="M480,144.39L487.71,132H477a66.75,66.75,0,0,1-4.62,9.85l2,1.3v13.54h13.26Z"/><path class="cls-11" d="M474.34,156.69c0-3.76-.06-7.23,0-10.68,0-1.56-.29-2.3-1-2.87H354.91c-0.72.56-1,1.3-1,2.87,0.09,3.45,0,6.92,0,10.68h0v11.07H474.38V156.69h0Z"/><text class="cls-13" transform="translate(393.79 161.12)">최저가</text></g><g id="site_barogagi" data-name="site barogagi"><rect class="cls-11" x="1381.07" y="47.15" width="198.18" height="87.6" rx="10.45" ry="10.45"/><text class="cls-14" transform="translate(1449.79 86.85)">사이트<tspan x="-10.12" y="26.4">바로가기</tspan></text></g><g id="barogagi"><rect class="cls-11" x="1419.82" y="313.01" width="159.42" height="45.33" rx="10.45" ry="10.45"/><text class="cls-14" transform="translate(1459.05 345.07)">바로가기</text><rect class="cls-11" x="1419.82" y="370.47" width="159.42" height="45.33" rx="10.45" ry="10.45"/><text class="cls-14" transform="translate(1459.05 402.99)">바로가기</text><rect class="cls-11" x="1419.82" y="427.94" width="159.42" height="45.33" rx="10.45" ry="10.45"/><text class="cls-14" transform="translate(1459.05 460)">바로가기</text><rect class="cls-11" x="1419.82" y="551.13" width="159.42" height="45.34" rx="10.45" ry="10.45"/><text class="cls-14" transform="translate(1459.05 583.19)">바로가기</text><rect class="cls-11" x="1419.82" y="608.6" width="159.42" height="45.33" rx="10.45" ry="10.45"/><text class="cls-14" transform="translate(1459.05 641.12)">바로가기</text><rect class="cls-11" x="1419.82" y="666.06" width="159.42" height="45.33" rx="10.45" ry="10.45"/><text class="cls-14" transform="translate(1459.05 698.12)">바로가기</text></g></svg>