<svg id="clueless_1" xmlns="http://www.w3.org/2000/svg" xmlns:xlink="http://www.w3.org/1999/xlink" viewBox="0 0 1920.22 1050"><defs><style>.cls-1{fill:url(#linear-gradient);}.cls-18,.cls-2{fill:#eff0ea;}.cls-3{fill:#dedddd;}.cls-4,.cls-6{font-size:30px;font-family:Noto Sans CJK KR;}.cls-20,.cls-21,.cls-4{fill:#66635a;}.cls-5{fill:none;}.cls-6{fill:#8c8980;}.cls-7{fill:#f0d2b6;}.cls-15,.cls-8{fill:#ce6545;}.cls-9{fill:#eec29d;}.cls-10{fill:#e5b68d;}.cls-11{fill:#b54b36;}.cls-12{fill:#221e1f;opacity:0.1;}.cls-13,.cls-17{fill:#e4bc9a;}.cls-13,.cls-15,.cls-18,.cls-21{fill-rule:evenodd;}.cls-14{fill:#d3d3cb;}.cls-16{fill:#e2745a;}.cls-19{fill:#648ab2;}.cls-22{fill:#f3c262;}</style><linearGradient id="linear-gradient" x1="960" y1="-11.21" x2="960" y2="1054.39" gradientUnits="userSpaceOnUse"><stop offset="0" stop-color="#f2c161"/><stop offset="0.16" stop-color="#f2c161"/><stop offset="1" stop-color="#ce6545"/></linearGradient></defs><title>search_hasoo</title><g id="background_hasoo"><rect class="cls-1" width="1920" height="1050"/></g><g id="template_folder_hasoo" data-name="template folder_hasoo"><rect class="cls-2" x="390.19" y="171.13" width="205.89" height="61.49"/><rect class="cls-3" x="243.25" y="97.89" width="293.88" height="172.49" rx="14.61" ry="14.61"/><rect class="cls-3" x="567.81" y="97.89" width="293.88" height="172.49" rx="14.61" ry="14.61"/><rect class="cls-2" x="892.38" y="97.89" width="293.88" height="172.49" rx="14.61" ry="14.61"/><rect class="cls-2" x="243.25" y="171.13" width="1433.5" height="781.35" rx="14.61" ry="14.61"/><text class="cls-4" transform="translate(979.92 151.25)">인쇄 하수</text><rect class="cls-5" x="972.22" y="119.26" width="132.37" height="39.71"/><text class="cls-6" transform="translate(330.79 151.25)">인쇄 고수</text><rect class="cls-5" x="324.56" y="119.26" width="132.15" height="39.71"/><text class="cls-6" transform="translate(655.35 151.25)">인쇄 중수</text><rect class="cls-5" x="646.61" y="119.26" width="136.57" height="39.71"/></g><g id="hands_hasoo"><path class="cls-7" d="M3874,5287.74l-1.8.86h0C3872.74,5288.31,3873.35,5288,3874,5287.74Z" transform="translate(-3691.51 -4576.35)"/><path class="cls-7" d="M3870.09,5289.69c0.71-.34,1.36-0.73,2.06-1.09C3871.44,5289,3870.75,5289.31,3870.09,5289.69Z" transform="translate(-3691.51 -4576.35)"/><path class="cls-7" d="M3921.63,5153.77l0,0.15,0-.15h0Z" transform="translate(-3691.51 -4576.35)"/><path class="cls-7" d="M3872.16,5288.6c-0.71.35-1.4,0.71-2.07,1.09,0.67-.38,1.35-0.74,2.06-1.09h0Z" transform="translate(-3691.51 -4576.35)"/><path class="cls-5" d="M3866.08,5284.32q-18.07-24.21-36.16-48.41,18.15,24.15,36.16,48.41h0Z" transform="translate(-3691.51 -4576.35)"/><path class="cls-5" d="M3885.86,5280.13h0l-0.34.42Z" transform="translate(-3691.51 -4576.35)"/><path class="cls-8" d="M3944.56,5019.54c10.55-6.87,13-19.78,6.26-33.14l-36.77,27.45C3922.31,5023.7,3934.63,5026,3944.56,5019.54Z" transform="translate(-3691.51 -4576.35)"/><path class="cls-9" d="M3908.94,5098.56c-8.36,5.79-10.36,9.89-4.16,19.4a135.1,135.1,0,0,1,16.86,35.81h0l0,0.15a169.32,169.32,0,0,1,3.61,37c-0.12,14.76-2.19,32.15-8.79,48.77a92.36,92.36,0,0,1-24.45,35.43c-2,1.74-4,3.43-6.19,5l-0.35.43a13.27,13.27,0,0,1-1.17,1.21l-0.2.18c-0.4.36-.82,0.69-1.25,1l-0.29.21c-0.44.31-.89,0.61-1.36,0.9l-0.29.17q-0.7.41-1.42,0.8l-0.17.09c-0.5.26-1,.51-1.51,0.76l-0.38.18-1.47.69-2,.94h0c-0.61.29-1.22,0.57-1.81,0.87s-1.34.75-2.06,1.09c14.6,20,29.35,39.92,43.71,60.09,3.25,4.56,5.17,10.06,7.7,15.12,4.14,2.23,8.37,4.32,12.4,6.73l0.9,0.52V5079.5C3926.28,5086,3917.74,5092.47,3908.94,5098.56Z" transform="translate(-3691.51 -4576.35)"/><path class="cls-7" d="M3885.51,5280.56a13.14,13.14,0,0,1-1.17,1.21A13.27,13.27,0,0,0,3885.51,5280.56Z" transform="translate(-3691.51 -4576.35)"/><path class="cls-7" d="M3870.09,5289.69l-4-5.38h0Z" transform="translate(-3691.51 -4576.35)"/><path class="cls-10" d="M3900.82,5382l0,0,6.76-4.8,0,0Z" transform="translate(-3691.51 -4576.35)"/><path class="cls-10" d="M3866.08,5284.33l4,5.37-4-5.37h0Z" transform="translate(-3691.51 -4576.35)"/><path class="cls-8" d="M3848.12,5456l0,0c8.26,6,17.63,9,26.38,8.77C3865.72,5465.07,3856.37,5462,3848.12,5456Z" transform="translate(-3691.51 -4576.35)"/><path class="cls-8" d="M3842.83,5491.85l-2.16,1.19A1.91,1.91,0,0,0,3842.83,5491.85Z" transform="translate(-3691.51 -4576.35)"/><path class="cls-8" d="M3874.47,5464.84c-8.75.25-18.12-2.81-26.38-8.77l0,0,0,0a54.61,54.61,0,0,1-10.89-10.5l-145.68-185.31v347.67l197.75-147.16A30.46,30.46,0,0,1,3874.47,5464.84Z" transform="translate(-3691.51 -4576.35)"/><path class="cls-8" d="M3848.05,5456l0,0,0,0,0,0Z" transform="translate(-3691.51 -4576.35)"/><path class="cls-7" d="M3971.37,4979.83c-1.63-2.53-6.21-2.53-8.52-1.55-4.37,1.85-8.05,5.32-12,8.12,6.73,13.36,4.29,26.27-6.26,33.14-9.92,6.46-22.25,4.16-30.51-5.69l-14.45,9.86c-29,22.28-57.85,44.69-86.94,66.8-24.7,18.77-35.16,33.75-33.87,54.35l0,0c-1.77,16.27,11.56,42.06,11.56,42.06,7.7,9,15.83,17.68,23,27.09q7,9.24,14,18.52l2.55,3.4q18.15,24.15,36.16,48.41l4,5.38c0.67-.38,1.36-0.74,2.07-1.09l1.8-.86h0l2-.94,1.47-.69,0.38-.18c0.51-.25,1-0.5,1.51-0.76l0.17-.09q0.73-.39,1.42-0.8l0.29-.17c0.47-.29.92-0.59,1.36-0.9l0.29-.21c0.44-.32.86-0.66,1.25-1l0.2-.18a13.14,13.14,0,0,0,1.17-1.21l0.34-.42h0c2.18-1.62,4.23-3.31,6.19-5a92.36,92.36,0,0,0,24.45-35.43c6.6-16.62,8.67-34,8.79-48.77a169.32,169.32,0,0,0-3.61-37l0-.15a135.1,135.1,0,0,0-16.86-35.81c-6.19-9.51-4.2-13.6,4.16-19.4,8.8-6.1,17.33-12.57,25.86-19.07,7.76-5.92,15.52-11.86,23.45-17.54C3988.37,5040.36,3986,5007.36,3971.37,4979.83Z" transform="translate(-3691.51 -4576.35)"/><path class="cls-11" d="M3913.87,5385.19l-6.27-8-2.84,2,0,0-8.84,6.32c-5.28,3.77-10.52,7.6-15.59,11.64-6.29,5-10.06,5-15.19-1.87q-59.76-80.33-120.25-160.11c-5-6.59-4.7-10.36,2.14-15.17,5.65-4,11.09-8.24,16.48-12.57l6.55-5.29-6.24-7.94c-15.16-19.27-39.86-25.13-55.19-13.08l-17.1,13.44v65.65l145.68,185.31a54.61,54.61,0,0,0,10.89,10.5l0-.06,0,0.11h0.07c8.24,5.95,17.58,9,26.31,8.77a30.45,30.45,0,0,0,14.73-4.12l7.72-5.75,1.06-.83,15.57-12.24C3928.88,5429.85,3929,5404.46,3913.87,5385.19Z" transform="translate(-3691.51 -4576.35)"/><path class="cls-10" d="M3913.79,5349.79c-14.36-20.18-29.1-40.08-43.71-60.09l-4-5.37h0q-18.07-24.21-36.16-48.41l-2.55-3.4q-7-9.28-14-18.52c-7.18-9.4-15.31-18.08-23-27.09l-13.44,9.77q-3.44,2.71-6.84,5.48l-6.55,5.29c-5.39,4.33-10.83,8.61-16.48,12.57-6.85,4.81-7.14,8.58-2.14,15.17q60.46,79.8,120.25,160.11c5.13,6.89,8.9,6.88,15.19,1.87,6.63-5.29,13.55-10.2,20.48-15.11l0,0,0,0,6.76-4.79,0,0,0,0,3.32-2.38,10.53-9.89C3919,5359.85,3917,5354.35,3913.79,5349.79Z" transform="translate(-3691.51 -4576.35)"/><path class="cls-7" d="M5429.29,5287.74l1.8,0.86h0C5430.51,5288.31,5429.9,5288,5429.29,5287.74Z" transform="translate(-3691.51 -4576.35)"/><path class="cls-7" d="M5433.16,5289.69c-0.71-.34-1.36-0.73-2.06-1.09C5431.81,5289,5432.49,5289.31,5433.16,5289.69Z" transform="translate(-3691.51 -4576.35)"/><path class="cls-7" d="M5381.61,5153.77l0,0.15,0-.15h0Z" transform="translate(-3691.51 -4576.35)"/><path class="cls-7" d="M5431.09,5288.6c0.71,0.35,1.4.71,2.07,1.09-0.67-.38-1.35-0.74-2.06-1.09h0Z" transform="translate(-3691.51 -4576.35)"/><path class="cls-5" d="M5437.17,5284.32q18.07-24.21,36.16-48.41-18.15,24.15-36.16,48.41h0Z" transform="translate(-3691.51 -4576.35)"/><path class="cls-5" d="M5417.39,5280.13h0l0.34,0.42Z" transform="translate(-3691.51 -4576.35)"/><path class="cls-8" d="M5358.69,5019.54c-10.55-6.87-13-19.78-6.26-33.14l36.77,27.45C5380.94,5023.7,5368.61,5026,5358.69,5019.54Z" transform="translate(-3691.51 -4576.35)"/><path class="cls-9" d="M5394.3,5098.56c8.36,5.79,10.36,9.89,4.16,19.4a135.1,135.1,0,0,0-16.86,35.81h0l0,0.15a169.32,169.32,0,0,0-3.61,37c0.12,14.76,2.19,32.15,8.79,48.77a92.36,92.36,0,0,0,24.45,35.43c2,1.74,4,3.43,6.19,5l0.35,0.43a13.27,13.27,0,0,0,1.17,1.21l0.2,0.18c0.4,0.36.82,0.69,1.25,1l0.29,0.21c0.44,0.31.89,0.61,1.36,0.9l0.29,0.17q0.7,0.41,1.42.8l0.17,0.09c0.5,0.26,1,.51,1.51.76l0.38,0.18,1.47,0.69,2,0.94h0c0.61,0.29,1.22.57,1.81,0.87s1.34,0.75,2.06,1.09c-14.6,20-29.35,39.92-43.71,60.09-3.25,4.56-5.17,10.06-7.7,15.12-4.14,2.23-8.37,4.32-12.4,6.73l-0.9.52V5079.5C5377,5086,5385.5,5092.47,5394.3,5098.56Z" transform="translate(-3691.51 -4576.35)"/><path class="cls-7" d="M5417.74,5280.56a13.14,13.14,0,0,0,1.17,1.21A13.27,13.27,0,0,1,5417.74,5280.56Z" transform="translate(-3691.51 -4576.35)"/><path class="cls-7" d="M5433.16,5289.69l4-5.38h0Z" transform="translate(-3691.51 -4576.35)"/><path class="cls-10" d="M5402.43,5382l0,0-6.76-4.8,0,0Z" transform="translate(-3691.51 -4576.35)"/><path class="cls-10" d="M5437.17,5284.33l-4,5.37,4-5.37h0Z" transform="translate(-3691.51 -4576.35)"/><path class="cls-8" d="M5455.13,5456l0,0c-8.26,6-17.63,9-26.38,8.77C5437.52,5465.07,5446.88,5462,5455.13,5456Z" transform="translate(-3691.51 -4576.35)"/><path class="cls-8" d="M5460.42,5491.85l2.16,1.19A1.91,1.91,0,0,1,5460.42,5491.85Z" transform="translate(-3691.51 -4576.35)"/><path class="cls-8" d="M5414,5460.73l197.75,147.16V5260.21l-145.68,185.31a54.6,54.6,0,0,1-10.89,10.5l0,0,0,0c-8.26,6-17.63,9-26.38,8.77A30.46,30.46,0,0,1,5414,5460.73Z" transform="translate(-3691.51 -4576.35)"/><path class="cls-8" d="M5455.19,5456l0,0,0,0,0,0Z" transform="translate(-3691.51 -4576.35)"/><path class="cls-7" d="M5331.88,4979.83c1.63-2.53,6.21-2.53,8.52-1.55,4.37,1.85,8.05,5.32,12,8.12-6.73,13.36-4.29,26.27,6.26,33.14,9.92,6.46,22.25,4.16,30.51-5.69l14.45,9.86c29,22.28,57.85,44.69,86.94,66.8,24.7,18.77,35.16,33.75,33.87,54.35l0,0c1.77,16.27-11.56,42.06-11.56,42.06-7.7,9-15.83,17.68-23,27.09q-7,9.24-14,18.52l-2.55,3.4q-18.15,24.15-36.16,48.41l-4,5.38c-0.67-.38-1.36-0.74-2.07-1.09l-1.8-.86h0l-2-.94-1.47-.69-0.38-.18c-0.51-.25-1-0.5-1.51-0.76l-0.17-.09q-0.73-.39-1.42-0.8l-0.29-.17c-0.47-.29-0.92-0.59-1.36-0.9l-0.29-.21c-0.44-.32-0.86-0.66-1.25-1l-0.2-.18a13.14,13.14,0,0,1-1.17-1.21l-0.34-.42h0c-2.18-1.62-4.23-3.31-6.19-5a92.36,92.36,0,0,1-24.45-35.43c-6.6-16.62-8.67-34-8.79-48.77a169.32,169.32,0,0,1,3.61-37l0-.15a135.1,135.1,0,0,1,16.86-35.81c6.19-9.51,4.2-13.6-4.16-19.4-8.8-6.1-17.33-12.57-25.86-19.07-7.76-5.92-15.52-11.86-23.45-17.54C5314.87,5040.36,5317.23,5007.36,5331.88,4979.83Z" transform="translate(-3691.51 -4576.35)"/><path class="cls-11" d="M5389.38,5385.19l6.27-8,2.84,2,0,0,8.84,6.32c5.28,3.77,10.52,7.6,15.59,11.64,6.29,5,10.06,5,15.19-1.87q59.76-80.33,120.25-160.11c5-6.59,4.7-10.36-2.14-15.17-5.65-4-11.09-8.24-16.48-12.57l-6.55-5.29,6.24-7.94c15.16-19.27,39.86-25.13,55.19-13.08l17.1,13.44v65.65l-145.68,185.31a54.6,54.6,0,0,1-10.89,10.5l0-.06,0,0.11h-0.07c-8.24,5.95-17.58,9-26.31,8.77a30.45,30.45,0,0,1-14.73-4.12l-7.72-5.75-1.06-.83-15.57-12.24C5374.37,5429.85,5374.23,5404.46,5389.38,5385.19Z" transform="translate(-3691.51 -4576.35)"/><path class="cls-10" d="M5389.45,5349.79c14.36-20.18,29.1-40.08,43.71-60.09l4-5.37h0q18.07-24.21,36.16-48.41l2.55-3.4q7-9.28,14-18.52c7.18-9.4,15.31-18.08,23-27.09l13.44,9.77q3.44,2.71,6.84,5.48l6.55,5.29c5.39,4.33,10.83,8.61,16.48,12.57,6.85,4.81,7.14,8.58,2.14,15.17q-60.46,79.8-120.25,160.11c-5.13,6.89-8.9,6.88-15.19,1.87-6.63-5.29-13.55-10.2-20.48-15.11l0,0,0,0-6.76-4.79,0,0,0,0-3.32-2.38-10.53-9.89C5384.28,5359.85,5386.2,5354.35,5389.45,5349.79Z" transform="translate(-3691.51 -4576.35)"/><path class="cls-5" d="M5468.75,5071l-2.06,1.36,0.93,0.71Z" transform="translate(-3691.51 -4576.35)"/><path class="cls-5" d="M5537.71,5044.16l0,0.06,0.24-.16Z" transform="translate(-3691.51 -4576.35)"/><path class="cls-12" d="M5490.4,5090.51q-11.41-8.68-22.79-17.41l-15.5,28.38c-1.87,2.91,1.32,5.27,7.11,5.27h4.9l-9,14.1h4.13l-14,23.08-9.63,1.3-9,1.22-2.76,4.3h23.74l5.39-7.87h-0.06l14.93-22h3.41l9-14.1h2.28l-9,14.1h3.77l-13.33,22H5464l-4.7,7.87H5483l2.76-4.3-7.44-1.22-8-1.3,15.64-23.08h3.77l9-14.1h5.26a23.87,23.87,0,0,0,4.46-.44A152.72,152.72,0,0,0,5490.4,5090.51Z" transform="translate(-3691.51 -4576.35)"/><polygon class="cls-13" points="1756.11 574.4 1749.63 574.4 1747.93 486.74 1757.81 486.74 1756.11 574.4"/><polygon class="cls-13" points="1774.23 574.4 1767.75 574.4 1766.06 486.74 1775.93 486.74 1774.23 574.4"/><polygon class="cls-2" points="1752.48 486.74 1751.07 506.2 1761.2 506.2 1761.2 486.74 1752.48 486.74"/><polygon class="cls-2" points="1772.91 486.74 1774.31 506.2 1785.45 506.2 1781.79 486.74 1772.91 486.74"/><polygon class="cls-2" points="1742.12 486.74 1738.46 506.2 1749.6 506.2 1751.01 486.74 1742.12 486.74"/><polygon class="cls-2" points="1762.66 486.74 1762.66 506.2 1772.84 506.2 1771.44 486.74 1762.66 486.74"/><polygon class="cls-2" points="1793.76 506.2 1788.45 486.74 1783.28 486.74 1786.94 506.2 1793.76 506.2"/><polygon class="cls-2" points="1735.41 486.74 1730.1 506.2 1736.97 506.2 1740.63 486.74 1735.41 486.74"/><rect class="cls-14" x="1761.2" y="486.74" width="1.47" height="19.46"/><polygon class="cls-14" points="1771.44 486.74 1772.84 506.2 1774.31 506.2 1772.91 486.74 1771.44 486.74"/><polygon class="cls-14" points="1783.28 486.74 1781.79 486.74 1785.45 506.2 1786.94 506.2 1783.28 486.74"/><polygon class="cls-14" points="1751.01 486.74 1749.6 506.2 1751.07 506.2 1752.48 486.74 1751.01 486.74"/><polygon class="cls-14" points="1740.63 486.74 1736.97 506.2 1738.46 506.2 1742.12 486.74 1740.63 486.74"/><path class="cls-15" d="M5486.36,5057.59a10.49,10.49,0,0,1-10.49,10.49H5431a10.49,10.49,0,0,1-10.48-10.49l-3.66-76.7a11.65,11.65,0,0,1,11.65-11.65h49.84a11.65,11.65,0,0,1,11.65,11.65Z" transform="translate(-3691.51 -4576.35)"/><path class="cls-8" d="M5410.32,5013.62c-1.42,3.24-3.89,5.29-5.51,4.57l-1.59-.7c-1.62-.71-1.78-3.91-0.35-7.15l15-34.21c1.42-3.24,3.89-5.29,5.51-4.58l1.59,0.7c1.62,0.71,1.78,3.91.35,7.15Z" transform="translate(-3691.51 -4576.35)"/><path class="cls-16" d="M5469.36,4943.5l4.54-6.35s1.59-4-7.1-3.55-1.59,6.73-1.59,6.73l2.45,3.17h1.71Z" transform="translate(-3691.51 -4576.35)"/><path class="cls-8" d="M5497.1,5014.15c1.42,3.24,3.89,5.29,5.51,4.57l1.59-.7c1.62-.71,1.78-3.91.35-7.15l-15-34.21c-1.42-3.24-3.89-5.29-5.51-4.58l-1.59.7c-1.62.71-1.78,3.91-.35,7.15Z" transform="translate(-3691.51 -4576.35)"/><path class="cls-8" d="M5517,4994.93c1.6-3.15,1.63-6.36,0-7.16l-1.55-.79c-1.58-.8-4.15,1.11-5.76,4.26l-9.81,19.29c-1.6,3.15-1.62,6.36,0,7.16l1.55,0.79c1.58,0.8,4.15-1.1,5.76-4.26Z" transform="translate(-3691.51 -4576.35)"/><circle class="cls-17" cx="1826.74" cy="411.41" r="7.36"/><path class="cls-8" d="M5390.38,4994.4c-1.6-3.15-1.63-6.36-.05-7.16l1.55-.79c1.58-.8,4.15,1.1,5.76,4.26l9.81,19.29c1.6,3.15,1.63,6.36,0,7.16l-1.54.79c-1.58.8-4.16-1.11-5.76-4.26Z" transform="translate(-3691.51 -4576.35)"/><circle class="cls-17" cx="1697.65" cy="410.88" r="7.36"/><path class="cls-18" d="M5432.45,5142.18a8.57,8.57,0,0,1-8.57,8.57h23.74l0.35-15.67-15.87,4.68A8.57,8.57,0,0,1,5432.45,5142.18Z" transform="translate(-3691.51 -4576.35)"/><path class="cls-18" d="M5474.43,5142.18a8.57,8.57,0,0,1,.35-2.42l-15.87-4.68,0.35,15.67H5483A8.57,8.57,0,0,1,5474.43,5142.18Z" transform="translate(-3691.51 -4576.35)"/><path class="cls-19" d="M5432.45,5142.18a8.57,8.57,0,0,0-.35-2.42l-8.22,2.42v8.57A8.57,8.57,0,0,0,5432.45,5142.18Z" transform="translate(-3691.51 -4576.35)"/><path class="cls-19" d="M5474.78,5139.76a8.56,8.56,0,0,0,8.22,11v-8.57Z" transform="translate(-3691.51 -4576.35)"/><path class="cls-2" d="M5463.62,5010.86a10,10,0,0,1-1.15,4,15.52,15.52,0,0,1-1.87,3q-0.84,1-2.52,2.69a8.5,8.5,0,0,0-2.23,6.09,2.15,2.15,0,0,1-.67,1.64,2.54,2.54,0,0,1-1.81.63h-3.49a2.53,2.53,0,0,1-1.81-.63,2.14,2.14,0,0,1-.67-1.64,11.54,11.54,0,0,1,2.1-6.89q0.46-.63,2.12-2.56a30.26,30.26,0,0,0,2.63-3.47,7.87,7.87,0,0,0,.46-7.61,3.21,3.21,0,0,0-3.15-1.49,3.5,3.5,0,0,0-2.79,1.62,8,8,0,0,0-1.07,4.56,1.83,1.83,0,0,1-.71,1.47,3.32,3.32,0,0,1-1.76.71,7.93,7.93,0,0,1-2.08,0,3.55,3.55,0,0,1-1.76-.73,1.9,1.9,0,0,1-.78-1.43,8.5,8.5,0,0,1,2.79-6.76q2.92-2.73,8.59-2.73,6,0,9,2.31T5463.62,5010.86Zm-8.55,21.83a5,5,0,0,1,0,6.93,4.94,4.94,0,0,1-6.34,0,5,5,0,0,1,0-6.93A4.93,4.93,0,0,1,5455.07,5032.69Z" transform="translate(-3691.51 -4576.35)"/><path class="cls-20" d="M5437.51,4954.1s-6.06,8.36-6.53,16.09c0,0-6.91-.59-5.86,6.56,0,0,.23,1.81,2.81,3.13,0,0-.12-3.48,2.69-4.42s1.17-4,1.17-4,5.49-.78,9.84-9.32l1.3-6.67Z" transform="translate(-3691.51 -4576.35)"/><circle class="cls-19" cx="1739.46" cy="393.83" r="1.82"/><circle class="cls-19" cx="1740.92" cy="394.91" r="1.32"/><path class="cls-20" d="M5469.28,4954.1s6.06,8.36,6.53,16.09c0,0,6.91-.59,5.86,6.56,0,0-.24,1.81-2.81,3.13,0,0,.12-3.48-2.7-4.42s-1.17-4-1.17-4-5.49-.78-9.84-9.32l-1.29-6.67Z" transform="translate(-3691.51 -4576.35)"/><circle class="cls-19" cx="1784.3" cy="393.83" r="1.82"/><circle class="cls-19" cx="1782.84" cy="394.91" r="1.32"/><path class="cls-17" d="M5470.87,4944a1.11,1.11,0,0,0-1.18-1.08l-0.31.69v-8.25a9.25,9.25,0,0,0-9.25-9.25h-13.37a9.25,9.25,0,0,0-9.25,9.25v9.18a10.93,10.93,0,0,1-.52-1.64,0.57,0.57,0,0,0-.62.35,3.36,3.36,0,0,0-.46,1,7.67,7.67,0,0,0-.17.91h0a12.7,12.7,0,0,0,.07,3.24,12.48,12.48,0,0,0,1.71,5.75v0.13a9.24,9.24,0,0,0,3.88,7.53c0.08,0.11.16,0.23,0.24,0.34,0.36,0.47.67,1,1,1.46a1.2,1.2,0,0,1,.28.07,1.15,1.15,0,0,0-.28-0.07c0,0.1,0,.21,0,0.31a19.52,19.52,0,0,1-.22,7.95,4.8,4.8,0,0,0-.18,1.74c0,0.17,1.92,6.79,8.17,7.31s11.64-.07,13.78-5.67a16.36,16.36,0,0,0,.4-2.3,3.82,3.82,0,0,0-.21-1.06c-0.14-.78-0.32-1.56-0.42-2.35a21,21,0,0,1,.24-6.09,4.67,4.67,0,0,1,.3-0.42,11.31,11.31,0,0,0,.86-1.12,9.24,9.24,0,0,0,4-7.61v-0.11C5472.33,4950.38,5470.87,4944,5470.87,4944Zm-14,26.36h0l0,0h0Z" transform="translate(-3691.51 -4576.35)"/><path class="cls-8" d="M5470,4938.18c0-8.61-5.8-15.58-13-15.58h-7.2c-7.16,0-13,7-13,15.58l0.63,3.3h31.88Z" transform="translate(-3691.51 -4576.35)"/><path class="cls-20" d="M5459.33,4937.58c0-3.06-2.06-5.54-4.61-5.54h-2.56c-2.55,0-4.61,2.48-4.61,5.54l0.22,1.17h11.34Z" transform="translate(-3691.51 -4576.35)"/><path class="cls-21" d="M5447.39,4951.84a0.87,0.87,0,0,1-.87.87h0a0.87,0.87,0,0,1-.87-0.87v-5.72a0.87,0.87,0,0,1,.87-0.87h0a0.87,0.87,0,0,1,.87.87v5.72Z" transform="translate(-3691.51 -4576.35)"/><path class="cls-21" d="M5461.76,4951.84a0.87,0.87,0,0,1-.87.87h0a0.87,0.87,0,0,1-.87-0.87v-5.72a0.87,0.87,0,0,1,.88-0.87h0a0.87,0.87,0,0,1,.87.87v5.72Z" transform="translate(-3691.51 -4576.35)"/><circle class="cls-8" cx="1760.8" cy="381.94" r="1.6"/><circle class="cls-8" cx="1763.61" cy="381.94" r="1.6"/><path class="cls-15" d="M5453,4956.85a1.61,1.61,0,0,0,1.44,0l0.29,0.7-0.24,2.2a1.66,1.66,0,0,0-.78-0.14,1.58,1.58,0,0,0-.92.2l-0.48-2.08Z" transform="translate(-3691.51 -4576.35)"/><path class="cls-21" d="M5437.51,4941.47s12.59,4.07,20.15,3.77c0,0-3.22-1.27-2.53-3a15.82,15.82,0,0,0,8.73,3s-3-1.59-3-2.68c0,0,4.05,2.11,7.36,1.76,0,0,1.26.1,1.14-2.85h-31.87Z" transform="translate(-3691.51 -4576.35)"/><path class="cls-22" d="M5458.19,4942.07h-1.05a1.13,1.13,0,0,1-1.13-1.13v-1.81a1.13,1.13,0,0,1,1.13-1.13h1.05a1.13,1.13,0,0,1,1.13,1.13v1.81A1.13,1.13,0,0,1,5458.19,4942.07Zm-1.05-3.37a0.43,0.43,0,0,0-.43.42v1.81a0.43,0.43,0,0,0,.43.43h1.05a0.43,0.43,0,0,0,.43-0.43v-1.81a0.43,0.43,0,0,0-.43-0.42h-1.05Z" transform="translate(-3691.51 -4576.35)"/></g></svg>