<svg id="inexperienced_1" xmlns="http://www.w3.org/2000/svg" xmlns:xlink="http://www.w3.org/1999/xlink" viewBox="0 0 1920 1050"><defs><style>.cls-1{fill:url(#linear-gradient);}.cls-2{font-size:18px;fill:#fff;}.cls-2,.cls-6,.cls-7{font-family:Noto Sans CJK KR;}.cls-3{fill:none;}.cls-4{fill:#dedddd;}.cls-5{fill:#eff0ea;}.cls-6,.cls-7{font-size:30px;}.cls-6{fill:#8c8980;}.cls-21,.cls-7{fill:#66635a;}.cls-22,.cls-8{fill:#221e1f;}.cls-13,.cls-14,.cls-20,.cls-21,.cls-8{fill-rule:evenodd;}.cls-9{fill:#f0d2b6;}.cls-10{fill:#e5b68d;}.cls-11{fill:#eec29d;}.cls-12{fill:#4c7596;}.cls-13{fill:#5d5d5d;}.cls-14,.cls-19{fill:#648ab2;}.cls-15{fill:#3e281c;}.cls-16{fill:#567d9e;}.cls-17{fill:#e4bc9a;}.cls-18{fill:#9b9c9e;}.cls-20{fill:#ce6545;}.cls-22{opacity:0.1;}</style><linearGradient id="linear-gradient" x1="960" y1="15" x2="960" y2="1055.28" gradientUnits="userSpaceOnUse"><stop offset="0" stop-color="#f2c161"/><stop offset="0.16" stop-color="#f2c161"/><stop offset="0.99" stop-color="#638ab1"/></linearGradient></defs><title>search_joongsoo</title><g id="background_joongsoo"><rect class="cls-1" width="1920" height="1050"/></g><g id="footer"><text class="cls-2" transform="translate(812.55 1009.09)">Co<tspan x="22.39" y="0">p</tspan><tspan x="33.48" y="0">yright© 김사원프린트좀해와 2016</tspan></text><rect class="cls-3" x="801.96" y="987" width="316.09" height="31"/></g><g id="template_folder_joongsoo" data-name="template folder_joongsoo"><rect class="cls-4" x="243.25" y="98.26" width="293.88" height="192.49" rx="14.61" ry="14.61"/><rect class="cls-5" x="567.81" y="98.26" width="293.88" height="192.49" rx="14.61" ry="14.61"/><rect class="cls-4" x="892.38" y="98.26" width="293.88" height="192.49" rx="14.61" ry="14.61"/><rect id="backgroundWhite" class="cls-5" x="243.25" y="171.13" width="1433.5" height="781.35" rx="14.61" ry="14.61"/><text class="cls-6" transform="translate(979.92 151.25)">인쇄 하수</text><rect class="cls-3" x="972.22" y="119.26" width="132.37" height="39.71"/><rect class="cls-3" x="972.22" y="119.26" width="132.37" height="39.71"/><text class="cls-6" transform="translate(330.79 151.25)">인쇄 고수</text><rect class="cls-3" x="324.56" y="119.26" width="132.15" height="39.71"/><text class="cls-7" transform="translate(655.35 151.25)">인쇄 중수</text><rect class="cls-3" x="646.61" y="119.26" width="136.57" height="39.71"/></g><g id="hands_joongsoo"><path class="cls-8" d="M5535,4018.77l0,0-0.16.46,0.16-.46Z" transform="translate(-3691.51 -3526.35)"/><path class="cls-9" d="M5429.1,4248.74l1.8,0.86h0C5430.32,4249.31,5429.71,4249,5429.1,4248.74Z" transform="translate(-3691.51 -3526.35)"/><path class="cls-9" d="M5433,4250.69c-0.71-.34-1.36-0.73-2.06-1.09C5431.62,4250,5432.3,4250.31,5433,4250.69Z" transform="translate(-3691.51 -3526.35)"/><path class="cls-9" d="M5381.42,4114.77l0,0.15,0-.15h0Z" transform="translate(-3691.51 -3526.35)"/><path class="cls-9" d="M5430.9,4249.6c0.71,0.35,1.4.71,2.07,1.09-0.67-.38-1.35-0.74-2.06-1.09h0Z" transform="translate(-3691.51 -3526.35)"/><path class="cls-3" d="M5437,4245.32q18.07-24.21,36.16-48.41-18.15,24.15-36.16,48.41h0Z" transform="translate(-3691.51 -3526.35)"/><path class="cls-3" d="M5417.2,4241.13h0l0.34,0.42Z" transform="translate(-3691.51 -3526.35)"/><path class="cls-5" d="M5358.5,3980.54c-10.55-6.87-13-19.78-6.26-33.14l36.77,27.45C5380.75,3984.7,5368.42,3987,5358.5,3980.54Z" transform="translate(-3691.51 -3526.35)"/><path class="cls-9" d="M5429.07,4248.72l-2-.94-1.47-.69-0.38-.18c-0.51-.25-1-0.5-1.51-0.76l-0.18-.09c-0.49-.26-1-0.53-1.42-0.8l-0.29-.17c-0.47-.29-0.92-0.59-1.36-0.9l-0.29-.21c-0.44-.32-0.86-0.66-1.25-1l-0.2-.18a13,13,0,0,1-1.17-1.21l-0.34-.42a96.6,96.6,0,0,0,13.69,8.46l-1.8-.86h0Z" transform="translate(-3691.51 -3526.35)"/><path class="cls-9" d="M5417.55,4241.56a13,13,0,0,0,1.17,1.21A13.28,13.28,0,0,1,5417.55,4241.56Z" transform="translate(-3691.51 -3526.35)"/><path class="cls-9" d="M5433,4250.69l4-5.38h0Z" transform="translate(-3691.51 -3526.35)"/><path class="cls-9" d="M5411,4233.4c2,2.6,4.09,5.19,6.19,7.73-2.18-1.62-4.23-3.31-6.19-5v-2.68Z" transform="translate(-3691.51 -3526.35)"/><path class="cls-10" d="M5437,4245.33l-4,5.37,4-5.37h0Z" transform="translate(-3691.51 -3526.35)"/><path class="cls-9" id="righthand"  d="M5479.11,4189c-1.14,1.51-2.29,3-3.42,4.52l-2.55,3.4q-18.15,24.15-36.16,48.41l-4,5.38c-0.67-.38-1.36-0.74-2.07-1.09a96.6,96.6,0,0,1-13.69-8.46h0c-2.1-2.54-4.16-5.12-6.19-7.73v2.68a92.36,92.36,0,0,1-24.45-35.43c-6.6-16.62-8.67-34-8.79-48.77a169.32,169.32,0,0,1,3.61-37l0-.15a135.1,135.1,0,0,1,16.86-35.81c6.19-9.51,4.2-13.6-4.17-19.4-8.8-6.1-17.33-12.57-25.86-19.07-7.76-5.92-15.52-11.86-23.45-17.54-30.13-21.59-27.77-54.6-13.12-82.12,1.63-2.53,6.21-2.53,8.52-1.55,4.37,1.85,8.05,5.32,12,8.12-6.73,13.36-4.29,26.27,6.26,33.14,9.92,6.46,22.25,4.16,30.51-5.69l14.45,9.86c29,22.28,57.85,44.69,86.94,66.8,24.7,18.77,35.16,33.75,33.87,54.35l0,0c1.77,16.27-11.55,42.06-11.55,42.06,30.56,18.16,67.4,43.56,98.76,66.07v82.9c-27.88-21.6-56-44.34-80.61-64.59-9.2-7.58-17.9-14.81-25.9-21.5l-5.68-4.76c-7.52-6.3-14.31-12-20.2-17" transform="translate(-3691.51 -3526.35)"/><path class="cls-9" d="M5479.11,4189h0" transform="translate(-3691.51 -3526.35)"/><path class="cls-11" d="M5394.11,4059.56c8.36,5.79,10.36,9.89,4.17,19.4a135.1,135.1,0,0,0-16.86,35.81h0l0,0.15a169.32,169.32,0,0,0-3.61,37c0.12,14.76,2.19,32.15,8.79,48.77a92.36,92.36,0,0,0,24.45,35.43c2,1.74,4,3.43,6.19,5l0.35,0.43a13.28,13.28,0,0,0,1.17,1.21l0.2,0.18c0.4,0.36.81,0.69,1.25,1l0.29,0.21c0.44,0.31.89,0.61,1.36,0.9l0.29,0.17c0.46,0.28.94,0.54,1.42,0.8l0.18,0.09c0.49,0.26,1,.51,1.51.76l0.38,0.18,1.47,0.69,2,0.94h0c0.61,0.29,1.22.57,1.81,0.87s1.34,0.75,2.06,1.09l4-5.37h0q18.08-24.21,36.16-48.41l2.55-3.4,3.42-4.52c5.88,5,12.68,10.73,20.2,17l5.68,4.76c8,6.69,16.7,13.92,25.9,21.5,24.58,20.25,52.72,43,80.61,64.59V4449c-77.56-18.89-143.83-52.62-144-52.71-34-25-59.7-46.89-73.79-59.37l-1.62-1.16-9.09-8.53-1.44-1.35c-4.14,2.23-8.37,4.32-12.4,6.73l-0.9.52V4040.49C5376.78,4047,5385.31,4053.47,5394.11,4059.56Z" transform="translate(-3691.51 -3526.35)"/><path class="cls-11" d="M5479.11,4189h0l-3.42,4.52C5476.82,4192,5478,4190.5,5479.11,4189Z" transform="translate(-3691.51 -3526.35)"/><path class="cls-10" d="M5611.5,4485.2c-55.45-27.51-105.13-60.25-144-88.88,0.18,0.09,66.45,33.82,144,52.71v36.17Z" transform="translate(-3691.51 -3526.35)"/><path class="cls-9" d="M3873.91,4248.74l-1.8.86h0C3872.69,4249.31,3873.3,4249,3873.91,4248.74Z" transform="translate(-3691.51 -3526.35)"/><path class="cls-9" d="M3870,4250.69c0.71-.34,1.36-0.73,2.06-1.09C3871.4,4250,3870.71,4250.31,3870,4250.69Z" transform="translate(-3691.51 -3526.35)"/><path class="cls-9" d="M3921.59,4114.77l0,0.15,0-.15h0Z" transform="translate(-3691.51 -3526.35)"/><path class="cls-9" d="M3872.11,4249.6c-0.7.35-1.4,0.71-2.07,1.09,0.67-.38,1.35-0.74,2.06-1.09h0Z" transform="translate(-3691.51 -3526.35)"/><path class="cls-3" d="M3866,4245.32q-18.07-24.21-36.16-48.41,18.15,24.15,36.16,48.41h0Z" transform="translate(-3691.51 -3526.35)"/><path class="cls-3" d="M3885.81,4241.13h0l-0.34.42Z" transform="translate(-3691.51 -3526.35)"/><path class="cls-5" d="M3944.51,3980.54c10.55-6.87,13-19.78,6.26-33.14L3914,3974.85C3922.26,3984.7,3934.59,3987,3944.51,3980.54Z" transform="translate(-3691.51 -3526.35)"/><path class="cls-9" d="M3873.94,4248.72l2-.94,1.47-.69,0.38-.18c0.51-.25,1-0.5,1.51-0.76l0.18-.09c0.49-.26,1-0.53,1.42-0.8l0.29-.17c0.47-.29.92-0.59,1.36-0.9l0.29-.21c0.44-.32.86-0.66,1.25-1l0.2-.18a13,13,0,0,0,1.17-1.21l0.34-.42a96.6,96.6,0,0,1-13.69,8.46l1.8-.86h0Z" transform="translate(-3691.51 -3526.35)"/><path class="cls-9" d="M3885.46,4241.56a13,13,0,0,1-1.17,1.21A13.27,13.27,0,0,0,3885.46,4241.56Z" transform="translate(-3691.51 -3526.35)"/><path class="cls-9" d="M3870,4250.69l-4-5.38h0Z" transform="translate(-3691.51 -3526.35)"/><path class="cls-9" d="M3892,4233.4c-2,2.6-4.08,5.19-6.19,7.73,2.18-1.62,4.23-3.31,6.19-5v-2.68Z" transform="translate(-3691.51 -3526.35)"/><path class="cls-10" d="M3866,4245.33l4,5.37-4-5.37h0Z" transform="translate(-3691.51 -3526.35)"/><path class="cls-9" id="lefthand" d="M3823.9,4189c1.14,1.51,2.29,3,3.42,4.52l2.55,3.4q18.15,24.15,36.16,48.41l4,5.38c0.67-.38,1.36-0.74,2.07-1.09a96.6,96.6,0,0,0,13.69-8.46h0c2.11-2.54,4.16-5.12,6.19-7.73v2.68a92.35,92.35,0,0,0,24.45-35.43c6.6-16.62,8.67-34,8.79-48.77a169.33,169.33,0,0,0-3.61-37l0-.15a135.1,135.1,0,0,0-16.86-35.81c-6.19-9.51-4.2-13.6,4.17-19.4,8.8-6.1,17.33-12.57,25.86-19.07,7.76-5.92,15.52-11.86,23.45-17.54,30.13-21.59,27.77-54.6,13.12-82.12-1.63-2.53-6.21-2.53-8.52-1.55-4.37,1.85-8.05,5.32-12,8.12,6.73,13.36,4.29,26.27-6.26,33.14-9.92,6.46-22.25,4.16-30.51-5.69l-14.45,9.86c-29,22.28-57.85,44.69-86.94,66.8-24.7,18.77-35.16,33.75-33.87,54.35l0,0c-1.77,16.27,11.55,42.06,11.55,42.06-30.56,18.16-67.4,43.56-98.76,66.07v82.9c27.88-21.6,56-44.34,80.61-64.59,9.2-7.58,17.9-14.81,25.9-21.5l5.68-4.76c7.52-6.3,14.31-12,20.2-17" transform="translate(-3691.51 -3526.35)"/><path class="cls-9" d="M3823.9,4189h0" transform="translate(-3691.51 -3526.35)"/><path class="cls-11" d="M3908.9,4059.56c-8.36,5.79-10.36,9.89-4.17,19.4a135.1,135.1,0,0,1,16.86,35.81h0l0,0.15a169.33,169.33,0,0,1,3.61,37c-0.12,14.76-2.19,32.15-8.79,48.77a92.35,92.35,0,0,1-24.45,35.43c-2,1.74-4,3.43-6.19,5l-0.35.43a13.27,13.27,0,0,1-1.17,1.21l-0.2.18c-0.4.36-.81,0.69-1.25,1l-0.29.21c-0.44.31-.89,0.61-1.36,0.9l-0.29.17c-0.46.28-.94,0.54-1.42,0.8l-0.18.09c-0.49.26-1,.51-1.51,0.76l-0.38.18-1.47.69-2,.94h0c-0.61.29-1.22,0.57-1.81,0.87s-1.34.75-2.06,1.09l-4-5.37h0q-18.08-24.21-36.16-48.41l-2.55-3.4-3.42-4.52c-5.88,5-12.68,10.73-20.2,17l-5.68,4.76c-8,6.69-16.7,13.92-25.9,21.5-24.58,20.25-52.72,43-80.61,64.59V4449c77.56-18.89,143.83-52.62,144-52.71,34-25,59.7-46.89,73.79-59.37l1.62-1.16,9.09-8.53,1.44-1.35c4.14,2.23,8.37,4.32,12.4,6.73l0.9,0.52V4040.49C3926.23,4047,3917.7,4053.47,3908.9,4059.56Z" transform="translate(-3691.51 -3526.35)"/><path class="cls-11" d="M3823.9,4189h0l3.42,4.52C3826.19,4192,3825,4190.5,3823.9,4189Z" transform="translate(-3691.51 -3526.35)"/><path class="cls-10" d="M3691.51,4485.2c55.45-27.51,105.13-60.25,144-88.88-0.18.09-66.45,33.82-144,52.71v36.17Z" transform="translate(-3691.51 -3526.35)"/><polygon class="cls-5" points="1920 991.48 1885.14 1025.51 1874.69 1035.23 1865.41 1044.27 1850.28 1050 1920 1050 1920 991.48"/><path class="cls-12" d="M5565.08,4521.07s12.29,40.7-23.29,55.29c0,0,58.22-16.8,69.72-58.52C5611.51,4517.83,5599.69,4527.22,5565.08,4521.07Z" transform="translate(-3691.51 -3526.35)"/><polygon class="cls-13" points="1751.47 611.62 1744.22 611.62 1742.32 504.77 1753.38 504.77 1751.47 611.62"/><polygon class="cls-13" points="1771.77 611.62 1764.52 611.62 1762.62 504.77 1773.67 504.77 1771.77 611.62"/><path class="cls-14" d="M5477.42,3926.53h-12.13c0.14,0.83.32,1.65,0.47,2.48a5.76,5.76,0,0,1,.3,1.57,24.08,24.08,0,0,1-.59,3.41c-3.17,8.27-11,9.15-20.38,8.38s-12-10.55-12.07-10.8a7,7,0,0,1,.26-2.58c0.19-.82.34-1.64,0.46-2.45H5421.6a13,13,0,0,0-10.55,5.39h13v33.86l-14.17,1.83,2.76,57.88a11.74,11.74,0,0,0,11.74,11.75h50.24a11.74,11.74,0,0,0,11.74-11.75l4.1-85.9A13,13,0,0,0,5477.42,3926.53Z" transform="translate(-3691.51 -3526.35)"/><path class="cls-3" d="M5434.1,3888.9c0-.17.05-0.35,0.07-0.52C5434.15,3888.55,5434.13,3888.73,5434.1,3888.9Z" transform="translate(-3691.51 -3526.35)"/><path class="cls-3" d="M5434.29,3899.46v0l0.18,0.7-0.18-.7v0Z" transform="translate(-3691.51 -3526.35)"/><path class="cls-3" d="M5433,3901.06h0l-0.26-1.45Z" transform="translate(-3691.51 -3526.35)"/><path class="cls-3" d="M5434.19,3888.22c0-.23,0-0.46,0-0.7C5434.21,3887.75,5434.21,3888,5434.19,3888.22Z" transform="translate(-3691.51 -3526.35)"/><path class="cls-3" d="M5444,3898.61l0.67,0-0.67,0h0Z" transform="translate(-3691.51 -3526.35)"/><path class="cls-3" d="M5453.38,3924.85h0l0,0h0Z" transform="translate(-3691.51 -3526.35)"/><path class="cls-3" d="M5459.31,3899h0.21l0.66-.13-0.66.13h-0.21Z" transform="translate(-3691.51 -3526.35)"/><path class="cls-15" d="M5432.32,3895.1a0.92,0.92,0,0,0-.13-0.39,5.87,5.87,0,0,1-1.67-3.61c-0.05-.28-0.11-0.57-0.17-0.85,0.06,0.37.36,2.23,0.77,3.85a1.17,1.17,0,0,1,.44.25C5431.82,3894.57,5432.06,3894.84,5432.32,3895.1Z" transform="translate(-3691.51 -3526.35)"/><path class="cls-3" d="M5442.21,3892.16l0.89,0-0.89,0h0Z" transform="translate(-3691.51 -3526.35)"/><path class="cls-3" d="M5462.43,3892.64l0.28,0,0.87-.17-0.87.17Z" transform="translate(-3691.51 -3526.35)"/><path class="cls-3" d="M5429.42,3893.27s0,0,0,0l0.25,0.92-0.25-.93S5429.42,3893.29,5429.42,3893.27Z" transform="translate(-3691.51 -3526.35)"/><path class="cls-14" d="M5454.61,3926.79h0l0.06,0Z" transform="translate(-3691.51 -3526.35)"/><path class="cls-16" d="M5433,3931.56c0.07,0.25,2.84,10,12.07,10.8s17.21-.11,20.38-8.38a24.08,24.08,0,0,0,.59-3.41,5.76,5.76,0,0,0-.3-1.57c-0.15-.83-0.33-1.65-0.47-2.48h-31.55c-0.12.82-.27,1.64-0.46,2.45A7,7,0,0,0,5433,3931.56Zm21.6-4.78,0,0-0.06,0h0Z" transform="translate(-3691.51 -3526.35)"/><path class="cls-17" d="M5432.43,3896.25c0-.39-0.08-0.77-0.12-1.16-0.26-.25-0.49-0.52-0.77-0.75a1.17,1.17,0,0,0-.44-0.25,10.63,10.63,0,0,0,.69,2.06Z" transform="translate(-3691.51 -3526.35)"/><path class="cls-15" d="M5433.42,3898.41l0-.35a0.83,0.83,0,0,1-.08-1.15v-0.13c-0.08-.45-0.13-0.9-0.17-1.35v1l-0.77-.13c0,0.46.09,0.91,0.13,1.37,0,0.07,0,.15,0,0.22l0,0.18a0.19,0.19,0,0,0,0,.09c0,0.16,0,.33,0,0.5l0.08,1,0.26,1.46h0l0.08,0.11,0.06,0.08h0l0.18-.74,0.16-.61c0-.39,0-0.79,0-1.18C5433.44,3898.61,5433.43,3898.5,5433.42,3898.41Z" transform="translate(-3691.51 -3526.35)"/><path class="cls-15" d="M5469.22,3885.44c0.08-.47.45-0.89,0.53-1.35a4,4,0,0,0-.37-2.71,7.3,7.3,0,0,1-.73-1.49,3.74,3.74,0,0,0-1.05-1.68l-5.37-5.1-1.68-1.5-0.19-.22-0.07-.1,0,0-1.23-1a16,16,0,0,0-8.27-3.43,23.45,23.45,0,0,0-9.07.88,7.29,7.29,0,0,0-4.16,2.86,8.77,8.77,0,0,0-1.24,3.06,0.67,0.67,0,0,1-.48.53c-0.93.36-1.86,0.71-2.75,1.15a4.34,4.34,0,0,0-1.21,1,10.85,10.85,0,0,0-1.77,3.31,11,11,0,0,0-.61,6.77c0.28,1.28.61,2.54,0.87,3.82,0,0,0-.07,0-0.07l2.87,2.4v0.16a19.15,19.15,0,0,1,.24-2,1.91,1.91,0,0,1,.2-0.65,3.62,3.62,0,0,0,.46-1.22c0-.17.05-0.35,0.07-0.52s0-.11,0-0.16c0-.23,0-0.46,0-0.7,0-.69,0-1.38,0-2.06a4.6,4.6,0,0,1,3.57-4.83,10.65,10.65,0,0,1,5.9.12c0.72,0.19,1.43.39,2.15,0.59a4.05,4.05,0,0,0,2.59-.14,18.88,18.88,0,0,1,2.71-.85,12.32,12.32,0,0,1,4.65.32c2.53,0.42,4.52,1.89,6.59,3.23,0.38,0.25.77,0.49,1.17,0.71a1.41,1.41,0,0,1,.78,1.36,20.6,20.6,0,0,0,.09,2.93c0.12,0.9.45,1.77,0.64,2.66a6.51,6.51,0,0,1,.14,1.55c-0.05,1.25-.16,2.5-0.24,3.75l0.51,0.1c0.22,0.05.46,0.11,0.4,0.42h0.42a0,0,0,0,0,0,0l0.05-.11,1.41-3.12a21.42,21.42,0,0,0,.89-4.56C5468.81,3888.18,5469,3886.8,5469.22,3885.44Z" transform="translate(-3691.51 -3526.35)"/><path class="cls-15" d="M5432.18,3894.71a0.92,0.92,0,0,1,.13.39c0,0.39.07,0.77,0.12,1.16l0.77,0.13v-1a16.7,16.7,0,0,1,0-2.69v-0.16l-2.87-2.4s0,0,0,.07c0.06,0.28.12,0.57,0.17,0.85A5.87,5.87,0,0,0,5432.18,3894.71Z" transform="translate(-3691.51 -3526.35)"/><path class="cls-15" d="M5434.17,3888.38c0-.06,0-0.11,0-0.16S5434.17,3888.32,5434.17,3888.38Z" transform="translate(-3691.51 -3526.35)"/><path class="cls-15" d="M5466.27,3897.39h-0.42c0.06-.32-0.18-0.37-0.4-0.42l-0.51-.1s0,2.64.16,3.43C5465.1,3900.29,5465.85,3898.31,5466.27,3897.39Z" transform="translate(-3691.51 -3526.35)"/><path class="cls-15" d="M5433.37,3896.77v0.13a0.83,0.83,0,0,0,.08,1.15l0,0.35c0,0.1,0,.2,0,0.3,0,0.39,0,.79,0,1.18,0-.33,0-0.67,0-1a67.83,67.83,0,0,0,.65-9.95,0.11,0.11,0,0,1,0,0,3.62,3.62,0,0,1-.46,1.22,1.91,1.91,0,0,0-.2.65,19.15,19.15,0,0,0-.24,2v2.69C5433.24,3895.87,5433.29,3896.32,5433.37,3896.77Z" transform="translate(-3691.51 -3526.35)"/><path class="cls-15" d="M5433.2,3895.42v-2.69A16.7,16.7,0,0,0,5433.2,3895.42Z" transform="translate(-3691.51 -3526.35)"/><path class="cls-5" d="M5442.82,4128.36h0.38l0.18-7.94-17.78,5.24-9.2,2.71v9.6h17v-0.16A9.45,9.45,0,0,1,5442.82,4128.36Z" transform="translate(-3691.51 -3526.35)"/><path class="cls-5" d="M5482.61,4128.37l-9.21-2.71-17.78-5.24,0.18,7.94h0.38a9.45,9.45,0,0,1,9.45,9.45V4138h17v-9.6Z" transform="translate(-3691.51 -3526.35)"/><path class="cls-18" d="M5443.2,4128.36h-0.38a9.45,9.45,0,0,0-9.45,9.45V4138H5443Z" transform="translate(-3691.51 -3526.35)"/><path class="cls-18" d="M5456.18,4128.36h-0.37L5456,4138h9.61v-0.16A9.45,9.45,0,0,0,5456.18,4128.36Z" transform="translate(-3691.51 -3526.35)"/><path class="cls-17" d="M5436.47,4008.31c2.8,2.8,6.21,3.93,7.61,2.54l1.38-1.37c1.4-1.4.26-4.81-2.54-7.61l-17.14-17.13c-2.8-2.8-6.21-3.94-7.61-2.54l-1.37,1.38c-1.4,1.4-.27,4.81,2.54,7.61Z" transform="translate(-3691.51 -3526.35)"/><path class="cls-17" d="M5415.67,3984.46c0.58,3.92,2.65,6.86,4.61,6.57l1.92-.29c2-.29,3.07-3.71,2.49-7.63l-6.18-41.39c-0.58-3.92-2.64-6.86-4.6-6.57l-1.92.29c-2,.29-3.07,3.71-2.49,7.63Z" transform="translate(-3691.51 -3526.35)"/><circle class="cls-17" cx="1753.38" cy="484.03" r="8.24"/><path class="cls-19" d="M5424.05,3931.92h-13a13,13,0,0,0-2.5,7.66l1.34,28,14.17-1.83v-33.86Z" transform="translate(-3691.51 -3526.35)"/><path class="cls-17" d="M5462.55,4008.31c-2.8,2.8-6.21,3.93-7.61,2.54l-1.37-1.37c-1.4-1.4-.26-4.81,2.54-7.61l17.14-17.13c2.8-2.8,6.21-3.94,7.61-2.54l1.37,1.38c1.4,1.4.26,4.81-2.54,7.61Z" transform="translate(-3691.51 -3526.35)"/><path class="cls-17" d="M5483.35,3984.46c-0.58,3.92-2.65,6.86-4.61,6.57l-1.92-.29c-2-.29-3.07-3.71-2.49-7.63l6.17-41.39c0.58-3.92,2.65-6.86,4.61-6.57l1.92,0.29c2,0.29,3.07,3.71,2.49,7.63Z" transform="translate(-3691.51 -3526.35)"/><circle class="cls-17" cx="1762.62" cy="484.03" r="8.24"/><path class="cls-17" d="M5466.28,3897.35a0,0,0,0,1,0,0c-0.42.92-1.17,2.9-1.17,2.9-0.14-.79-0.16-3.42-0.16-3.42,0.09-1.26.19-2.51,0.24-3.76a6.51,6.51,0,0,0-.14-1.55c-0.19-.89-0.52-1.76-0.64-2.66a20.6,20.6,0,0,1-.09-2.93,1.41,1.41,0,0,0-.78-1.36c-0.4-.22-0.79-0.47-1.17-0.71-2.07-1.34-4.06-2.81-6.59-3.23a12.32,12.32,0,0,0-4.65-.32,18.88,18.88,0,0,0-2.71.85,4.05,4.05,0,0,1-2.59.14c-0.71-.2-1.43-0.41-2.15-0.59a10.65,10.65,0,0,0-5.9-.12,4.6,4.6,0,0,0-3.57,4.83c0,0.69,0,1.38,0,2.06,0,0.23,0,.47,0,0.7,0,0.05,0,.1,0,0.16s0,0.35-.07.52a0.11,0.11,0,0,0,0,0,67.83,67.83,0,0,1-.65,9.95c0,0.33,0,.67,0,1l-0.16.61-0.18.74h0l-0.06-.08-0.08-.11h0l-0.26-1.45-0.08-1c0-.17,0-0.33,0-0.5a0.19,0.19,0,0,1,0-.09l0-.18c0-.07,0-0.15,0-0.22,0-.46-0.09-0.92-0.13-1.37l-0.64-.1a10.63,10.63,0,0,1-.69-2.06,0.63,0.63,0,0,0-.69.39,3.79,3.79,0,0,0-.52,1.09,8.57,8.57,0,0,0-.2,1h0a14.17,14.17,0,0,0,.08,3.62c0.21,2.38.82,5.36,2.46,7.11a1.71,1.71,0,0,0,2.3.65c0.09,1.12.22,2.22,0.26,3.33a7.18,7.18,0,0,0,1.52,4.31c0.4,0.52.75,1.09,1.12,1.63a1.33,1.33,0,0,1,.31.08,1.28,1.28,0,0,0-.31-0.08c0,0.11,0,.23,0,0.34a21.84,21.84,0,0,1-.25,8.9,5.39,5.39,0,0,0-.2,2c0.05,0.19,2.15,7.6,9.15,8.18s13-.08,15.44-6.35a18.08,18.08,0,0,0,.45-2.58,4.26,4.26,0,0,0-.23-1.19c-0.16-.88-0.36-1.75-0.47-2.64a23.45,23.45,0,0,1,.26-6.82,5.12,5.12,0,0,1,.33-0.47,7.86,7.86,0,0,0,2.26-5.26c0-1.11.18-2.23,0.28-3.36a1.93,1.93,0,0,0,1.44.12h0a1.23,1.23,0,0,0,.55-0.43c4.51-3.92,2.58-12.34,2.58-12.34a1.24,1.24,0,0,0-1.32-1.21l-1.41,3.13Zm-32,2.14v0l0.18,0.7Zm8.69-1a1.79,1.79,0,0,0,.1-0.5,3.86,3.86,0,0,0,0-.54,3.86,3.86,0,0,1,0,.54A1.79,1.79,0,0,1,5443,3898.48Zm1,0.13h0l0.67,0Zm9.38,26.24h0l0,0h0Zm6.14-25.89h0l0.66-.13Z" transform="translate(-3691.51 -3526.35)"/><path class="cls-19" d="M5475,3931.92h13a13,13,0,0,1,2.5,7.66l-1.34,28-14.17-1.83v-33.86Z" transform="translate(-3691.51 -3526.35)"/><path class="cls-20" d="M5454.33,3916.67h-9v-1.15c0.29,0,.58,0,0.87,0,2.43,0,4.87,0,7.3,0C5454.34,3915.44,5454.63,3915.73,5454.33,3916.67Z" transform="translate(-3691.51 -3526.35)"/><path class="cls-21" d="M5442.48,3900.68a1,1,0,0,1-1,1h0a1,1,0,0,1-1-1v-6.41a1,1,0,0,1,1-1h0a1,1,0,0,1,1,1v6.41Z" transform="translate(-3691.51 -3526.35)"/><path class="cls-21" d="M5458.57,3900.68a1,1,0,0,1-1,1h0a1,1,0,0,1-1-1v-6.41a1,1,0,0,1,1-1h0a1,1,0,0,1,1,1v6.41Z" transform="translate(-3691.51 -3526.35)"/><path class="cls-22" d="M5490.4,4051.51l-2.69-2.05-4.73,6L5460.44,4084c-2.84,3.2.12,5.8,6.61,5.8h9.55l-34.5,40.65L5431,4131.9l-10.39,1.34-4.2,4.74H5443l4.41-4.74,3.65-3.92H5451l36.46-39.51h9.47l-33.53,39.51h-0.07l-3.29,3.92-4,4.74h26.6l4.2-4.74-8-1.34-8.58-1.43,37.52-40.66h9.55a29,29,0,0,0,5.13-.49C5518.39,4076.37,5508,4064.91,5490.4,4051.51Z" transform="translate(-3691.51 -3526.35)"/></g></svg>
