<svg id="Layer_2" data-name="Layer 2" xmlns="http://www.w3.org/2000/svg" xmlns:xlink="http://www.w3.org/1999/xlink" viewBox="0 0 1920 1050"><defs><style>.cls-1{fill:url(#linear-gradient);}.cls-15,.cls-2{fill:#eff0ea;}.cls-3{fill:#dedddd;}.cls-4,.cls-5{font-size:30px;font-family:Noto Sans CJK KR;}.cls-13,.cls-16,.cls-4{fill:#66635a;}.cls-5{fill:#8c8980;}.cls-22,.cls-6{fill:none;}.cls-7{fill:#54514a;}.cls-8{fill:#eec29d;}.cls-9{fill:#f0d2b6;}.cls-10{fill:#b3b4b7;}.cls-11{fill:#dededd;}.cls-12{fill:#e5b68d;}.cls-14{fill:#221e1f;opacity:0.1;}.cls-15,.cls-16,.cls-17,.cls-18,.cls-19,.cls-22{fill-rule:evenodd;}.cls-17,.cls-21{fill:#9b9c9e;}.cls-18{fill:#ce6545;}.cls-19,.cls-20{fill:#e4bc9a;}.cls-22{stroke:#ce6545;stroke-miterlimit:10;stroke-width:1.5px;}.cls-23{fill:#565249;}</style><linearGradient id="linear-gradient" x1="960" y1="9" x2="960" y2="1037.63" gradientUnits="userSpaceOnUse"><stop offset="0" stop-color="#f2c161"/><stop offset="0.16" stop-color="#f2c161"/><stop offset="1" stop-color="#66635a"/></linearGradient></defs><title>search_gosoo</title><rect class="cls-1" width="1920" height="1050"/><rect class="cls-2" x="243.25" y="99" width="293.88" height="192.49" rx="14.61" ry="14.61"/><rect class="cls-3" x="567.81" y="99" width="293.88" height="192.49" rx="14.61" ry="14.61"/><rect class="cls-3" x="892.38" y="99" width="293.88" height="192.49" rx="14.61" ry="14.61"/><rect class="cls-2" x="243.25" y="171.13" width="1433.5" height="781.35" rx="14.61" ry="14.61"/><polygon class="cls-2" points="1920 991.48 1885.14 1025.51 1874.69 1035.23 1865.41 1044.27 1850.28 1050 1920 1050 1920 991.48"/><text class="cls-4" transform="translate(330.79 151.25)">인쇄 고수</text><text class="cls-5" transform="translate(655.35 151.25)">인쇄 중수</text><text class="cls-5" transform="translate(979.92 151.25)">인쇄 하수</text><path class="cls-6" d="M5462.39,2218.2l-2.16-1.19A1.91,1.91,0,0,0,5462.39,2218.2Z" transform="translate(-3691.51 -1303)"/><path class="cls-7" d="M5426.58,2171.1a19.81,19.81,0,0,1-4.8-2.78l-16.12-12.67c-9.73-7.65-10.75-23.2-3.43-37.48l-6.76-4.8-6.27,8c-15.15,19.27-15,44.67.32,56.72l15.57,12.24,1.06,0.83,7.72,5.75a30.45,30.45,0,0,0,14.73,4.12c8.75,0.23,18.1-2.84,26.35-8.8Z" transform="translate(-3691.51 -1303)"/><path class="cls-8" d="M5377.77,1927a169.32,169.32,0,0,1,3.61-37l0-.15h0a135.1,135.1,0,0,1,16.86-35.81c6.19-9.51,4.2-13.6-4.17-19.4-8.8-6.1-17.33-12.57-25.86-19.07v162.76l18.3-2.61C5380,1959.19,5377.89,1941.8,5377.77,1927Z" transform="translate(-3691.51 -1303)"/><path class="cls-9" d="M5429.1,2023.9c0.61,0.29,1.22.57,1.81,0.87h0Z" transform="translate(-3691.51 -1303)"/><path class="cls-9" d="M5433,2025.86c-0.67-.38-1.35-0.74-2.06-1.09C5431.62,2025.13,5432.26,2025.51,5433,2025.86Z" transform="translate(-3691.51 -1303)"/><path class="cls-9" d="M5381.42,1889.93l0,0.15,0-.15h0Z" transform="translate(-3691.51 -1303)"/><path class="cls-9" d="M5430.92,2024.77c0.7,0.35,1.39.71,2.06,1.09-0.67-.38-1.36-0.74-2.07-1.09h0Z" transform="translate(-3691.51 -1303)"/><path class="cls-6" d="M5437,2020.48q18.07-24.21,36.16-48.41-18.15,24.15-36.16,48.41h0Z" transform="translate(-3691.51 -1303)"/><path class="cls-6" d="M5417.2,2016.29l0.35,0.43-0.34-.42h0Z" transform="translate(-3691.51 -1303)"/><path class="cls-7" d="M5576.5,1938.34l4.07,3.2,0.05-.07,30.89,23V1930.7l-17.06-13.41c-15.32-12.05-40-6.2-55.19,13.08l-6.24,7.94,6.55,5.29C5551.68,1933.33,5566.85,1930.75,5576.5,1938.34Z" transform="translate(-3691.51 -1303)"/><path class="cls-2" d="M5358.5,1755.7c9.92,6.46,22.25,4.16,30.51-5.69l-36.77-27.45C5345.51,1735.93,5347.95,1748.83,5358.5,1755.7Z" transform="translate(-3691.51 -1303)"/><path class="cls-8" d="M5433,2025.86c-0.71-.34-1.36-0.73-2.06-1.09s-1.2-.59-1.81-0.87h0l-2-.94-1.47-.69-0.38-.18c-0.51-.25-1-0.5-1.51-0.76l-0.17-.09q-0.73-.39-1.42-0.8l-0.29-.17c-0.47-.29-0.92-0.59-1.36-0.9l-0.29-.21c-0.44-.32-0.86-0.66-1.25-1l-0.2-.18a13.26,13.26,0,0,1-1.17-1.21l-0.35-.43c-2.18-1.62-4.23-3.31-6.19-5v13.52h-42.75v83.55l0.9-.52c4-2.41,8.26-4.49,12.4-6.73,2.53-5.06,4.45-10.56,7.7-15.12C5403.63,2065.77,5418.37,2045.86,5433,2025.86Z" transform="translate(-3691.51 -1303)"/><path class="cls-8" d="M5411,2011.24a92.36,92.36,0,0,1-24.45-35.43l-18.3,2.61v46.35H5411v-13.52Z" transform="translate(-3691.51 -1303)"/><path class="cls-9" d="M5417.22,2016.3l0.34,0.42a13.13,13.13,0,0,0,1.17,1.21l0.2,0.18c0.4,0.36.82,0.69,1.25,1l0.29,0.21c0.44,0.31.89,0.61,1.36,0.9l0.29,0.17q0.7,0.41,1.42.8l0.17,0.09c0.5,0.26,1,.51,1.51.76l0.38,0.18,1.47,0.69,2,0.94h0l1.8,0.86A96.71,96.71,0,0,1,5417.22,2016.3Z" transform="translate(-3691.51 -1303)"/><path class="cls-9" d="M5418.72,2017.94a13.13,13.13,0,0,1-1.17-1.21A13.26,13.26,0,0,0,5418.72,2017.94Z" transform="translate(-3691.51 -1303)"/><path class="cls-9" d="M5433,2025.86l4-5.37h0Z" transform="translate(-3691.51 -1303)"/><path class="cls-9" d="M5411,2011.24c2,1.74,4,3.43,6.19,5-2.1-2.54-4.16-5.12-6.19-7.73v2.68Z" transform="translate(-3691.51 -1303)"/><path class="cls-9" d="M5386.68,1975.79l-0.12,0a92.36,92.36,0,0,0,24.45,35.43v-2.68C5402.65,1997.85,5394.8,1986.71,5386.68,1975.79Z" transform="translate(-3691.51 -1303)"/><path class="cls-10" d="M5590.82,1996.65L5465.7,2155.8c-11,14-27.27,20-39,15.35l28.26,21a54.63,54.63,0,0,0,10.89-10.5l145.65-185.26v-32l-30.89-23-0.05.07,12,9.46C5604.25,1960.15,5603.45,1980.58,5590.82,1996.65Z" transform="translate(-3691.51 -1303)"/><path class="cls-10" d="M5426.71,2171.15l-0.14-.05,28.36,21.11,0,0Z" transform="translate(-3691.51 -1303)"/><path class="cls-11" d="M5558.2,1971.34q-60.46,79.8-120.25,160.11c-5.13,6.89-8.9,6.88-15.19,1.87-6.63-5.29-13.55-10.21-20.48-15.11-7.3,14.27-6.27,29.8,3.45,37.45l16.12,12.67a19.81,19.81,0,0,0,4.8,2.78l0.07,0.05c11.71,4.66,28-1.39,39-15.35l125.12-159.15c12.63-16.07,13.43-36.5,1.8-45.64l-12-9.46-4.07-3.2c-9.65-7.59-24.82-5-36.93,5.25,5.39,4.33,10.83,8.61,16.48,12.57C5562.9,1961,5563.19,1964.75,5558.2,1971.34Z" transform="translate(-3691.51 -1303)"/><path class="cls-11" d="M5426.64,2171.1a19.81,19.81,0,0,1-4.8-2.78l-16.12-12.67c-9.72-7.64-10.75-23.18-3.45-37.45l-0.05,0c-7.32,14.28-6.3,29.83,3.43,37.48l16.12,12.67a19.81,19.81,0,0,0,4.8,2.78l0.14,0.05Z" transform="translate(-3691.51 -1303)"/><path class="cls-12" d="M5526.18,1932.83l-13.44-9.77c-7.7,9-15.83,17.68-23,27.09q-7,9.24-14,18.52l-2.55,3.4q-18.15,24.15-36.16,48.41h0l-4,5.37c-14.6,20-29.35,39.92-43.71,60.09-3.25,4.56-5.17,10.06-7.7,15.12l10.53,9.89,3.32,2.38,137.6-175Q5529.61,1935.55,5526.18,1932.83Z" transform="translate(-3691.51 -1303)"/><path class="cls-12" d="M5402.24,2118.14a50.37,50.37,0,0,1,5.22-8.12l125.12-159.15a50.28,50.28,0,0,1,7-7.27l-6.55-5.29-137.6,175,0,0,0,0Z" transform="translate(-3691.51 -1303)"/><path class="cls-12" d="M5402.24,2118.14l-6.76-4.79,0,0,6.76,4.8Z" transform="translate(-3691.51 -1303)"/><path class="cls-12" d="M5437,2020.49h0l-4,5.37Z" transform="translate(-3691.51 -1303)"/><path class="cls-12" d="M5402.27,2118.21c6.93,4.9,13.85,9.82,20.48,15.11,6.29,5,10.06,5,15.19-1.87q59.76-80.33,120.25-160.11c5-6.59,4.7-10.36-2.14-15.17-5.65-4-11.09-8.24-16.48-12.57a50.28,50.28,0,0,0-7,7.27L5407.46,2110a50.37,50.37,0,0,0-5.22,8.12l0,0Z" transform="translate(-3691.51 -1303)"/><path class="cls-12" d="M5402.29,2118.17l0,0,0,0,0.05,0Z" transform="translate(-3691.51 -1303)"/><path class="cls-13" d="M5455,2192.23c-8.26,6-17.63,9-26.38,8.77a30.46,30.46,0,0,1-14.8-4.12L5611.51,2344v-35.3Zm7.42,26a1.91,1.91,0,0,1-2.16-1.19Zm-2.16,9.81,2.16,1.19A1.91,1.91,0,0,1,5460.23,2228Z" transform="translate(-3691.51 -1303)"/><path class="cls-13" d="M5455,2192.23l0,0c-8.25,6-17.6,9-26.35,8.8C5437.34,2201.25,5446.71,2198.19,5455,2192.23Z" transform="translate(-3691.51 -1303)"/><path class="cls-13" d="M5462.39,2229.2l-2.16-1.19A1.91,1.91,0,0,0,5462.39,2229.2Z" transform="translate(-3691.51 -1303)"/><path class="cls-13" d="M5465.87,2181.68a54.63,54.63,0,0,1-10.89,10.5l0,0,0,0,156.54,116.49V1996.42Z" transform="translate(-3691.51 -1303)"/><path class="cls-13" d="M5455,2192.18l0,0,0,0,0,0Z" transform="translate(-3691.51 -1303)"/><path class="cls-9" d="M5411,1801.5v207.07c2,2.6,4.08,5.19,6.19,7.73h0a96.71,96.71,0,0,0,13.69,8.46c0.71,0.35,1.4.71,2.07,1.09l4-5.38q18.07-24.21,36.16-48.41l2.55-3.4q7-9.28,14-18.52c7.18-9.4,15.31-18.08,23-27.09,0,0,13.33-25.78,11.56-42.06l0,0c1.28-20.6-9.18-35.58-33.87-54.35-29.09-22.12-58-44.53-86.94-66.8L5389,1750c-8.26,9.85-20.58,12.15-30.51,5.69-10.55-6.87-13-19.78-6.26-33.14-4-2.8-7.66-6.27-12-8.12-2.31-1-6.89-1-8.52,1.55-14.65,27.52-17,60.53,13.12,82.12,7.93,5.68,15.69,11.62,23.45,17.54V1801.5H5411Z" transform="translate(-3691.51 -1303)"/><path class="cls-9" d="M5398.28,1854.12a135.1,135.1,0,0,0-16.86,35.81l0,0.15a169.32,169.32,0,0,0-3.61,37c0.12,14.76,2.19,32.15,8.79,48.77l0.12,0c8.12,10.91,16,22.06,24.33,32.77V1801.5h-42.75v14.16c8.52,6.5,17.05,13,25.86,19.07C5402.48,1840.52,5404.47,1844.62,5398.28,1854.12Z" transform="translate(-3691.51 -1303)"/><path class="cls-6" d="M3849.35,1780.11a2.66,2.66,0,0,1,.17.33l2.8,6.93h0.07l5.24-14.22-7.84,6.62Z" transform="translate(-3691.51 -1303)"/><path class="cls-9" d="M3903.18,1780.11a2.52,2.52,0,0,1-.13-0.34l-1.86-6.46-7.39,14,8.92-6.86Z" transform="translate(-3691.51 -1303)"/><path class="cls-9" d="M3859.25,1799.33l-14.15,33.49-5.8.95-5.39.88-1.39,3.11H3847l2.76-5.69h-0.07l15.52-32.75h5.11l-13.84,32.75h-0.07l-2.34,5.69h14.45l1.39-3.11-4.61-.88-5-.94,15.87-33.5h5.17c3.52,0,7.14-1.7,8.08-3.81l1.5-2.84c2.33-.13,4.61-1.26,5.23-2.65a1.81,1.81,0,0,0,.15-0.54,9.41,9.41,0,0,0,1.09-.72l9.1-7a5.08,5.08,0,0,0,1.42-1.53l0,0,0.05-.13a2.2,2.2,0,0,0,.09-1.5l-3.59-12.42a2.4,2.4,0,0,0-1-1.37,7,7,0,0,0-4.55-1.32h-3.86q-22.54,17.35-45.07,34.72a6.35,6.35,0,0,0,4.05,1.15h5.18Zm41.93-26,1.86,6.46a2.52,2.52,0,0,0,.13.34l-0.47.33-8.92,6.86Z" transform="translate(-3691.51 -1303)"/><path class="cls-6" d="M5458.62,1799.21l-1.89,1.68,1,0.77Z" transform="translate(-3691.51 -1303)"/><path class="cls-6" d="M5530.38,1799.48l-12.57,24.67,14.89-12.09c0.25-.2.51-0.4,0.77-0.59a4.47,4.47,0,0,1-.21-0.61Z" transform="translate(-3691.51 -1303)"/><path class="cls-9" d="M5444.78,1811.48a4.66,4.66,0,0,1,.26.58l4.43,12.22h0.12l8.14-22.61-1-.77-11.21,10C5445.28,1811.08,5445,1811.29,5444.78,1811.48Z" transform="translate(-3691.51 -1303)"/><path class="cls-14" d="M5490.4,1826.67q-16.38-12.45-32.67-25l-8.14,22.61h-0.12l-4.43-12.22a4.66,4.66,0,0,0-.26-0.58c0.25-.2.5-0.4,0.73-0.61l11.21-10-4.79-3.68-13,11.56a8.2,8.2,0,0,0-2.16,2.75l0,0.11a2.78,2.78,0,0,0-.09.3,4,4,0,0,0,.09,2.49l4.47,12.34a4.55,4.55,0,0,0,.23.52,5.41,5.41,0,0,0-1.25,1.71c-1.13,2.6,1.26,4.71,5.33,4.71l0.68,0-1.8,5c-1.61,3.71,1.79,6.71,7.6,6.71h8.53l-24.25,59-9.59,1.67-8.91,1.55-2.38,5.48h23.81l4.7-10-0.11,0,26.48-57.74h8.43L5455,1903.12l-0.11,0-4,10h23.81l2.38-5.48-7.57-1.55-8.13-1.66,27.09-59.05H5497a18.23,18.23,0,0,0,10.88-3.6A156.45,156.45,0,0,0,5490.4,1826.67Z" transform="translate(-3691.51 -1303)"/><polygon class="cls-15" points="1747.77 610.13 1741.27 610.13 1739.57 498.95 1749.47 498.95 1747.77 610.13"/><polygon class="cls-15" points="1765.94 610.13 1759.44 610.13 1757.74 498.95 1767.64 498.95 1765.94 610.13"/><path class="cls-16" d="M5478.12,1796.43a10.51,10.51,0,0,1-10.52,10.51h-45a10.51,10.51,0,0,1-10.51-10.51l-3.67-76.92a11.68,11.68,0,0,1,11.68-11.68h50a11.68,11.68,0,0,1,11.68,11.68Z" transform="translate(-3691.51 -1303)"/><path class="cls-17" d="M5454.81,1707.81l-0.17.74c-1.77,1.73-3.56,3.45-5.31,5.2-0.34.34-.53,0.36-0.78-0.07-0.34-.59-0.74-1.16-1.11-1.73l-0.55-1-1.59-2.75,3.41-.81c0.8,0,1.61,0,2.4,0,1.19-.07,2.38-0.19,3.56-0.29Z" transform="translate(-3691.51 -1303)"/><path class="cls-17" d="M5435.62,1707.09c1.52,0.12,3,.25,4.57.35a1.78,1.78,0,0,0,.59-0.18,8.73,8.73,0,0,0,4.06,1l-2.13,3.71-1.61,2.38a4.88,4.88,0,0,0-.53-0.88q-2.08-2.12-4.2-4.21a5.83,5.83,0,0,0-.76-0.55l-0.3-.77-0.17,0Z" transform="translate(-3691.51 -1303)"/><path class="cls-17" d="M5435.3,1707.92l0.3,0.77c0.1,3.44.12,6.88,0.34,10.31,0.31,4.77.67,9.54,1.2,14.28,0.49,4.34,1.21,8.65,1.89,13,0.29,1.85.73,3.67,1.1,5.5a3.31,3.31,0,0,0,0,.56c1.17,4.67,2.33,9.34,3.52,14,0.34,1.32.75,2.61,1.12,3.92a1.52,1.52,0,0,1-.48-0.35c-1.32-2.31-2.7-4.59-3.88-7-1.41-2.83-2.64-5.76-3.94-8.64-0.94-2.09-1.91-4.16-2.79-6.27s-1.64-4.16-2.45-6.24-1.72-4.42-2.56-6.63-1.75-4.72-2.63-7.08c-0.34-.93-0.65-1.86-1-2.78a0.91,0.91,0,0,1,.39-1.29c0.91-.55,1.8-1.13,2.69-1.71a0.71,0.71,0,0,0,.32-1.11c-0.78-1.38-1.48-2.81-2.26-4.33,1.65-1.58,3.32-3.16,5-4.77C5432.57,1710.68,5433.93,1709.29,5435.3,1707.92Z" transform="translate(-3691.51 -1303)"/><path class="cls-18" d="M5444.82,1770.22c-0.38-1.31-.79-2.6-1.12-3.92-1.19-4.67-2.35-9.33-3.52-14a3.31,3.31,0,0,1,0-.56,5.88,5.88,0,0,0,.12-0.63q0.67-6.93,1.33-13.87c0.31-3.23.6-6.47,0.91-9.7,0.38-4,.77-8.07,1.17-12.21-0.67.2-.62-0.24-0.66-0.67-0.08-.91-0.2-1.82-0.3-2.72l2.13-3.71h0.45l1.59,2.75,0.55,1c-0.07.67-.13,1.34-0.21,2a2.39,2.39,0,0,1-.19,1.22c-0.82.39-.39,1-0.38,1.5,0,0.72.18,1.44,0.26,2.16,0.45,4.57.88,9.14,1.34,13.72q0.94,9.39,1.92,18.77c-0.39,1.94-.71,3.89-1.19,5.81-0.93,3.66-2,7.3-2.94,10.94-0.18.67-.37,1.33-0.57,2l-0.17.45-0.47-.3h0Z" transform="translate(-3691.51 -1303)"/><path class="cls-15" d="M5450.16,1751.33q-1-9.39-1.92-18.77c-0.46-4.57-.89-9.15-1.34-13.72-0.07-.72-0.24-1.44-0.26-2.16,0-.49-0.44-1.11.38-1.5a2.39,2.39,0,0,0,.19-1.22c0.07-.67.14-1.34,0.21-2,0.37,0.58.77,1.14,1.11,1.73,0.25,0.44.44,0.41,0.78,0.07,1.76-1.75,3.54-3.47,5.31-5.2-0.12,3.87-.18,7.74-0.4,11.6-0.2,3.51-.5,7-0.89,10.52-0.42,3.82-.94,7.62-1.51,11.42-0.44,3-1,5.92-1.53,8.88A1.57,1.57,0,0,1,5450.16,1751.33Z" transform="translate(-3691.51 -1303)"/><path class="cls-17" d="M5464.68,1723.88c-1.09-.65-2.15-1.36-3.21-2a2.82,2.82,0,0,1,.14-0.46l2-3.76c0.21-.4.57-0.79,0-1.17a1,1,0,0,0-.08-0.47c-0.64-.62-1.29-1.24-2-1.82-0.47-.4-1-0.74-1.47-1.11-1.43-1.4-2.86-2.79-4.28-4.19a10.32,10.32,0,0,1-.76-1l-0.17-.11-0.17.74c-0.12,3.87-.18,7.74-0.4,11.6-0.2,3.51-.5,7-0.89,10.52-0.42,3.82-.94,7.62-1.51,11.42-0.44,3-1,5.92-1.53,8.88a1.57,1.57,0,0,1-.15.35c-0.39,1.94-.71,3.89-1.19,5.81-0.93,3.66-2,7.3-2.94,10.94-0.18.67-.37,1.33-0.57,2a1.32,1.32,0,0,0,.52-0.29c0.6-.95,1.21-1.89,1.73-2.88,0.93-1.77,1.81-3.57,2.68-5.38,1-2.09,2-4.19,3-6.3,0.82-1.78,1.57-3.6,2.34-5.41,0.66-1.54,1.32-3.09,1.93-4.65,0.89-2.31,1.73-4.64,2.61-7,0.82-2.16,1.69-4.29,2.5-6.45s1.55-4.37,2.39-6.53A0.94,0.94,0,0,0,5464.68,1723.88Zm-9.37-5.8h0Zm0,0.64h0Zm1.45-2.1h0Zm1,5.33h0Zm0.54-5.78a6,6,0,0,1,1.55.29A6,6,0,0,0,5458.28,1716.17Z" transform="translate(-3691.51 -1303)"/><path class="cls-15" d="M5442.7,1711.94c0.1,0.91.22,1.81,0.3,2.72,0,0.43,0,.87.66,0.67-0.4,4.14-.79,8.17-1.17,12.21-0.31,3.23-.6,6.47-0.91,9.7q-0.66,6.93-1.33,13.87a5.88,5.88,0,0,1-.12.63c-0.37-1.83-.81-3.65-1.1-5.5-0.68-4.31-1.4-8.63-1.89-13-0.53-4.74-.89-9.51-1.2-14.28-0.22-3.43-.24-6.87-0.34-10.31a5.83,5.83,0,0,1,.76.55q2.12,2.09,4.2,4.21a4.88,4.88,0,0,1,.53.88Z" transform="translate(-3691.51 -1303)"/><path class="cls-19" d="M5461,1676.59c0,5.26.06,10.53,0,15.79a13.56,13.56,0,0,1-5.89,11.25,1.19,1.19,0,0,0-.37.81c0,0.88,0,1.77,0,2.66-1.19.1-2.37,0.22-3.56,0.29-0.8,0-1.6,0-2.4,0,0.38-.25.78-0.47,1.14-0.75a5.35,5.35,0,0,0,2.37-4.2c0.06-1.66,0-3.32,0-5a2,2,0,0,0-2.23-2.07c-1.45,0-2.9,0-4.35,0-1.88,0-3.76,0-5.64,0-1.3,0-2.31.68-2.36,1.75a44.17,44.17,0,0,0,.06,6.11c0.18,1.88,1.55,3.05,3.1,4a1.78,1.78,0,0,1-.59.18c-1.52-.1-3-0.23-4.57-0.35a2.4,2.4,0,0,1,0-.4c0.25-1.54-.35-2.49-1.62-3.51a13.67,13.67,0,0,1-5.34-11.16c0-5.14,0-10.28,0-15.42,1.54,0,1.76-.26,1.76-1.78v-1.74c2.1,0.34,3.77.1,5-.84a2.71,2.71,0,0,1,1.75-.59,5.12,5.12,0,0,0,4.17-1.94,27.34,27.34,0,0,0,1.9-3.46h6.86a17,17,0,0,0,.81,1.86c0.49,0.85,1.08,1.65,1.62,2.48a5.29,5.29,0,0,0,3.53,2.46,26.22,26.22,0,0,0,3.06.21c0,0.65,0,1.4,0,2.14a1.07,1.07,0,0,0,1.08,1.16A6.29,6.29,0,0,0,5461,1676.59Zm-2.55,5.78c0.3,0,.54,0,0.77,0a0.83,0.83,0,0,0,.85-1,0.9,0.9,0,0,0-1.15-.9,1,1,0,0,1-1.05-.7,8.14,8.14,0,0,0-1.68-2.31,6.17,6.17,0,0,0-9.84,2.55,1.28,1.28,0,0,1-.42.72,5.15,5.15,0,0,1-1.83,0,1.64,1.64,0,0,1-.56-0.89,6,6,0,0,0-5.13-3.77,5.9,5.9,0,0,0-6.07,3.26c-0.41.74-.72,1.28-1.7,1.17a0.78,0.78,0,0,0-.83,1,0.82,0.82,0,0,0,.93.88l0.82,0c0,0.23,0,.42,0,0.6a6.24,6.24,0,0,0,8.59,5,6,6,0,0,0,3.75-4.87,0.88,0.88,0,0,1,1.14-.79,0.81,0.81,0,0,1,1,.8,5.83,5.83,0,0,0,.55,1.81,6.18,6.18,0,0,0,7.93,3A6.36,6.36,0,0,0,5458.42,1682.37Zm-14.41,1.79v4.23c0,1.48,0,1.48-1.45,1.58a1.71,1.71,0,0,0-1.46,1.62,1.5,1.5,0,0,0,1.34,1.75c1.7,0,3.4,0,5.1,0a1.23,1.23,0,0,0,1.23-1,1.59,1.59,0,0,0-.29-1.72,1.92,1.92,0,0,0-1.73-.64c-0.65.09-.83-0.18-0.81-0.81,0-1.4,0-2.8,0-4.2a0.78,0.78,0,0,0-.3-0.61A11.63,11.63,0,0,0,5444,1684.16Z" transform="translate(-3691.51 -1303)"/><path class="cls-16" d="M5461,1676.59a6.29,6.29,0,0,1-.8,0,1.07,1.07,0,0,1-1.08-1.16c0-.75,0-1.5,0-2.14a26.22,26.22,0,0,1-3.06-.21,5.29,5.29,0,0,1-3.53-2.46c-0.54-.83-1.13-1.63-1.62-2.48a17,17,0,0,1-.81-1.86h-6.86a27.34,27.34,0,0,1-1.9,3.46,5.12,5.12,0,0,1-4.17,1.94,2.71,2.71,0,0,0-1.75.59c-1.2.94-2.87,1.18-5,.84v1.74c0,1.51-.22,1.73-1.76,1.78a1.18,1.18,0,0,1-1-1.42,12.54,12.54,0,0,0,.05-1.6,6.13,6.13,0,0,0-.88-3.47,5.85,5.85,0,0,1,2.11-7.88,22.74,22.74,0,0,0,2.21-1.59,0.93,0.93,0,0,0,.17-0.58,5.74,5.74,0,0,1,6-5.46c1.08,0,2.15,0,3.23,0a5.15,5.15,0,0,1,3.81,1.65,2,2,0,0,0,1.68.69c1.64,0,3.28,0,4.92.09a2.9,2.9,0,0,1,2.92,2.21,0.6,0.6,0,0,0,.31.39c0.78,0.18,1.56.3,2.34,0.47a4.34,4.34,0,0,1,1.37.4,34.34,34.34,0,0,1,3.41,2.35,5.91,5.91,0,0,1,1,7.93,3,3,0,0,0-.49,1.45,20,20,0,0,0,0,2.9A1.26,1.26,0,0,1,5461,1676.59Z" transform="translate(-3691.51 -1303)"/><path class="cls-19" d="M5445.28,1708.22h-0.45a8.73,8.73,0,0,1-4.05-1c-1.55-.92-2.92-2.1-3.1-4a44.17,44.17,0,0,1-.06-6.11c0-1.07,1.06-1.73,2.36-1.75,1.88,0,3.76,0,5.64,0,1.45,0,2.9,0,4.35,0a2,2,0,0,1,2.23,2.07c0,1.66.06,3.32,0,5a5.35,5.35,0,0,1-2.37,4.2c-0.36.27-.76,0.5-1.14,0.75Zm0-7.27h2.58a0.52,0.52,0,0,0,.16,0,8.79,8.79,0,0,0,1.84-.68,1.48,1.48,0,0,0,.2-2.32,3.4,3.4,0,0,0-1.83-.83c-1.93-.11-3.87-0.06-5.8,0a2.22,2.22,0,0,0-2.31,1.72c-0.1,1,.58,1.74,1.87,2.06a3.51,3.51,0,0,0,.8.08h2.5Z" transform="translate(-3691.51 -1303)"/><path class="cls-18" d="M5458.42,1682.37a6.36,6.36,0,0,1-3.92,5.59,6.18,6.18,0,0,1-7.93-3,5.83,5.83,0,0,1-.55-1.81,0.81,0.81,0,0,0-1-.8,0.88,0.88,0,0,0-1.14.79,6,6,0,0,1-3.75,4.87,6.24,6.24,0,0,1-8.59-5c0-.18,0-0.36,0-0.6l-0.82,0a0.82,0.82,0,0,1-.93-0.88,0.78,0.78,0,0,1,.83-1c1,0.11,1.28-.43,1.7-1.17a5.9,5.9,0,0,1,6.07-3.26,6,6,0,0,1,5.13,3.77,1.64,1.64,0,0,0,.56.89,5.15,5.15,0,0,0,1.83,0,1.28,1.28,0,0,0,.42-0.72,6.17,6.17,0,0,1,9.84-2.55,8.14,8.14,0,0,1,1.68,2.31,1,1,0,0,0,1.05.7,0.9,0.9,0,0,1,1.15.9,0.83,0.83,0,0,1-.85,1C5459,1682.38,5458.72,1682.37,5458.42,1682.37Zm-1.46-.14a4.81,4.81,0,0,0-9.62-.14A4.81,4.81,0,1,0,5457,1682.22Zm-14.38.12a4.72,4.72,0,0,0-4.79-4.88,4.82,4.82,0,1,0-.11,9.64A4.74,4.74,0,0,0,5442.58,1682.34Z" transform="translate(-3691.51 -1303)"/><path class="cls-19" d="M5444,1684.16a11.63,11.63,0,0,1,1.62.2,0.78,0.78,0,0,1,.3.61c0,1.4,0,2.8,0,4.2,0,0.63.16,0.9,0.81,0.81a1.92,1.92,0,0,1,1.73.64,1.59,1.59,0,0,1,.29,1.72,1.23,1.23,0,0,1-1.23,1c-1.7,0-3.4.08-5.1,0a1.5,1.5,0,0,1-1.34-1.75,1.71,1.71,0,0,1,1.46-1.62c1.45-.1,1.45-0.1,1.45-1.58v-4.23Z" transform="translate(-3691.51 -1303)"/><path class="cls-19" d="M5445.29,1701h-2.5a3.51,3.51,0,0,1-.8-0.08c-1.29-.32-2-1.08-1.87-2.06a2.22,2.22,0,0,1,2.31-1.72c1.93,0,3.87-.08,5.8,0a3.4,3.4,0,0,1,1.83.83,1.48,1.48,0,0,1-.2,2.32,8.79,8.79,0,0,1-1.84.68,0.52,0.52,0,0,1-.16,0h-2.58Zm3.93-1.48c0.27-.85,0-1.1-0.77-1.08-2.18,0-4.36,0-6.54,0-0.25,0-.51,0-0.77,0v1h8.08Z" transform="translate(-3691.51 -1303)"/><path class="cls-19" d="M5449.22,1699.47h-8.08v-1c0.26,0,.52,0,0.77,0,2.18,0,4.36,0,6.54,0C5449.24,1698.37,5449.49,1698.63,5449.22,1699.47Z" transform="translate(-3691.51 -1303)"/><path class="cls-19" d="M5452.18,1677.37a4.85,4.85,0,1,0,4.78,4.85A4.82,4.82,0,0,0,5452.18,1677.37Z" transform="translate(-3691.51 -1303)"/><path class="cls-19" d="M5437.79,1677.47a4.82,4.82,0,1,0-.11,9.64A4.82,4.82,0,1,0,5437.79,1677.47Z" transform="translate(-3691.51 -1303)"/><path class="cls-16" d="M5438.62,1685.16a0.88,0.88,0,0,1-.88.88h0a0.88,0.88,0,0,1-.88-0.88v-5.74a0.88,0.88,0,0,1,.88-0.87h0a0.88,0.88,0,0,1,.88.88v5.74Z" transform="translate(-3691.51 -1303)"/><path class="cls-16" d="M5453,1685.16a0.88,0.88,0,0,1-.88.88h0a0.88,0.88,0,0,1-.88-0.88v-5.74a0.88,0.88,0,0,1,.88-0.87h0a0.88,0.88,0,0,1,.88.88v5.74Z" transform="translate(-3691.51 -1303)"/><path class="cls-13" d="M5411,1774.08c1.61,3.17,1.63,6.38,0,7.18l-1.55.79c-1.58.8-4.17-1.11-5.77-4.27l-9.84-19.34c-1.61-3.16-1.63-6.38,0-7.18l1.55-.79c1.58-.8,4.17,1.11,5.77,4.27Z" transform="translate(-3691.51 -1303)"/><path class="cls-13" d="M5401.13,1752.87c-1.43,3.25-3.9,5.3-5.53,4.59l-1.59-.7c-1.62-.72-1.78-3.93-0.36-7.18l15.08-34.3c1.43-3.25,3.9-5.3,5.52-4.59l1.59,0.7c1.62,0.71,1.78,3.93.36,7.17Z" transform="translate(-3691.51 -1303)"/><path class="cls-13" d="M5479,1774.08c-1.61,3.17-1.63,6.38,0,7.18l1.55,0.79c1.58,0.8,4.17-1.11,5.78-4.27l9.84-19.34c1.61-3.16,1.63-6.38,0-7.18l-1.55-.79c-1.58-.8-4.17,1.11-5.78,4.27Z" transform="translate(-3691.51 -1303)"/><path class="cls-13" d="M5488.89,1752.87c1.43,3.25,3.9,5.3,5.53,4.59l1.59-.7c1.62-.72,1.78-3.93.35-7.18l-15.08-34.3c-1.43-3.25-3.9-5.3-5.53-4.59l-1.59.7c-1.62.71-1.79,3.93-.35,7.17Z" transform="translate(-3691.51 -1303)"/><circle class="cls-20" cx="1719.55" cy="478.26" r="7.38"/><circle class="cls-20" cx="1786.27" cy="478.26" r="7.38"/><path class="cls-16" d="M5424.06,1904.53a8.6,8.6,0,0,1-8.6,8.59h23.81l0.34-15.71-15.92,4.69A8.59,8.59,0,0,1,5424.06,1904.53Z" transform="translate(-3691.51 -1303)"/><path class="cls-16" d="M5466.16,1904.53a8.62,8.62,0,0,1,.35-2.43l-15.92-4.69,0.35,15.71h23.81A8.59,8.59,0,0,1,5466.16,1904.53Z" transform="translate(-3691.51 -1303)"/><path class="cls-21" d="M5424.06,1904.53a8.59,8.59,0,0,0-.36-2.43l-8.24,2.43v8.59A8.6,8.6,0,0,0,5424.06,1904.53Z" transform="translate(-3691.51 -1303)"/><path class="cls-21" d="M5466.52,1902.1a8.59,8.59,0,0,0,8.24,11v-8.59Z" transform="translate(-3691.51 -1303)"/><path class="cls-22" d="M5441.46,1695.41s1.32,1.67,2.64,1.66h2.42a2.26,2.26,0,0,0,2.25-1.63" transform="translate(-3691.51 -1303)"/><path class="cls-23" d="M5565.08,2297.71s12.29,40.7-23.29,55.29c0,0,58.22-16.8,69.72-58.52C5611.51,2294.48,5599.69,2303.86,5565.08,2297.71Z" transform="translate(-3691.51 -1303)"/><path class="cls-6" d="M3843,2217l-2.16,1.19A1.91,1.91,0,0,0,3843,2217Z" transform="translate(-3691.51 -1303)"/><path class="cls-7" d="M3897.55,2155.65l-16.12,12.67a19.81,19.81,0,0,1-4.8,2.78l-28.36,21.11c8.25,6,17.6,9,26.35,8.8a30.45,30.45,0,0,0,14.73-4.12l7.72-5.75,1.06-.83,15.57-12.24c15.33-12.05,15.46-37.45.32-56.72l-6.27-8-6.76,4.8C3908.3,2132.45,3907.28,2148,3897.55,2155.65Z" transform="translate(-3691.51 -1303)"/><path class="cls-8" d="M3904.93,1854.12a135.1,135.1,0,0,1,16.86,35.81h0l0,0.15a169.32,169.32,0,0,1,3.61,37c-0.12,14.76-2.19,32.15-8.79,48.77l18.3,2.61V1815.66c-8.52,6.5-17.05,13-25.86,19.07C3900.73,1840.52,3898.73,1844.62,3904.93,1854.12Z" transform="translate(-3691.51 -1303)"/><path class="cls-9" d="M3874.1,2023.9l-1.8.86h0C3872.89,2024.47,3873.5,2024.18,3874.1,2023.9Z" transform="translate(-3691.51 -1303)"/><path class="cls-9" d="M3870.24,2025.86c0.71-.34,1.36-0.73,2.06-1.09C3871.59,2025.12,3870.9,2025.48,3870.24,2025.86Z" transform="translate(-3691.51 -1303)"/><path class="cls-9" d="M3921.78,1889.93l0,0.15,0-.15h0Z" transform="translate(-3691.51 -1303)"/><path class="cls-9" d="M3872.3,2024.76c-0.71.35-1.4,0.71-2.07,1.09,0.67-.38,1.35-0.74,2.06-1.09h0Z" transform="translate(-3691.51 -1303)"/><path class="cls-6" d="M3830.07,1972.07q18.15,24.15,36.16,48.41h0Q3848.15,1996.27,3830.07,1972.07Z" transform="translate(-3691.51 -1303)"/><path class="cls-6" d="M3886,2016.29h0l-0.34.42Z" transform="translate(-3691.51 -1303)"/><path class="cls-7" d="M3722.58,1941.47l0.05,0.07,4.07-3.2c9.65-7.59,24.82-5,36.93,5.25l6.55-5.29-6.24-7.94c-15.16-19.27-39.86-25.13-55.19-13.08l-17.25,13.55v33.75Z" transform="translate(-3691.51 -1303)"/><path class="cls-2" d="M3944.71,1755.7c10.55-6.87,13-19.78,6.26-33.14L3914.2,1750C3922.46,1759.86,3934.78,1762.16,3944.71,1755.7Z" transform="translate(-3691.51 -1303)"/><path class="cls-8" d="M3892.2,2011.24c-2,1.74-4,3.43-6.19,5l-0.35.43a13.25,13.25,0,0,1-1.17,1.21l-0.2.18c-0.4.36-.82,0.69-1.25,1l-0.29.21c-0.44.31-.89,0.61-1.36,0.9l-0.29.17q-0.7.41-1.42,0.8l-0.17.09c-0.5.26-1,.51-1.51,0.76l-0.38.18-1.47.69-2,.94h0c-0.61.29-1.22,0.57-1.81,0.87s-1.34.75-2.06,1.09c14.6,20,29.35,39.92,43.71,60.09,3.25,4.56,5.17,10.06,7.7,15.12,4.14,2.23,8.37,4.32,12.4,6.73l0.9,0.52v-83.55H3892.2v-13.52Z" transform="translate(-3691.51 -1303)"/><path class="cls-8" d="M3892.2,2011.24v13.52h42.75v-46.35l-18.3-2.61A92.36,92.36,0,0,1,3892.2,2011.24Z" transform="translate(-3691.51 -1303)"/><path class="cls-9" d="M3874.13,2023.88l2-.94,1.47-.69,0.38-.18c0.51-.25,1-0.5,1.51-0.76l0.17-.09q0.73-.39,1.42-0.8l0.29-.17c0.47-.29.92-0.59,1.36-0.9l0.29-.21c0.44-.32.86-0.66,1.25-1l0.2-.18a13.11,13.11,0,0,0,1.17-1.21l0.34-.42a96.71,96.71,0,0,1-13.69,8.46l1.8-.86h0Z" transform="translate(-3691.51 -1303)"/><path class="cls-9" d="M3885.66,2016.72a13.11,13.11,0,0,1-1.17,1.21A13.25,13.25,0,0,0,3885.66,2016.72Z" transform="translate(-3691.51 -1303)"/><path class="cls-9" d="M3866.23,2020.48l4,5.37-4-5.38h0Z" transform="translate(-3691.51 -1303)"/><path class="cls-9" d="M3892.2,2008.57c-2,2.6-4.08,5.19-6.19,7.73,2.18-1.62,4.23-3.31,6.19-5v-2.68Z" transform="translate(-3691.51 -1303)"/><path class="cls-9" d="M3916.65,1975.81l-0.12,0c-8.12,10.91-16,22.06-24.33,32.77v2.68A92.36,92.36,0,0,0,3916.65,1975.81Z" transform="translate(-3691.51 -1303)"/><path class="cls-10" d="M3837.34,2181.68a54.63,54.63,0,0,0,10.89,10.5l28.26-21c-11.71,4.66-28-1.39-39-15.35l-125.12-159.15c-12.63-16.07-13.43-36.5-1.8-45.64l12-9.46-0.05-.07-31.07,23.12v31.59Z" transform="translate(-3691.51 -1303)"/><path class="cls-10" d="M3848.24,2192.18l0,0,28.36-21.11-0.14.05Z" transform="translate(-3691.51 -1303)"/><path class="cls-11" d="M3712.39,1996.65l125.12,159.15c11,14,27.27,20,39,15.35l0.07-.05a19.81,19.81,0,0,0,4.8-2.78l16.12-12.67c9.72-7.64,10.75-23.18,3.45-37.45-6.93,4.9-13.85,9.82-20.48,15.11-6.29,5-10.06,5-15.19-1.87q-59.76-80.33-120.25-160.11c-5-6.59-4.7-10.36,2.14-15.17,5.65-4,11.09-8.24,16.48-12.57-12.1-10.26-27.28-12.84-36.93-5.25l-4.07,3.2-12,9.46C3699,1960.15,3699.76,1980.58,3712.39,1996.65Z" transform="translate(-3691.51 -1303)"/><path class="cls-11" d="M3897.49,2155.65l-16.12,12.67a19.81,19.81,0,0,1-4.8,2.78l-0.07.05,0.14-.05a19.81,19.81,0,0,0,4.8-2.78l16.12-12.67c9.73-7.65,10.75-23.2,3.43-37.48l-0.05,0C3908.23,2132.48,3907.21,2148,3897.49,2155.65Z" transform="translate(-3691.51 -1303)"/><path class="cls-12" d="M3911.11,2111l10.53-9.89c-2.53-5.06-4.45-10.56-7.7-15.12-14.36-20.18-29.1-40.08-43.71-60.09l-4-5.37h0q-18.07-24.21-36.16-48.41l-2.55-3.4q-7-9.28-14-18.52c-7.18-9.4-15.31-18.08-23-27.09l-13.44,9.77q-3.44,2.71-6.84,5.48l137.6,175Z" transform="translate(-3691.51 -1303)"/><path class="cls-12" d="M3770.63,1950.86L3895.75,2110a50.37,50.37,0,0,1,5.22,8.12l6.76-4.79,0,0,0,0-137.6-175-6.55,5.29A50.27,50.27,0,0,1,3770.63,1950.86Z" transform="translate(-3691.51 -1303)"/><path class="cls-12" d="M3901,2118.14l0,0,6.76-4.8,0,0Z" transform="translate(-3691.51 -1303)"/><path class="cls-12" d="M3866.22,2020.49l4,5.37-4-5.37h0Z" transform="translate(-3691.51 -1303)"/><path class="cls-12" d="M3745,1971.34q60.46,79.8,120.25,160.11c5.13,6.89,8.9,6.88,15.19,1.87,6.63-5.29,13.55-10.21,20.48-15.11l0,0,0,0a50.37,50.37,0,0,0-5.22-8.12l-125.12-159.15a50.27,50.27,0,0,0-7-7.27c-5.39,4.33-10.83,8.61-16.48,12.57C3740.31,1961,3740,1964.75,3745,1971.34Z" transform="translate(-3691.51 -1303)"/><path class="cls-12" d="M3900.93,2118.21l0.05,0,0,0,0,0Z" transform="translate(-3691.51 -1303)"/><path class="cls-13" d="M3848.24,2192.23l-156.73,116.63v35.3l197.9-147.27a30.46,30.46,0,0,1-14.8,4.12C3865.86,2201.25,3856.5,2198.19,3848.24,2192.23Zm-7.42,37L3843,2228A1.91,1.91,0,0,1,3840.82,2229.2Zm0-11L3843,2217A1.91,1.91,0,0,1,3840.82,2218.2Z" transform="translate(-3691.51 -1303)"/><path class="cls-13" d="M3848.24,2192.23c8.26,6,17.63,9,26.38,8.77-8.75.23-18.1-2.84-26.35-8.8Z" transform="translate(-3691.51 -1303)"/><path class="cls-13" d="M3843,2228l-2.16,1.19A1.91,1.91,0,0,0,3843,2228Z" transform="translate(-3691.51 -1303)"/><path class="cls-13" d="M3848.2,2192.21l0,0a54.63,54.63,0,0,1-10.89-10.5l-145.83-185.5v312.68l156.73-116.63Z" transform="translate(-3691.51 -1303)"/><path class="cls-13" d="M3848.2,2192.21l0,0,0,0,0,0Z" transform="translate(-3691.51 -1303)"/><path class="cls-9" d="M3827.52,1968.67l2.55,3.4q18.15,24.15,36.16,48.41l4,5.38c0.67-.38,1.36-0.74,2.07-1.09a96.71,96.71,0,0,0,13.69-8.46h0c2.1-2.54,4.16-5.12,6.19-7.73V1801.5h42.75v14.16c7.76-5.92,15.52-11.86,23.45-17.54,30.13-21.59,27.77-54.6,13.12-82.12-1.63-2.53-6.21-2.53-8.52-1.55-4.37,1.85-8.05,5.32-12,8.12,6.73,13.36,4.29,26.27-6.26,33.14-9.92,6.46-22.25,4.16-30.51-5.69l-14.45,9.86c-29,22.28-57.85,44.69-86.94,66.8-24.7,18.77-35.16,33.75-33.87,54.35l0,0c-1.77,16.27,11.56,42.06,11.56,42.06,7.7,9,15.83,17.68,23,27.09Q3820.53,1959.39,3827.52,1968.67Z" transform="translate(-3691.51 -1303)"/><path class="cls-9" d="M3892.2,1801.5v207.07c8.36-10.71,16.21-21.86,24.33-32.77l0.12,0c6.6-16.62,8.67-34,8.79-48.77a169.32,169.32,0,0,0-3.61-37l0-.15a135.1,135.1,0,0,0-16.86-35.81c-6.19-9.51-4.2-13.6,4.17-19.4,8.8-6.1,17.33-12.57,25.86-19.07V1801.5H3892.2Z" transform="translate(-3691.51 -1303)"/><g id="previous_page_arrow" data-name="previous page arrow"><path class="cls-21" d="M4620.31,1379.66a4,4,0,0,1-2.81-6.85l31.2-30.75a4,4,0,0,1,5.62,0l31.2,30.75a4,4,0,1,1-5.62,5.7l-28.39-28-28.39,28A4,4,0,0,1,4620.31,1379.66Z" transform="translate(-3691.51 -1303)"/></g></svg>
